<?xml version="1.0" standalone="no"?>
<!DOCTYPE svg PUBLIC "-//W3C//DTD SVG 20010904//EN"
 "http://www.w3.org/TR/2001/REC-SVG-20010904/DTD/svg10.dtd">
<svg version="1.0" xmlns="http://www.w3.org/2000/svg"
 width="529.000000pt" height="638.000000pt" viewBox="0 0 529.000000 638.000000"
 preserveAspectRatio="xMidYMid meet">

<g transform="translate(0.000000,638.000000) scale(0.100000,-0.100000)"
fill="#000000" stroke="none">
<path d="M3241 6270 c1 -61 5 -100 11 -100 6 0 8 17 6 41 -4 39 -2 43 28 55
18 8 35 18 39 24 8 12 -7 13 -20 1 -6 -5 -19 -11 -30 -15 -18 -5 -20 -2 -17
44 3 30 0 50 -7 50 -6 0 -10 -37 -10 -100z"/>
<path d="M3130 6172 c0 -5 22 -12 50 -14 58 -4 53 8 -7 18 -27 4 -43 3 -43 -4z"/>
<path d="M3320 6170 c0 -5 9 -10 20 -10 11 0 20 5 20 10 0 6 -9 10 -20 10 -11
0 -20 -4 -20 -10z"/>
<path d="M3258 6159 c-14 -8 -17 -26 -17 -119 0 -64 4 -110 9 -110 6 0 10 24
10 54 0 52 1 55 28 59 l27 4 -26 2 c-24 1 -27 5 -31 47 -3 47 3 58 37 67 l20
5 -20 1 c-11 0 -28 -4 -37 -10z"/>
<path d="M3093 6063 c9 -2 23 -2 30 0 6 3 -1 5 -18 5 -16 0 -22 -2 -12 -5z"/>
<path d="M3383 6063 c9 -2 23 -2 30 0 6 3 -1 5 -18 5 -16 0 -22 -2 -12 -5z"/>
<path d="M3160 6050 c14 -4 36 -8 50 -8 22 0 22 1 -5 8 -16 4 -39 8 -50 8 -16
0 -15 -2 5 -8z"/>
<path d="M3328 6053 c6 -2 18 -2 25 0 6 3 1 5 -13 5 -14 0 -19 -2 -12 -5z"/>
<path d="M3432 6018 c-6 -6 -20 -12 -31 -13 -10 0 -35 -16 -55 -33 -20 -18
-43 -32 -50 -32 -8 0 -19 -7 -26 -15 -7 -8 -22 -15 -34 -15 -11 0 -28 -5 -36
-10 -11 -7 -7 -8 15 -4 28 5 32 2 47 -33 22 -50 19 -87 -7 -91 -68 -11 -126
-24 -121 -29 3 -3 28 0 57 7 42 10 53 10 59 -1 5 -7 7 -16 4 -20 -2 -4 0 -10
6 -14 9 -6 11 -1 14 38 1 6 9 21 19 31 9 11 13 22 9 25 -15 11 -44 82 -38 96
3 8 20 21 38 29 18 7 42 22 53 33 11 11 25 18 30 16 6 -1 24 8 40 22 17 13 28
24 25 25 -4 0 -11 -5 -18 -12z"/>
<path d="M3520 5905 c-31 -17 -44 -19 -34 -3 4 7 3 8 -5 4 -6 -4 -9 -12 -6
-17 4 -5 1 -9 -6 -9 -7 0 -10 -3 -7 -6 6 -6 88 33 88 41 0 7 -2 6 -30 -10z"/>
<path d="M3075 5890 c-3 -5 -18 -10 -32 -10 -15 0 -24 -3 -21 -6 4 -3 27 -2
53 2 32 4 43 9 34 15 -18 11 -27 11 -34 -1z"/>
<path d="M3140 5890 c0 -5 6 -10 14 -10 8 0 18 5 21 10 3 6 -3 10 -14 10 -12
0 -21 -4 -21 -10z"/>
<path d="M3395 5834 c-38 -33 -38 -34 -8 -17 18 10 33 22 33 26 0 5 4 6 9 3 5
-3 11 1 15 9 9 23 -6 17 -49 -21z"/>
<path d="M3046 5835 c-3 -8 -1 -15 4 -15 6 0 10 7 10 15 0 8 -2 15 -4 15 -2 0
-6 -7 -10 -15z"/>
<path d="M2899 5780 c-5 -55 -4 -68 7 -58 3 3 4 30 2 59 l-3 54 -6 -55z"/>
<path d="M4460 5790 c0 -42 -9 -50 -30 -25 -7 8 -20 15 -29 14 -14 0 -14 -1
-1 -7 49 -22 60 -37 60 -79 0 -40 -2 -42 -32 -46 l-33 -4 33 -1 33 -2 -3 -52
c-3 -50 -4 -53 -30 -53 -14 1 -24 -3 -22 -7 3 -4 16 -8 29 -8 22 0 24 -5 28
-57 2 -32 4 38 4 155 1 116 -1 212 -3 212 -2 0 -4 -18 -4 -40z"/>
<path d="M2720 5800 c-6 -11 -8 -20 -6 -20 3 0 10 9 16 20 6 11 8 20 6 20 -3
0 -10 -9 -16 -20z"/>
<path d="M2837 5800 c-3 -11 -3 -20 -1 -20 2 0 8 9 14 20 6 11 7 20 2 20 -6 0
-12 -9 -15 -20z"/>
<path d="M2524 5801 c6 -9 66 -33 66 -26 0 4 -60 35 -67 35 -2 0 -2 -4 1 -9z"/>
<path d="M3321 5793 l-21 -18 20 -63 c25 -81 25 -85 -5 -80 -13 3 -22 1 -19
-3 3 -5 14 -9 25 -9 17 0 19 -7 19 -82 0 -76 -1 -80 -17 -66 -10 9 -40 27 -68
42 l-49 26 -55 -55 c-30 -30 -59 -55 -63 -55 -4 0 -8 -6 -8 -12 0 -7 -16 -28
-35 -47 -19 -19 -35 -39 -35 -45 0 -6 19 9 41 34 22 25 65 73 96 106 l55 61
52 -24 c84 -41 86 -44 86 -146 l0 -89 -27 5 -28 6 28 -12 c27 -11 27 -12 27
-105 l0 -94 -25 4 c-13 3 -22 1 -19 -3 3 -5 14 -9 25 -9 17 0 19 -8 19 -93 0
-87 17 -172 41 -203 5 -6 18 -37 29 -68 21 -63 24 -59 -50 -74 -25 -6 -36 -10
-25 -11 11 0 37 3 57 8 l37 9 19 -52 c11 -28 23 -61 27 -74 4 -13 9 -22 11
-19 3 3 -16 67 -41 135 -2 7 -5 16 -6 20 -5 20 -39 111 -52 137 -26 51 -30 75
-14 75 8 0 20 7 27 15 11 14 10 14 -14 5 -15 -5 -29 -10 -32 -10 -2 0 -4 181
-4 403 0 379 -1 405 -20 455 -21 55 -20 72 6 72 8 0 14 5 14 10 0 14 -5 13
-29 -7z"/>
<path d="M3035 5773 c8 -18 13 -34 10 -34 -3 -1 -9 -2 -14 -3 -22 -3 -22 -16
0 -16 19 0 21 -2 9 -10 -13 -8 -12 -10 3 -10 14 0 17 9 16 53 -1 28 -3 44 -6
34 -5 -18 -5 -18 -19 0 -12 14 -12 11 1 -14z"/>
<path d="M2609 5756 c8 -9 18 -16 24 -16 6 0 19 -7 29 -17 17 -16 17 -17 1
-37 -18 -21 -18 -21 3 -3 26 22 35 22 79 -4 40 -24 43 -15 -34 -106 -24 -29
-40 -53 -35 -52 5 0 31 29 58 64 l50 64 44 -24 c25 -14 50 -25 56 -25 6 1 -7
10 -29 22 -22 11 -62 35 -90 52 -27 18 -61 37 -75 44 -14 7 -41 22 -59 33 -24
14 -31 16 -22 5z"/>
<path d="M2696 5755 c-9 -26 -7 -32 5 -12 6 10 9 21 6 23 -2 3 -7 -2 -11 -11z"/>
<path d="M2823 5753 c-3 -10 -8 -22 -11 -27 -3 -5 0 -6 5 -3 11 7 25 47 17 47
-3 0 -7 -8 -11 -17z"/>
<path d="M2541 5730 c-31 -26 -17 -26 16 0 14 11 22 20 17 20 -5 -1 -20 -10
-33 -20z"/>
<path d="M3085 5740 c-19 -8 -19 -9 2 -9 12 -1 25 4 28 9 7 12 -2 12 -30 0z"/>
<path d="M2903 5660 c0 -30 2 -43 4 -27 2 15 2 39 0 55 -2 15 -4 2 -4 -28z"/>
<path d="M3237 5679 c4 -16 8 -17 14 -7 13 19 11 28 -5 28 -9 0 -12 -7 -9 -21z"/>
<path d="M3076 5682 c-6 -10 25 -22 58 -22 20 0 15 12 -7 16 -7 1 -19 5 -28 9
-10 3 -20 2 -23 -3z"/>
<path d="M3548 5679 c-27 -15 -21 -27 10 -21 15 3 21 7 14 10 -6 2 -10 8 -6
13 7 11 3 11 -18 -2z"/>
<path d="M3597 5683 c-14 -13 -6 -20 18 -15 14 2 22 8 19 13 -6 11 -28 12 -37
2z"/>
<path d="M3046 5665 c4 -8 8 -15 10 -15 2 0 4 7 4 15 0 8 -4 15 -10 15 -5 0
-7 -7 -4 -15z"/>
<path d="M3186 5671 c5 -11 3 -13 -9 -8 -10 3 -17 3 -17 -2 0 -5 16 -12 36
-15 25 -5 34 -11 30 -22 -8 -22 2 -17 15 7 8 15 8 19 0 15 -6 -4 -11 -2 -11 4
0 7 -6 10 -12 7 -7 -2 -19 3 -26 12 -9 10 -11 11 -6 2z"/>
<path d="M3504 5665 c-4 -8 -10 -13 -15 -10 -4 3 -23 -1 -41 -9 l-33 -15 30 5
c65 11 72 14 72 29 0 19 -6 19 -13 0z"/>
<path d="M2624 5638 l-19 -23 23 19 c21 18 27 26 19 26 -2 0 -12 -10 -23 -22z"/>
<path d="M4358 5653 c6 -2 18 -2 25 0 6 3 1 5 -13 5 -14 0 -19 -2 -12 -5z"/>
<path d="M4543 5653 c9 -2 23 -2 30 0 6 3 -1 5 -18 5 -16 0 -22 -2 -12 -5z"/>
<path d="M4488 5643 c6 -2 18 -2 25 0 6 3 1 5 -13 5 -14 0 -19 -2 -12 -5z"/>
<path d="M3385 5630 c-16 -7 -17 -9 -3 -9 9 -1 20 4 23 9 7 11 7 11 -20 0z"/>
<path d="M3049 5598 c6 -28 12 -33 46 -40 21 -5 43 -7 49 -5 6 3 -10 8 -36 12
-44 7 -48 9 -48 36 0 16 -4 29 -9 29 -5 0 -6 -14 -2 -32z"/>
<path d="M2897 5593 c-2 -5 -12 -33 -22 -63 -10 -30 -25 -61 -34 -70 -10 -8
-11 -11 -4 -6 17 11 16 6 -3 -39 -8 -20 -13 -39 -10 -42 2 -2 7 6 11 19 4 13
16 41 25 63 10 22 24 62 30 89 13 46 14 48 44 43 90 -16 99 -16 51 -2 -56 16
-82 19 -88 8z"/>
<path d="M3207 5571 c-4 -17 -3 -21 5 -13 5 5 8 16 6 23 -3 8 -7 3 -11 -10z"/>
<path d="M3030 5540 c-6 -11 -8 -20 -6 -20 3 0 10 9 16 20 6 11 8 20 6 20 -3
0 -10 -9 -16 -20z"/>
<path d="M4300 5550 c8 -5 22 -9 30 -9 10 0 8 3 -5 9 -27 12 -43 12 -25 0z"/>
<path d="M4570 5545 c-25 -7 -36 -13 -25 -13 11 0 38 5 60 13 52 17 24 17 -35
0z"/>
<path d="M3168 5543 c7 -3 16 -2 19 1 4 3 -2 6 -13 5 -11 0 -14 -3 -6 -6z"/>
<path d="M4358 5538 c5 -5 16 -8 23 -6 8 3 3 7 -10 11 -17 4 -21 3 -13 -5z"/>
<path d="M4495 5530 c-16 -7 -17 -9 -3 -9 9 -1 20 4 23 9 7 11 7 11 -20 0z"/>
<path d="M4568 5470 c-35 -37 -35 -38 -10 -28 15 6 36 20 47 31 11 11 14 16 6
12 -11 -6 -13 -4 -8 8 8 22 8 22 -35 -23z"/>
<path d="M4640 5500 c-8 -5 -10 -10 -5 -10 6 0 17 5 25 10 8 5 11 10 5 10 -5
0 -17 -5 -25 -10z"/>
<path d="M3007 5481 c-4 -17 -3 -21 5 -13 5 5 8 16 6 23 -3 8 -7 3 -11 -10z"/>
<path d="M4961 5483 c-1 -14 34 -108 49 -136 11 -19 6 -37 -11 -37 -6 0 -27
-11 -47 -25 -20 -14 -33 -25 -28 -25 4 0 20 8 34 19 55 38 63 36 117 -34 28
-35 54 -64 58 -65 5 0 -11 24 -35 53 -74 89 -73 86 -52 94 11 4 32 16 48 27
21 15 30 18 33 9 3 -7 9 -13 15 -13 7 0 6 5 -1 14 -13 16 -1 29 43 46 24 9 36
7 70 -10 40 -20 40 -20 16 -1 -14 11 -31 21 -37 21 -18 0 -16 20 1 20 8 0 24
9 37 20 14 11 -7 4 -46 -16 -38 -20 -74 -40 -79 -45 -15 -14 -24 -11 -31 12
-4 11 -9 18 -12 16 -2 -3 0 -14 6 -25 8 -16 5 -23 -20 -41 -50 -37 -68 -26
-100 59 -15 41 -28 70 -28 63z"/>
<path d="M5081 5485 c1 -19 18 -51 18 -35 0 8 -4 22 -9 30 -5 8 -9 11 -9 5z"/>
<path d="M2979 5433 c-8 -9 -9 -14 -2 -10 6 4 13 2 15 -5 3 -7 7 -2 10 10 7
26 -4 29 -23 5z"/>
<path d="M4486 5408 l-25 -23 22 -52 c30 -70 44 -82 18 -15 -26 66 -26 82 -1
89 11 3 20 9 20 14 0 14 -7 11 -34 -13z"/>
<path d="M4776 5420 c11 -21 124 -160 130 -160 3 0 -11 20 -30 44 -20 23 -36
48 -36 55 0 6 -4 11 -10 11 -5 0 -7 8 -4 18 4 13 3 14 -4 4 -7 -11 -14 -7 -31
15 -13 15 -19 21 -15 13z"/>
<path d="M2966 5385 c-9 -26 -7 -32 5 -12 6 10 9 21 6 23 -2 3 -7 -2 -11 -11z"/>
<path d="M4410 5390 l-35 -7 32 -2 c17 0 35 4 38 9 3 6 5 9 3 9 -2 -1 -19 -5
-38 -9z"/>
<path d="M4736 5391 c-4 -5 3 -7 14 -4 23 6 26 13 6 13 -8 0 -17 -4 -20 -9z"/>
<path d="M4312 5373 c-10 -10 -6 -11 20 -6 42 8 44 10 15 15 -13 2 -29 -1 -35
-9z"/>
<path d="M4702 5368 c-7 -7 -12 -8 -12 -3 0 4 -10 0 -22 -11 -17 -15 -20 -16
-16 -3 4 9 1 16 -7 16 -7 0 -11 -5 -9 -11 2 -6 -19 -27 -47 -46 -27 -18 -53
-38 -56 -44 -3 -5 15 5 40 22 25 18 50 32 56 32 6 0 11 5 11 11 0 12 96 -86
131 -133 18 -25 13 -42 -13 -43 -5 0 -8 -3 -8 -7 0 -5 0 -10 0 -12 0 -2 16 0
35 4 l35 8 -38 -47 c-41 -49 -56 -71 -48 -71 2 0 21 23 41 50 35 47 58 60 81
43 5 -5 1 0 -9 10 -11 9 -15 17 -11 17 5 0 15 14 23 30 7 17 23 38 36 46 21
14 27 13 66 -6 23 -12 64 -37 90 -56 51 -35 59 -39 59 -26 0 4 -14 13 -31 21
-24 10 -28 16 -18 23 11 8 11 9 -1 5 -8 -2 -42 11 -76 30 -33 18 -64 33 -69
33 -4 0 -27 -21 -51 -46 l-45 -46 -34 38 c-19 21 -35 43 -35 49 0 6 -7 20 -16
31 -8 10 -13 13 -9 7 3 -7 2 -13 -4 -13 -5 0 -13 15 -17 33 -5 24 -8 28 -13
15 -6 -16 -7 -16 -19 2 -11 18 -9 21 12 30 13 5 27 14 31 19 8 15 2 14 -13 -1z"/>
<path d="M4255 5360 c-16 -7 -17 -9 -3 -9 9 -1 20 4 23 9 7 11 7 11 -20 0z"/>
<path d="M2950 5320 c0 -11 2 -20 4 -20 2 0 6 9 9 20 3 11 1 20 -4 20 -5 0 -9
-9 -9 -20z"/>
<path d="M3086 5329 c3 -5 -1 -9 -8 -10 -7 -1 5 -5 26 -10 50 -12 53 -8 10 12
-18 9 -31 12 -28 8z"/>
<path d="M3600 5325 c-11 -13 -8 -15 16 -14 20 1 23 3 10 6 -15 4 -16 7 -5 14
8 5 9 9 3 9 -6 0 -17 -7 -24 -15z"/>
<path d="M5170 5315 c13 -14 26 -25 28 -25 3 0 -5 11 -18 25 -13 14 -26 25
-28 25 -3 0 5 -11 18 -25z"/>
<path d="M3546 5315 c-25 -19 -16 -28 15 -16 13 5 18 10 11 10 -7 1 -10 6 -7
11 8 13 4 12 -19 -5z"/>
<path d="M3185 5310 c6 -10 4 -12 -8 -7 -10 3 -17 2 -17 -3 0 -6 9 -10 19 -10
11 0 27 -3 37 -7 12 -4 15 -2 12 8 -3 8 -9 14 -14 14 -5 0 -15 4 -23 9 -10 7
-12 6 -6 -4z"/>
<path d="M3460 5293 l-25 -13 25 1 c23 0 71 16 60 19 -22 7 -39 5 -60 -7z"/>
<path d="M4618 5278 c7 -28 20 -31 20 -4 0 12 -6 23 -13 23 -7 0 -10 -8 -7
-19z"/>
<path d="M3240 5286 c0 -2 9 -6 20 -9 11 -3 18 -1 14 4 -5 9 -34 13 -34 5z"/>
<path d="M3375 5270 c-13 -6 -15 -9 -5 -9 8 0 22 4 30 9 18 12 2 12 -25 0z"/>
<path d="M4470 5250 c-11 -8 -8 -9 14 -4 19 5 31 2 38 -7 8 -12 9 -11 5 1 -4
18 -37 24 -57 10z"/>
<path d="M4336 5241 c-3 -5 -15 -7 -25 -4 -10 3 -22 0 -25 -6 -4 -6 -19 -11
-33 -11 -15 0 -24 -2 -21 -5 2 -3 33 -2 67 1 43 5 58 10 49 16 -9 6 -3 8 15 3
19 -4 26 -2 22 5 -8 12 -42 13 -49 1z"/>
<path d="M4420 5240 c-9 -6 -10 -10 -3 -10 6 0 15 5 18 10 8 12 4 12 -15 0z"/>
<path d="M4650 5239 c0 -5 -5 -7 -11 -4 -6 4 -5 -2 3 -14 12 -19 13 -19 20 -3
10 25 9 32 -2 32 -5 0 -10 -5 -10 -11z"/>
<path d="M4530 5218 c0 -4 5 -19 12 -35 6 -15 13 -35 15 -43 5 -22 3 -192 -3
-202 -3 -5 -24 -18 -46 -31 -59 -32 -78 -43 -85 -51 -12 -11 31 6 47 19 8 7
51 32 95 55 44 23 89 50 100 60 40 35 51 31 98 -28 47 -60 154 -176 143 -155
-3 6 -3 13 1 16 5 2 3 2 -4 1 -12 -3 -28 24 -24 40 1 5 -5 6 -14 3 -9 -4 -15
-1 -15 8 0 8 -5 15 -11 15 -5 0 -8 4 -5 9 3 4 -3 16 -14 26 -11 10 -20 15 -20
11 0 -4 -18 15 -40 43 -42 53 -54 56 -95 21 -20 -17 -79 -50 -90 -50 -3 0 -5
34 -5 75 0 63 3 76 19 85 32 17 89 13 95 -7 4 -14 4 -13 3 2 -2 18 -10 20 -60
19 -38 -1 -57 3 -57 11 0 12 -39 95 -40 83z m291 -305 c13 -16 12 -17 -3 -4
-17 13 -22 21 -14 21 2 0 10 -8 17 -17z"/>
<path d="M4668 5180 c-7 -24 -3 -38 8 -28 3 4 4 17 2 30 l-3 23 -7 -25z"/>
<path d="M4296 5161 c-18 -7 -18 -8 4 -14 27 -7 39 -1 24 12 -5 5 -18 5 -28 2z"/>
<path d="M4340 5154 c0 -8 9 -14 20 -14 11 0 20 4 20 9 0 5 -9 11 -20 14 -13
3 -20 0 -20 -9z"/>
<path d="M4405 5140 c-3 -6 -3 -9 2 -8 9 2 94 -10 128 -18 15 -4 17 -3 5 4 -8
5 -34 12 -57 16 -23 3 -48 9 -56 12 -8 3 -18 0 -22 -6z"/>
<path d="M4695 5140 c-8 -13 5 -13 25 0 13 8 13 10 -2 10 -9 0 -20 -4 -23 -10z"/>
<path d="M3076 5121 c-4 -5 18 -14 51 -21 32 -6 68 -14 81 -17 13 -3 22 0 22
7 0 6 -6 10 -12 7 -7 -2 -19 3 -26 12 -8 9 -11 10 -7 3 4 -8 -1 -11 -17 -8
-13 3 -23 5 -23 6 0 1 -7 3 -15 5 -8 2 -22 6 -31 10 -10 3 -20 2 -23 -4z"/>
<path d="M3546 5115 c-25 -19 -13 -31 16 -17 13 6 17 11 10 11 -7 1 -10 6 -7
11 8 13 4 12 -19 -5z"/>
<path d="M3597 5123 c-14 -13 -6 -20 18 -15 14 2 22 8 19 13 -6 11 -28 12 -37
2z"/>
<path d="M4320 5113 c0 -16 -2 -16 -11 -3 -9 12 -10 12 -5 -3 3 -10 6 -23 6
-28 0 -5 4 -9 8 -9 5 0 9 14 10 30 0 17 -1 30 -4 30 -2 0 -4 -8 -4 -17z"/>
<path d="M3504 5106 c-3 -8 -12 -12 -19 -10 -7 3 -16 1 -20 -5 -3 -6 -16 -11
-28 -12 -12 0 -17 -3 -10 -5 21 -9 90 15 90 31 0 19 -6 19 -13 1z"/>
<path d="M4880 5106 c0 -2 16 -14 36 -25 20 -12 34 -16 32 -10 -3 10 -68 43
-68 35z"/>
<path d="M3248 5078 c5 -5 16 -8 23 -6 8 3 3 7 -10 11 -17 4 -21 3 -13 -5z"/>
<path d="M3380 5070 c-23 -7 -23 -8 -3 -9 12 -1 25 4 28 9 3 6 5 10 3 9 -2 -1
-14 -5 -28 -9z"/>
<path d="M4700 5060 c6 -11 13 -20 16 -20 2 0 0 9 -6 20 -6 11 -13 20 -16 20
-2 0 0 -9 6 -20z"/>
<path d="M4333 5062 c-10 -7 -10 -12 0 -25 11 -16 12 -15 13 8 1 14 1 25 0 25
0 0 -7 -4 -13 -8z"/>
<path d="M5011 5027 c2 -2 18 -11 34 -21 l30 -17 -24 20 c-13 12 -28 21 -34
21 -6 0 -8 -1 -6 -3z"/>
<path d="M4137 5002 c1 -8 3 -18 3 -23 0 -5 4 -9 9 -9 5 0 9 12 9 26 0 16 -3
21 -8 14 -4 -7 -10 -8 -12 -4 -3 5 -3 3 -1 -4z"/>
<path d="M4360 5009 c0 -5 -4 -8 -9 -5 -5 4 -7 -3 -4 -14 7 -28 18 -25 21 5 1
14 0 25 -3 25 -3 0 -5 -5 -5 -11z"/>
<path d="M3570 4985 c-25 -26 -46 -34 -34 -12 4 6 -1 4 -11 -5 -11 -10 -16
-20 -13 -23 7 -8 72 21 87 39 21 25 -5 26 -29 1z m30 11 c0 -2 -8 -10 -17 -17
-16 -13 -17 -12 -4 4 13 16 21 21 21 13z"/>
<path d="M4158 4938 c2 -10 7 -18 11 -18 4 0 7 8 7 18 0 10 -5 19 -12 19 -6 0
-9 -9 -6 -19z"/>
<path d="M3451 4913 c-33 -34 -19 -32 28 5 13 11 20 22 15 25 -5 3 -25 -10
-43 -30z"/>
<path d="M4367 4929 c4 -13 8 -18 11 -10 2 7 -1 18 -6 23 -8 8 -9 4 -5 -13z"/>
<path d="M4171 4903 c0 -5 5 -17 10 -28 9 -19 9 -19 5 2 -2 12 1 24 8 27 6 2
3 5 -6 5 -10 1 -18 -2 -17 -6z"/>
<path d="M4380 4895 c0 -5 5 -17 10 -25 5 -8 10 -10 10 -5 0 6 -5 17 -10 25
-5 8 -10 11 -10 5z"/>
<path d="M3873 4853 c-10 -3 -10 -8 1 -19 18 -18 32 -18 17 -1 -6 8 -8 17 -4
20 7 8 4 8 -14 0z"/>
<path d="M3184 4832 c0 -17 5 -17 79 -3 91 18 91 25 -1 13 -34 -5 -65 -5 -70
0 -4 4 -8 0 -8 -10z"/>
<path d="M4190 4836 c0 -8 4 -17 9 -20 5 -4 7 3 4 14 -6 23 -13 26 -13 6z"/>
<path d="M4385 4840 c-6 -10 -46 -33 -114 -65 -18 -9 -31 -19 -28 -22 4 -3 21
4 39 15 18 12 47 28 64 36 17 7 35 19 38 25 4 6 11 11 16 11 5 0 48 -49 96
-110 48 -60 89 -110 91 -110 2 0 1 5 -2 10 -3 6 2 10 12 11 12 0 9 4 -9 11
-16 5 -28 16 -28 23 0 8 -9 19 -20 25 -11 6 -19 14 -18 18 2 8 -115 132 -125
132 -3 0 -9 -5 -12 -10z"/>
<path d="M3132 4824 c2 -15 7 -20 20 -16 10 2 18 9 18 14 0 5 -5 6 -11 2 -6
-3 -15 0 -20 7 -6 10 -8 8 -7 -7z"/>
<path d="M3073 4807 c0 -9 9 -12 24 -9 13 2 23 8 23 13 0 5 -10 9 -23 9 -13 0
-24 -6 -24 -13z"/>
<path d="M3906 4811 c-3 -5 1 -14 8 -20 12 -10 13 -8 9 8 -6 23 -9 25 -17 12z"/>
<path d="M4210 4780 c6 -11 13 -20 16 -20 2 0 0 9 -6 20 -6 11 -13 20 -16 20
-2 0 0 -9 6 -20z"/>
<path d="M3655 4770 c-11 -12 -13 -20 -6 -20 6 0 14 7 17 15 4 8 11 12 17 8 6
-3 7 -1 3 5 -9 16 -10 15 -31 -8z"/>
<path d="M3948 4768 c-3 -7 17 -40 43 -74 l48 -61 -51 -64 c-69 -87 -79 -101
-40 -60 18 20 47 55 64 78 l30 41 77 -45 c100 -59 135 -77 127 -65 -3 6 0 12
6 15 7 2 -5 8 -27 12 -22 4 -42 11 -45 14 -3 4 -30 20 -60 35 -30 15 -59 32
-64 36 -4 5 18 21 50 36 33 16 72 39 89 52 l29 24 23 -26 c13 -15 23 -23 23
-18 0 5 -11 18 -23 30 l-24 22 -27 -21 c-15 -12 -57 -36 -92 -54 l-64 -32 -37
51 c-21 28 -41 52 -45 54 -4 2 -4 10 -1 18 3 8 3 14 0 14 -3 0 -7 -6 -9 -12z"/>
<path d="M3598 4740 c-7 -11 -16 -20 -21 -20 -4 0 -5 5 -1 12 4 7 3 8 -5 4 -6
-4 -8 -12 -5 -18 5 -7 1 -9 -9 -5 -11 4 -20 -1 -27 -13 -6 -11 -15 -20 -21
-20 -6 0 -22 -9 -36 -20 -14 -11 -24 -20 -21 -20 14 0 172 97 176 108 6 20
-17 14 -30 -8z"/>
<path d="M3731 4675 c-1 -17 -3 -17 -11 -5 -5 8 -10 11 -10 7 0 -10 66 -88
136 -162 l48 -50 -39 50 c-22 28 -45 53 -51 58 -7 4 -15 21 -19 37 -4 16 -11
32 -16 35 -5 4 -6 -2 -2 -12 3 -11 2 -15 -3 -10 -5 5 -14 23 -21 40 -8 23 -12
26 -12 12z"/>
<path d="M4292 4675 c42 -64 121 -154 131 -148 6 4 2 13 -11 24 -12 9 -22 20
-22 25 0 4 -8 13 -17 20 -10 7 -18 17 -18 23 0 6 -4 12 -10 14 -5 1 -23 16
-38 32 -16 17 -23 21 -15 10z"/>
<path d="M3265 4618 c8 -20 45 -25 45 -7 0 6 -6 9 -14 6 -7 -3 -19 0 -25 6 -9
9 -11 8 -6 -5z"/>
<path d="M3211 4604 c13 -16 13 -17 -26 -5 -26 7 -31 6 -31 -9 0 -14 6 -15 41
-9 22 5 43 8 48 9 18 1 5 18 -18 22 -20 4 -23 3 -14 -8z"/>
<path d="M3646 4512 c23 -56 25 -81 6 -80 -9 0 -30 -5 -47 -10 -27 -9 -24 -10
24 -9 l55 2 20 -66 c17 -54 38 -88 114 -182 64 -79 99 -114 109 -110 11 4 7
10 -14 24 -15 11 -24 19 -19 19 5 0 1 9 -9 20 -10 11 -22 17 -26 14 -5 -3 -9
-1 -9 5 0 5 5 11 12 13 7 3 -1 10 -17 18 -44 19 -110 107 -128 169 -9 30 -14
58 -11 63 3 4 0 8 -5 8 -6 0 -11 5 -11 12 0 6 3 8 6 5 10 -9 46 12 39 23 -4 6
-14 5 -25 -2 -22 -14 -27 -11 -32 17 -1 11 -7 23 -12 26 -5 4 -8 18 -8 31 0
14 -6 25 -14 25 -10 0 -10 -7 2 -35z m235 -399 c13 -16 12 -17 -3 -4 -17 13
-22 21 -14 21 2 0 10 -8 17 -17z"/>
<path d="M4261 4513 c-1 -7 7 -17 17 -22 14 -8 19 -6 19 5 0 8 -6 13 -13 10
-7 -3 -15 0 -18 7 -3 9 -5 9 -5 0z"/>
<path d="M3234 4458 c-4 -7 -3 -8 4 -4 7 4 12 2 12 -4 0 -7 7 -10 15 -7 8 4
17 2 20 -3 4 -6 17 -10 31 -10 14 0 23 4 19 10 -3 5 -12 7 -20 3 -9 -3 -21 -1
-28 4 -22 17 -46 22 -53 11z"/>
<path d="M3490 4464 c0 -5 7 -18 15 -28 8 -11 15 -16 15 -10 0 5 -7 18 -15 28
-8 11 -15 16 -15 10z"/>
<path d="M3760 4460 c-8 -5 -11 -12 -8 -16 10 -9 38 3 38 16 0 12 -10 13 -30
0z"/>
<path d="M720 4410 l0 -41 -30 16 c-16 8 -33 15 -37 15 -4 -1 9 -10 30 -21 34
-18 37 -23 37 -65 l0 -46 -52 5 -53 6 53 -11 52 -11 0 -53 c0 -59 -1 -59 -62
-45 -21 5 -36 5 -33 1 3 -4 25 -11 49 -14 l45 -7 4 -57 c1 -31 4 39 5 156 1
116 -1 212 -3 212 -3 0 -5 -18 -5 -40z"/>
<path d="M3835 4383 c-33 -37 -66 -76 -74 -87 -15 -23 92 92 122 131 34 43 12
23 -48 -44z"/>
<path d="M3910 4446 c0 -3 9 -10 20 -16 11 -6 20 -8 20 -6 0 3 -9 10 -20 16
-11 6 -20 8 -20 6z"/>
<path d="M3360 4430 c-12 -8 -10 -10 8 -10 13 0 20 4 17 10 -7 12 -6 12 -25 0z"/>
<path d="M3408 4418 c5 -5 16 -8 23 -6 8 3 3 7 -10 11 -17 4 -21 3 -13 -5z"/>
<path d="M3977 4405 c30 -21 73 -36 73 -26 0 5 -13 12 -30 16 -16 4 -32 11
-35 16 -4 5 -11 9 -18 9 -6 0 -2 -7 10 -15z"/>
<path d="M3480 4404 l30 -5 0 -261 0 -260 -29 4 c-17 2 -28 1 -25 -4 3 -4 16
-8 30 -8 l24 0 0 -141 0 -141 -29 4 c-17 2 -28 1 -25 -4 3 -4 16 -8 30 -8 l24
0 0 -138 c0 -135 17 -243 41 -267 7 -7 7 -2 1 15 -5 14 -12 42 -16 62 -6 31
-4 37 14 43 12 4 19 9 17 12 -3 2 -15 0 -26 -7 l-21 -11 0 293 c0 161 -1 412
-3 558 l-2 265 -32 3 c-33 2 -33 2 -3 -4z"/>
<path d="M3538 4403 c6 -2 18 -2 25 0 6 3 1 5 -13 5 -14 0 -19 -2 -12 -5z"/>
<path d="M4060 4363 c0 -5 21 -20 46 -35 25 -16 43 -24 40 -19 -4 5 0 11 6 14
7 2 0 8 -17 12 -16 4 -40 14 -52 21 -13 8 -23 11 -23 7z"/>
<path d="M790 4274 l-55 -14 50 5 c27 3 54 10 59 15 6 6 8 9 6 9 -3 -1 -30 -8
-60 -15z"/>
<path d="M3681 4244 c-13 -9 -51 -31 -84 -48 -33 -18 -63 -38 -65 -46 -4 -11
-1 -11 11 2 9 9 38 26 64 39 54 26 120 69 107 69 -5 0 -20 -7 -33 -16z"/>
<path d="M570 4170 c8 -5 20 -10 25 -10 6 0 3 5 -5 10 -8 5 -19 10 -25 10 -5
0 -3 -5 5 -10z"/>
<path d="M850 4169 c-25 -5 -61 -13 -80 -18 l-35 -10 35 4 c100 14 121 18 126
26 3 5 4 8 2 8 -2 -1 -23 -5 -48 -10z"/>
<path d="M915 4120 c-16 -7 -17 -9 -3 -9 9 -1 20 4 23 9 7 11 7 11 -20 0z"/>
<path d="M833 4083 c-17 -18 -28 -33 -23 -33 4 0 13 7 20 15 7 8 18 15 26 15
16 0 25 13 16 25 -4 6 -21 -5 -39 -22z"/>
<path d="M752 4024 c-17 -12 -20 -19 -12 -33 5 -10 14 -37 19 -60 8 -36 6 -43
-9 -51 -10 -6 -30 -10 -44 -10 -14 0 -27 -4 -30 -8 -2 -4 11 -6 30 -4 32 4 40
-3 35 -30 -3 -18 17 -6 22 12 3 11 1 18 -4 14 -5 -3 -9 0 -9 5 0 6 6 11 14 11
21 0 27 26 12 57 -33 73 -34 77 -12 95 26 22 18 23 -12 2z"/>
<path d="M685 4010 c-3 -5 3 -10 14 -10 12 0 21 5 21 10 0 6 -6 10 -14 10 -8
0 -18 -4 -21 -10z"/>
<path d="M1005 4010 c-8 -13 5 -13 25 0 13 8 13 10 -2 10 -9 0 -20 -4 -23 -10z"/>
<path d="M572 3999 c9 -6 5 -9 -12 -9 -37 0 -47 -11 -39 -45 l7 -30 1 32 c1
31 1 31 66 38 78 9 85 20 14 21 -31 1 -45 -2 -37 -7z"/>
<path d="M879 3952 c-19 -20 -46 -45 -60 -54 -24 -17 -23 -17 7 -3 18 9 37 22
44 30 7 8 18 15 26 15 7 0 30 11 50 25 20 14 31 25 24 25 -8 0 -25 -10 -38
-22 l-25 -23 6 23 c3 12 4 22 4 21 -1 0 -18 -17 -38 -37z"/>
<path d="M3238 3928 c-4 -9 3 -14 21 -16 14 -1 45 -7 68 -13 23 -6 47 -9 55
-6 7 3 3 6 -9 6 -12 1 -34 6 -50 13 -15 6 -36 10 -47 9 -10 -2 -22 3 -26 9 -5
9 -9 8 -12 -2z"/>
<path d="M199 3890 c-17 -57 -31 -66 -71 -43 -18 10 -40 23 -48 30 -17 14 -70
35 -70 28 0 -3 17 -12 37 -20 l37 -16 -39 -24 c-47 -29 -41 -34 7 -6 33 20 33
20 78 -3 25 -12 66 -35 92 -51 l46 -29 -35 -45 -36 -46 41 45 40 45 29 -21
c26 -19 73 -37 73 -28 0 2 -24 15 -54 30 l-55 27 16 26 15 26 -19 -24 -20 -23
-41 27 c-23 15 -42 29 -42 30 0 1 6 15 14 31 18 37 29 74 22 74 -3 0 -11 -18
-17 -40z"/>
<path d="M392 3888 c-1 -27 -7 -48 -13 -48 -5 0 -7 -5 -3 -11 13 -22 25 9 21
57 l-3 49 -2 -47z"/>
<path d="M3726 3917 c3 -10 9 -15 12 -12 3 3 0 11 -7 18 -10 9 -11 8 -5 -6z"/>
<path d="M3760 3920 c-12 -8 -11 -10 8 -10 12 0 22 5 22 10 0 13 -11 13 -30 0z"/>
<path d="M316 3904 c-8 -21 -8 -24 3 -24 5 0 11 9 14 20 6 24 -8 27 -17 4z"/>
<path d="M3685 3912 c-3 -4 -30 -12 -58 -18 -29 -7 -41 -12 -27 -12 44 0 127
23 108 30 -9 4 -19 4 -23 0z"/>
<path d="M510 3886 c0 -8 5 -18 10 -21 6 -3 10 3 10 14 0 12 -4 21 -10 21 -5
0 -10 -6 -10 -14z"/>
<path d="M3408 3888 c5 -5 16 -8 23 -6 8 3 3 7 -10 11 -17 4 -21 3 -13 -5z"/>
<path d="M3545 3880 c-16 -7 -17 -9 -3 -9 9 -1 20 4 23 9 7 11 7 11 -20 0z"/>
<path d="M306 3855 c-9 -26 -7 -32 5 -12 6 10 9 21 6 23 -2 3 -7 -2 -11 -11z"/>
<path d="M630 3853 c-13 -15 -12 -16 4 -10 10 4 20 7 22 7 2 0 4 5 4 10 0 15
-13 12 -30 -7z"/>
<path d="M780 3862 c0 -4 4 -12 9 -17 21 -24 35 -88 40 -189 5 -95 9 -110 26
-120 11 -6 31 -17 45 -26 33 -20 80 -40 80 -35 0 3 -15 13 -33 22 -19 10 -50
27 -70 37 l-37 20 0 82 c0 81 0 82 28 90 l27 7 -29 6 c-26 5 -32 14 -50 69
-11 34 -23 62 -28 62 -4 0 -8 -4 -8 -8z"/>
<path d="M565 3849 c16 -7 14 -9 -13 -6 -18 2 -37 -2 -43 -10 -8 -9 -8 -13 0
-13 6 0 12 -17 12 -37 l2 -38 6 39 c5 35 10 41 39 48 35 9 35 28 -1 27 -21 0
-21 -1 -2 -10z"/>
<path d="M392 3790 c0 -14 2 -19 5 -12 2 6 2 18 0 25 -3 6 -5 1 -5 -13z"/>
<path d="M563 3796 c18 -14 18 -15 -5 -19 -17 -3 -15 -5 10 -6 36 -1 35 12 -1
29 -21 10 -21 10 -4 -4z"/>
<path d="M723 3785 c0 -14 3 -22 8 -19 5 3 9 11 9 19 0 8 -4 16 -9 19 -5 3 -8
-5 -8 -19z"/>
<path d="M1084 3789 c-12 -13 -27 -19 -41 -16 -13 2 -26 0 -29 -5 -4 -6 -9 -6
-13 1 -5 8 -13 7 -27 -3 -30 -22 -15 -24 70 -7 44 8 74 17 68 19 -6 2 -8 10
-5 18 7 20 -1 17 -23 -7z"/>
<path d="M125 3763 l-28 -38 36 34 c39 37 42 41 28 41 -5 0 -21 -17 -36 -37z"/>
<path d="M620 3780 c12 -8 12 -10 1 -10 -25 0 -6 -9 32 -15 35 -6 50 6 27 20
-5 3 -10 1 -10 -6 0 -7 -8 -6 -25 5 -13 9 -28 16 -32 16 -4 0 -1 -5 7 -10z"/>
<path d="M701 3757 c0 -7 4 -21 9 -32 8 -18 9 -19 9 -1 1 15 6 17 28 11 33 -8
29 -4 -14 18 -23 11 -33 12 -32 4z"/>
<path d="M393 3728 l2 -32 132 -26 c73 -14 135 -29 138 -32 3 -3 -18 -29 -46
-59 -29 -30 -53 -58 -53 -62 -1 -5 -12 -15 -26 -22 -14 -8 -19 -14 -11 -15 12
0 12 -3 -1 -17 -8 -10 -18 -25 -22 -33 -9 -19 10 4 98 114 38 47 74 86 80 86
14 0 80 -33 104 -52 15 -12 16 -11 3 4 -7 10 -36 29 -65 42 -47 22 -79 32
-168 50 -20 5 -28 13 -31 34 l-4 27 -2 -29 c-1 -19 -5 -27 -15 -23 -7 3 -34 8
-59 12 -40 6 -47 11 -51 36 -6 27 -6 27 -3 -3z"/>
<path d="M918 3743 c6 -2 18 -2 25 0 6 3 1 5 -13 5 -14 0 -19 -2 -12 -5z"/>
<path d="M790 3730 c19 -13 30 -13 30 0 0 6 -10 10 -22 10 -19 0 -20 -2 -8
-10z"/>
<path d="M1071 3718 c-1 -33 4 -35 20 -7 6 13 7 19 1 15 -6 -3 -13 0 -15 6 -3
7 -6 1 -6 -14z"/>
<path d="M373 3673 c-3 -10 -8 -22 -11 -27 -3 -5 0 -6 5 -3 11 7 25 47 17 47
-3 0 -7 -8 -11 -17z"/>
<path d="M690 3675 c0 -8 2 -15 4 -15 2 0 6 7 10 15 3 8 1 15 -4 15 -6 0 -10
-7 -10 -15z"/>
<path d="M1051 3668 c-1 -16 3 -28 8 -28 11 0 24 31 16 38 -3 3 -5 -1 -6 -9 0
-8 -4 -6 -9 6 -8 18 -9 17 -9 -7z"/>
<path d="M179 3643 c-13 -16 -12 -17 4 -4 9 7 17 15 17 17 0 8 -8 3 -21 -13z"/>
<path d="M517 3653 c-4 -3 -7 -13 -7 -21 0 -18 13 -7 16 13 2 17 1 18 -9 8z"/>
<path d="M3236 3643 c-9 -9 -7 -25 2 -19 4 2 37 -2 72 -9 79 -17 80 -17 80 -5
0 5 -7 7 -15 4 -8 -4 -15 -2 -15 3 0 5 -10 9 -22 8 -13 -1 -39 4 -60 11 -20 7
-39 10 -42 7z"/>
<path d="M1250 3615 c0 -15 4 -24 10 -20 6 3 10 12 10 20 0 8 -4 17 -10 20 -6
4 -10 -5 -10 -20z"/>
<path d="M3755 3630 c-8 -13 5 -13 25 0 13 8 13 10 -2 10 -9 0 -20 -4 -23 -10z"/>
<path d="M350 3610 c-6 -11 -8 -20 -6 -20 3 0 10 9 16 20 6 11 8 20 6 20 -3 0
-10 -9 -16 -20z"/>
<path d="M1031 3608 c-1 -32 14 -37 22 -8 3 11 1 18 -3 15 -5 -3 -11 1 -13 7
-3 7 -6 1 -6 -14z"/>
<path d="M3660 3617 c0 -4 -3 -6 -7 -4 -5 2 -24 -2 -43 -9 -27 -11 -29 -13 -7
-9 15 3 47 8 72 12 25 3 43 9 39 12 -9 9 -54 8 -54 -2z"/>
<path d="M3410 3600 c8 -5 20 -10 25 -10 6 0 3 5 -5 10 -8 5 -19 10 -25 10 -5
0 -3 -5 5 -10z"/>
<path d="M493 3583 c-3 -10 -15 -28 -26 -40 -13 -15 -16 -23 -8 -23 11 0 11
-3 1 -15 -7 -8 -9 -15 -4 -15 4 0 0 -6 -10 -13 -16 -12 -16 -14 -2 -14 9 0 16
2 16 3 0 2 11 33 25 69 13 36 22 65 19 65 -2 0 -7 -8 -11 -17z"/>
<path d="M3545 3590 c-16 -7 -17 -9 -3 -9 9 -1 20 4 23 9 7 11 7 11 -20 0z"/>
<path d="M1233 3568 c2 -34 3 -34 18 -7 6 13 7 19 1 15 -6 -3 -13 0 -15 6 -3
7 -5 1 -4 -14z"/>
<path d="M319 3563 c-8 -9 -9 -14 -2 -10 6 4 13 2 15 -5 3 -7 7 -2 10 10 7 26
-4 29 -23 5z"/>
<path d="M1026 3555 c-9 -26 -7 -32 5 -12 6 10 9 21 6 23 -2 3 -7 -2 -11 -11z"/>
<path d="M1344 3538 c-5 -7 -3 -8 6 -3 9 6 10 2 5 -15 -5 -15 -4 -20 4 -16 13
9 15 46 2 46 -6 0 -13 -5 -17 -12z"/>
<path d="M1203 3508 c-1 -32 12 -37 20 -8 3 11 1 18 -3 15 -5 -3 -10 1 -13 7
-2 7 -4 1 -4 -14z"/>
<path d="M310 3500 c0 -11 2 -20 4 -20 2 0 6 9 9 20 3 11 1 20 -4 20 -5 0 -9
-9 -9 -20z"/>
<path d="M1003 3503 c-3 -10 -8 -22 -11 -27 -3 -5 0 -6 5 -3 11 7 25 47 17 47
-3 0 -7 -8 -11 -17z"/>
<path d="M1568 3460 c2 -30 5 -67 6 -82 0 -16 4 -28 8 -28 4 0 7 37 7 83 -1
48 -4 74 -9 62 l-7 -20 -5 20 c-3 11 -3 -5 0 -35z"/>
<path d="M1345 3450 c1 -25 3 -62 4 -82 0 -21 5 -38 11 -38 5 0 8 22 7 49 -1
27 -5 44 -9 38 -5 -8 -8 -6 -8 5 0 9 5 20 10 23 6 3 10 16 10 28 0 16 -3 18
-9 8 -7 -11 -9 -11 -14 0 -2 8 -3 -6 -2 -31z"/>
<path d="M1196 3455 c-9 -26 -7 -32 5 -12 6 10 9 21 6 23 -2 3 -7 -2 -11 -11z"/>
<path d="M974 3438 c-19 -23 -19 -23 2 -5 27 22 26 23 90 -18 30 -19 58 -35
62 -35 4 0 13 -5 19 -11 15 -15 -25 -70 -74 -104 -25 -16 -30 -24 -19 -28 9
-4 31 15 62 54 26 32 51 59 56 59 14 0 70 -30 93 -49 11 -10 34 -23 50 -29 28
-11 28 -11 11 3 -11 8 -24 15 -30 15 -5 0 -19 9 -30 19 -12 10 -55 37 -96 58
-42 22 -94 52 -115 66 -48 33 -57 33 -81 5z"/>
<path d="M480 3439 c0 -5 5 -7 10 -4 6 3 10 8 10 11 0 2 -4 4 -10 4 -5 0 -10
-5 -10 -11z"/>
<path d="M1903 3428 c-1 -32 12 -37 20 -8 3 11 1 18 -3 15 -5 -3 -10 1 -13 7
-2 7 -4 1 -4 -14z"/>
<path d="M430 3420 c-6 -11 -8 -20 -6 -20 3 0 10 9 16 20 6 11 8 20 6 20 -3 0
-10 -9 -16 -20z"/>
<path d="M3750 3430 c12 -8 13 -10 1 -10 -8 0 -23 -8 -34 -17 -20 -17 -20 -17
-14 2 6 16 3 15 -12 -5 -11 -14 -24 -25 -29 -25 -4 0 -26 -15 -48 -32 l-39
-33 45 25 c25 13 60 32 78 41 17 9 32 20 32 24 0 4 9 10 21 13 21 6 18 27 -4
27 -7 0 -6 -4 3 -10z"/>
<path d="M1176 3404 c-8 -20 -8 -24 2 -24 4 0 8 9 9 20 2 24 -3 26 -11 4z"/>
<path d="M922 3379 c-17 -16 -37 -27 -43 -24 -6 4 -9 1 -8 -6 4 -25 -12 -48
-29 -42 -13 4 -14 3 -3 -5 9 -7 10 -12 2 -16 -6 -4 -16 -17 -22 -29 -6 -12 2
-6 17 13 16 19 40 46 54 60 70 70 94 107 32 49z"/>
<path d="M1883 3378 c1 -16 4 -28 8 -28 9 0 21 31 14 38 -3 3 -5 -1 -6 -9 0
-8 -4 -6 -9 6 -8 17 -8 16 -7 -7z"/>
<path d="M1863 3315 c0 -14 3 -22 8 -19 5 3 9 11 9 19 0 8 -4 16 -9 19 -5 3
-8 -5 -8 -19z"/>
<path d="M1583 3280 c0 -30 2 -43 4 -27 2 15 2 39 0 55 -2 15 -4 2 -4 -28z"/>
<path d="M1350 3291 c0 -34 26 -48 101 -55 39 -3 73 -5 75 -3 2 2 -32 10 -76
17 -73 12 -80 16 -80 37 0 13 -4 23 -10 23 -5 0 -10 -9 -10 -19z"/>
<path d="M1853 3265 c-3 -9 -3 -18 -1 -21 3 -3 8 4 11 16 6 23 -1 27 -10 5z"/>
<path d="M3440 3268 c-30 -5 -62 -7 -71 -5 -9 3 -16 -2 -16 -10 0 -10 7 -13
21 -8 12 3 43 8 69 12 26 3 50 10 53 14 3 5 4 8 2 8 -2 -1 -28 -5 -58 -11z"/>
<path d="M3239 3252 c11 -8 11 -10 0 -15 -8 -3 -2 -6 14 -6 15 -1 27 4 27 9 0
6 -4 10 -9 10 -5 0 -18 3 -28 6 -13 4 -15 3 -4 -4z"/>
<path d="M3305 3250 c-19 -8 -19 -9 3 -9 12 -1 22 4 22 9 0 6 -1 10 -2 9 -2 0
-12 -4 -23 -9z"/>
<path d="M1343 3225 c-3 -9 -3 -18 -1 -21 3 -3 8 4 11 16 6 23 -1 27 -10 5z"/>
<path d="M1021 3209 c-13 -10 -18 -19 -12 -19 8 0 8 -4 -1 -14 -7 -7 -19 -11
-25 -9 -7 3 -13 0 -13 -7 0 -6 4 -9 9 -6 5 4 11 2 13 -3 1 -6 18 7 36 29 35
42 31 60 -7 29z m29 7 c0 -2 -8 -10 -17 -17 -16 -13 -17 -12 -4 4 13 16 21 21
21 13z"/>
<path d="M1548 3223 c7 -3 16 -2 19 1 4 3 -2 6 -13 5 -11 0 -14 -3 -6 -6z"/>
<path d="M1577 3213 c-2 -5 -12 -32 -22 -61 -9 -29 -24 -59 -32 -68 -8 -8 -13
-18 -9 -21 13 -13 34 21 51 82 14 55 21 65 39 65 24 -1 195 -36 201 -41 2 -2
-18 -30 -43 -61 -31 -38 -49 -53 -54 -45 -4 7 -8 8 -8 2 0 -5 -11 7 -26 28
-14 21 -29 35 -35 32 -5 -4 -7 -11 -3 -16 3 -5 9 -7 14 -4 7 4 21 -19 21 -35
0 -3 9 -10 20 -16 20 -10 20 -11 -5 -28 -15 -9 -24 -21 -21 -25 6 -11 -20 -33
-29 -24 -4 4 -4 0 -1 -9 6 -15 13 -11 44 20 20 20 37 39 36 42 0 3 22 33 49
67 43 55 52 62 75 57 14 -4 33 -13 42 -20 8 -8 20 -14 26 -14 6 0 16 -7 23
-15 12 -15 51 -35 95 -50 19 -6 19 -7 -5 -25 -14 -11 -50 -31 -80 -47 -30 -15
-67 -36 -82 -47 l-28 -20 -27 25 -28 24 23 -26 c21 -24 22 -27 6 -40 -10 -8
-54 -60 -100 -116 -45 -57 -106 -129 -136 -162 -46 -51 -56 -57 -76 -50 -15 6
-21 5 -17 -1 3 -6 13 -10 22 -10 14 0 14 -2 -2 -20 -10 -11 -27 -22 -39 -26
-11 -4 -44 -22 -73 -40 -29 -18 -76 -46 -104 -61 -104 -56 -117 -64 -89 -57
14 3 32 12 40 19 14 11 97 55 104 55 7 0 26 -90 27 -127 0 -21 3 -32 6 -25 10
24 23 11 23 -24 0 -21 4 -33 10 -29 6 4 10 -9 10 -32 0 -28 3 -34 10 -23 8 12
10 12 10 1 0 -8 2 -12 5 -10 4 5 -25 91 -45 134 -5 11 -18 48 -29 82 l-19 63
49 30 c27 16 53 30 58 30 5 0 23 11 39 24 l29 25 39 -52 c21 -29 42 -60 46
-70 4 -10 12 -15 18 -12 5 3 11 1 11 -4 1 -6 3 -15 4 -21 1 -5 3 -16 4 -22 1
-10 3 -10 10 0 6 10 11 6 19 -17 6 -17 13 -31 16 -31 3 0 2 8 -1 18 -6 15 -5
16 12 2 10 -8 -8 18 -40 58 -31 39 -61 72 -65 72 -3 0 -21 20 -38 43 l-31 44
72 82 72 82 37 -43 c21 -24 38 -39 38 -33 0 5 -16 26 -35 45 l-36 37 66 82
c66 81 102 110 201 161 28 15 65 36 81 48 l29 21 45 -25 c24 -13 35 -17 24 -9
-39 31 -91 61 -125 75 -19 7 -43 20 -53 28 -50 43 -115 70 -224 92 -103 22
-130 24 -136 13z"/>
<path d="M1830 3205 c0 -8 2 -15 4 -15 2 0 6 7 10 15 3 8 1 15 -4 15 -6 0 -10
-7 -10 -15z"/>
<path d="M1318 3157 c-9 -18 -19 -39 -22 -47 -3 -8 -14 -26 -23 -40 -10 -13
-12 -21 -5 -16 6 4 12 3 12 -3 0 -5 -4 -12 -9 -16 -6 -3 -9 -14 -8 -25 2 -29
14 -15 23 27 4 21 8 40 9 43 0 3 11 27 23 54 25 55 25 73 0 23z"/>
<path d="M2372 3160 c-7 -11 -12 -29 -12 -40 0 -11 -4 -20 -10 -20 -5 0 -10
-7 -10 -15 0 -8 -5 -15 -11 -15 -5 0 -8 -4 -5 -8 3 -5 -5 -40 -18 -80 -21 -67
-23 -70 -43 -59 -65 37 -123 66 -119 58 3 -5 25 -18 48 -30 96 -49 93 -40 34
-104 -29 -31 -51 -59 -48 -62 3 -2 -7 -9 -21 -14 -14 -5 -28 -15 -33 -22 -4
-8 -3 -10 4 -5 7 4 12 2 12 -4 0 -6 -11 -16 -25 -22 -25 -11 -30 -19 -19 -31
4 -3 27 20 52 51 25 31 65 80 89 109 l44 52 42 -21 c23 -12 55 -30 71 -41 16
-11 52 -32 81 -47 l53 -27 -35 -44 c-19 -24 -43 -47 -53 -51 -10 -4 -21 -12
-26 -19 -4 -8 -3 -10 4 -5 7 4 12 2 12 -4 0 -6 -13 -16 -30 -21 -29 -11 -41
-29 -18 -29 11 0 2 -14 -10 -16 -4 0 -15 -4 -24 -8 -13 -6 -14 -11 -5 -20 9
-10 30 11 101 99 l90 113 35 -24 c20 -13 61 -36 91 -52 127 -67 140 -76 130
-86 -5 -5 -10 -17 -9 -25 0 -9 4 -6 10 8 9 22 13 23 57 16 26 -3 79 -11 117
-16 39 -5 86 -11 105 -14 l35 -4 -35 9 c-61 17 -193 40 -232 40 -36 0 -38 2
-39 33 -2 29 -2 30 -6 5 l-4 -27 -37 21 c-20 12 -59 33 -87 48 -102 54 -124
71 -118 88 3 12 2 13 -4 4 -10 -14 -82 19 -163 74 -25 17 -55 34 -67 38 -18 6
-21 11 -13 25 5 10 11 30 14 45 7 39 28 100 36 106 8 6 41 102 37 106 -1 2 -8
-6 -15 -16z"/>
<path d="M3566 3140 c4 -14 13 -38 20 -55 11 -24 13 -25 8 -5 -4 14 -13 39
-20 55 -11 24 -13 25 -8 5z"/>
<path d="M3855 3120 c-12 -4 -27 -16 -35 -26 -14 -18 -14 -18 6 -1 11 9 26 17
32 17 6 0 14 5 17 10 7 11 7 12 -20 0z"/>
<path d="M3755 3080 c-3 -5 -3 -10 1 -10 4 0 -1 -7 -12 -16 -18 -15 -18 -15 0
-6 11 5 21 17 22 26 3 18 -2 21 -11 6z"/>
<path d="M3780 3080 c0 -5 5 -10 10 -10 6 0 10 5 10 10 0 6 -4 10 -10 10 -5 0
-10 -4 -10 -10z"/>
<path d="M1495 3029 c-19 -22 -19 -23 -1 -9 18 14 19 13 12 -5 -5 -15 -4 -17
4 -9 7 7 10 20 8 29 -3 15 -6 14 -23 -6z"/>
<path d="M3605 3030 c9 -30 13 -35 21 -27 3 3 -2 16 -11 29 l-17 23 7 -25z"/>
<path d="M2613 3012 c0 -13 -4 -27 -9 -31 -5 -3 -9 -12 -10 -18 -3 -40 -5 -44
-16 -37 -6 4 -8 3 -5 -3 4 -6 0 -35 -7 -64 -8 -30 -13 -55 -11 -57 3 -3 24 55
29 81 2 7 6 19 9 27 30 73 43 127 32 127 -7 0 -12 -11 -12 -25z"/>
<path d="M3699 3023 c-13 -16 -12 -17 4 -4 16 13 21 21 13 21 -2 0 -10 -8 -17
-17z"/>
<path d="M1730 3023 c0 -5 12 -20 28 -34 l27 -24 -25 30 c-14 17 -26 32 -27
34 -2 2 -3 0 -3 -6z"/>
<path d="M3648 2999 c-26 -20 -27 -20 -11 -65 8 -25 17 -43 19 -41 2 2 -2 21
-10 43 -13 38 -13 40 13 61 32 28 25 29 -11 2z"/>
<path d="M1481 2976 c-8 -9 -8 -16 -2 -20 6 -4 15 3 21 14 12 23 -2 27 -19 6z"/>
<path d="M3507 2970 c-59 -11 -52 -17 16 -12 68 5 117 22 57 21 -19 -1 -52 -5
-73 -9z"/>
<path d="M3349 2952 c11 -8 11 -10 0 -15 -8 -3 -5 -6 8 -6 12 -1 25 4 28 9 3
6 2 10 -4 10 -5 0 -18 3 -28 6 -13 4 -15 3 -4 -4z"/>
<path d="M3415 2950 c-19 -8 -19 -9 3 -9 12 -1 22 4 22 9 0 6 -1 10 -2 9 -2 0
-12 -4 -23 -9z"/>
<path d="M2787 2903 c-3 -5 -1 -17 4 -28 7 -17 8 -17 8 8 1 27 -4 34 -12 20z"/>
<path d="M1830 2887 c0 -9 4 -18 9 -21 5 -4 8 1 7 9 -3 21 -16 31 -16 12z"/>
<path d="M1414 2872 c3 -6 0 -13 -6 -15 -8 -4 -7 -6 4 -6 9 -1 24 -4 34 -8 24
-9 10 13 -18 28 -12 7 -18 7 -14 1z"/>
<path d="M3694 2785 l36 -99 0 -546 c1 -1023 2 -938 -17 -943 -11 -2 -9 -3 4
-2 18 2 25 -8 43 -57 12 -33 23 -58 26 -56 2 2 -6 29 -17 58 l-21 55 27 21
c15 12 46 31 69 43 43 23 58 32 114 67 24 16 29 23 18 27 -9 4 -23 -5 -36 -21
-17 -21 -20 -23 -16 -7 5 16 1 14 -17 -7 -22 -27 -45 -39 -31 -16 4 7 3 8 -5
4 -6 -4 -10 -10 -8 -14 2 -4 -25 -26 -60 -49 l-63 -41 0 193 0 193 50 7 c27 4
52 10 55 15 3 4 -12 4 -33 -1 -77 -18 -72 -30 -72 171 l0 179 38 6 c20 4 46
11 57 16 l20 9 -20 -4 c-11 -2 -37 -7 -57 -11 l-38 -6 0 345 c0 331 1 346 19
356 11 5 36 10 55 10 20 0 36 4 36 9 0 4 -23 4 -52 0 -34 -6 -54 -5 -59 2 -3
6 -19 47 -34 92 -15 45 -32 87 -37 92 -5 6 7 -35 26 -90z"/>
<path d="M1847 2830 c3 -11 9 -22 13 -25 5 -3 6 4 3 15 -3 11 -9 22 -13 25 -5
3 -6 -4 -3 -15z"/>
<path d="M3108 2830 c-7 -24 -3 -38 8 -28 3 4 4 17 2 30 l-3 23 -7 -25z"/>
<path d="M1464 2828 c-4 -7 -3 -8 4 -4 7 4 12 2 12 -3 0 -6 9 -11 19 -11 11 0
27 -7 35 -16 9 -8 16 -11 16 -6 0 22 -76 57 -86 40z"/>
<path d="M2785 2793 c7 -64 15 -67 15 -5 0 29 -4 52 -10 52 -5 0 -7 -20 -5
-47z"/>
<path d="M1575 2780 c8 -12 75 -50 75 -42 0 4 -18 17 -40 29 -22 12 -38 18
-35 13z"/>
<path d="M1861 2763 c0 -16 3 -22 6 -15 2 6 8 10 13 7 4 -3 6 4 3 15 -8 29
-23 24 -22 -7z"/>
<path d="M3110 2779 c0 -5 -4 -8 -10 -4 -5 3 -5 -7 1 -25 6 -17 8 -37 5 -45
-3 -8 -1 -15 4 -15 6 0 10 23 10 50 0 28 -2 50 -5 50 -3 0 -5 -5 -5 -11z"/>
<path d="M3510 2735 c0 -28 4 -35 20 -35 11 0 20 5 20 11 0 6 -6 9 -12 6 -8
-3 -13 4 -13 18 0 13 3 21 8 18 4 -2 7 1 7 6 0 6 -7 11 -15 11 -10 0 -15 -11
-15 -35z"/>
<path d="M1881 2713 c0 -25 1 -26 9 -8 5 12 9 14 9 6 1 -8 3 -12 6 -9 8 7 -5
38 -16 38 -5 0 -9 -12 -8 -27z"/>
<path d="M2792 2710 c0 -14 2 -19 5 -12 2 6 2 18 0 25 -3 6 -5 1 -5 -13z"/>
<path d="M3465 2720 c-19 -8 -19 -9 3 -9 19 -1 22 -6 21 -38 0 -31 -2 -34 -9
-18 -7 17 -9 16 -9 -10 -1 -16 -10 -54 -21 -84 -20 -50 -20 -55 -4 -72 9 -11
21 -19 26 -19 5 0 28 -13 51 -28 23 -16 57 -36 75 -45 77 -40 92 -49 97 -58 4
-5 11 -9 17 -9 6 0 0 8 -13 18 -25 17 -38 25 -118 70 -25 13 -58 33 -73 43
-14 11 -30 19 -36 19 -5 0 -15 6 -21 14 -12 14 10 87 45 154 17 33 17 44 2 64
-9 11 -19 13 -33 8z"/>
<path d="M3970 2719 c0 -6 -11 -9 -25 -7 -13 2 -24 0 -25 -4 0 -11 -1 -11 55
-2 39 5 45 9 30 15 -28 11 -35 11 -35 -2z"/>
<path d="M3575 2709 c3 -4 -1 -9 -7 -12 -7 -2 12 -7 42 -11 30 -4 69 -9 85
-11 32 -5 36 -6 -82 29 -23 7 -40 10 -38 5z"/>
<path d="M3874 2705 c-19 -14 -18 -14 4 -15 13 0 22 6 22 15 0 19 -1 19 -26 0z"/>
<path d="M1274 2692 c3 -6 0 -13 -6 -15 -7 -3 1 -6 19 -6 17 -1 39 -8 47 -17
9 -8 16 -11 16 -5 0 6 -18 20 -41 32 -23 11 -38 16 -35 11z"/>
<path d="M1900 2655 c0 -14 2 -25 4 -25 2 0 6 11 8 25 3 14 1 25 -3 25 -5 0
-9 -11 -9 -25z"/>
<path d="M1150 2664 c0 -15 37 -61 43 -54 3 3 -6 19 -19 35 -13 17 -24 25 -24
19z"/>
<path d="M3112 2650 c0 -14 2 -19 5 -12 2 6 2 18 0 25 -3 6 -5 1 -5 -13z"/>
<path d="M1375 2630 c3 -5 0 -10 -7 -11 -7 0 5 -7 26 -15 57 -21 67 -12 17 14
-23 12 -40 18 -36 12z"/>
<path d="M1749 2617 c6 -8 8 -17 4 -21 -4 -4 0 -4 10 -1 14 6 14 9 2 21 -17
18 -31 18 -16 1z"/>
<path d="M3113 2588 c1 -23 7 -33 20 -34 11 -1 12 0 3 3 -8 2 -17 17 -20 34
-6 28 -6 28 -3 -3z"/>
<path d="M1175 2590 c3 -5 15 -10 25 -10 10 0 22 -4 25 -10 3 -5 -2 -10 -12
-10 -12 0 -9 -5 12 -16 17 -8 47 -34 68 -57 l39 -42 -38 50 c-60 79 -86 105
-106 105 -11 0 -16 -4 -13 -10z"/>
<path d="M1787 2574 c7 -3 9 -13 6 -22 -4 -14 -3 -15 6 -2 8 12 12 10 19 -10
5 -14 8 -28 5 -32 -6 -11 14 -10 21 0 6 11 -43 72 -57 71 -9 0 -9 -2 0 -5z"/>
<path d="M966 2554 c-4 -10 -4 -15 0 -11 4 4 13 -1 20 -11 18 -23 18 -1 1 22
-13 18 -14 18 -21 0z"/>
<path d="M2767 2543 c-4 -3 -7 -13 -7 -22 1 -13 3 -13 11 2 11 19 8 33 -4 20z"/>
<path d="M3096 2535 c-9 -26 -7 -32 5 -12 6 10 9 21 6 23 -2 3 -7 -2 -11 -11z"/>
<path d="M3270 2525 c63 -13 124 -24 135 -23 11 0 -29 11 -90 24 -60 12 -121
23 -135 23 -14 0 27 -11 90 -24z"/>
<path d="M1020 2497 c0 -3 11 -17 25 -31 14 -14 25 -22 25 -17 0 4 -11 18 -25
31 -14 13 -25 21 -25 17z"/>
<path d="M2729 2473 c-10 -11 -10 -14 -1 -9 16 10 15 -4 -3 -28 -19 -25 -20
-45 -1 -26 17 19 38 80 27 80 -5 0 -15 -8 -22 -17z"/>
<path d="M3070 2470 c-6 -11 -8 -20 -6 -20 3 0 10 9 16 20 6 11 8 20 6 20 -3
0 -10 -9 -16 -20z"/>
<path d="M3374 2435 c-20 -25 -44 -45 -53 -46 -11 0 -12 -2 -3 -6 10 -4 9 -9
-4 -24 -9 -10 -20 -16 -25 -14 -4 3 -11 0 -15 -6 -4 -8 -3 -9 4 -5 7 4 12 3
12 -1 0 -5 -10 -13 -22 -18 -13 -6 -25 -19 -27 -30 -3 -16 2 -15 26 10 16 17
55 62 87 102 31 39 63 74 69 77 9 3 9 5 0 5 -6 1 -28 -19 -49 -44z"/>
<path d="M3040 2425 c-11 -13 -10 -14 5 -9 14 6 16 4 10 -7 -5 -8 -4 -11 0 -6
12 10 15 37 5 37 -4 0 -13 -7 -20 -15z"/>
<path d="M1109 2405 c12 -16 28 -40 37 -51 8 -12 17 -34 20 -50 3 -15 9 -35
14 -45 6 -10 10 -35 11 -56 0 -30 2 -34 9 -18 7 15 9 9 9 -25 1 -33 4 -41 11
-30 7 11 10 3 11 -30 1 -36 2 -40 8 -20 l7 25 7 -25 c3 -13 9 -21 13 -18 3 4
-1 19 -10 35 -18 32 -64 155 -72 192 -7 34 -28 70 -65 111 -25 28 -27 29 -10
5z"/>
<path d="M670 2378 c17 -20 11 -29 -10 -18 -11 6 -20 8 -20 5 0 -3 17 -13 38
-22 32 -14 35 -17 17 -23 -21 -8 -22 -8 32 -26 15 -4 15 -6 3 -14 -11 -7 -11
-10 -2 -10 7 0 36 -24 64 -52 29 -29 45 -44 37 -33 -52 67 -153 191 -160 198
-5 4 -4 2 1 -5z"/>
<path d="M2685 2372 c-6 -16 3 -34 14 -27 5 2 11 13 13 23 6 22 -18 26 -27 4z"/>
<path d="M3025 2369 c-19 -22 -19 -23 -1 -9 18 14 19 13 12 -5 -5 -15 -4 -17
4 -9 7 7 10 20 8 29 -3 15 -6 14 -23 -6z"/>
<path d="M1068 2292 c-37 -20 -65 -38 -64 -40 5 -5 125 58 131 68 8 13 9 14
-67 -28z"/>
<path d="M3001 2316 c-9 -10 -8 -15 3 -19 8 -3 16 2 19 14 6 22 -6 25 -22 5z"/>
<path d="M960 2233 c-8 -4 -35 -21 -60 -38 -25 -17 -50 -34 -56 -36 -6 -2 -34
-32 -63 -66 -28 -35 -56 -63 -61 -63 -6 0 -10 -5 -10 -12 0 -7 -14 -27 -32
-45 l-31 -33 -73 41 c-40 22 -75 36 -78 31 -8 -13 4 -22 26 -22 18 0 118 -51
118 -60 -1 -7 -89 -60 -100 -60 -5 0 -14 9 -20 21 -7 11 -14 18 -17 15 -4 -3
2 -15 12 -26 17 -19 17 -20 -11 -32 -16 -6 -37 -19 -47 -27 -16 -13 -19 -12
-33 8 -9 12 -27 34 -41 49 -13 15 -9 5 11 -22 20 -27 33 -54 29 -60 -3 -6 -3
-8 2 -4 4 4 21 -18 36 -50 15 -31 28 -53 29 -48 0 5 -10 28 -21 52 -23 45 -20
71 8 80 24 8 35 13 58 27 11 7 42 25 69 41 l49 30 18 -23 c11 -13 19 -20 19
-15 0 4 -9 18 -20 30 l-21 21 49 42 c28 22 54 41 59 41 5 0 17 -13 26 -30 10
-16 23 -30 29 -30 6 0 4 8 -5 18 -10 10 -17 23 -17 29 0 6 -6 13 -12 16 -7 2
1 4 17 5 43 2 63 7 72 16 7 7 -34 3 -95 -10 -13 -3 -22 -1 -20 3 6 14 83 112
88 112 3 1 14 -21 25 -49 17 -43 23 -50 45 -49 20 1 21 3 5 6 -23 4 -60 74
-52 96 3 8 31 29 61 47 31 17 56 33 56 36 0 5 1 5 -20 -3z"/>
<path d="M992 2160 c-2 -83 6 -101 48 -99 23 1 23 2 -5 8 -30 6 -30 7 -36 86
l-5 80 -2 -75z"/>
<path d="M490 2186 c0 -3 9 -10 20 -16 11 -6 20 -8 20 -6 0 3 -9 10 -20 16
-11 6 -20 8 -20 6z"/>
<path d="M543 2146 c0 -8 6 -12 15 -8 10 3 13 1 8 -6 -5 -8 -1 -10 10 -5 11 4
15 3 10 -5 -7 -11 31 -28 41 -18 7 7 10 5 -43 33 -30 17 -41 19 -41 9z"/>
<path d="M649 2098 c7 -10 27 -24 43 -33 26 -13 28 -13 18 0 -7 8 -17 15 -23
15 -6 0 -20 8 -31 18 -19 16 -20 16 -7 0z"/>
<path d="M955 2070 c-16 -7 -17 -9 -3 -9 9 -1 20 4 23 9 7 11 7 11 -20 0z"/>
<path d="M1015 1995 c29 -77 29 -75 11 -75 -7 0 -19 -7 -26 -15 -11 -13 -9
-14 16 0 l29 15 22 -67 c14 -41 23 -91 23 -129 0 -61 -1 -63 -27 -66 -16 -2
-23 -6 -18 -9 6 -4 20 -3 33 2 20 7 22 15 22 73 l0 65 33 4 32 4 -35 2 -35 1
-44 126 c-25 69 -48 127 -53 130 -4 3 4 -25 17 -61z"/>
<path d="M1078 2053 c6 -2 18 -2 25 0 6 3 1 5 -13 5 -14 0 -19 -2 -12 -5z"/>
<path d="M454 2035 c11 -8 22 -12 25 -9 6 6 -19 24 -34 24 -5 -1 -1 -7 9 -15z"/>
<path d="M1129 2036 c8 -10 23 -13 47 -9 21 4 34 2 34 -5 0 -6 7 -9 15 -6 8 4
22 1 30 -6 13 -11 14 -10 9 5 -6 14 -4 16 7 10 8 -4 11 -4 7 0 -5 5 -20 10
-35 11 -16 1 -50 5 -77 9 -43 5 -48 4 -37 -9z"/>
<path d="M891 2033 c-1 -6 -4 -19 -8 -29 -4 -12 -3 -15 5 -10 8 5 12 -3 12
-24 0 -18 4 -29 10 -25 6 4 10 -9 11 -32 0 -29 2 -33 8 -18 7 16 9 17 13 5 5
-13 5 -13 2 0 -5 26 -53 146 -53 133z"/>
<path d="M3520 2020 c13 -9 13 -10 0 -11 -10 0 -8 -3 5 -8 11 -5 22 -7 24 -5
6 6 -21 34 -33 34 -6 0 -4 -5 4 -10z"/>
<path d="M3463 2013 c9 -2 23 -2 30 0 6 3 -1 5 -18 5 -16 0 -22 -2 -12 -5z"/>
<path d="M3574 2011 c3 -5 1 -11 -6 -13 -7 -3 17 -10 52 -17 36 -7 74 -15 85
-18 16 -3 17 -2 5 6 -8 6 -26 11 -40 11 -14 0 -43 9 -64 21 -21 11 -35 16 -32
10z"/>
<path d="M3913 2007 c-9 -15 1 -15 57 -2 l55 13 -53 -1 c-30 -1 -56 -6 -59
-10z"/>
<path d="M3867 2003 c-13 -13 -7 -21 13 -16 11 3 20 9 20 14 0 10 -24 12 -33
2z"/>
<path d="M435 1980 c10 -11 20 -20 23 -20 3 0 -3 9 -13 20 -10 11 -20 20 -23
20 -3 0 3 -9 13 -20z"/>
<path d="M1300 1970 c-18 -12 -2 -12 25 0 13 6 15 9 5 9 -8 0 -22 -4 -30 -9z"/>
<path d="M1248 1963 c-24 -6 -23 -19 2 -19 11 0 20 6 20 13 0 7 -1 12 -2 12
-2 -1 -11 -3 -20 -6z"/>
<path d="M1168 1953 c-63 -5 -62 -23 0 -20 31 1 49 7 49 15 0 6 -1 11 -1 10
-1 -1 -22 -3 -48 -5z"/>
<path d="M472 1934 c10 -10 20 -16 22 -13 3 3 -5 11 -17 18 -21 13 -21 12 -5
-5z"/>
<path d="M838 1924 c12 -8 20 -20 17 -25 -4 -5 1 -12 9 -15 9 -3 13 -11 9 -17
-3 -6 -1 -7 6 -3 6 4 14 0 17 -8 9 -23 25 -20 59 10 l30 26 -34 -23 -34 -23
-40 47 c-21 26 -44 47 -50 47 -6 0 -1 -7 11 -16z"/>
<path d="M1068 1933 c6 -2 18 -2 25 0 6 3 1 5 -13 5 -14 0 -19 -2 -12 -5z"/>
<path d="M714 1853 c7 -16 18 -39 24 -53 l12 -25 -6 25 c-6 23 -6 24 12 10 10
-8 3 4 -16 28 -18 23 -34 42 -36 42 -1 0 3 -12 10 -27z"/>
<path d="M550 1830 c6 -11 13 -20 16 -20 2 0 0 9 -6 20 -6 11 -13 20 -16 20
-2 0 0 -9 6 -20z"/>
<path d="M1300 1830 c-23 -7 -23 -8 -3 -9 12 -1 25 4 28 9 3 6 5 10 3 9 -2 -1
-14 -5 -28 -9z"/>
<path d="M860 1823 c-8 -3 -27 -14 -42 -25 -16 -11 -33 -16 -40 -12 -10 6 -10
4 0 -8 12 -15 15 -14 39 8 27 25 60 33 47 12 -5 -9 -2 -9 9 1 29 23 21 37 -13
24z"/>
<path d="M1185 1810 c-16 -7 -17 -9 -3 -9 9 -1 20 4 23 9 7 11 7 11 -20 0z"/>
<path d="M1220 1811 c0 -5 11 -11 24 -13 17 -4 23 -1 19 9 -6 14 -43 18 -43 4z"/>
<path d="M298 1784 c17 -9 32 -23 32 -30 0 -8 -15 -21 -32 -29 -24 -10 -26
-13 -8 -9 31 8 50 23 50 39 0 14 -43 45 -62 45 -7 0 2 -8 20 -16z"/>
<path d="M567 1779 c4 -13 8 -18 11 -10 2 7 -1 18 -6 23 -8 8 -9 4 -5 -13z"/>
<path d="M380 1769 c-22 -18 -22 -19 -3 -10 12 6 25 16 28 21 9 15 3 12 -25
-11z"/>
<path d="M1043 1762 c-67 -36 -143 -82 -143 -88 0 -3 17 5 37 17 34 21 36 22
30 3 -5 -12 3 -8 20 13 16 17 43 38 61 47 17 9 32 19 32 21 0 7 0 6 -37 -13z"/>
<path d="M590 1720 c6 -11 13 -20 16 -20 2 0 0 9 -6 20 -6 11 -13 20 -16 20
-2 0 0 -9 6 -20z"/>
<path d="M1120 1656 c0 -2 7 -6 15 -10 8 -3 15 -1 15 4 0 6 -7 10 -15 10 -8 0
-15 -2 -15 -4z"/>
<path d="M3457 1653 c-4 -6 0 -14 9 -17 24 -9 36 -7 29 4 -4 6 -10 8 -15 5 -4
-3 -10 0 -12 7 -3 8 -6 9 -11 1z"/>
<path d="M4000 1650 c0 -5 5 -10 11 -10 5 0 7 5 4 10 -3 6 -8 10 -11 10 -2 0
-4 -4 -4 -10z"/>
<path d="M998 1643 c7 -3 16 -2 19 1 4 3 -2 6 -13 5 -11 0 -14 -3 -6 -6z"/>
<path d="M1171 1646 c2 -2 27 -6 54 -9 34 -4 42 -3 25 3 -25 8 -87 13 -79 6z"/>
<path d="M3510 1641 c0 -5 7 -12 16 -15 21 -8 24 -8 24 5 0 5 -4 7 -10 4 -5
-3 -10 -1 -10 4 0 6 -4 11 -10 11 -5 0 -10 -4 -10 -9z"/>
<path d="M3580 1635 c14 -17 13 -18 -5 -11 -13 4 -16 4 -10 -2 11 -11 145 -36
152 -28 3 2 -17 7 -44 11 -26 4 -61 16 -78 28 -26 18 -28 18 -15 2z"/>
<path d="M3940 1638 c0 -5 -4 -7 -9 -3 -5 3 -13 0 -17 -6 -5 -9 0 -10 17 -6
13 4 33 7 43 7 11 0 16 3 12 7 -10 10 -46 11 -46 1z"/>
<path d="M933 1633 c9 -2 23 -2 30 0 6 3 -1 5 -18 5 -16 0 -22 -2 -12 -5z"/>
<path d="M1090 1596 c0 -39 -3 -46 -27 -55 l-28 -11 27 5 27 5 4 -92 c2 -72 3
-61 5 50 1 78 0 142 -3 142 -3 0 -5 -20 -5 -44z"/>
<path d="M3870 1625 c-10 -13 -9 -15 9 -15 12 0 21 6 21 15 0 8 -4 15 -9 15
-5 0 -14 -7 -21 -15z"/>
<path d="M1120 1540 c8 -5 20 -10 25 -10 6 0 3 5 -5 10 -8 5 -19 10 -25 10 -5
0 -3 -5 5 -10z"/>
<path d="M1000 1530 c-8 -5 -10 -10 -5 -10 6 0 17 5 25 10 8 5 11 10 5 10 -5
0 -17 -5 -25 -10z"/>
<path d="M1180 1530 c8 -5 22 -9 30 -9 10 0 8 3 -5 9 -27 12 -43 12 -25 0z"/>
<path d="M1120 1430 c35 -24 54 -31 30 -11 -14 11 -29 21 -35 21 -5 0 -3 -5 5
-10z"/>
<path d="M3523 1178 c8 -5 3 -8 -13 -8 -14 0 -32 -5 -40 -11 -12 -8 -11 -9 5
-5 11 3 47 10 79 15 77 14 81 20 12 18 -31 -1 -50 -5 -43 -9z"/>
<path d="M3638 1183 c6 -2 18 -2 25 0 6 3 1 5 -13 5 -14 0 -19 -2 -12 -5z"/>
<path d="M3797 1040 c3 -19 16 -57 29 -85 14 -27 21 -39 18 -25 -3 14 -10 29
-15 34 -5 6 -9 19 -9 30 -1 12 -7 35 -15 51 l-14 30 6 -35z"/>
<path d="M4100 965 c-20 -24 -6 -28 15 -5 10 11 13 20 8 20 -6 0 -16 -7 -23
-15z"/>
<path d="M4038 930 c-12 -16 -29 -30 -39 -30 -9 0 -22 -7 -29 -15 -7 -8 -17
-15 -22 -15 -5 0 -21 -9 -35 -20 -14 -11 -21 -20 -16 -20 6 0 16 7 23 15 7 8
18 15 25 15 7 0 18 7 25 15 7 8 19 15 27 15 8 0 31 11 51 25 20 14 31 25 24
25 -7 0 -10 5 -7 10 14 23 -6 8 -27 -20z"/>
<path d="M3854 887 c21 -67 21 -67 -25 -67 -24 0 -51 -5 -59 -10 -12 -8 -12
-10 5 -9 11 0 39 4 62 8 l42 8 17 -56 c9 -31 26 -79 39 -108 13 -28 34 -83 45
-122 12 -39 26 -73 30 -76 10 -6 -39 143 -64 196 -8 19 -29 77 -47 129 -17 52
-35 102 -41 110 -8 12 -8 11 -4 -3z"/>
<path d="M3710 805 c0 -8 8 -11 20 -8 11 3 20 7 20 8 0 1 -9 5 -20 8 -12 3
-20 0 -20 -8z"/>
<path d="M3660 799 c11 -8 3 -9 -30 -5 -28 4 -40 3 -31 -3 11 -7 11 -10 0 -15
-8 -3 -5 -4 6 -2 11 2 38 7 59 11 29 5 36 9 25 16 -8 5 -21 9 -29 9 -13 0 -13
-1 0 -11z"/>
<path d="M3794 483 c2 -10 11 -20 22 -22 19 -3 19 -3 0 18 -23 26 -25 26 -22
4z"/>
<path d="M4260 483 c-14 -7 -33 -11 -42 -9 -10 2 -18 0 -18 -6 0 -11 80 -1 93
12 16 14 -8 17 -33 3z"/>
<path d="M3726 478 c3 -4 17 -8 31 -8 15 0 23 3 20 7 -10 9 -56 10 -51 1z"/>
<path d="M3859 478 c12 -16 11 -18 -5 -19 -24 -1 104 -28 131 -27 11 0 -6 6
-38 13 -31 7 -67 21 -80 31 -18 16 -19 16 -8 2z"/>
<path d="M4159 470 l-24 -19 25 0 c14 0 19 3 12 6 -10 4 -9 8 5 19 10 7 15 14
12 14 -4 0 -17 -9 -30 -20z"/>
<path d="M4098 443 c6 -2 18 -2 25 0 6 3 1 5 -13 5 -14 0 -19 -2 -12 -5z"/>
<path d="M4023 433 c-10 -3 -12 -55 -11 -216 l3 -212 2 207 3 206 28 10 c20 8
22 10 7 10 -11 0 -26 -2 -32 -5z"/>
</g>
</svg>
