<?xml version="1.0" standalone="no"?>
<!DOCTYPE svg PUBLIC "-//W3C//DTD SVG 20010904//EN"
 "http://www.w3.org/TR/2001/REC-SVG-20010904/DTD/svg10.dtd">
<svg version="1.0" xmlns="http://www.w3.org/2000/svg"
 width="48.000000pt" height="48.000000pt" viewBox="0 0 48.000000 48.000000"
 preserveAspectRatio="xMidYMid meet">

<g transform="translate(0.000000,48.000000) scale(0.100000,-0.100000)"
fill="#000000" stroke="none">
<path d="M152 327 c-50 -51 -92 -97 -92 -102 0 -6 43 -53 95 -105 l95 -95 28
15 c41 24 39 47 -9 96 l-42 43 99 3 99 3 3 39 c2 24 -2 42 -10 47 -7 5 -51 9
-97 9 l-83 0 36 40 c20 22 36 46 36 53 0 18 -32 47 -51 47 -8 0 -56 -42 -107
-93z"/>
</g>
</svg>
