<?xml version="1.0" standalone="no"?>
<!DOCTYPE svg PUBLIC "-//W3C//DTD SVG 20010904//EN"
 "http://www.w3.org/TR/2001/REC-SVG-20010904/DTD/svg10.dtd">
<svg version="1.0" xmlns="http://www.w3.org/2000/svg"
 width="403.000000pt" height="637.000000pt" viewBox="0 0 403.000000 637.000000"
 preserveAspectRatio="xMidYMid meet">

<g transform="translate(0.000000,637.000000) scale(0.100000,-0.100000)"
fill="#000000" stroke="none">
<path d="M2514 6350 c43 -70 66 -134 66 -189 l0 -56 -43 45 c-24 25 -52 68
-62 95 -10 28 -27 59 -39 70 l-20 20 15 -20 c8 -11 23 -39 31 -62 l16 -42 -27
-9 -26 -9 36 -6 c34 -7 128 -87 102 -87 -7 0 -14 4 -18 10 -3 5 -20 19 -38 31
-26 17 -25 15 8 -15 22 -19 35 -35 29 -36 -6 0 -17 7 -24 15 -7 8 -18 15 -24
15 -6 -1 -1 -9 11 -19 12 -10 20 -21 17 -23 -2 -3 23 -28 56 -57 33 -29 58
-56 55 -60 -2 -5 7 -19 20 -31 14 -13 25 -28 25 -33 0 -11 -67 36 -92 65 -10
11 -18 16 -18 10 0 -6 31 -35 70 -65 38 -30 67 -57 63 -60 -3 -4 -13 -1 -22 6
-9 7 -7 2 4 -14 11 -15 24 -24 29 -21 5 3 6 -2 3 -12 -4 -10 -7 -23 -7 -29 0
-7 -10 -1 -21 13 l-21 25 21 -36 c22 -38 18 -57 -8 -36 -14 11 -14 10 -2 -5 7
-10 18 -15 24 -11 6 4 8 0 4 -11 -4 -9 -3 -15 1 -12 4 3 8 -11 8 -30 l0 -35
-18 35 c-10 20 -21 36 -23 36 -3 0 4 -18 15 -41 15 -28 19 -50 15 -70 -6 -28
-8 -29 -21 -12 -13 16 -13 14 -1 -12 8 -16 13 -55 12 -85 0 -30 3 -61 8 -68
16 -21 -2 -27 -19 -6 -11 14 -11 10 2 -13 10 -18 22 -29 28 -26 5 4 7 -1 3
-11 -4 -10 -7 -21 -7 -24 0 -4 -10 4 -21 18 -18 23 -18 22 2 -18 23 -46 19
-68 -7 -36 -11 14 -11 10 2 -13 10 -18 22 -29 27 -26 5 3 6 -4 2 -16 -3 -11
-3 -27 2 -35 5 -9 8 10 8 49 0 36 -4 58 -8 52 -5 -7 -6 -1 -2 13 10 40 12 110
3 116 -4 3 -8 15 -8 27 l0 21 15 -21 c11 -16 14 -58 13 -203 0 -123 -4 -177
-10 -166 -5 10 -7 29 -4 44 5 20 4 23 -4 12 -5 -8 -10 -10 -10 -5 0 6 -10 21
-21 35 l-20 25 19 -40 c10 -22 27 -55 36 -73 9 -20 16 -58 16 -93 0 -35 4 -59
11 -59 5 0 8 -4 5 -9 -4 -5 -14 -8 -24 -7 -21 3 -27 50 -13 101 5 19 6 35 1
35 -10 0 -18 -56 -23 -157 -1 -44 1 -67 6 -58 10 18 87 69 94 62 5 -6 -93 -92
-104 -92 -5 0 -11 34 -14 75 l-5 75 -2 -87 c-1 -57 2 -88 9 -88 5 0 7 -5 3
-11 -13 -21 -24 15 -24 80 0 101 -8 67 -11 -47 -3 -117 -16 -124 -22 -12 l-3
75 -2 -87 c-2 -69 1 -88 12 -88 7 0 19 7 26 15 7 8 18 15 24 15 6 -1 -5 -15
-24 -33 -19 -18 -31 -29 -26 -25 26 20 26 5 1 -22 -15 -16 -32 -27 -37 -24 -4
3 -8 37 -8 76 0 105 -8 79 -11 -35 -2 -54 -6 -100 -9 -102 -4 -3 -8 30 -9 73
-3 106 -11 105 -11 -1 0 -48 4 -87 8 -87 5 0 17 9 27 20 10 11 25 20 32 20 10
0 5 -11 -14 -31 -27 -29 -70 -60 -61 -42 3 4 2 42 -2 83 l-7 75 -2 -87 c-1
-105 -19 -127 -24 -31 -3 65 -3 64 -5 -19 -1 -57 2 -88 9 -88 5 0 7 -5 4 -11
-12 -19 -20 2 -26 69 -6 64 -6 62 -6 -25 0 -80 2 -90 13 -74 8 10 33 30 57 44
24 14 50 34 58 43 8 9 -7 2 -34 -16 -34 -24 -50 -31 -58 -23 -8 8 -7 13 2 18
8 5 10 4 5 -3 -13 -22 60 27 89 60 17 18 20 24 7 14 -12 -11 -25 -17 -28 -14
-3 3 14 22 37 42 24 20 37 36 29 36 -9 0 -5 10 11 28 l24 27 -30 -26 c-39 -33
-85 -61 -85 -52 0 11 20 40 20 29 0 -4 17 7 38 25 21 19 47 40 58 47 17 11 17
12 -3 2 -38 -18 -38 -11 2 30 21 22 35 40 30 40 -5 0 2 12 16 27 13 15 0 6
-30 -20 -30 -26 -57 -45 -60 -41 -7 7 89 94 105 94 6 0 18 7 25 17 13 15 12
15 -8 5 -38 -21 -38 -13 2 28 21 22 35 40 30 40 -4 0 0 10 11 21 12 14 1 9
-28 -11 -26 -19 -50 -31 -54 -28 -3 3 7 14 21 25 15 10 42 32 59 48 18 17 22
21 9 11 -31 -26 -39 -15 -10 12 14 13 47 26 83 33 76 14 85 22 14 13 -49 -6
-54 -6 -42 9 8 10 23 14 40 11 19 -3 23 -2 13 5 -14 9 29 25 114 44 20 5 20 5
0 6 -11 0 -35 -3 -53 -8 -21 -6 -32 -6 -32 0 0 6 -5 7 -11 4 -6 -4 -1 12 11
34 24 48 41 91 36 91 -2 0 -22 -38 -45 -85 -39 -81 -60 -109 -48 -65 3 11 1
18 -4 14 -5 -3 -9 -11 -9 -19 0 -8 -5 -17 -11 -21 -14 -8 -5 26 22 81 19 39
19 40 0 16 -17 -22 -47 -101 -41 -110 3 -5 -83 -91 -92 -91 -4 0 -8 22 -8 49
0 49 36 147 68 184 9 9 10 17 4 17 -6 0 -24 -28 -41 -62 -16 -35 -30 -55 -30
-45 -1 10 6 32 14 50 14 29 14 30 0 13 -13 -17 -15 -17 -15 -4 0 9 4 19 9 23
5 3 17 27 27 53 10 26 24 55 32 65 8 9 10 17 5 17 -6 0 -14 -7 -17 -16 -4 -9
-9 -14 -12 -11 -4 3 3 25 15 49 20 40 20 41 2 18 -25 -30 -28 -9 -6 34 9 16
12 33 7 40 -14 19 -12 107 4 140 14 29 14 30 -2 11 -16 -20 -16 -20 -11 5 2
14 7 34 11 45 3 11 -8 -9 -25 -45 -18 -36 -34 -59 -36 -52 -3 7 14 49 37 92
22 44 39 80 36 80 -3 0 -21 -30 -40 -67 -19 -38 -35 -61 -35 -53 -1 8 15 46
34 84 19 38 33 71 31 73 -2 3 -16 -22 -32 -54 -15 -32 -29 -52 -31 -45 -3 6
14 47 37 90 23 42 37 72 31 67 -5 -6 -24 -35 -40 -65 -43 -77 -39 -36 4 46 19
37 33 69 31 71 -2 2 -16 -22 -32 -54 -15 -32 -29 -53 -31 -46 -6 18 55 131 74
137 10 4 36 22 58 42 l40 36 -43 -32 c-44 -33 -68 -34 -39 -2 10 10 14 22 10
25 -3 4 -2 7 4 7 15 0 113 89 113 103 0 6 8 19 18 30 9 11 -4 5 -29 -13 -26
-18 -51 -30 -57 -27 -5 4 -10 41 -11 84 -3 106 -11 106 -11 0 0 -55 4 -87 11
-87 5 0 7 -5 4 -11 -13 -19 -20 2 -26 74 l-6 72 -1 -92 c-2 -109 -21 -138 -23
-36 -2 62 -3 58 -9 -32 -10 -143 -23 -173 -31 -70 l-5 80 -2 -83 c-1 -60 -8
-97 -24 -134 l-21 -50 -16 28 c-9 18 -17 71 -21 134 -7 102 -7 103 -8 28 -1
-42 -6 -79 -11 -82 -5 -3 -9 0 -8 7 0 6 -1 30 -2 52 -2 39 -2 39 -15 16 -8
-15 -16 -20 -20 -12 -4 6 -2 11 3 11 7 0 11 32 11 87 0 106 -8 107 -11 1 -3
-111 -15 -88 -18 34 -3 112 -11 149 -11 49 0 -34 -4 -71 -10 -81 -7 -13 -6
-21 5 -30 8 -7 15 -17 15 -22 0 -5 -23 10 -50 33 -54 45 -61 65 -11 29 17 -12
31 -17 31 -11 0 6 -5 11 -11 11 -5 0 -7 5 -3 11 3 6 0 15 -7 20 -10 6 -11 9
-1 9 8 0 12 20 12 65 0 36 4 73 8 83 5 9 20 41 35 70 33 63 28 68 -8 10 -15
-25 -24 -33 -20 -19 5 16 4 21 -4 17 -6 -4 -11 -15 -11 -24 0 -13 -3 -12 -16
6 -8 12 -19 20 -24 17 -4 -3 -18 7 -30 22 -18 23 -19 24 -6 3z m66 -84 c-1
-19 -2 -19 -15 4 -20 35 -19 62 0 36 8 -11 15 -29 15 -40z m17 -8 c-3 -7 -5
-2 -5 12 0 14 2 19 5 13 2 -7 2 -19 0 -25z m-22 -178 c3 -5 2 -10 -4 -10 -5 0
-13 5 -16 10 -3 6 -2 10 4 10 5 0 13 -4 16 -10z m365 -30 c-22 -30 -78 -75
-85 -68 -9 8 27 49 63 73 47 31 47 31 22 -5z m-90 -94 c0 -3 -4 -8 -10 -11 -5
-3 -10 -1 -10 4 0 6 5 11 10 11 6 0 10 -2 10 -4z m-112 -280 c0 -59 -4 -93 -9
-85 -6 9 -9 10 -9 2 0 -6 4 -14 9 -17 5 -3 9 -30 9 -58 1 -45 -1 -50 -11 -33
-15 26 -22 77 -7 55 8 -13 10 -13 10 2 0 9 -5 18 -12 20 -8 3 -9 15 -1 49 11
44 10 97 -2 141 -5 19 -4 20 5 8 9 -12 10 -9 6 15 -4 20 -3 25 3 15 5 -8 9
-59 9 -114z m48 -188 c-2 -46 -8 -84 -19 -103 -13 -24 -16 -26 -16 -10 0 11 6
29 14 39 8 11 15 24 15 30 0 5 -7 1 -15 -10 -14 -19 -14 -19 -14 1 0 11 6 29
14 39 8 11 15 25 15 30 -1 6 -7 0 -15 -14 -10 -18 -14 -20 -15 -8 0 13 30 78
36 78 1 0 1 -33 0 -72z m10 -93 c-9 -18 -13 -47 -11 -79 3 -35 -2 -63 -15 -91
-16 -35 -18 -37 -19 -15 0 14 6 34 14 44 8 11 15 25 15 30 -1 6 -7 0 -15 -14
-13 -24 -13 -23 -13 23 0 32 8 62 25 93 27 48 43 56 19 9z m-64 -479 c-4 -6
-7 -14 -7 -18 0 -20 -15 -17 -15 4 0 15 6 25 15 25 8 0 11 -5 7 -11z m-10 -98
c-13 -13 -25 -18 -30 -13 -4 6 -6 9 -3 8 2 -1 13 4 25 12 30 22 34 18 8 -7z
m-2 -52 c0 -2 -8 -10 -17 -17 -16 -13 -17 -12 -4 4 13 16 21 21 21 13z m-140
-242 c-17 -19 -50 -37 -50 -27 0 4 12 15 28 25 35 21 37 21 22 2z"/>
<path d="M2766 5325 c-9 -26 -7 -32 5 -12 6 10 9 21 6 23 -2 3 -7 -2 -11 -11z"/>
<path d="M2844 6350 c51 -82 68 -134 64 -206 l-3 -72 25 18 c14 10 41 33 60
50 31 28 29 28 -11 -4 -26 -19 -49 -32 -53 -29 -3 4 -6 30 -6 59 0 52 10 85
52 169 l19 40 -20 -25 c-11 -14 -21 -29 -21 -35 0 -5 -4 -4 -9 4 -7 11 -10 9
-16 -9 l-7 -22 -15 21 c-8 12 -18 19 -23 16 -4 -3 -18 7 -30 22 -18 23 -19 24
-6 3z m66 -84 c-1 -19 -2 -19 -15 4 -20 35 -19 62 0 36 8 -11 15 -29 15 -40z
m21 -3 c-9 -16 -10 -16 -11 -1 0 9 3 25 7 35 7 16 8 17 11 1 2 -10 -1 -25 -7
-35z"/>
<path d="M3045 6294 c-9 -21 -20 -48 -24 -59 -5 -11 -28 -42 -52 -70 -35 -41
-37 -44 -8 -18 25 23 50 34 99 44 36 6 72 16 80 21 12 7 10 8 -5 4 -22 -5 -65
-13 -108 -20 -16 -3 -25 -1 -22 5 4 5 11 6 17 3 6 -4 8 -2 5 4 -4 6 0 8 11 6
9 -3 28 0 42 6 l25 10 -27 -5 c-29 -6 -34 0 -18 25 6 9 5 17 -3 22 -9 6 -9 12
1 29 7 11 11 23 8 27 -3 3 -13 -12 -21 -34z m-5 -61 c-11 -17 -11 -17 -6 0 3
10 6 24 7 30 0 9 2 9 5 0 3 -7 0 -20 -6 -30z"/>
<path d="M987 6286 c4 -18 2 -27 -4 -23 -6 4 -8 -3 -5 -19 4 -23 2 -25 -24
-19 -25 4 -26 4 -9 -5 16 -8 10 -9 -25 -6 -37 4 -41 4 -20 -5 13 -5 41 -7 62
-4 35 6 37 9 33 33 -5 23 -4 24 4 7 14 -30 13 -35 -11 -44 -21 -8 -20 -9 13
-16 23 -4 51 -21 75 -46 48 -49 37 -50 -24 -3 -40 31 -42 32 -12 4 19 -17 46
-40 60 -50 l26 -18 2 74 c2 46 -1 74 -8 74 -5 0 -10 -23 -10 -52 l-1 -53 -44
48 c-25 27 -45 54 -45 60 0 7 -9 30 -20 52 -16 33 -18 35 -13 11z m38 -86 c3
-5 -1 -10 -10 -10 -9 0 -13 5 -10 10 3 6 8 10 10 10 2 0 7 -4 10 -10z"/>
<path d="M1080 6308 c0 -12 33 -78 40 -78 7 0 40 66 40 78 -1 4 -7 -4 -15 -18
-11 -19 -14 -21 -15 -7 0 9 -4 17 -10 17 -5 0 -10 -8 -10 -17 -1 -14 -4 -12
-15 7 -8 14 -14 22 -15 18z m50 -48 c0 -5 -4 -10 -10 -10 -5 0 -10 5 -10 10 0
6 5 10 10 10 6 0 10 -4 10 -10z"/>
<path d="M1410 6307 c0 -4 9 -26 21 -49 17 -33 20 -55 17 -113 l-3 -73 25 18
c14 10 41 33 60 50 28 26 25 24 -13 -5 -59 -46 -70 -42 -19 7 30 30 50 39 110
52 85 17 103 26 40 20 -34 -3 -39 -2 -23 6 17 9 16 9 -9 5 -26 -6 -28 -4 -24
19 3 16 1 23 -5 19 -6 -4 -8 3 -4 17 9 36 -9 9 -23 -32 -6 -21 -31 -59 -55
-85 l-44 -48 -1 63 c0 38 6 75 16 93 8 17 13 33 10 37 -3 3 -6 0 -6 -6 0 -6
-8 -9 -18 -7 -15 3 -18 -2 -15 -23 4 -25 2 -24 -16 8 -11 19 -20 31 -21 27z
m166 -72 c-5 -21 -3 -25 16 -26 22 -1 22 -1 -2 -9 -45 -14 -48 -12 -31 25 19
41 26 45 17 10z"/>
<path d="M2439 6247 c11 -28 11 -29 -21 -23 -27 5 -29 4 -13 -4 15 -8 10 -9
-25 -6 -37 4 -41 4 -20 -5 13 -5 42 -7 63 -4 33 6 37 10 31 28 -3 12 -11 27
-16 32 -5 6 -4 -3 1 -18z"/>
<path d="M1141 6163 c-2 -40 -4 -77 -5 -82 -3 -23 -18 -21 -63 9 -26 17 -38
22 -25 11 13 -11 22 -23 21 -27 -2 -8 91 -104 101 -104 4 0 6 10 5 23 -1 12
-4 63 -6 112 -2 66 -4 76 -6 35 -4 -75 -11 -102 -24 -94 -8 5 -8 9 0 14 8 4
11 35 8 91 l-3 84 -3 -72z m11 -140 c12 -13 18 -26 14 -30 -4 -4 -28 15 -54
41 -44 45 -45 47 -14 30 18 -11 43 -29 54 -41z"/>
<path d="M1420 6147 c0 -55 4 -87 11 -87 5 0 7 -5 4 -11 -13 -19 -20 2 -26 74
l-6 72 -3 -90 c-1 -49 -4 -100 -5 -112 -1 -13 1 -23 4 -23 4 0 31 25 61 55 30
30 51 55 46 55 -4 0 2 9 15 21 13 11 3 6 -24 -11 -26 -17 -51 -29 -56 -26 -4
3 -9 40 -10 83 -3 106 -11 106 -11 0z m38 -114 c-26 -26 -50 -44 -54 -40 -9 9
14 35 56 63 51 33 50 30 -2 -23z"/>
<path d="M2598 6159 c-2 -38 0 -78 3 -87 4 -9 7 22 8 71 2 104 -6 117 -11 16z"/>
<path d="M1191 6063 c-4 -84 -4 -84 -13 -99 -4 -6 4 -22 17 -34 l25 -23 0 34
c-1 31 -2 32 -14 16 -8 -10 -17 -14 -20 -8 -3 5 -1 11 4 13 7 2 10 35 7 88
l-3 85 -3 -72z"/>
<path d="M1370 6047 c0 -55 4 -87 11 -87 5 0 7 -5 4 -11 -5 -6 -12 -4 -21 8
-12 16 -13 15 -14 -16 l0 -34 25 23 c15 14 21 27 16 34 -4 6 -9 45 -10 86 -3
104 -11 102 -11 -3z"/>
<path d="M431 6020 c11 -30 27 -65 35 -77 8 -13 14 -47 14 -79 l0 -56 -31 26
c-17 14 -34 26 -39 26 -4 0 -13 14 -19 32 -19 53 -56 127 -64 128 -4 0 7 -27
24 -61 34 -65 31 -87 -12 -71 -13 5 -44 12 -69 15 -54 7 -23 -5 64 -24 33 -7
54 -15 48 -17 -7 -2 -3 -11 10 -23 13 -10 19 -18 13 -19 -5 0 9 -18 30 -40 21
-22 35 -40 29 -40 -5 0 -14 3 -20 8 -5 4 6 -6 26 -23 19 -16 46 -41 60 -55
l25 -25 1 90 c1 87 1 88 -6 25 l-7 -65 -1 89 c-1 49 -4 87 -6 85 -3 -2 -6 -39
-7 -82 -2 -43 -7 -81 -12 -84 -9 -6 -50 28 -42 35 3 3 15 -3 27 -14 l23 -19
-20 24 c-14 17 -16 23 -5 19 13 -5 14 9 9 101 -5 98 -4 109 18 147 13 22 23
47 23 55 0 8 -9 -5 -20 -28 -20 -44 -36 -58 -27 -23 3 11 1 18 -4 14 -5 -3 -9
-13 -9 -22 -1 -15 -3 -14 -16 3 -8 11 -20 19 -25 18 -5 -2 -9 3 -9 10 0 7 -7
22 -15 33 -11 13 -9 2 6 -36z m48 -65 c0 -18 -1 -17 -14 5 -20 34 -20 60 0 34
8 -10 14 -28 14 -39z m19 -111 c-2 -47 -6 -88 -9 -89 -8 -6 -81 56 -74 63 3 3
-3 14 -12 25 -18 19 -18 20 13 4 17 -9 36 -23 43 -31 24 -29 31 -17 31 49 0
36 3 65 6 65 3 0 4 -39 2 -86z m42 -154 c0 -5 -2 -10 -4 -10 -3 0 -8 5 -11 10
-3 6 -1 10 4 10 6 0 11 -4 11 -10z"/>
<path d="M425 5810 c3 -5 20 -19 38 -31 l32 -22 -33 32 c-33 31 -49 40 -37 21z"/>
<path d="M3501 6018 c18 -44 21 -71 19 -160 -1 -60 2 -108 8 -108 5 0 8 39 7
88 -1 48 0 59 2 25 4 -64 11 -74 33 -49 16 20 80 57 80 47 0 -5 -25 -28 -55
-51 -30 -23 -55 -45 -55 -47 0 -3 7 0 15 7 9 7 18 11 21 8 2 -3 -10 -17 -29
-30 l-33 -26 -3 72 c-4 100 -11 96 -11 -7 0 -78 2 -86 17 -80 15 6 16 5 3 -9
-8 -9 -17 -14 -20 -11 -3 2 -7 37 -11 76 l-5 72 -5 -96 -4 -96 42 40 c23 22
54 48 70 58 15 11 23 19 17 19 -5 0 -15 -5 -22 -12 -6 -6 -14 -9 -17 -6 -3 3
10 17 30 32 19 15 35 32 35 39 0 30 49 64 110 76 34 7 60 15 57 17 -2 3 -33
-2 -68 -10 -35 -8 -67 -12 -72 -9 -10 6 1 41 23 73 22 32 33 63 20 55 -6 -3
-10 -11 -10 -17 0 -5 -8 -22 -19 -36 -10 -15 -24 -44 -30 -64 -7 -21 -16 -38
-21 -38 -5 0 -22 -12 -39 -26 l-31 -26 0 54 c0 41 8 68 35 122 20 38 34 70 32
73 -3 2 -18 -24 -33 -58 -16 -34 -30 -55 -32 -46 -2 9 4 28 14 44 l16 28 -21
-25 c-11 -14 -21 -29 -21 -35 -1 -16 -20 18 -20 35 0 13 1 13 11 0 9 -13 10
-13 6 0 -2 8 -9 14 -15 13 -6 -1 -15 11 -21 27 -5 17 -12 30 -15 30 -3 0 4
-24 15 -52z m109 -223 c-7 -8 -17 -15 -23 -15 -5 0 -2 9 8 20 21 23 35 19 15
-5z m-50 -59 c0 -2 -8 -10 -17 -17 -16 -13 -17 -12 -4 4 13 16 21 21 21 13z"/>
<path d="M1230 5975 c-2 -38 -3 -75 -3 -82 0 -7 -26 8 -58 33 -33 25 -59 43
-59 40 0 -3 27 -26 60 -51 71 -54 107 -117 108 -185 1 -44 0 -44 -13 -20 -17
29 -19 54 -5 45 12 -7 -27 86 -42 100 -6 6 -3 -4 6 -22 20 -40 21 -63 1 -37
-8 10 0 -15 19 -57 21 -48 34 -93 34 -120 1 -43 0 -43 -13 -19 -17 29 -19 54
-5 45 12 -7 -27 86 -42 100 -7 6 -6 2 1 -12 14 -27 14 -36 1 -28 -12 7 24 -89
46 -122 8 -12 14 -29 14 -38 0 -29 -18 -6 -35 45 -9 27 -21 52 -26 55 -5 4 -5
-5 1 -20 13 -33 13 -38 -1 -29 -7 4 -7 -1 1 -16 13 -25 16 -87 5 -98 -4 -4 -5
5 -3 21 3 15 1 30 -3 33 -5 3 -9 -5 -9 -17 0 -21 -1 -22 -20 -4 -11 10 -20 14
-20 9 0 -5 9 -15 21 -22 20 -13 49 -68 49 -94 0 -6 -7 -3 -16 8 -15 18 -15 18
-5 -3 14 -27 14 -46 1 -38 -6 3 -7 -1 -3 -10 4 -12 8 -13 13 -5 4 6 7 -7 7
-29 0 -36 -1 -39 -13 -24 -8 10 -2 -11 11 -47 14 -35 30 -69 35 -74 6 -6 10
-17 10 -25 0 -11 -4 -10 -15 5 -14 17 -14 16 0 -13 8 -18 15 -40 14 -50 0 -10
-13 10 -29 45 -16 34 -31 62 -34 62 -3 0 10 -35 30 -77 28 -62 34 -88 32 -127
-2 -30 -8 -50 -16 -52 -7 -1 -8 0 -2 3 12 6 -66 98 -83 98 -6 0 -16 10 -23 23
-16 33 -23 37 -17 10 2 -12 -7 0 -22 27 -60 114 -85 154 -67 104 6 -14 22 -43
36 -64 49 -72 25 -68 -26 6 -14 20 -17 20 -12 4 6 -20 5 -20 -10 -1 -9 11 -16
27 -16 35 0 14 2 14 11 1 8 -11 9 -9 3 10 -9 34 -34 69 -34 50 -1 -8 -9 0 -19
19 -12 23 -20 30 -24 20 -3 -8 -7 27 -8 76 l-3 90 -3 -75 c-2 -41 -9 -79 -15
-85 -7 -7 -9 -7 -6 0 3 6 2 30 -2 55 -7 43 -8 43 -9 10 l-1 -35 -20 25 -20 25
12 -31 c7 -20 17 -30 25 -27 7 3 13 0 13 -7 0 -6 -5 -8 -12 -4 -11 7 -10 -4 7
-51 6 -17 5 -18 -7 -5 -7 9 -31 16 -53 17 l-40 2 40 -10 c22 -5 44 -15 50 -21
7 -7 2 -9 -17 -4 -50 12 -79 26 -73 36 3 6 -4 10 -17 11 -22 1 -19 3 20 14 9
3 5 20 -13 61 -28 64 -29 68 -14 59 8 -6 59 -109 59 -122 0 -2 -4 -2 -9 2 -5
3 -12 1 -16 -5 -4 -6 5 -10 20 -10 l25 0 -20 43 -21 42 26 -30 c13 -16 25 -36
25 -44 0 -8 3 -11 7 -8 3 4 -6 32 -22 62 -27 55 -39 70 -29 38 4 -12 -1 -9
-15 7 -11 14 -21 28 -21 33 0 4 -6 7 -14 7 -7 0 -21 10 -30 23 -8 12 -2 -6 14
-40 35 -73 36 -77 11 -61 -11 7 -18 15 -16 19 3 3 -12 37 -31 75 -20 38 -32
58 -29 44 4 -14 18 -44 31 -67 29 -50 30 -57 6 -42 -10 7 -19 17 -19 23 0 25
-56 128 -63 116 -5 -8 -11 -1 -18 19 -6 17 -13 31 -16 31 -3 0 3 -22 14 -50
11 -27 16 -52 11 -55 -14 -8 -109 13 -128 30 -10 8 -40 34 -67 57 -29 25 -43
33 -34 20 9 -13 31 -34 49 -48 21 -15 27 -24 17 -24 -9 0 -19 4 -23 10 -3 5
-12 7 -19 4 -14 -5 -93 43 -116 71 -7 8 -16 12 -22 9 -5 -3 -21 2 -36 11 l-27
16 25 -20 c42 -34 70 -65 65 -70 -3 -2 -16 4 -30 15 -13 10 -43 34 -67 53 -38
30 -38 29 7 -12 51 -47 55 -65 5 -24 -15 12 -36 28 -46 35 -10 7 -20 23 -20
35 -2 24 -54 117 -66 117 -4 0 5 -19 21 -42 40 -60 47 -88 24 -89 -14 0 -15
-2 -3 -7 32 -15 100 -63 100 -71 0 -12 -87 -28 -148 -27 -29 1 -52 -2 -52 -6
0 -5 9 -8 20 -8 24 0 27 -18 4 -27 -12 -4 -13 -8 -3 -13 9 -6 5 -15 -14 -34
-14 -14 -22 -26 -17 -26 5 0 23 18 41 39 37 46 46 51 116 57 28 2 62 9 75 14
18 8 14 9 -22 5 -36 -4 -40 -3 -17 4 29 10 104 8 114 -3 4 -3 -3 -6 -14 -6
-24 0 -127 -30 -121 -35 2 -2 24 2 49 9 25 8 61 16 81 19 20 2 41 8 47 11 6 4
11 3 11 -2 0 -6 -33 -19 -72 -30 -40 -11 -66 -21 -58 -21 8 -1 47 8 85 19 87
25 102 26 85 5 -11 -14 -10 -14 14 -5 16 6 34 6 42 2 11 -6 -8 -13 -56 -21
-39 -7 -69 -15 -66 -18 2 -3 38 2 80 11 59 12 88 13 131 5 30 -5 60 -7 65 -4
6 3 10 2 10 -4 0 -19 -19 -21 -76 -6 -32 8 -60 13 -62 10 -2 -2 9 -7 24 -10
16 -4 44 -11 61 -17 18 -5 36 -7 40 -5 5 3 14 -2 22 -10 12 -13 10 -14 -18 -9
-17 3 -46 8 -63 11 -30 5 -31 4 -9 -5 14 -6 46 -13 73 -15 26 -2 56 -9 65 -15
14 -9 10 -10 -22 -6 -22 3 -51 8 -65 11 -14 2 -7 -2 15 -9 22 -8 51 -15 65
-15 31 -2 73 -23 71 -36 -2 -5 6 -13 16 -17 17 -8 -8 -6 -92 7 -24 4 -26 3
-10 -4 11 -5 34 -10 50 -11 29 -2 29 -2 5 -9 -24 -7 -23 -8 10 -14 24 -5 31
-10 22 -16 -10 -6 -10 -10 3 -21 20 -16 19 -30 -2 -30 -9 0 -14 -2 -11 -5 3
-3 20 -2 38 2 32 6 32 7 10 15 -12 5 -20 11 -17 14 3 4 14 3 24 -1 10 -5 21
-8 24 -7 3 0 27 -5 53 -13 l47 -14 -22 35 c-15 24 -18 39 -11 46 7 7 17 -5 31
-37 24 -54 25 -59 12 -50 -5 3 -12 1 -15 -4 -4 -5 2 -12 11 -15 21 -5 -52 3
-82 10 -16 4 -17 3 -5 -4 8 -5 44 -14 79 -21 36 -6 69 -15 75 -21 15 -15 -11
-13 -59 5 -22 8 -47 14 -55 14 -14 -1 19 -13 120 -45 l45 -14 -45 6 c-25 3
-56 8 -70 11 -14 3 -22 3 -19 0 3 -4 38 -13 78 -22 83 -17 99 -24 81 -35 -7
-4 -1 -7 15 -7 14 0 32 -6 38 -12 17 -17 -31 -14 -84 4 -24 9 -39 12 -34 7 13
-12 68 -29 122 -37 23 -4 47 -13 54 -21 18 -22 2 -30 -21 -9 -11 10 -20 15
-20 12 0 -3 26 -26 58 -51 l58 -44 -4 71 c-3 66 0 79 32 150 20 42 33 77 30
77 -3 0 -18 -28 -34 -62 -16 -35 -29 -55 -29 -45 -1 10 6 32 14 50 14 29 14
30 0 13 -11 -15 -15 -16 -15 -5 0 8 4 19 10 25 14 14 61 136 49 129 -12 -8
-12 7 1 40 7 17 7 24 0 20 -13 -8 -13 11 1 38 9 19 8 20 -3 5 -12 -14 -13 -2
-11 80 2 54 8 110 13 127 17 47 -6 15 -25 -38 -10 -26 -22 -50 -26 -53 -14 -8
-10 25 5 49 22 33 58 129 46 122 -13 -8 -13 1 1 28 7 14 8 18 1 12 -15 -14
-54 -107 -42 -100 14 9 12 -16 -5 -45 -13 -24 -14 -24 -13 19 0 27 13 72 34
120 19 42 27 67 19 57 -21 -28 -20 2 1 32 9 13 13 26 10 29 -3 3 -18 -20 -32
-53 -15 -32 -29 -54 -31 -47 -10 27 48 112 107 158 33 25 60 48 60 51 0 3 -26
-15 -59 -40 l-58 -45 -2 77 c-2 103 -11 106 -11 3 0 -62 -5 -95 -22 -133 l-21
-50 -21 38 c-14 28 -22 67 -26 134 l-7 95 -3 -70z m82 -247 c-12 -25 -21 -35
-21 -25 -1 19 30 80 37 73 2 -2 -5 -24 -16 -48z m18 -65 c-11 -17 -11 -17 -6
0 3 10 6 24 7 30 0 9 2 9 5 0 3 -7 0 -20 -6 -30z m-945 -122 c19 -11 19 -11
-4 -9 -13 2 -35 18 -49 38 l-26 35 29 -26 c17 -15 39 -32 50 -38z m895 -53
l-1 -23 -13 25 c-7 14 -17 36 -21 50 l-7 25 21 -27 c11 -14 21 -37 21 -50z
m47 -10 c1 -46 3 -105 6 -133 4 -53 -34 -183 -41 -139 -2 12 6 37 17 55 12 19
21 39 21 44 -1 6 -9 -6 -20 -25 -12 -21 -19 -28 -20 -18 0 10 9 32 20 50 11
18 20 40 20 48 0 8 -9 -3 -19 -25 -17 -35 -19 -37 -20 -15 0 14 6 34 14 44 8
11 15 25 15 30 -1 6 -7 0 -15 -14 -13 -22 -14 -23 -14 -5 0 11 6 29 14 39 8
11 15 25 15 30 -1 6 -7 0 -15 -14 l-14 -25 0 25 c0 14 6 34 14 44 8 11 15 25
15 30 -1 6 -7 0 -15 -14 l-14 -25 -1 23 c0 17 22 62 35 72 1 0 1 -37 2 -82z
m-1182 30 c-11 -6 -27 -16 -35 -22 -9 -6 -5 -1 8 12 13 12 28 22 35 22 7 0 3
-6 -8 -12z m58 5 c-7 -2 -19 -2 -25 0 -7 3 -2 5 12 5 14 0 19 -2 13 -5z m495
-55 c12 -27 16 -48 11 -48 -10 0 -29 40 -44 90 -11 39 10 12 33 -42z m580 -53
c0 -47 -1 -48 -14 -25 -7 14 -13 20 -14 15 0 -6 6 -20 14 -31 8 -11 14 -42 14
-69 0 -48 0 -49 -13 -25 -8 14 -14 20 -15 14 0 -5 7 -19 15 -30 8 -10 14 -30
14 -44 0 -25 0 -25 -16 5 -21 39 -27 244 -6 217 10 -14 10 -11 1 15 -8 22 -15
28 -20 20 -9 -15 -10 -5 -1 18 12 33 42 -24 41 -80z m-274 -175 c-4 14 -3 21
2 17 15 -14 11 -75 -4 -69 -7 2 -11 7 -8 9 3 3 -4 23 -14 44 -29 56 -24 72 6
19 13 -25 22 -34 18 -20z m-70 12 c3 -5 -1 -9 -9 -9 -8 0 -12 4 -9 9 3 4 7 8
9 8 2 0 6 -4 9 -8z m130 -100 c3 -5 -1 -9 -9 -9 -8 0 -12 4 -9 9 3 4 7 8 9 8
2 0 6 -4 9 -8z m130 -100 c3 -5 -1 -9 -9 -9 -8 0 -12 4 -9 9 3 4 7 8 9 8 2 0
6 -4 9 -8z m96 -102 c0 -5 -2 -10 -4 -10 -3 0 -8 5 -11 10 -3 6 -1 10 4 10 6
0 11 -4 11 -10z"/>
<path d="M1250 5335 c0 -5 5 -17 10 -25 5 -8 10 -10 10 -5 0 6 -5 17 -10 25
-5 8 -10 11 -10 5z"/>
<path d="M3680 5931 l-20 -40 33 11 c17 6 37 15 42 20 6 5 -3 4 -18 -1 -39
-15 -39 -15 -22 19 9 17 13 30 10 30 -2 0 -14 -18 -25 -39z"/>
<path d="M335 5942 c6 -22 5 -23 -17 -17 -29 9 -22 2 20 -19 l33 -17 -17 33
c-21 42 -28 49 -19 20z"/>
<path d="M3898 5743 c-22 -26 -46 -74 -52 -105 -4 -15 -16 -33 -29 -39 -12 -6
-32 -21 -44 -32 -13 -11 -23 -16 -23 -11 0 5 19 26 42 48 l43 38 -40 -31 c-22
-17 -53 -41 -68 -54 l-29 -24 47 -12 c25 -6 63 -9 83 -6 29 4 33 3 17 -5 l-20
-10 20 1 c39 2 46 -1 94 -43 45 -40 44 -40 -5 8 -30 29 -44 50 -34 47 10 -3
26 -14 36 -24 9 -10 21 -19 27 -19 5 0 -1 9 -14 20 l-24 19 23 1 c12 0 22 4
22 10 0 5 -15 8 -32 5 -18 -2 -4 3 32 12 36 9 61 18 55 19 -5 2 -44 -4 -85
-14 -60 -14 -84 -16 -117 -8 -23 6 -45 14 -48 18 -8 7 57 51 93 62 12 4 19 12
16 18 -4 7 7 8 33 4 21 -4 50 -2 63 3 20 8 17 9 -20 5 -34 -4 -41 -3 -30 5 12
9 9 10 -13 5 -26 -6 -27 -5 -17 20 6 18 7 25 0 21 -6 -3 -10 -12 -10 -19 0 -8
-9 -24 -19 -37 l-19 -24 5 30 c3 17 18 49 34 73 30 44 32 54 7 25z m-98 -213
c20 -6 21 -8 5 -8 -11 0 -31 4 -45 8 -20 6 -21 8 -5 8 11 0 31 -4 45 -8z"/>
<path d="M600 5660 c-2 -41 -3 -81 -3 -87 1 -13 -55 26 -56 40 -1 13 17 8 35
-10 17 -17 18 -17 11 0 -4 10 -7 31 -8 45 0 26 0 27 -9 4 -8 -17 -15 -21 -36
-18 -15 3 -36 13 -48 23 -11 10 -6 2 12 -18 18 -20 50 -49 72 -65 22 -16 40
-33 40 -39 0 -5 10 -21 21 -35 l21 -25 -18 30 c-13 22 -20 58 -25 130 l-6 100
-3 -75z"/>
<path d="M3420 5644 c0 -74 -4 -98 -25 -143 -14 -30 -28 -51 -31 -48 -3 3 2
20 12 38 22 43 36 91 23 84 -5 -4 -9 -15 -9 -26 0 -11 -4 -18 -9 -15 -4 3 -15
-2 -23 -12 -17 -19 -60 -112 -52 -112 3 0 16 24 29 54 13 30 29 57 34 61 15 8
14 -1 -3 -33 -25 -50 -29 -72 -12 -72 9 0 15 5 14 12 -4 17 39 35 97 42 l50 5
-70 -23 c-88 -30 -76 -33 18 -5 61 18 78 20 126 10 30 -6 56 -9 58 -7 5 5 -90
26 -117 26 -11 0 -20 4 -20 9 0 9 35 7 71 -4 22 -7 22 -7 6 9 -9 10 -17 19
-17 20 0 2 41 -8 91 -21 50 -13 93 -22 95 -20 3 2 -27 13 -66 23 -38 10 -70
21 -70 26 0 4 12 14 28 22 15 8 40 29 57 48 l30 33 -35 -30 c-57 -49 -100 -76
-110 -70 -6 3 -20 -1 -32 -9 -48 -34 -37 -14 16 30 31 25 56 47 56 50 0 3 -31
-20 -69 -50 -38 -30 -81 -58 -95 -61 -83 -17 -76 -18 -60 12 7 16 14 33 14 38
0 6 18 23 40 39 22 16 54 45 72 65 l33 36 -40 -35 c-22 -20 -51 -45 -65 -58
l-26 -22 -3 83 c-4 111 -11 112 -11 1z"/>
<path d="M130 5675 c12 -32 -3 -40 -63 -32 -29 4 -36 3 -22 -3 26 -11 76 -12
93 -2 9 7 10 15 3 35 -6 15 -13 27 -16 27 -2 0 0 -11 5 -25z"/>
<path d="M3451 5648 c-1 -14 -4 -34 -8 -44 -6 -15 -4 -16 8 -6 8 7 23 19 34
27 16 12 16 14 3 9 -13 -4 -21 1 -27 17 l-10 24 0 -27z"/>
<path d="M2680 5630 c6 -11 13 -20 16 -20 2 0 0 9 -6 20 -6 11 -13 20 -16 20
-2 0 0 -9 6 -20z"/>
<path d="M3719 5582 c-29 -27 -60 -51 -68 -53 -8 -3 24 -14 70 -26 97 -24 119
-22 33 3 -33 9 -63 19 -68 22 -6 3 15 27 45 54 30 26 52 48 48 48 -3 0 -30
-22 -60 -48z"/>
<path d="M15 5551 c11 -5 43 -11 70 -14 31 -4 40 -3 25 2 -36 11 -119 22 -95
12z"/>
<path d="M1110 5538 c0 -2 26 -26 58 -53 31 -27 48 -39 37 -26 -21 24 -95 86
-95 79z"/>
<path d="M1350 5512 c0 -18 5 -32 10 -32 6 0 8 11 4 28 -10 39 -14 40 -14 4z"/>
<path d="M1399 5489 l-54 -51 58 48 c52 44 62 54 54 54 -2 0 -28 -23 -58 -51z"/>
<path d="M2625 5488 c27 -26 53 -47 58 -48 4 0 -12 17 -35 37 -66 57 -79 63
-23 11z"/>
<path d="M2670 5520 c0 -23 0 -23 -22 -4 -14 11 -11 5 7 -16 17 -19 30 -36 31
-38 0 -1 0 14 -1 33 -3 40 -15 61 -15 25z"/>
<path d="M2814 5491 l1 -49 37 33 c20 18 46 39 58 45 12 6 19 14 16 17 -3 4
-28 -13 -56 -36 -52 -44 -66 -45 -27 -2 12 14 14 19 5 12 -16 -12 -18 -11 -18
8 0 11 -4 21 -9 21 -4 0 -8 -22 -7 -49z"/>
<path d="M1380 5515 c-8 -9 -8 -15 -2 -15 12 0 26 19 19 26 -2 2 -10 -2 -17
-11z"/>
<path d="M3309 5483 c-10 -32 -13 -35 -20 -18 -5 13 -8 15 -9 5 0 -8 -10 -26
-21 -40 -18 -21 -20 -22 -15 -5 4 15 -1 12 -19 -10 -16 -19 -25 -24 -25 -15 0
13 -1 13 -10 0 -13 -19 -13 -43 0 -35 5 3 1 -13 -10 -37 -10 -23 -17 -45 -15
-48 2 -4 -2 -7 -10 -7 -10 0 -11 6 -4 24 14 38 1 26 -16 -14 -8 -20 -18 -34
-21 -30 -3 3 3 20 12 39 10 18 19 35 19 38 0 3 7 16 14 30 l14 25 -27 -24 -26
-24 -1 34 c-1 31 -2 30 -9 -11 -4 -25 -6 -47 -4 -49 2 -2 4 1 4 7 0 7 5 12 11
12 8 0 9 -4 0 -13 -6 -8 -9 -16 -6 -19 3 -2 -1 -5 -9 -5 -10 0 -14 20 -15 81
-1 44 -4 83 -7 85 -3 3 -4 -35 -2 -84 2 -66 6 -89 16 -87 16 3 15 -9 -4 -36
-21 -31 -13 -36 33 -24 26 7 31 10 15 11 -36 2 -17 18 31 27 38 7 40 8 17 15
-23 6 -23 7 -3 8 12 1 24 -3 28 -9 4 -6 16 -5 33 1 15 6 28 9 29 7 1 -2 5 1
10 6 4 5 3 6 -4 2 -6 -3 -14 -2 -17 3 -3 4 13 11 36 15 22 4 39 9 36 11 -3 3
-31 0 -63 -7 -46 -9 -54 -13 -39 -20 15 -6 13 -7 -6 -2 -14 3 -31 6 -37 6 -7
1 -13 2 -13 3 0 11 43 96 50 100 14 9 13 3 -9 -48 l-20 -46 47 15 c26 8 66 19
90 25 23 7 41 14 38 16 -4 4 -88 -17 -133 -34 -15 -6 -16 -4 -5 9 7 9 43 21
80 28 37 7 76 17 87 21 15 7 13 8 -10 4 -16 -3 -52 -9 -80 -13 l-50 -8 34 68
c19 37 32 71 29 74 -3 3 -12 -12 -19 -33z m-44 -88 c-15 -26 -29 -44 -32 -41
-3 3 7 26 22 51 15 26 29 44 32 41 3 -3 -7 -26 -22 -51z m-151 -153 c3 -5 -1
-9 -9 -9 -8 0 -12 4 -9 9 3 4 7 8 9 8 2 0 6 -4 9 -8z"/>
<path d="M3439 5425 c-3 -2 -27 -6 -55 -9 -27 -2 -60 -9 -74 -15 l-25 -11 25
4 c14 3 48 8 75 12 46 6 95 23 69 24 -6 0 -13 -2 -15 -5z"/>
<path d="M660 5366 c0 -6 111 -38 116 -33 2 2 -15 9 -38 16 -24 7 -51 15 -60
17 -10 3 -18 3 -18 0z"/>
<path d="M3161 5346 c-7 -8 -8 -17 -3 -20 6 -3 13 1 16 10 9 23 2 28 -13 10z"/>
<path d="M3054 5283 c-4 -16 -16 -43 -26 -61 -11 -18 -18 -35 -15 -38 3 -3 8
4 12 15 4 12 12 18 21 14 15 -6 15 -7 18 55 2 49 -1 54 -10 15z m-3 -56 c-10
-9 -11 -8 -5 6 3 10 9 15 12 12 3 -3 0 -11 -7 -18z"/>
<path d="M3018 5258 c-8 -13 -19 -34 -23 -48 -4 -14 -16 -37 -26 -52 -27 -37
-24 -41 19 -34 71 13 135 38 121 47 -10 6 -7 9 11 9 14 0 32 5 40 11 12 8 11
9 -5 5 -11 -3 -38 -7 -60 -10 -39 -5 -39 -5 9 10 46 15 53 15 120 -5 81 -24
86 -25 86 -11 0 6 -15 10 -32 11 -18 0 -49 7 -68 15 l-35 14 45 -5 c39 -4 42
-3 20 7 -14 6 -33 10 -44 9 -12 -2 -16 2 -11 9 4 6 16 10 26 7 10 -3 24 1 30
9 10 12 7 14 -12 10 -13 -3 -27 -5 -31 -5 -4 -1 -15 -10 -25 -20 -21 -22 -93
-45 -93 -29 0 6 -16 -2 -35 -16 -29 -23 -36 -25 -41 -12 -3 9 3 34 15 56 23
44 22 53 -1 18z m-21 -91 c-4 -10 2 -13 19 -9 13 2 22 7 20 11 -3 4 12 5 32 2
l37 -4 -36 -12 c-20 -7 -52 -15 -72 -18 -36 -5 -36 -5 -20 19 17 26 28 32 20
11z"/>
<path d="M836 5212 c-17 -8 -49 -17 -73 -20 -24 -2 -43 -9 -43 -13 0 -12 4
-12 99 15 51 13 77 25 65 27 -10 3 -32 -1 -48 -9z"/>
<path d="M918 5203 c6 -2 18 -2 25 0 6 3 1 5 -13 5 -14 0 -19 -2 -12 -5z"/>
<path d="M1130 5163 c0 -7 4 -14 9 -18 5 -3 12 -19 16 -35 4 -16 11 -32 15
-35 12 -7 -9 54 -27 80 -7 11 -13 14 -13 8z"/>
<path d="M1311 5003 c-2 -40 -4 -78 -5 -85 -2 -22 -23 -18 -67 13 -24 18 -36
23 -26 12 9 -11 17 -23 17 -28 0 -5 12 -22 28 -38 l27 -29 -25 6 c-24 7 -24 6
-5 -9 10 -8 23 -14 29 -12 10 3 87 -75 80 -82 -2 -2 -25 13 -51 34 -33 26 -40
30 -24 12 14 -15 21 -27 16 -27 -5 0 9 -18 30 -40 38 -39 40 -57 3 -23 -10 9
-18 11 -18 5 0 -6 10 -16 23 -23 12 -6 38 -25 57 -43 l35 -31 -34 38 c-40 43
-30 50 14 10 20 -20 27 -22 22 -9 -4 10 -8 54 -8 99 l-2 82 -7 -75 c-4 -41 -5
-79 -2 -85 8 -14 -68 48 -92 74 -27 30 -4 26 24 -4 13 -14 26 -22 30 -18 3 5
3 53 0 108 -5 77 -7 86 -8 38 -2 -77 -9 -98 -28 -82 -8 6 -12 15 -9 19 2 4
-18 26 -45 49 -28 23 -50 47 -50 52 0 11 43 -14 78 -45 l22 -19 -2 94 c-1 57
-3 72 -5 39 -4 -75 -11 -102 -24 -94 -8 5 -8 9 0 14 8 4 11 35 8 91 l-3 84 -3
-72z"/>
<path d="M2980 5060 c-9 -6 -10 -10 -3 -10 6 0 15 5 18 10 8 12 4 12 -15 0z"/>
<path d="M1348 4903 c-2 -38 -1 -77 3 -88 5 -11 8 19 8 68 1 48 -1 87 -3 87
-2 0 -6 -30 -8 -67z"/>
<path d="M1400 4800 c-3 -47 -4 -87 -3 -89 10 -15 13 18 11 90 l-3 84 -5 -85z"/>
<path d="M1610 4750 c-4 -98 -4 -98 -13 -104 -4 -3 -5 -3 -2 0 2 4 -4 19 -14
33 -10 14 -18 30 -17 35 0 5 -12 10 -27 12 -16 1 -34 6 -41 11 -7 4 -4 1 7 -7
61 -49 86 -72 84 -78 -1 -4 15 -42 36 -84 21 -43 37 -83 35 -89 -2 -7 -18 18
-36 54 -17 37 -34 67 -37 67 -3 0 4 -18 15 -41 22 -42 23 -82 2 -42 -22 40
-42 17 -41 -46 2 -51 2 -53 9 -21 6 25 8 10 7 -52 -1 -49 -4 -88 -8 -88 -4 0
-13 7 -20 16 -11 13 -10 17 4 25 19 11 23 44 7 54 -5 3 -11 48 -12 98 l-1 92
-6 -72 c-6 -72 -13 -93 -26 -74 -3 6 -1 11 4 11 7 0 10 31 9 88 l-2 87 -5 -75
c-3 -41 -10 -75 -15 -74 -4 1 -33 21 -64 45 -31 23 -53 38 -49 32 13 -20 109
-88 120 -85 8 2 8 -1 0 -9 -10 -10 -22 -6 -60 20 -27 19 -40 25 -30 14 9 -11
17 -24 17 -29 0 -5 21 -28 47 -52 27 -25 39 -41 28 -37 -16 5 -18 4 -7 -6 21
-22 13 -33 -10 -13 l-23 19 20 -25 c26 -32 27 -76 3 -74 -10 1 -15 -3 -12 -8
4 -7 -9 -8 -37 -3 -24 4 -41 4 -37 0 4 -4 42 -14 85 -21 66 -12 83 -19 117
-51 l41 -38 -34 37 c-39 42 -39 60 -1 25 l25 -23 0 88 c0 66 -3 87 -12 83 -9
-3 -13 7 -13 32 0 20 -3 34 -6 30 -4 -3 -6 -38 -5 -76 1 -38 -3 -72 -7 -75 -5
-3 -9 27 -9 67 0 40 -4 96 -8 125 -4 28 -5 52 -2 52 2 0 21 -33 40 -72 35 -71
36 -76 34 -182 -2 -127 -10 -137 -62 -81 -19 20 -35 32 -35 27 0 -5 7 -15 15
-22 8 -7 13 -16 10 -20 -3 -4 17 -25 43 -46 26 -21 50 -43 54 -49 5 -7 8 -7 8
1 0 5 -14 20 -31 33 -36 27 -32 40 5 16 24 -16 26 -16 26 -1 0 9 -3 15 -7 15
-5 -1 -15 -1 -23 0 -11 1 -12 3 -3 9 9 6 13 44 14 123 1 62 5 119 9 124 4 6
13 28 20 50 7 22 20 51 28 65 l14 25 -21 -25 c-26 -32 -27 -11 -1 40 11 22 18
40 15 40 -2 0 -13 -17 -24 -37 l-19 -37 3 52 c2 52 9 71 21 60 3 -4 1 -16 -6
-27 -6 -12 -8 -21 -6 -21 8 0 36 57 30 62 -4 5 34 40 88 80 23 18 23 18 -6 3
-16 -8 -33 -12 -38 -9 -5 3 -15 0 -23 -6 -13 -10 -15 -8 -15 15 0 37 -6 29
-13 -17 l-6 -38 22 20 c35 33 43 22 9 -13 -18 -18 -29 -37 -25 -42 5 -4 3 -6
-2 -2 -6 3 -12 43 -14 89 -3 110 -11 114 -11 6 0 -78 -12 -141 -30 -161 -4 -4
-15 5 -26 20 -14 21 -20 54 -25 128 l-6 100 -3 -75z m10 -122 c0 -7 9 -24 20
-38 11 -14 19 -36 19 -50 0 -19 -7 -11 -29 35 -34 69 -33 65 -20 65 6 0 10 -6
10 -12z m66 -65 c-4 -9 -2 -30 4 -47 7 -23 6 -42 -4 -71 l-14 -40 -1 79 c0 43
2 82 5 87 9 15 16 10 10 -8z m-27 -133 l0 -25 -13 25 c-7 14 -17 36 -20 50
l-7 25 20 -25 c11 -14 20 -36 20 -50z m-136 1 c25 -21 45 -57 25 -45 -27 16
-98 79 -98 86 0 9 42 -15 73 -41z m35 -65 c-2 -1 -12 -8 -23 -16 -18 -14 -19
-13 -8 1 7 9 10 19 6 23 -4 4 1 4 10 0 10 -3 17 -7 15 -8z m70 -80 l-3 -53
-32 24 c-38 30 -47 49 -22 49 10 0 18 -6 16 -12 -1 -7 2 -13 7 -12 5 0 13 -6
17 -14 6 -8 9 2 9 30 0 23 3 42 6 42 3 0 4 -24 2 -54z m-88 34 c0 -5 -2 -10
-4 -10 -3 0 -8 5 -11 10 -3 6 -1 10 4 10 6 0 11 -4 11 -10z m19 -48 c8 -15 5
-17 -32 -13 -33 4 -36 6 -15 9 20 2 25 7 21 19 -8 21 13 8 26 -15z m65 -121
c-2 -3 -12 3 -22 13 -16 17 -16 18 5 5 12 -7 20 -15 17 -18z"/>
<path d="M1681 4484 c0 -11 3 -14 6 -6 3 7 2 16 -1 19 -3 4 -6 -2 -5 -13z"/>
<path d="M2320 4750 c-4 -99 -4 -97 -14 -107 -5 -4 -6 -3 -3 3 7 12 -54 72
-93 92 l-25 13 23 -18 c61 -47 89 -73 90 -85 0 -7 12 -35 27 -63 25 -48 26
-48 10 4 -5 18 -4 22 5 16 10 -6 11 -4 4 6 -5 8 -12 59 -15 114 l-6 100 -3
-75z m10 -126 c0 -8 -4 -12 -10 -9 -5 3 -10 10 -10 16 0 5 5 9 10 9 6 0 10 -7
10 -16z"/>
<path d="M2410 4737 c0 -82 -20 -167 -40 -167 -12 0 -20 -43 -10 -55 6 -7 7
-15 3 -18 -3 -4 -1 -7 5 -7 7 0 12 4 12 9 0 5 3 17 6 25 5 12 2 15 -12 10 -11
-3 -15 -2 -9 3 6 4 16 19 23 33 12 25 12 25 7 -5 -4 -24 0 -20 21 20 14 28 26
56 26 63 1 12 29 38 90 85 l23 18 -25 -13 c-38 -20 -100 -80 -93 -91 3 -6 2
-7 -3 -4 -6 3 -11 43 -13 89 -3 110 -11 114 -11 5z m20 -104 c0 -5 -8 -17 -17
-28 -14 -18 -15 -18 -9 -2 3 10 6 23 6 28 0 5 5 9 10 9 6 0 10 -3 10 -7z"/>
<path d="M2600 4736 c0 -48 4 -85 9 -82 8 5 4 156 -5 165 -2 2 -4 -35 -4 -83z"/>
<path d="M1450 4714 c0 -64 -12 -104 -30 -104 -5 0 -26 14 -47 32 -32 27 -34
28 -14 5 14 -16 19 -27 12 -27 -7 0 10 -18 37 -40 28 -21 53 -44 57 -49 3 -6
14 -15 23 -20 16 -8 17 -1 13 82 l-5 92 -6 -75 c-4 -41 -5 -79 -2 -85 3 -5
-14 8 -39 30 -24 22 -40 42 -36 44 5 2 19 -6 31 -18 12 -12 25 -21 29 -21 4 0
6 39 5 88 l-2 87 -3 -83 c-3 -72 -6 -81 -18 -68 -17 17 -20 30 -5 21 6 -4 10
27 10 84 0 50 -2 91 -5 91 -3 0 -5 -30 -5 -66z"/>
<path d="M1578 4732 c-2 -16 2 -34 8 -40 10 -9 11 -4 7 26 -7 47 -10 49 -15
14z"/>
<path d="M2291 4736 c-1 -25 -3 -27 -18 -15 -10 7 -7 1 7 -13 14 -14 26 -25
26 -24 1 0 -2 19 -6 41 -6 33 -8 35 -9 11z"/>
<path d="M2439 4725 c-4 -22 -6 -41 -5 -41 1 -1 12 10 26 24 14 14 17 20 8 13
-14 -11 -17 -9 -20 16 -3 24 -4 23 -9 -12z"/>
<path d="M1320 4600 c-1 -41 -2 -79 -1 -83 3 -17 -62 29 -86 61 -14 17 -30 32
-36 32 -16 0 41 -57 91 -91 23 -17 42 -35 42 -42 0 -7 7 -24 14 -39 8 -16 14
-28 12 -28 -29 0 -119 39 -144 63 -22 21 -35 28 -42 21 -8 -8 -6 -15 5 -24 21
-18 19 -30 -7 -31 -13 0 -17 -3 -10 -6 7 -3 26 0 42 6 25 8 30 7 30 -6 0 -9 6
-13 14 -10 8 3 40 -3 72 -14 51 -16 54 -18 19 -14 -22 3 -53 8 -70 12 -16 3
-27 3 -24 -1 5 -5 49 -15 141 -31 27 -5 27 -5 16 27 -6 18 -20 46 -29 62 -10
16 -16 33 -13 37 2 4 0 10 -6 14 -17 11 -11 -13 16 -66 15 -28 23 -53 18 -57
-5 -4 -8 -6 -7 -4 1 2 -8 23 -20 45 -17 32 -23 67 -28 142 l-6 100 -3 -75z
m-105 -140 c12 -19 -12 -10 -31 11 -19 22 -19 22 3 10 12 -6 25 -16 28 -21z"/>
<path d="M2713 4593 c-1 -70 -5 -92 -29 -140 -16 -32 -27 -62 -26 -68 2 -5 -2
-5 -9 2 -9 9 -5 25 20 72 17 34 29 61 27 61 -7 0 -52 -84 -64 -119 -11 -30
-10 -31 16 -26 92 16 136 26 141 31 3 4 -7 4 -24 1 -70 -14 -110 -17 -90 -8
11 5 15 10 9 10 -21 2 34 92 73 120 21 16 49 41 63 57 14 15 1 7 -29 -19 -47
-42 -71 -56 -71 -43 0 3 17 22 38 42 20 21 25 28 10 15 l-26 -23 -5 28 c-4 28
-4 27 -7 -6 -3 -26 -5 -18 -10 30 l-7 65 0 -82z"/>
<path d="M1291 4586 l-1 -29 -27 23 c-16 13 -12 8 7 -12 19 -20 36 -35 36 -34
1 0 -2 19 -6 41 -7 34 -8 36 -9 11z"/>
<path d="M2310 4560 c25 -50 26 -73 0 -40 -11 14 -4 -7 16 -47 19 -40 39 -73
44 -73 5 0 25 33 44 73 20 40 27 61 16 47 -26 -33 -25 -10 0 40 11 22 18 40
15 40 -4 0 -20 -29 -36 -65 -16 -36 -34 -65 -39 -65 -5 0 -23 29 -39 65 -16
36 -32 65 -36 65 -3 0 4 -18 15 -40z m50 -112 c0 -10 5 -18 10 -18 6 0 10 8
10 18 1 16 30 64 30 49 0 -19 -30 -77 -40 -77 -10 0 -40 58 -40 77 0 15 29
-33 30 -49z"/>
<path d="M1135 4520 c10 -11 20 -20 23 -20 3 0 -3 9 -13 20 -10 11 -20 20 -23
20 -3 0 3 -9 13 -20z"/>
<path d="M2845 4489 c-33 -27 -80 -56 -105 -64 -37 -13 -39 -14 -10 -9 50 9
58 9 128 -10 35 -10 66 -15 69 -13 2 3 -20 10 -50 17 -31 6 -61 17 -67 25 -10
12 -6 13 22 5 42 -13 61 -12 29 1 l-23 9 37 45 c20 25 35 45 33 44 -2 0 -30
-22 -63 -50z m0 -19 c-10 -11 -22 -20 -28 -20 -5 0 1 9 14 20 31 25 37 25 14
0z"/>
<path d="M2462 4447 c-2 -101 -3 -101 83 -21 44 41 45 43 9 16 -22 -17 -47
-38 -54 -47 -23 -28 -29 -16 -33 63 l-3 77 -2 -88z"/>
<path d="M1397 4443 c31 -68 42 -85 54 -77 5 3 9 0 9 -6 0 -8 -7 -9 -17 -5
-10 3 -36 8 -58 9 -22 2 -53 6 -70 9 -38 8 46 -17 102 -30 30 -7 44 -7 47 1 3
7 5 7 5 -1 2 -21 -17 -23 -75 -8 -32 8 -60 13 -62 10 -2 -2 9 -7 24 -10 16 -4
44 -11 61 -17 18 -5 37 -7 43 -3 5 3 10 2 10 -3 0 -5 8 -12 18 -14 16 -5 14 5
-15 63 -18 37 -33 72 -33 78 0 5 -5 13 -10 16 -6 4 -3 -12 6 -35 27 -68 7 -57
-25 14 -16 36 -32 66 -35 66 -3 0 7 -26 21 -57z"/>
<path d="M2619 4434 c-17 -36 -28 -69 -25 -72 3 -2 8 4 12 14 4 10 17 43 30
72 12 28 21 52 18 52 -3 0 -19 -30 -35 -66z"/>
<path d="M2441 4455 c-2 -22 -3 -70 -3 -107 -1 -37 -5 -65 -10 -62 -4 3 -8 37
-7 75 1 38 -1 73 -5 76 -3 4 -6 -10 -6 -30 0 -24 -4 -36 -12 -34 -8 1 -12 -7
-10 -21 2 -13 -2 -30 -9 -38 -11 -13 -14 -12 -25 8 -16 28 -18 52 -4 43 6 -3
10 -15 10 -26 0 -10 5 -19 10 -19 17 0 11 37 -7 46 -10 4 -21 6 -25 6 -5 -1
-8 1 -8 6 0 4 -9 18 -20 32 -11 14 -4 -8 16 -48 25 -51 40 -72 50 -68 11 4 14
-4 14 -32 0 -20 -4 -44 -9 -51 -6 -10 -8 0 -4 27 4 29 2 42 -6 42 -9 0 -11
-20 -8 -70 2 -39 1 -73 -3 -75 -4 -2 -8 30 -9 73 -3 106 -11 105 -11 -1 0 -48
3 -87 6 -87 3 0 17 9 31 20 27 21 48 27 38 10 -12 -20 12 -10 31 13 10 12 12
16 4 10 -32 -29 -32 -10 1 24 l34 37 -43 -37 c-56 -49 -76 -48 -28 2 27 28 52
42 85 50 l46 10 -41 -2 c-40 -2 -41 -2 -28 19 8 11 12 23 9 26 -3 3 2 11 12
19 15 12 16 12 8 -1 -15 -24 -13 -48 4 -49 9 0 35 -3 57 -6 28 -5 44 -3 49 4
5 9 -3 10 -30 5 -24 -4 -36 -3 -32 3 3 5 -4 9 -16 9 -17 -1 -22 5 -22 27 -1
15 7 35 17 44 10 8 16 19 13 22 -2 4 5 12 16 19 26 16 24 8 -11 -54 l-29 -52
92 25 c51 14 94 27 96 29 8 8 -17 4 -65 -11 -56 -17 -83 -19 -68 -6 5 5 44 16
87 26 43 9 76 19 74 22 -3 2 -22 0 -43 -6 -22 -5 -55 -11 -74 -13 -19 -1 -40
-10 -47 -18 -20 -25 -15 -3 12 50 26 52 32 75 15 65 -5 -3 -10 -15 -10 -26 0
-10 -3 -18 -7 -17 -13 5 -83 -41 -83 -53 0 -7 -3 -9 -7 -6 -3 4 -12 2 -19 -4
-16 -13 -22 9 -27 91 -3 46 -4 48 -6 15z m99 -78 c0 -2 -10 -12 -21 -23 -22
-19 -22 -19 -8 4 12 19 29 30 29 19z m-50 -37 c0 -5 -10 -19 -22 -30 -21 -19
-21 -21 -3 -14 20 7 20 7 1 -15 -12 -13 -26 -19 -35 -16 -8 3 -12 3 -8 -1 4
-4 1 -14 -6 -23 -11 -14 -10 -14 6 -2 33 26 27 5 -8 -29 -19 -19 -35 -29 -35
-23 0 7 6 18 14 25 9 9 12 33 11 73 -2 42 -1 49 4 25 4 -22 12 -35 21 -35 8 1
14 7 12 14 -2 8 7 24 19 37 25 27 29 29 29 14z m74 -18 c3 -5 -1 -9 -9 -9 -8
0 -12 4 -9 9 3 4 7 8 9 8 2 0 6 -4 9 -8z"/>
<path d="M1716 4405 c-9 -13 -16 -30 -16 -37 0 -10 -2 -10 -8 -1 -4 7 -8 -6
-9 -30 -2 -29 1 -37 7 -27 5 8 10 22 10 30 0 8 9 32 20 53 23 42 20 49 -4 12z"/>
<path d="M1151 4409 c-24 -5 -46 -11 -50 -14 -7 -8 78 6 104 16 26 10 3 9 -54
-2z"/>
<path d="M1460 4416 c0 -2 8 -10 18 -17 15 -13 16 -12 3 4 -13 16 -21 21 -21
13z"/>
<path d="M1678 4220 c-3 -73 8 -84 15 -15 2 22 4 6 4 -35 0 -41 3 -86 7 -99 9
-27 5 -25 -64 27 -44 33 -44 33 -10 2 19 -17 47 -40 61 -50 l25 -19 -3 77 c-5
115 -13 182 -23 182 -5 0 -10 -31 -12 -70z"/>
<path d="M2320 4160 c-1 -47 -4 -95 -5 -107 -1 -13 2 -23 8 -23 6 0 2 -6 -9
-14 -10 -8 -21 -12 -24 -9 -3 2 -8 35 -11 71 l-6 67 -1 -89 -2 -89 23 19 c31
29 77 56 77 47 0 -8 -95 -93 -103 -93 -3 0 -5 6 -4 13 1 46 -7 137 -10 109 -2
-18 -9 -30 -14 -27 -5 4 -9 -6 -10 -22 -4 -195 -5 -183 14 -166 21 20 23 30 2
13 -8 -7 -15 -8 -15 -2 0 5 7 15 15 22 11 9 12 17 5 30 -6 10 -9 36 -8 57 l1
38 6 -43 6 -44 28 22 c27 21 38 15 15 -8 -6 -6 -10 -14 -7 -16 2 -2 20 12 39
32 19 20 27 30 18 23 -29 -22 -22 8 7 31 14 11 25 24 25 30 0 6 8 20 18 32 11
13 5 11 -19 -7 -57 -43 -59 -31 -4 21 28 26 43 41 35 35 -21 -16 -38 -17 -22
-1 7 7 12 16 12 22 0 5 -16 -6 -37 -25 -20 -18 -34 -29 -31 -24 3 6 2 44 -2
85 l-7 75 -3 -85z m38 -87 c-15 -15 -30 -24 -34 -20 -7 7 35 46 51 47 5 0 -3
-12 -17 -27z"/>
<path d="M1731 4123 c-2 -40 -4 -78 -5 -85 -2 -22 -23 -18 -67 13 -24 18 -36
23 -26 12 9 -11 17 -25 17 -31 0 -6 12 -20 26 -31 17 -13 24 -26 20 -36 -3 -9
-2 -14 3 -11 4 3 14 -6 21 -19 7 -13 18 -22 23 -18 6 4 7 1 3 -6 -6 -9 -13 -8
-27 5 -21 19 -26 6 -6 -15 10 -11 7 -12 -18 -6 -39 9 -27 -3 14 -15 19 -5 29
-5 26 1 -4 5 -2 9 4 9 5 0 9 -8 8 -19 -1 -16 -5 -17 -32 -9 -55 17 -108 29
-112 24 -2 -2 11 -7 29 -11 52 -11 132 -37 146 -48 20 -16 6 -20 -20 -6 -21
11 -22 11 -9 -4 7 -10 18 -17 24 -17 6 0 29 -17 52 -37 l40 -38 -40 43 c-42
45 -40 54 5 22 l29 -21 4 63 c3 42 3 35 2 -21 0 -55 -5 -86 -13 -89 -6 -2 -28
14 -48 35 -23 25 -30 29 -20 12 9 -14 13 -28 10 -31 -3 -4 24 -30 60 -58 36
-29 66 -56 66 -62 0 -5 -6 -6 -12 -2 -9 5 -9 3 1 -9 7 -9 17 -15 21 -12 5 3
11 -1 13 -7 3 -7 5 3 6 22 0 31 -1 32 -9 13 -5 -13 -12 -23 -15 -23 -4 0 -3 5
0 10 4 6 3 16 -2 23 -5 7 -10 57 -11 111 -3 113 -12 145 -12 40 0 -81 -10
-104 -31 -78 -12 15 -12 17 1 12 13 -5 14 8 9 91 -3 53 -9 107 -13 121 -5 16
-4 20 1 12 7 -9 15 -1 31 27 12 21 22 45 22 52 0 8 -9 -5 -20 -28 -22 -49 -35
-56 -26 -15 l5 27 -13 -28 -12 -28 -15 28 c-13 27 -14 25 -19 -52 -4 -61 -7
-73 -13 -52 -4 15 -5 39 -2 55 4 22 4 24 -4 7 -8 -16 -10 -11 -9 25 0 37 1 40
8 20 6 -20 8 -17 6 16 0 23 -4 40 -8 38 -4 -3 -9 10 -11 28 -2 18 -5 0 -7 -39
-3 -97 -3 -96 -18 -99 -7 -1 -8 0 -3 2 5 3 -12 25 -38 49 -25 25 -40 45 -32
45 7 0 29 -16 48 -35 19 -19 32 -28 29 -19 -3 8 -7 55 -8 102 -1 60 -3 70 -5
32 -4 -75 -11 -102 -24 -94 -8 5 -8 9 0 14 8 4 11 35 8 91 l-3 84 -3 -72z m4
-173 c10 -11 13 -20 7 -20 -6 0 -16 9 -22 20 -6 11 -9 20 -7 20 2 0 12 -9 22
-20z m113 -81 l0 -79 -30 18 c-34 19 -49 35 -52 54 -1 7 -5 19 -10 27 -5 8 -3
16 5 22 19 12 29 11 29 -2 0 -5 -5 -7 -11 -3 -6 3 -3 -5 6 -20 17 -25 17 -26
-1 -20 -17 5 -17 4 1 -7 11 -6 27 -20 35 -30 14 -17 15 -11 13 63 0 44 2 75 7
68 4 -7 8 -48 8 -91z m45 -185 c9 -4 17 -13 17 -21 0 -15 -24 -1 -85 52 l-30
26 40 -26 c22 -14 48 -28 58 -31z"/>
<path d="M2291 4108 c0 -49 3 -88 7 -88 4 0 6 33 4 73 -5 107 -10 114 -11 15z"/>
<path d="M2110 4038 c0 -4 8 -23 17 -43 12 -25 19 -32 26 -23 5 8 6 2 3 -17
-5 -24 -4 -27 5 -15 8 12 9 10 3 -10 -13 -44 -17 -202 -4 -210 8 -5 7 -10 -3
-18 -12 -10 -15 0 -16 65 -3 106 -11 106 -11 0 0 -48 2 -87 4 -87 11 0 93 60
111 81 11 13 3 9 -18 -9 -22 -18 -44 -31 -50 -29 -7 2 -12 36 -12 88 -1 56 -1
63 2 21 4 -62 4 -62 26 -47 38 27 42 16 6 -22 l-34 -38 40 38 c23 20 46 37 52
37 6 0 17 7 24 17 13 15 12 15 -8 5 -30 -16 -38 -15 -23 3 7 8 18 15 24 15 19
0 157 43 152 47 -2 3 -34 -5 -71 -16 -37 -12 -68 -21 -69 -21 -1 0 -2 9 -3 20
-1 11 3 20 8 20 6 0 8 -4 4 -9 -3 -6 7 -6 26 -1 41 12 53 24 14 14 l-30 -7 19
22 c11 11 14 21 9 21 -6 0 -16 -7 -23 -15 -9 -11 -16 -12 -25 -5 -10 8 -15 8
-21 -1 -4 -8 -3 -9 4 -5 7 4 12 3 12 -3 0 -5 -5 -13 -10 -16 -6 -4 -8 -10 -5
-15 7 -12 -30 -54 -42 -47 -6 4 -11 43 -11 88 0 44 -3 83 -6 86 -3 3 -11 -6
-17 -21 l-13 -27 -12 28 c-7 15 -13 21 -14 13 0 -8 -9 1 -20 20 -11 19 -19 32
-20 28z m87 -147 c-1 -59 1 -77 11 -74 19 8 14 -5 -7 -16 -18 -10 -19 -6 -19
62 0 69 5 107 13 107 3 0 3 -35 2 -79z"/>
<path d="M2111 3723 c0 -45 -4 -89 -8 -99 -5 -13 2 -10 23 10 16 15 45 38 64
51 19 12 42 31 50 41 19 23 -40 -17 -89 -61 -19 -16 -32 -25 -29 -20 3 6 2 44
-2 85 l-7 75 -2 -82z"/>
<path d="M1962 3648 c-3 -83 -8 -91 -40 -71 -15 9 -40 28 -57 42 l-30 26 30
-33 c16 -18 41 -39 55 -45 29 -14 99 -113 100 -141 0 -13 -10 -5 -30 25 -16
24 -30 49 -30 56 0 6 -4 15 -10 18 -7 4 -7 -2 0 -19 5 -14 7 -32 4 -41 -6 -14
52 -127 67 -133 4 -2 5 -10 2 -18 -6 -15 -42 32 -68 90 -11 23 -13 24 -9 6 4
-14 9 -31 12 -39 4 -9 1 -12 -7 -7 -17 11 12 -55 47 -108 16 -23 27 -47 24
-54 -4 -13 -44 40 -67 92 -11 23 -13 24 -9 6 4 -14 9 -31 12 -39 3 -9 1 -12
-6 -7 -9 5 -9 0 -2 -19 13 -33 13 -38 -1 -30 -14 9 12 -52 45 -104 15 -23 26
-50 24 -59 -3 -11 -16 6 -36 46 -18 34 -35 62 -37 62 -7 0 54 -122 71 -140 7
-9 10 -21 5 -28 -5 -8 -19 9 -41 53 -18 36 -35 65 -37 65 -7 0 25 -67 51 -109
15 -23 26 -50 24 -59 -3 -11 -16 6 -36 46 -18 34 -35 62 -37 62 -8 0 63 -138
75 -145 6 -3 8 -11 4 -16 -7 -12 -40 29 -59 75 -9 20 -18 36 -20 36 -9 0 21
-63 49 -104 14 -21 26 -48 26 -60 -1 -14 -11 -3 -34 36 -47 84 -56 86 -11 3
21 -38 43 -73 49 -77 8 -5 7 -11 -1 -19 -8 -8 -18 0 -37 33 -14 25 -26 50 -26
56 0 6 -5 14 -11 17 -14 10 15 -57 45 -102 14 -21 26 -47 26 -58 0 -13 -12 0
-34 37 -47 84 -56 86 -11 3 21 -38 42 -72 46 -75 4 -3 4 -12 0 -19 -6 -10 -16
-1 -35 31 -14 25 -26 50 -26 56 0 6 -5 14 -11 17 -14 10 15 -57 45 -102 14
-21 26 -47 26 -58 0 -14 -7 -8 -26 23 -14 23 -27 42 -30 42 -6 0 33 -67 52
-90 8 -9 10 -21 5 -29 -6 -10 -16 -1 -35 31 -14 25 -26 50 -26 56 0 6 -5 14
-11 17 -14 10 15 -57 45 -102 14 -21 26 -47 26 -58 0 -16 -5 -12 -22 15 -12
19 -29 51 -39 70 l-17 35 4 -44 c2 -25 19 -72 39 -109 20 -35 35 -71 33 -79
-2 -8 -18 15 -37 51 -34 68 -48 85 -31 41 5 -14 7 -31 4 -39 -5 -13 40 -116
51 -116 3 0 -6 23 -20 51 -33 63 -27 90 6 29 13 -25 24 -64 25 -87 l2 -43 -29
43 c-16 23 -29 47 -29 54 0 6 -4 15 -10 18 -7 4 -7 -2 0 -19 5 -14 7 -32 4
-40 -3 -8 10 -44 30 -79 44 -78 47 -107 6 -46 -16 24 -30 49 -30 56 0 6 -4 15
-10 18 -6 4 -6 -4 1 -22 7 -20 7 -29 -1 -31 -10 -4 55 -134 71 -140 4 -2 5
-10 2 -18 -6 -15 -42 32 -68 90 -11 23 -13 25 -9 6 4 -14 22 -49 41 -78 19
-29 33 -60 31 -70 -3 -12 -14 0 -36 38 -17 30 -32 51 -32 46 0 -12 59 -114 70
-121 5 -3 7 -12 4 -20 -7 -17 -50 41 -67 88 -5 15 -11 26 -14 24 -7 -8 24 -75
51 -110 15 -19 26 -42 26 -52 0 -25 -12 -12 -50 55 -29 50 -32 51 -13 3 4 -11
3 -14 -5 -9 -9 5 -9 0 -2 -19 13 -33 13 -48 0 -40 -5 3 -10 0 -11 -7 0 -7 -2
-21 -4 -30 -4 -23 12 -23 18 0 2 9 4 0 3 -20 l-1 -37 -40 38 c-22 20 -49 43
-60 50 -11 7 7 -12 39 -43 33 -31 56 -56 52 -56 -11 0 62 -138 76 -143 10 -3
10 -7 2 -17 -9 -9 -18 -2 -38 32 -14 25 -26 50 -26 56 0 6 -5 14 -11 17 -14
10 15 -57 45 -102 14 -21 26 -47 26 -58 0 -13 -12 0 -34 37 -47 84 -56 86 -11
3 21 -38 43 -73 49 -77 8 -5 7 -11 -1 -19 -8 -8 -18 0 -37 33 -14 25 -26 50
-26 56 0 6 -5 14 -11 17 -14 10 15 -57 45 -102 14 -21 26 -46 26 -57 0 -14
-10 -5 -30 27 -16 26 -30 52 -30 57 0 5 -4 12 -10 15 -6 4 -7 -1 -2 -12 10
-26 65 -117 73 -123 5 -3 4 -12 0 -19 -6 -10 -16 -1 -35 31 -14 25 -26 50 -26
56 0 6 -5 14 -11 17 -14 10 15 -57 45 -102 14 -21 26 -47 26 -58 0 -21 -21 7
-62 85 -12 22 -16 26 -12 11 3 -14 22 -48 40 -77 36 -56 49 -109 18 -69 -9 11
-25 39 -36 63 -10 23 -21 42 -24 42 -8 0 24 -68 50 -107 14 -21 26 -47 26 -58
0 -21 -21 7 -62 85 -13 24 -16 27 -12 10 4 -14 7 -34 6 -45 -1 -11 15 -49 34
-84 19 -35 34 -70 32 -78 -2 -8 -18 15 -37 51 -34 68 -48 85 -31 41 5 -14 7
-31 4 -39 -3 -8 11 -46 31 -85 20 -39 35 -75 33 -81 -2 -6 -18 18 -37 54 -35
68 -48 85 -31 40 13 -33 13 -47 -1 -38 -8 5 -8 1 0 -14 14 -26 14 -45 1 -37
-5 3 -10 -1 -10 -9 0 -21 -15 -28 -18 -8 -1 9 -4 64 -7 122 -3 57 -8 106 -10
109 -3 2 -5 -30 -5 -72 0 -42 -4 -78 -9 -81 -5 -3 -9 0 -8 7 1 48 -4 200 -7
196 -2 -2 -6 -42 -8 -88 -3 -54 -8 -86 -16 -89 -13 -4 -76 57 -67 66 3 3 22
-10 43 -29 l37 -34 -34 38 c-36 38 -32 49 7 21 l22 -15 0 68 c0 52 5 76 22
103 30 49 50 100 39 100 -5 0 -11 -12 -14 -27 -3 -16 -13 -37 -22 -48 -16 -19
-16 -19 -11 10 l5 30 -14 -30 c-8 -16 -14 -25 -15 -19 0 5 -7 19 -15 30 -14
17 -14 16 0 -13 8 -18 15 -38 15 -45 -1 -22 -37 34 -50 75 -6 21 -13 37 -16
35 -8 -9 16 -71 41 -103 20 -27 25 -45 25 -90 l0 -57 -32 19 c-24 14 -45 42
-75 102 -24 46 -45 87 -49 90 -10 10 25 -71 38 -86 6 -7 12 -24 13 -37 3 -23
1 -23 -28 -14 -57 17 -110 29 -114 24 -2 -2 11 -7 29 -11 62 -13 133 -38 151
-53 25 -22 12 -27 -20 -8 l-28 17 22 -19 c12 -11 19 -22 16 -26 -3 -3 2 -15
12 -26 10 -11 15 -20 11 -20 -17 0 15 -34 64 -68 29 -21 55 -43 58 -51 3 -10
0 -11 -9 -5 -12 7 -12 5 0 -9 7 -9 17 -14 22 -11 5 3 9 1 9 -5 0 -24 -22 -19
-62 16 -30 26 -35 29 -18 9 14 -16 42 -39 62 -52 36 -23 110 -131 101 -147 -5
-9 -63 73 -63 90 0 6 -5 15 -11 18 -15 10 13 -53 45 -99 14 -21 26 -46 26 -54
0 -23 -14 -6 -49 58 -17 30 -31 51 -31 46 0 -13 68 -134 80 -141 5 -3 7 -12 4
-20 -7 -17 -50 41 -67 88 -5 15 -11 26 -14 24 -7 -8 24 -75 51 -110 15 -19 26
-42 26 -52 0 -26 -13 -12 -49 55 -17 30 -31 51 -31 46 0 -13 68 -134 80 -141
5 -3 7 -12 3 -20 -7 -19 -34 14 -63 77 -20 42 -21 39 -5 -11 5 -17 4 -21 -5
-16 -9 6 -9 3 -1 -13 14 -26 14 -45 1 -37 -6 4 -10 -7 -10 -27 l0 -33 -21 25
-21 25 14 -24 c19 -32 35 -37 41 -14 2 10 4 4 3 -14 -1 -35 -1 -35 -71 26 -27
24 -24 19 9 -14 28 -27 52 -59 53 -70 2 -11 19 -45 38 -77 19 -31 35 -64 35
-74 0 -11 -12 1 -30 29 -16 26 -30 52 -30 57 0 5 -4 12 -10 15 -20 12 53 -123
74 -137 8 -5 7 -11 -1 -19 -8 -8 -18 0 -37 33 -14 25 -26 50 -26 56 0 6 -5 14
-11 17 -13 9 15 -59 40 -94 11 -15 23 -40 27 -57 6 -28 6 -28 -10 -9 -17 19
-17 19 -5 -5 7 -14 16 -27 20 -30 4 -3 4 -12 0 -19 -6 -10 -16 -1 -35 31 -14
25 -26 50 -26 56 0 6 -5 14 -11 17 -14 10 15 -57 45 -102 21 -30 26 -50 26
-97 0 -81 8 -67 11 19 1 46 8 80 20 100 20 34 41 85 34 85 -2 0 -13 -20 -24
-45 -11 -25 -22 -45 -25 -45 -9 0 1 100 12 113 14 16 44 87 38 87 -3 0 -14
-20 -25 -45 -11 -25 -23 -45 -27 -45 -10 0 6 51 25 79 22 33 34 64 21 56 -6
-3 -10 -12 -10 -18 -1 -16 -39 -65 -40 -51 0 7 13 38 30 69 16 31 28 61 25 65
-3 5 3 11 14 15 11 3 36 27 56 53 l37 47 -41 -42 c-23 -23 -49 -47 -59 -52
-14 -8 -17 -4 -18 23 -1 17 1 23 3 14 6 -25 16 -23 44 9 l24 28 -27 -24 -28
-24 0 32 c0 19 -4 30 -10 26 -13 -8 -13 -3 0 30 7 19 7 24 -1 19 -8 -4 -9 1
-4 17 16 50 15 53 -3 14 -13 -29 -18 -59 -16 -110 1 -44 -3 -79 -12 -95 -13
-24 -13 -24 -14 -3 0 12 4 25 10 28 5 3 10 12 10 18 0 8 -4 7 -9 -2 -6 -10 -9
2 -9 35 0 27 6 55 12 63 8 11 8 13 -1 7 -22 -13 -15 22 17 77 17 30 30 58 30
63 -1 5 -13 -13 -27 -41 -20 -36 -28 -45 -31 -32 -2 10 3 26 12 36 15 17 46
84 45 98 0 4 -12 -17 -26 -47 -17 -35 -27 -49 -30 -38 -2 9 10 41 26 70 17 30
31 59 31 64 -1 5 -13 -13 -27 -41 -14 -27 -28 -44 -30 -38 -3 7 4 28 16 46 21
35 43 87 36 87 -2 0 -14 -21 -26 -47 -12 -27 -23 -43 -26 -36 -7 19 27 82 55
101 13 9 41 33 61 52 20 19 23 23 6 8 -37 -34 -56 -37 -29 -5 l19 22 -22 -19
c-13 -10 -20 -24 -16 -30 3 -6 2 -7 -3 -3 -5 5 -9 14 -10 20 0 7 -2 20 -2 30
-1 10 -6 15 -12 12 -13 -8 -13 11 1 37 8 15 8 19 0 14 -14 -9 -14 5 -1 38 13
35 2 33 -12 -2 -6 -15 -11 -64 -10 -109 0 -55 -4 -88 -14 -100 -17 -22 -19 -1
-3 29 8 15 8 19 0 14 -14 -9 -14 5 -1 39 5 14 6 24 1 21 -21 -13 -7 72 20 126
31 62 34 73 19 63 -13 -8 -13 -3 1 32 16 42 -1 19 -23 -29 -12 -30 -14 -37 -3
-24 22 29 19 -1 -5 -44 l-18 -35 0 45 c0 28 10 64 26 95 14 28 26 68 27 90 l2
40 -12 -30 c-7 -16 -11 -35 -8 -41 2 -7 -5 -29 -16 -51 l-20 -38 1 37 c1 21 5
35 9 32 4 -2 11 0 14 6 4 6 3 10 -2 9 -22 -4 -23 4 -4 34 21 35 43 87 36 87
-2 0 -13 -20 -24 -45 -11 -25 -22 -45 -25 -45 -3 0 -5 16 -4 35 1 19 4 32 9
30 9 -6 34 32 43 65 3 14 -3 6 -15 -17 -12 -24 -25 -40 -30 -37 -5 3 3 25 17
50 24 41 41 129 22 118 -4 -3 -8 -11 -8 -17 0 -7 -9 -23 -20 -37 -24 -31 -28
-6 -5 28 18 25 47 92 41 92 -3 0 -14 -20 -25 -45 -11 -25 -23 -45 -27 -45 -10
0 6 51 25 79 22 33 34 64 21 56 -6 -3 -10 -12 -10 -18 0 -7 -9 -23 -20 -37
-24 -31 -28 -6 -5 28 18 25 47 92 41 92 -3 0 -15 -21 -27 -47 -12 -27 -23 -43
-26 -36 -2 6 5 30 17 52 23 45 19 57 -4 14 -10 -19 -15 -22 -16 -11 0 19 31
78 42 78 4 0 5 -8 1 -17 -3 -10 -3 -15 1 -11 4 3 8 13 10 21 1 8 24 36 52 63
28 27 34 35 15 19 -82 -70 -76 -68 -77 -27 -1 20 1 29 3 20 3 -10 7 -18 10
-18 13 0 41 33 38 43 -3 11 37 48 100 93 l20 14 -20 -6 c-15 -5 -11 2 14 29
19 21 31 37 26 37 -4 0 0 9 10 20 25 28 9 25 -23 -4 -15 -14 -38 -35 -52 -47
-14 -12 -8 -9 13 5 20 15 37 23 37 17 0 -9 -39 -44 -76 -68 -18 -12 -18 -12 1
-6 16 4 14 -1 -10 -24 -37 -37 -45 -28 -45 56 0 100 -9 67 -11 -42 -1 -54 -6
-100 -11 -103 -4 -3 -8 -2 -7 3 4 22 -2 43 -11 38 -13 -8 -13 7 0 40 7 19 7
24 -2 19 -8 -5 -9 -2 -5 9 17 42 17 49 -1 18 -14 -26 -18 -50 -16 -109 1 -48
-3 -86 -11 -101 -12 -23 -13 -22 -13 27 0 29 4 55 9 58 5 3 9 11 9 17 0 8 -3
7 -9 -2 -6 -9 -9 5 -9 38 0 28 4 54 9 57 12 7 35 52 43 84 3 14 -6 0 -20 -30
-18 -35 -28 -49 -31 -38 -2 9 10 41 26 70 17 30 31 59 31 64 -1 5 -13 -13 -27
-41 -20 -36 -28 -45 -31 -32 -2 10 3 26 12 36 15 17 46 84 45 98 0 4 -12 -17
-26 -47 -14 -30 -27 -49 -30 -42 -3 7 9 39 26 72 17 33 29 60 26 60 -2 0 -14
-19 -26 -42 -12 -24 -24 -37 -26 -31 -3 7 4 28 16 46 21 35 43 87 36 87 -2 0
-14 -21 -26 -47 -12 -27 -23 -42 -26 -35 -3 7 9 39 26 72 33 63 37 75 21 65
-12 -8 -13 -3 0 29 16 44 2 29 -21 -21 -12 -27 -23 -43 -26 -36 -2 6 10 39 26
72 33 65 37 76 21 66 -13 -8 -13 -3 1 32 13 35 -3 18 -19 -20 -7 -16 -8 -26
-2 -22 16 10 11 -16 -10 -55 l-18 -35 0 45 c0 27 10 64 24 93 14 26 26 66 28
90 l4 42 -20 -42 c-11 -24 -24 -40 -29 -37 -5 3 3 25 17 49 15 27 27 64 29 92
l3 48 -20 -43 c-13 -26 -24 -40 -30 -34 -6 6 1 24 16 47 14 21 27 44 27 51 4
46 3 71 -3 67 -5 -2 -8 -10 -8 -16 0 -7 -9 -23 -20 -37 -24 -31 -28 -6 -5 28
18 25 47 92 41 92 -3 0 -15 -21 -27 -47 -12 -27 -23 -42 -26 -35 -3 7 5 31 16
55 21 40 21 41 2 17 -25 -30 -29 -6 -6 28 18 25 47 92 41 92 -3 0 -15 -21 -27
-47 -12 -27 -23 -43 -26 -36 -2 6 10 39 27 72 16 34 28 61 25 61 -2 0 -16 -21
-29 -47 -14 -27 -25 -40 -26 -30 0 10 7 28 14 40 18 26 51 105 41 95 -4 -4
-18 -29 -30 -55 -13 -26 -24 -40 -24 -30 -1 10 13 44 29 77 17 33 28 60 25 60
-2 0 -16 -21 -29 -47 -14 -27 -25 -40 -26 -30 0 10 7 28 14 40 25 37 48 100
35 91 -9 -5 -10 -2 -5 12 19 46 15 46 -10 -1 -20 -36 -29 -45 -32 -32 -2 10 3
26 12 36 17 19 49 91 43 97 -2 3 -12 -16 -21 -41 -10 -24 -22 -47 -27 -51 -16
-10 -2 39 25 86 14 25 26 50 25 55 0 6 -12 -12 -26 -40 -20 -36 -28 -45 -31
-32 -2 10 3 26 12 36 15 17 46 84 45 98 0 4 -12 -17 -26 -47 -14 -30 -27 -49
-30 -42 -3 7 9 39 26 72 33 63 37 75 21 65 -12 -8 -13 -3 0 29 5 14 7 26 5 26
-3 0 -12 -18 -21 -40 -10 -25 -22 -40 -33 -39 -10 0 -11 2 -3 6 6 2 12 12 12
22 0 20 57 91 74 91 7 0 28 17 47 37 l34 37 -38 -32 c-21 -18 -42 -30 -47 -27
-4 3 -11 -2 -14 -11 -11 -29 -21 -5 -27 64 l-6 67 -1 -82 c-2 -62 -7 -92 -23
-123 l-22 -41 -21 33 c-16 25 -22 56 -27 123 -4 70 -6 77 -7 33z m38 -228 c7
-17 15 -30 19 -30 3 0 14 19 25 41 10 22 20 38 23 35 8 -8 -6 -40 -31 -75
l-24 -33 -26 45 c-29 49 -35 77 -12 58 8 -6 19 -25 26 -41z m-5 -101 c15 -22
25 -48 23 -57 -3 -12 -12 -2 -31 29 -43 72 -35 98 8 28z m0 -110 c15 -22 25
-48 23 -57 -2 -12 -9 -7 -25 18 -13 19 -23 32 -23 27 0 -4 12 -26 27 -50 l26
-42 8 27 c8 32 39 78 39 59 0 -7 -12 -35 -27 -62 l-26 -49 -26 42 c-21 36 -40
128 -26 128 3 0 16 -18 30 -41z m66 -483 c-22 -50 -37 -61 -27 -20 8 30 37 77
43 70 3 -2 -4 -25 -16 -50z m0 -110 c-11 -25 -22 -46 -25 -46 -3 0 -5 16 -4
35 1 19 5 32 9 29 4 -2 13 5 19 17 21 38 22 11 1 -35z m-71 -107 c17 -28 29
-58 28 -68 -4 -16 -36 37 -58 94 -15 39 -5 30 30 -26z m76 16 c-28 -67 -35
-74 -34 -33 1 21 5 35 9 32 4 -2 13 5 19 16 18 33 21 23 6 -15z m-66 -245 c7
-17 15 -30 19 -30 3 0 14 19 25 41 10 22 20 38 23 35 8 -8 -6 -40 -31 -75
l-24 -33 -26 45 c-29 49 -35 77 -12 58 8 -6 19 -25 26 -41z m-4 -103 c9 -18
20 -34 25 -37 4 -3 4 -12 0 -19 -6 -10 -16 -1 -35 31 -27 46 -34 74 -16 63 6
-3 17 -21 26 -38z m7 -289 c16 -23 22 -40 16 -49 -5 -8 -9 -9 -9 -3 0 5 -7 19
-16 30 -8 10 -6 0 6 -22 13 -23 20 -48 18 -55 -3 -9 -11 -3 -21 16 -9 17 -16
25 -17 19 0 -6 10 -27 23 -45 26 -38 26 -73 0 -42 -12 14 -11 12 1 -9 9 -15
16 -38 16 -50 -1 -16 -11 -3 -34 42 -34 66 -39 89 -10 54 8 -10 12 -12 7 -4
-7 14 -14 165 -7 158 1 -2 14 -20 27 -40z m58 -412 c-22 -50 -37 -61 -27 -20
8 30 37 77 43 70 3 -2 -4 -25 -16 -50z m-43 -284 c-3 -11 -14 2 -31 35 -36 71
-34 90 4 30 16 -27 28 -56 27 -65z m-23 -49 c14 -26 24 -54 22 -62 -3 -16 -57
78 -57 99 0 19 8 10 35 -37z m-130 -36 c15 5 17 3 12 -11 -5 -13 -1 -19 13
-23 11 -3 20 -12 20 -20 0 -10 -14 -4 -45 18 -52 38 -87 73 -44 46 16 -11 34
-15 44 -10z m155 -107 c5 0 7 -7 3 -16 -5 -14 -9 -13 -26 7 -14 18 -12 12 6
-23 29 -55 24 -71 -8 -25 -15 23 -22 49 -22 83 l-1 49 19 -37 c11 -21 24 -38
29 -38z m-68 -42 c-8 -8 -9 -4 -5 13 4 13 8 18 11 10 2 -7 -1 -18 -6 -23z
m131 12 c3 -11 1 -18 -4 -14 -5 3 -9 12 -9 20 0 20 7 17 13 -6z m-83 -51 c27
-52 21 -73 -8 -27 -20 32 -29 68 -17 68 2 0 14 -18 25 -41z m20 -379 c-1 -23
-2 -23 -20 10 -11 19 -19 30 -20 24 0 -6 10 -27 23 -45 13 -19 21 -41 19 -48
-3 -8 -11 -3 -23 16 -10 15 -19 24 -19 18 0 -5 9 -21 20 -35 11 -14 19 -36 19
-50 0 -21 -3 -18 -24 20 -13 25 -24 41 -25 37 0 -13 40 -87 48 -87 4 0 15 20
25 45 11 25 23 45 28 45 11 0 -6 -44 -33 -89 -20 -32 -22 -33 -36 -15 -28 38
-51 98 -40 105 7 4 12 35 12 70 l0 62 23 -29 c12 -16 23 -40 23 -54z"/>
<path d="M2081 3611 c-1 -24 2 -32 9 -25 7 7 7 19 1 35 -9 23 -10 22 -10 -10z"/>
<path d="M2115 3609 c-11 -17 1 -21 15 -4 8 9 8 15 2 15 -6 0 -14 -5 -17 -11z"/>
<path d="M1611 3005 c-2 -44 -2 -84 -1 -90 1 -5 -2 -6 -7 -2 -8 9 -9 13 -11
66 -2 39 -11 38 -14 -2 -1 -15 -4 -27 -6 -27 -2 0 -23 14 -46 31 -27 21 -21
13 17 -21 31 -28 55 -55 52 -59 -2 -5 11 -39 30 -77 19 -38 35 -76 34 -84 0
-8 -16 15 -35 53 -19 37 -37 67 -40 67 -3 0 14 -36 36 -80 23 -43 40 -85 37
-92 -2 -7 -17 15 -32 50 -15 34 -31 62 -35 62 -4 0 10 -35 31 -77 41 -83 51
-122 23 -87 -14 16 -14 15 1 -9 9 -16 14 -36 12 -45 -2 -11 -14 7 -32 46 -15
34 -31 62 -35 62 -4 0 10 -35 32 -77 31 -64 38 -87 36 -126 l-3 -49 -41 31
c-55 39 -64 27 -17 -21 38 -39 38 -46 0 -28 -20 9 -20 9 -3 -2 50 -35 116 -91
116 -99 0 -11 -43 14 -85 50 l-30 26 24 -27 c17 -19 20 -28 10 -28 -7 0 3 -14
24 -31 21 -17 36 -34 33 -37 -3 -2 -11 -1 -19 4 -7 5 -3 0 10 -11 24 -22 31
-41 11 -29 -7 4 -4 -2 6 -14 11 -12 21 -22 22 -22 6 0 -1 34 -9 48 -9 13 3 16
19 5 5 -5 -9 9 -31 29 -26 25 -34 38 -24 38 9 0 24 -9 34 -20 10 -11 22 -20
27 -20 4 0 8 39 8 87 0 106 -8 107 -11 1 -1 -43 -5 -76 -8 -73 -4 2 -8 43 -9
92 -3 103 -11 153 -23 153 -5 0 -8 -26 -8 -57 2 -56 2 -56 9 -18 6 36 7 33 9
-27 0 -37 -3 -69 -8 -72 -10 -6 -65 33 -57 41 2 3 16 -3 29 -12 22 -14 25 -14
23 -1 -1 9 -6 19 -11 23 -4 4 -5 2 -1 -4 12 -22 -8 -14 -44 17 -19 16 -30 29
-24 30 6 0 17 -7 24 -15 7 -8 19 -15 26 -15 11 0 14 21 15 93 1 50 0 100 -1
111 -2 18 6 36 52 131 l19 40 -20 -25 c-26 -32 -27 -11 -1 40 26 51 17 52 -10
3 -20 -37 -21 -37 -15 -8 3 17 15 44 27 60 l21 30 -21 -19 c-16 -14 -22 -16
-22 -5 1 8 32 38 71 68 39 29 68 55 65 58 -3 3 -26 -13 -52 -36 -54 -47 -72
-46 -28 1 16 18 19 25 7 15 -21 -18 -21 -18 -26 5 -3 18 -5 15 -7 -12 -2 -19
-4 -40 -4 -47 -1 -6 -4 -14 -7 -18 -3 -3 -7 32 -8 77 -3 109 -11 114 -11 6 0
-52 -6 -103 -16 -133 l-17 -48 -21 39 c-15 28 -23 65 -27 134 l-5 95 -3 -80z
m29 -155 c13 -27 20 -53 17 -56 -4 -4 -17 15 -29 42 -12 27 -24 52 -26 57 -2
4 0 7 5 7 5 0 20 -22 33 -50z m46 -37 c0 -16 3 -39 7 -53 7 -20 6 -22 -3 -10
-10 12 -11 10 -7 -10 3 -14 2 -34 -3 -45 -9 -22 -12 96 -3 128 6 25 10 21 9
-10z m-95 -340 c13 -16 12 -17 -3 -4 -10 7 -18 15 -18 17 0 8 8 3 21 -13z"/>
<path d="M2321 3008 c-4 -101 -4 -97 -20 -107 -9 -6 -10 -11 -2 -15 6 -4 26
-38 43 -74 18 -37 34 -70 36 -74 2 -5 0 -8 -5 -8 -5 0 -22 27 -38 61 -16 33
-33 63 -38 66 -4 3 9 -28 29 -69 21 -40 38 -76 39 -80 1 -15 15 -20 15 -4 0 9
16 48 35 86 19 39 33 70 30 70 -2 0 -18 -26 -34 -57 -17 -32 -30 -53 -31 -47
0 17 40 106 57 125 12 14 12 17 0 22 -10 4 -15 28 -16 88 -3 111 -11 115 -11
6 0 -60 -5 -97 -17 -122 -9 -19 -20 -35 -23 -35 -18 0 -35 64 -40 150 l-6 95
-3 -77z m29 -160 c13 -30 25 -46 27 -38 11 38 37 90 45 90 5 0 8 -3 6 -7 -2
-5 -14 -29 -26 -55 -12 -27 -26 -48 -32 -48 -6 0 -20 21 -32 48 -12 26 -24 50
-26 55 -2 4 1 7 6 7 5 0 20 -24 32 -52z"/>
<path d="M2190 3011 c0 -6 4 -11 8 -11 5 0 21 -12 38 -27 16 -16 39 -36 51
-46 l21 -18 -5 48 c-5 51 -13 71 -13 33 0 -20 -2 -21 -17 -9 -10 7 -8 2 5 -12
39 -45 23 -42 -33 6 -30 26 -55 42 -55 36z"/>
<path d="M2496 2974 c-53 -47 -75 -51 -35 -7 13 15 16 21 7 14 -16 -12 -18
-11 -18 9 0 38 -8 18 -13 -32 l-5 -48 24 19 c47 37 96 82 93 86 -2 2 -26 -17
-53 -41z"/>
<path d="M1550 2991 c0 -5 5 -13 10 -16 6 -3 10 -2 10 4 0 5 -4 13 -10 16 -5
3 -10 2 -10 -4z"/>
<path d="M1321 2860 c-2 -41 -3 -79 -2 -83 1 -5 -3 -6 -9 -2 -6 3 -9 9 -6 13
2 4 0 27 -4 52 -7 40 -8 42 -9 11 -1 -33 -1 -33 -26 -17 -14 9 -25 13 -25 9 0
-3 -12 4 -27 18 -22 19 -20 16 7 -19 33 -42 96 -89 106 -79 3 2 3 42 1 88 l-3
84 -3 -75z m-21 -62 c0 -12 -14 -9 -38 8 -33 23 -27 36 8 16 16 -9 30 -20 30
-24z"/>
<path d="M2075 2919 c-4 -6 -5 -12 -2 -15 2 -3 7 2 10 11 7 17 1 20 -8 4z"/>
<path d="M2710 2865 c6 -69 -6 -127 -35 -171 -25 -39 -29 -22 -6 25 12 22 21
46 21 53 0 7 -16 -21 -35 -61 -20 -41 -33 -76 -31 -78 3 -3 39 3 80 13 53 14
70 21 58 27 -9 4 0 5 23 2 85 -11 149 -14 130 -7 -11 4 -32 14 -48 21 -26 14
-27 15 -10 35 16 18 15 18 -11 -2 -16 -12 -33 -22 -39 -22 -10 0 42 50 85 82
13 9 18 17 12 18 -6 0 -39 -25 -73 -56 -51 -47 -70 -57 -107 -62 l-45 -5 18
39 c10 22 27 46 38 54 11 8 38 32 60 55 35 34 35 35 5 10 -71 -62 -80 -68 -80
-57 0 6 6 16 13 22 6 5 23 19 37 31 l25 20 -27 -17 -28 -16 -1 33 c-2 34 -2
34 -9 -6 -7 -37 -7 -35 -9 23 0 34 -4 62 -9 62 -4 0 -5 -29 -2 -65z m155 -183
c17 -9 13 -10 -20 -5 -22 3 -44 9 -48 13 -13 11 47 5 68 -8z m-190 -12 c-4 -6
7 -8 27 -5 24 4 28 3 13 -3 -43 -19 -72 -22 -72 -7 0 8 4 12 8 9 4 -2 10 0 14
6 3 5 8 10 11 10 3 0 2 -4 -1 -10z"/>
<path d="M1175 2758 c22 -21 43 -38 48 -38 4 0 7 -4 7 -10 0 -12 -29 -2 -55
19 -20 16 -20 16 -2 -5 17 -20 16 -21 -10 -35 -16 -7 -37 -16 -48 -20 -30 -10
53 -9 90 2 26 7 23 8 -15 5 l-45 -4 31 14 c26 10 37 10 69 -1 31 -10 35 -14
19 -18 -10 -3 9 -4 43 -2 44 3 65 0 73 -10 10 -12 6 -13 -21 -5 -52 15 -46 3
8 -14 l48 -16 -40 5 c-22 3 -51 7 -65 10 -14 3 -5 -2 20 -10 25 -9 61 -17 81
-18 21 -1 36 -7 36 -14 0 -16 -22 -16 -72 2 -21 8 -41 13 -42 11 -6 -6 52 -26
105 -36 29 -5 61 -15 70 -20 14 -9 12 -10 -8 -5 -19 5 -22 4 -10 -4 17 -12 50
-15 50 -3 0 15 -20 37 -32 37 -7 0 -30 34 -51 75 -21 41 -37 68 -34 60 2 -8 8
-26 12 -39 5 -17 4 -21 -5 -16 -9 6 -9 2 0 -15 19 -36 3 -35 -19 1 -12 19 -24
33 -28 31 -4 -2 -9 2 -12 9 -2 6 1 9 7 5 6 -4 1 16 -11 43 -19 41 -23 46 -30
29 -4 -13 -1 -32 8 -51 8 -16 15 -31 15 -32 0 -1 -20 1 -44 5 -31 5 -60 19
-98 50 -74 61 -91 72 -43 28z m194 -63 c0 -5 -6 1 -14 15 -8 14 -14 30 -14 35
0 6 6 -1 14 -15 8 -14 14 -29 14 -35z m99 -87 c12 -21 19 -38 17 -38 -7 0 -45
63 -45 74 0 12 1 10 28 -36z"/>
<path d="M2330 2725 c35 -70 37 -79 17 -76 -4 1 -2 -9 5 -21 7 -13 12 -26 13
-30 1 -21 12 -12 21 17 6 19 7 32 2 29 -16 -10 -7 22 25 88 18 36 29 64 24 61
-5 -3 -20 -30 -33 -59 -13 -30 -28 -54 -34 -54 -6 0 -21 24 -34 54 -13 29 -28
56 -33 59 -6 4 7 -27 27 -68z m50 -95 c0 -5 -4 -10 -10 -10 -5 0 -10 5 -10 10
0 6 5 10 10 10 6 0 10 -4 10 -10z"/>
<path d="M1392 2711 c12 -22 24 -38 26 -36 5 4 -37 75 -44 75 -3 0 6 -18 18
-39z"/>
<path d="M2632 2718 c-11 -18 -22 -40 -26 -48 -3 -8 -3 1 0 20 4 26 3 31 -5
20 -6 -8 -11 -21 -11 -29 0 -8 -14 -36 -31 -63 -16 -28 -28 -52 -26 -54 6 -7
160 25 170 35 4 4 -16 2 -45 -5 -29 -8 -60 -13 -68 -11 -14 3 55 26 124 42 15
3 27 8 24 10 -2 2 -31 -2 -63 -10 -43 -10 -63 -11 -70 -3 -7 7 -6 9 2 4 7 -4
9 0 7 12 -3 9 6 38 20 65 29 54 28 63 -2 15z m-36 -87 c-1 -16 -4 -27 -8 -24
-5 2 -8 0 -8 -6 0 -6 -9 -15 -20 -21 -17 -9 -16 -5 7 35 16 25 28 45 29 45 1
0 1 -13 0 -29z"/>
<path d="M1940 2715 c0 -5 5 -17 10 -25 5 -8 10 -10 10 -5 0 6 -5 17 -10 25
-5 8 -10 11 -10 5z"/>
<path d="M1714 2661 c-10 -17 -20 -28 -24 -26 -3 2 -6 -13 -7 -33 -1 -34 0
-35 9 -12 5 14 18 42 29 63 23 44 18 50 -7 8z"/>
<path d="M2329 2617 c28 -61 34 -82 33 -141 0 -38 3 -65 6 -60 13 18 93 76 98
71 3 -3 -20 -24 -51 -48 -32 -24 -51 -45 -45 -49 7 -4 4 -13 -9 -24 -17 -15
-19 -15 -25 -1 -3 9 -6 44 -6 77 0 97 -8 63 -11 -45 -2 -54 -6 -100 -9 -102
-4 -3 -8 30 -9 73 -3 106 -11 105 -11 -1 0 -48 4 -87 8 -87 5 0 17 9 27 20 10
11 23 20 30 20 6 0 27 17 46 37 30 34 30 35 4 12 -40 -34 -85 -61 -85 -52 0 5
22 25 48 46 26 21 58 47 72 58 l25 21 -25 -16 c-45 -29 -41 -16 12 34 41 39
61 51 97 56 25 4 53 11 61 16 12 7 11 8 -5 4 -16 -4 -87 -16 -115 -21 -3 0
-11 -4 -18 -8 -13 -9 1 29 40 108 l19 40 -20 -25 c-12 -14 -24 -36 -27 -50
-12 -47 -42 -95 -73 -117 -16 -13 -32 -23 -33 -23 -2 0 -1 28 2 63 4 39 17 84
36 124 16 34 26 59 21 56 -5 -3 -20 -30 -33 -59 -13 -30 -28 -54 -34 -54 -6 0
-21 24 -34 54 -13 29 -28 56 -33 59 -5 3 7 -27 26 -66z"/>
<path d="M1530 2595 c16 -33 30 -63 30 -67 0 -8 -82 -3 -125 7 -16 4 -27 5
-24 2 10 -12 144 -36 147 -26 2 5 7 7 12 4 13 -8 -30 89 -51 116 -11 13 -6 -3
11 -36z"/>
<path d="M2499 2554 c-5 -15 -8 -28 -7 -29 2 -1 19 3 38 10 l35 12 -28 7 c-15
3 -25 11 -22 16 3 6 4 10 0 10 -3 0 -10 -12 -16 -26z"/>
<path d="M2340 2460 c0 -51 3 -90 7 -86 8 7 5 167 -3 175 -2 2 -4 -38 -4 -89z"/>
<path d="M1750 2340 c-2 -36 -4 -74 -4 -84 -1 -11 -7 -21 -14 -24 -10 -3 -10
-7 -1 -18 6 -8 16 -14 21 -14 6 0 5 7 -2 15 -7 8 -8 15 -4 15 5 0 15 -9 21
-20 16 -24 1 -35 -28 -19 -17 9 -20 8 -16 -3 2 -7 10 -12 17 -10 11 3 11 0 0
-12 -7 -9 -8 -16 -2 -16 5 0 12 -10 15 -22 l6 -23 -19 24 c-11 12 -18 27 -15
31 2 4 -5 16 -17 26 -21 19 -21 19 -9 -3 16 -31 14 -35 -11 -28 -14 3 -9 -2
12 -14 42 -24 22 -27 -45 -6 -27 8 -51 12 -53 10 -6 -6 98 -35 126 -35 14 0
22 -3 19 -7 -4 -3 3 -17 15 -30 12 -13 18 -23 13 -23 -5 0 9 -18 30 -40 40
-41 40 -48 2 -30 -20 9 -20 9 -3 -2 51 -35 116 -91 116 -99 0 -6 -4 -7 -10 -4
-15 9 -12 -1 4 -14 12 -10 14 -7 10 16 -3 15 -9 73 -13 128 -7 94 -8 96 -9 32
-2 -52 -5 -66 -14 -61 -8 5 -7 0 2 -11 14 -17 14 -18 -8 -6 -18 10 -21 15 -12
26 8 9 11 49 9 112 -2 54 0 105 5 113 5 10 3 10 -6 -2 -12 -14 -15 -13 -31 14
-10 17 -20 28 -24 25 -8 -9 -4 -147 5 -163 4 -7 6 21 5 62 -1 42 2 72 7 69 5
-3 9 -43 8 -89 l-2 -84 -38 31 c-21 17 -38 35 -38 40 0 6 10 2 23 -9 12 -10 7
-2 -12 19 -19 20 -31 40 -27 44 4 5 17 -3 29 -17 l22 -25 1 45 c1 31 -1 39 -7
25 -5 -14 -8 -7 -7 25 0 37 1 40 8 20 6 -20 8 -17 6 16 0 23 -4 40 -8 38 -4
-3 -9 10 -11 28 -2 18 -5 2 -5 -36 -3 -98 -20 -73 -25 34 -3 85 -3 85 -7 20z
m40 -170 c0 -5 -2 -10 -4 -10 -3 0 -8 5 -11 10 -3 6 -1 10 4 10 6 0 11 -4 11
-10z m78 -97 c-2 -48 -8 -88 -14 -90 -5 -2 -25 13 -44 34 -19 20 -27 31 -17
24 9 -7 17 -9 17 -4 0 5 -14 19 -31 32 -17 13 -28 25 -25 28 3 3 25 -11 50
-31 24 -20 47 -36 50 -36 3 0 6 29 6 65 0 36 3 65 6 65 3 0 4 -39 2 -87z m17
-127 c17 -13 27 -27 24 -30 -3 -3 -21 8 -40 24 -41 35 -27 40 16 6z"/>
<path d="M1811 2027 c2 -1 15 -11 29 -22 l25 -20 -19 23 c-11 12 -24 22 -29
22 -6 0 -8 -1 -6 -3z"/>
<path d="M2270 2315 l-3 -90 -7 65 c-4 39 -7 51 -8 30 -2 -27 -5 -31 -12 -20
-10 16 -11 5 -12 -132 -1 -39 -5 -65 -10 -62 -5 3 -9 29 -8 58 2 74 1 90 -7
82 -4 -4 -7 -45 -8 -91 0 -47 2 -80 3 -75 2 6 9 10 16 10 7 0 21 10 32 22 15
19 16 20 2 9 -22 -16 -24 1 -3 19 11 9 12 17 5 30 -11 21 -14 97 -3 87 3 -4 6
-23 5 -42 -2 -39 4 -39 46 -2 12 11 22 15 22 9 0 -6 -9 -17 -21 -25 -11 -8
-16 -18 -11 -21 10 -6 42 35 42 53 0 6 11 18 25 27 14 9 25 21 25 26 0 5 -7 2
-16 -6 -8 -9 -21 -16 -27 -16 -7 0 8 19 33 41 34 31 28 28 -25 -12 -38 -30
-67 -49 -63 -44 3 6 2 44 -2 85 l-7 75 -3 -90z m33 -87 c-18 -18 -35 -29 -38
-26 -7 7 45 58 60 58 5 0 -5 -14 -22 -32z"/>
<path d="M2132 2248 c24 -60 23 -51 18 -178 l-3 -95 -7 65 -7 65 -1 -87 c-1
-49 0 -88 2 -88 2 0 10 8 17 17 12 14 12 16 -1 9 -8 -5 -5 1 7 14 17 18 19 27
12 50 -6 15 -8 54 -6 86 l3 59 2 -67 c1 -38 5 -68 8 -68 3 0 24 15 47 34 31
25 62 38 119 50 43 10 80 21 83 26 3 4 -16 2 -42 -6 -58 -18 -103 -18 -56 -1
17 7 35 16 40 20 4 5 -5 3 -20 -2 -39 -15 -39 -15 -21 22 l17 32 -26 -23 c-16
-15 -27 -20 -32 -13 -8 14 -25 14 -25 0 0 -5 5 -7 10 -4 12 7 14 -8 3 -19 -5
-4 -9 -12 -9 -17 -1 -5 -2 -13 -3 -17 0 -5 -18 -23 -39 -40 l-39 -30 1 86 c1
62 -3 92 -13 104 -8 9 -18 15 -22 12 -4 -2 -12 10 -18 26 -5 17 -12 30 -15 30
-3 0 4 -24 16 -52z m38 -48 c0 -13 -1 -13 -10 0 -5 8 -10 22 -10 30 0 13 1 13
10 0 5 -8 10 -22 10 -30z m131 -59 c-6 -10 -7 -22 -3 -26 4 -5 1 -5 -5 -1 -23
13 -15 37 15 45 1 1 -2 -7 -7 -18z"/>
<path d="M1902 2258 c-10 -30 -10 -31 3 -14 13 17 21 46 12 46 -1 0 -8 -15
-15 -32z"/>
<path d="M1865 2239 c-4 -6 -5 -12 -2 -15 2 -3 7 2 10 11 7 17 1 20 -8 4z"/>
<path d="M2340 2229 c0 -5 5 -7 10 -4 6 3 10 8 10 11 0 2 -4 4 -10 4 -5 0 -10
-5 -10 -11z"/>
<path d="M2110 1428 c0 -3 14 -36 30 -73 24 -53 30 -81 30 -133 0 -51 3 -63
12 -54 7 7 19 12 27 12 10 0 5 -10 -15 -32 l-29 -32 42 34 c23 19 52 43 65 53
22 17 22 17 -6 0 -22 -13 -28 -14 -24 -3 6 19 21 26 111 51 42 12 75 24 73 26
-2 3 -34 -5 -71 -16 -80 -25 -81 -25 -65 -6 7 8 20 15 29 15 9 0 23 5 31 10
11 8 7 9 -15 4 l-30 -7 20 24 20 24 -24 -20 c-26 -21 -26 -21 4 50 26 62 10
38 -37 -55 -31 -61 -52 -90 -75 -103 l-33 -19 0 51 c0 38 7 62 26 93 28 44 57
108 50 108 -3 0 -14 -19 -24 -42 -23 -51 -51 -89 -52 -70 0 7 7 27 15 45 14
29 14 30 0 13 -8 -11 -15 -25 -15 -30 -1 -6 -7 3 -15 19 -7 17 -14 23 -15 15
0 -8 -9 1 -20 20 -11 19 -19 32 -20 28z m59 -103 c0 -5 -4 -3 -9 5 -5 8 -9 22
-9 30 0 16 17 -16 18 -35z m123 -57 c-7 -7 -12 -8 -12 -2 0 14 12 26 19 19 2
-3 -1 -11 -7 -17z"/>
<path d="M1706 1299 l19 -22 -30 7 c-39 10 -27 -2 14 -14 l31 -9 -17 30 c-10
16 -22 29 -27 29 -5 0 -1 -10 10 -21z"/>
<path d="M2150 1198 c0 -54 4 -88 11 -90 7 -2 6 -8 -4 -16 -12 -11 -15 -2 -16
65 -3 106 -11 106 -11 0 0 -48 2 -87 4 -87 11 0 93 60 111 81 11 13 3 9 -18
-9 -22 -18 -44 -31 -50 -29 -6 2 -12 38 -15 83 -5 106 -12 107 -12 2z"/>
<path d="M2110 1107 c0 -41 -3 -84 -6 -94 -3 -10 -2 -14 3 -8 4 6 36 32 70 58
34 26 66 53 70 60 7 12 -26 -12 -90 -65 l-33 -26 -3 71 c-4 96 -11 99 -11 4z"/>
</g>
</svg>
