<?xml version="1.0" standalone="no"?>
<!DOCTYPE svg PUBLIC "-//W3C//DTD SVG 20010904//EN"
 "http://www.w3.org/TR/2001/REC-SVG-20010904/DTD/svg10.dtd">
<svg version="1.0" xmlns="http://www.w3.org/2000/svg"
 width="48.000000pt" height="48.000000pt" viewBox="0 0 48.000000 48.000000"
 preserveAspectRatio="xMidYMid meet">

<g transform="translate(0.000000,48.000000) scale(0.100000,-0.100000)"
fill="#000000" stroke="none">
<path d="M187 402 c-24 -26 -22 -37 19 -82 l36 -40 -83 0 c-46 0 -90 -4 -97
-9 -8 -5 -12 -23 -10 -47 l3 -39 99 -3 99 -3 -42 -43 c-48 -49 -50 -72 -9 -96
l28 -15 95 95 c52 52 95 99 95 105 0 17 -184 195 -201 195 -9 0 -23 -8 -32
-18z"/>
</g>
</svg>
