<?xml version="1.0" standalone="no"?>
<!DOCTYPE svg PUBLIC "-//W3C//DTD SVG 20010904//EN"
 "http://www.w3.org/TR/2001/REC-SVG-20010904/DTD/svg10.dtd">
<svg version="1.0" xmlns="http://www.w3.org/2000/svg"
 width="262.000000pt" height="192.000000pt" viewBox="0 0 262.000000 192.000000"
 preserveAspectRatio="xMidYMid meet">

<g transform="translate(0.000000,192.000000) scale(0.100000,-0.100000)"
fill="#000000" stroke="none">
<path d="M1306 1792 c3 -50 5 -54 24 -42 11 7 11 12 2 23 -7 7 -8 18 -4 22 4
5 2 5 -5 1 -7 -4 -13 2 -16 16 -2 13 -3 4 -1 -20z"/>
<path d="M1150 1793 c0 -26 -16 -39 -24 -21 -4 7 -4 2 -2 -11 3 -13 -2 -30
-10 -38 -12 -13 -16 -12 -31 3 -10 10 -24 29 -30 43 l-13 26 6 -25 c7 -25 7
-25 -15 -6 -11 11 -21 14 -21 8 0 -6 11 -19 25 -28 23 -15 37 -43 15 -29 -5 3
-10 1 -10 -4 0 -6 5 -11 10 -11 6 0 10 -5 10 -11 0 -5 -4 -7 -10 -4 -5 3 -10
-1 -10 -9 0 -8 -4 -17 -8 -20 -19 -11 -32 14 -38 70 -3 32 -11 64 -16 69 -6 6
-7 -3 -3 -27 7 -37 -6 -54 -19 -25 -3 6 -3 1 0 -13 l7 -25 -23 20 -22 20 4
-42 c3 -40 3 -41 -15 -26 -11 10 -14 19 -7 23 6 4 -2 20 -20 40 -16 18 -27 37
-24 41 3 5 1 9 -5 9 -15 0 -10 -58 6 -64 8 -3 12 -10 8 -15 -3 -5 0 -13 6 -17
8 -5 8 -9 -1 -14 -9 -6 -7 -11 9 -19 11 -7 21 -18 21 -26 0 -18 -43 22 -54 50
-6 16 -9 17 -16 5 -6 -9 -6 -16 0 -18 6 -2 10 -16 10 -30 0 -19 3 -23 9 -14 7
11 9 11 14 -2 4 -9 2 -16 -4 -16 -7 0 -9 -13 -4 -37 l7 -38 -30 33 -30 33 -5
-27 c-5 -31 0 -54 14 -54 4 0 6 7 2 16 -5 14 -3 15 15 5 13 -7 22 -21 22 -34
-1 -19 -2 -20 -10 -5 -6 10 -18 14 -30 11 -13 -3 -20 0 -21 8 -5 49 -7 60 -17
72 -7 8 -13 37 -16 66 -2 29 -9 58 -15 64 -7 7 -9 0 -6 -27 3 -21 8 -43 12
-50 3 -6 -6 0 -20 13 -32 29 -35 20 -6 -21 12 -16 23 -43 24 -59 1 -17 7 -35
14 -42 16 -16 14 -30 -5 -23 -9 3 -12 2 -9 -5 4 -6 13 -8 21 -5 9 3 14 -2 14
-14 0 -14 -5 -18 -17 -14 -10 3 -6 -2 10 -11 33 -19 35 -27 5 -16 -32 12 -57
60 -47 93 5 21 2 31 -14 45 -11 10 -17 12 -12 4 4 -7 9 -27 10 -43 3 -29 3
-29 -16 -9 -13 14 -19 35 -19 66 0 25 -5 45 -11 45 -6 0 -10 -10 -9 -22 3 -36
0 -44 -10 -28 -8 13 -10 12 -10 -2 0 -10 6 -18 13 -18 8 0 12 -18 13 -51 1
-32 -2 -46 -7 -38 -5 8 -9 30 -10 49 -1 32 -2 33 -9 10 -5 -16 -8 -19 -9 -8
-1 9 -6 20 -13 24 -7 4 -8 3 -4 -4 9 -15 1 -15 -26 -1 -11 6 -22 8 -25 6 -2
-3 8 -11 23 -19 30 -14 48 -46 21 -35 -11 4 -14 2 -10 -9 3 -7 11 -14 18 -14
13 0 13 -19 0 -58 -10 -30 -25 -10 -25 33 0 42 -11 76 -21 69 -5 -3 -7 -9 -5
-13 3 -4 -1 -8 -8 -8 -8 0 -11 8 -8 19 3 13 -1 18 -14 18 -16 0 -16 -2 -4 -10
8 -5 11 -12 8 -15 -4 -4 -3 -18 2 -31 9 -24 -2 -34 -15 -14 -3 6 -11 10 -17
10 -6 0 -2 -10 9 -22 19 -22 43 -61 43 -71 0 -8 -29 -2 -37 8 -4 4 -2 5 5 1 6
-4 12 -2 12 4 0 7 -9 9 -22 6 -13 -3 -17 -3 -10 0 6 3 12 9 12 14 0 11 -39 20
-45 10 -7 -11 52 -60 72 -60 15 0 15 -2 4 -9 -9 -6 -23 -5 -35 1 -19 10 -20
10 -7 -5 7 -10 22 -17 32 -17 19 0 35 -17 25 -27 -3 -3 -20 -6 -38 -5 -28 1
-30 -1 -15 -10 11 -5 29 -8 42 -5 14 2 26 -1 29 -9 3 -8 12 -14 21 -14 8 0 15
-5 15 -11 0 -5 -4 -7 -10 -4 -10 6 -5 -15 13 -52 6 -13 8 -25 5 -28 -6 -7
-120 64 -161 100 -18 17 -37 32 -43 34 -5 2 -18 10 -29 17 -26 19 -41 18 -24
-2 10 -13 10 -17 -2 -26 -11 -8 -11 -9 3 -4 11 3 26 -5 42 -24 14 -17 28 -30
32 -30 4 0 -3 11 -16 25 -24 25 -13 36 12 12 7 -7 26 -20 41 -30 15 -10 25
-22 22 -27 -3 -6 1 -7 10 -4 9 4 15 2 13 -5 -2 -6 15 -20 37 -30 28 -14 34
-20 20 -20 -12 -1 -26 -6 -33 -13 -8 -8 -15 -8 -27 2 -8 7 -18 10 -22 6 -3 -3
-1 -6 6 -6 7 0 10 -4 7 -8 -3 -5 13 -13 35 -19 21 -5 39 -6 39 -2 0 5 -7 9
-15 9 -28 0 -15 15 14 16 30 2 66 -26 73 -56 2 -8 15 -34 31 -57 15 -23 27
-44 27 -47 0 -3 -15 -8 -33 -11 -47 -9 -153 27 -197 68 -19 17 -26 21 -15 8
l20 -24 -28 5 c-15 3 -30 1 -33 -3 -3 -5 8 -9 25 -9 16 0 37 -7 45 -16 9 -8
20 -13 25 -10 5 3 14 -1 21 -10 7 -8 19 -13 27 -10 9 4 11 1 7 -5 -4 -7 -1
-10 6 -7 7 2 33 -17 59 -42 25 -25 31 -30 14 -10 -39 43 -41 50 -9 44 14 -2
28 0 31 6 11 17 50 11 63 -11 12 -19 12 -20 -10 -14 -13 4 -29 10 -35 12 -7 3
-13 3 -13 0 0 -3 17 -11 38 -17 33 -11 112 -74 112 -91 0 -10 -103 2 -120 15
-13 10 -13 9 -1 -6 9 -12 10 -18 2 -18 -6 0 -11 -5 -11 -10 0 -7 7 -7 21 0 12
7 45 10 75 7 49 -4 58 -9 93 -48 27 -30 35 -47 27 -52 -7 -6 -6 -7 4 -4 8 2
30 -4 48 -15 18 -11 35 -18 38 -16 2 3 -11 13 -30 23 -19 10 -41 30 -48 44 -7
14 -19 32 -25 39 -20 21 -16 35 22 69 19 18 35 40 35 50 0 15 -2 16 -10 3 -15
-23 -22 -5 -9 24 13 27 24 33 34 16 3 -5 16 -15 28 -20 21 -11 21 -11 3 4 -17
14 -17 16 -4 16 26 0 33 -22 13 -37 -16 -11 -17 -13 -2 -13 9 0 21 -8 27 -17
9 -16 10 -15 5 5 -13 46 21 20 62 -49 41 -68 42 -72 33 -121 -6 -28 -10 -53
-10 -57 0 -3 -5 1 -11 9 -8 11 -9 8 -4 -14 l6 -29 -25 17 c-32 20 -79 39 -72
28 2 -4 27 -18 53 -31 47 -22 52 -28 106 -137 l57 -114 2 -158 2 -157 6 165 5
166 70 121 70 121 125 78 c69 42 134 77 145 76 15 -1 16 1 6 8 -11 6 5 28 67
91 45 46 82 87 82 91 0 11 36 28 59 28 12 0 21 4 21 9 0 5 -9 7 -20 4 -20 -5
-26 5 -12 23 4 5 -4 -2 -17 -16 -20 -21 -23 -21 -17 -5 5 11 9 25 9 32 0 7 3
10 7 8 4 -2 16 12 26 33 11 20 29 39 39 41 17 3 18 1 6 -13 -7 -9 -18 -13 -24
-9 -6 4 -8 0 -4 -9 3 -9 0 -22 -6 -29 -7 -8 6 2 28 21 60 53 61 54 46 45 -9
-5 -12 -4 -8 2 4 6 21 9 39 7 23 -3 29 -1 18 6 -22 14 12 24 63 17 l42 -5 -39
12 -38 12 23 18 c21 15 19 15 -11 -1 -56 -30 -70 -34 -63 -18 3 8 10 12 16 8
6 -3 7 -1 3 6 -4 6 -12 8 -18 5 -6 -4 -8 1 -6 11 1 10 9 20 17 23 9 3 11 0 6
-8 -5 -9 -4 -11 4 -6 6 4 9 11 6 15 -6 11 40 31 73 32 15 0 36 5 47 10 17 8
16 9 -7 4 -31 -6 -43 14 -19 32 31 24 5 13 -29 -12 -40 -29 -55 -32 -45 -7 4
12 3 14 -5 6 -6 -6 -13 -20 -15 -30 -2 -11 -4 -21 -5 -24 0 -3 -7 4 -15 14
-15 19 -15 19 -15 -1 0 -11 -7 -24 -16 -27 -25 -10 -29 0 -10 29 9 14 14 25
11 25 -3 0 1 13 10 30 17 34 21 64 4 40 -7 -11 -8 -4 -4 25 4 29 3 37 -5 29
-6 -6 -12 -18 -13 -25 -3 -20 -17 -39 -27 -39 -10 0 -8 20 4 39 7 10 6 12 -4
6 -11 -6 -12 3 -6 49 l6 57 -22 -20 c-33 -32 -51 -27 -43 11 6 26 5 30 -9 25
-15 -6 -19 5 -28 80 -3 20 -4 20 -23 -5 -15 -21 -15 -24 -2 -13 23 18 22 -1
-3 -31 -10 -14 -18 -27 -15 -29 9 -10 -43 -94 -59 -93 -9 1 -16 -4 -16 -10 0
-6 -14 -20 -30 -30 -24 -13 -34 -15 -45 -6 -11 9 -12 7 -8 -9 3 -12 1 -21 -4
-21 -5 0 -9 12 -8 28 0 15 6 26 13 24 7 -1 12 2 12 8 0 5 5 10 11 10 6 0 8 -9
3 -22 -6 -20 -5 -21 10 -9 12 10 13 17 6 26 -8 10 -8 15 1 21 8 4 9 3 5 -4 -4
-7 -3 -12 2 -12 14 0 94 92 86 99 -4 3 -9 0 -11 -7 -3 -7 -14 -17 -25 -23 -19
-10 -20 -9 -16 20 3 18 0 31 -6 31 -6 0 -4 4 4 10 8 5 11 12 7 16 -10 10 -38
-16 -30 -30 3 -6 3 -8 -2 -4 -4 4 -15 2 -23 -5 -9 -6 -14 -7 -11 -2 26 54 34
65 45 65 6 0 15 7 18 16 9 25 7 27 -10 13 -45 -37 -66 -1 -33 57 l21 39 -21
-24 -21 -23 -1 23 c0 16 -3 19 -6 9 -3 -8 -11 -18 -17 -22 -7 -5 -4 -8 7 -8
19 0 23 -15 7 -25 -5 -3 -10 -1 -10 5 0 6 -4 8 -10 5 -5 -3 -10 -19 -10 -35 0
-16 -4 -31 -9 -35 -11 -6 -7 122 3 132 3 4 6 11 6 17 0 6 -14 -6 -31 -27 -34
-41 -45 -45 -53 -19 -3 9 -3 -1 0 -23 3 -29 2 -36 -5 -25 -9 12 -11 11 -11 -7
0 -13 -5 -23 -11 -23 -6 0 -9 -7 -5 -15 3 -8 1 -27 -4 -40 -5 -14 -12 -37 -14
-52 -7 -35 -21 -48 -22 -20 0 12 -4 35 -9 51 -7 25 -6 28 12 22 18 -6 21 -1
26 41 3 26 2 52 -1 58 -4 5 -7 21 -8 35 -2 40 -6 38 -13 -5 -3 -23 -2 -44 4
-48 6 -5 4 -7 -5 -5 -10 3 -14 17 -12 49 2 59 -6 98 -18 79 -5 -8 -5 -21 0
-29 5 -10 2 -34 -7 -61 -11 -31 -12 -45 -4 -48 6 -2 11 -13 11 -25 -1 -20 -2
-20 -16 6 -8 15 -20 27 -26 27 -7 0 -8 12 -4 33 4 20 3 27 -3 18 -12 -19 -33
-4 -26 19 3 10 0 22 -6 26 -7 4 -10 3 -7 -2 3 -5 0 -15 -8 -22 -8 -7 -14 -9
-14 -5 0 4 -5 0 -11 -10 -6 -9 -8 -27 -4 -40 l6 -22 -14 23 c-7 12 -15 21 -18
20 -2 -2 2 3 10 9 8 7 12 15 9 19 -8 7 -48 -14 -48 -26 0 -17 -30 2 -31 19 0
9 -7 -2 -15 -23 -10 -28 -11 -43 -3 -52 8 -9 6 -12 -8 -9 -10 2 -22 4 -28 4
-7 1 -7 4 0 9 6 4 7 24 4 47 -6 36 -6 37 -9 10 -2 -30 -2 -30 -10 -5 -11 36
-11 52 0 45 13 -8 13 25 0 45 -8 12 -10 11 -10 -7z m437 -140 c-8 -73 -19
-111 -40 -140 -9 -13 -37 -6 -37 9 0 6 7 7 16 4 12 -4 15 0 13 17 -2 12 0 28
4 34 6 9 3 11 -7 7 -8 -3 -17 -15 -19 -27 -3 -15 -5 -12 -6 10 -2 44 9 69 21
51 6 -9 7 -6 3 10 -5 16 2 33 25 62 17 22 33 40 34 40 1 0 -2 -35 -7 -77z
m-605 37 c-9 -7 -8 -40 2 -62 4 -9 4 -22 0 -29 -4 -7 -3 -9 3 -6 18 11 21 -41
5 -65 -10 -16 -11 -19 -2 -10 8 6 21 12 30 12 10 0 11 -3 4 -8 -7 -4 -13 -16
-15 -26 -5 -25 -19 -29 -41 -12 -19 14 -14 61 6 49 7 -4 6 -1 -1 9 -7 8 -10
17 -7 20 3 3 -7 18 -21 32 -23 23 -27 55 -5 41 4 -3 6 3 3 13 -2 10 3 24 11
31 9 8 16 21 16 30 0 14 2 14 10 1 5 -8 6 -17 2 -20z m258 -1 c0 -6 -4 -7 -10
-4 -5 3 -10 11 -10 16 0 6 5 7 10 4 6 -3 10 -11 10 -16z m-137 -14 c-3 -10 1
-15 13 -16 11 0 14 -3 6 -6 -6 -2 -10 -8 -7 -12 2 -5 -2 -17 -10 -27 -13 -17
-14 -16 -8 15 5 27 3 32 -7 26 -10 -6 -12 -4 -7 9 4 10 7 22 7 27 0 6 4 8 10
4 5 -3 7 -12 3 -20z m47 11 c0 -2 -7 -7 -16 -10 -8 -3 -12 -2 -9 4 6 10 25 14
25 6z m102 -35 c-6 -4 -7 -22 -2 -49 4 -23 6 -42 4 -42 -2 0 -12 10 -24 22
-24 26 -27 53 -4 44 8 -3 12 -2 9 4 -3 5 0 20 6 32 9 16 14 19 17 9 2 -7 0
-16 -6 -20z m152 -14 c5 5 6 -5 4 -20 -4 -20 -2 -27 7 -23 20 7 25 -4 13 -27
-10 -20 -11 -20 -24 -2 -8 10 -14 28 -14 39 0 14 -3 17 -11 9 -11 -11 13 -71
34 -85 7 -4 6 -12 -4 -24 -9 -11 -9 -15 -1 -10 9 5 11 1 8 -16 -3 -13 -5 -25
-5 -28 -1 -3 -9 9 -20 25 -14 24 -15 32 -5 38 16 9 6 40 -11 33 -9 -3 -14 9
-17 39 -2 24 1 41 6 37 5 -3 7 2 3 11 -3 10 -3 25 0 34 6 14 9 13 18 -10 6
-15 15 -24 19 -20z m-348 -1 c-1 -37 -16 -39 -16 -2 0 19 7 36 15 36 1 0 1
-15 1 -34z m124 -46 c-1 -9 -7 -5 -16 10 l-15 25 7 -25 c4 -14 9 -31 11 -37 3
-7 0 -13 -7 -13 -6 0 -8 5 -5 10 3 6 2 10 -4 10 -5 0 -12 -12 -14 -27 -3 -22
-4 -20 -6 10 -1 28 2 36 12 31 9 -6 9 -5 0 7 -6 8 -9 27 -6 42 l6 28 18 -28
c10 -15 19 -35 19 -43z m97 48 c-3 -8 -6 -5 -6 6 -1 11 2 17 5 13 3 -3 4 -12
1 -19z m203 18 c0 -3 -4 -8 -10 -11 -5 -3 -10 -1 -10 4 0 6 5 11 10 11 6 0 10
-2 10 -4z m184 -33 c4 -10 4 -14 0 -10 -4 4 -13 -1 -20 -11 -8 -11 -16 -13
-21 -7 -5 6 -6 9 -4 8 2 -2 10 6 18 17 17 24 19 25 27 3z m-630 -15 c9 -36 7
-41 -9 -28 -16 13 -21 50 -6 50 5 0 11 -10 15 -22z m-127 -30 c-3 -7 -5 -2 -5
12 0 14 2 19 5 13 2 -7 2 -19 0 -25z m34 -13 c9 6 7 -17 -9 -90 -17 -77 -26 6
-12 105 2 11 3 11 7 -3 2 -9 9 -15 14 -12z m165 10 c-3 -8 -2 -15 3 -15 4 0 8
-19 9 -42 1 -31 -1 -39 -8 -28 -5 8 -10 11 -10 5 0 -5 -8 5 -17 24 -13 26 -14
36 -5 39 7 2 12 10 12 18 0 8 5 14 11 14 6 0 9 -7 5 -15z m528 -10 c-4 -8 -8
-15 -10 -15 -2 0 -4 7 -4 15 0 8 4 15 10 15 5 0 7 -7 4 -15z m192 -12 c-10
-10 -19 5 -10 18 6 11 8 11 12 0 2 -7 1 -15 -2 -18z m-611 -53 c-3 -6 -1 -10
6 -10 7 0 9 -3 6 -6 -4 -4 -14 -1 -23 7 -15 12 -16 11 -10 -9 5 -13 3 -22 -3
-22 -6 0 -11 3 -12 8 0 4 -2 16 -5 27 -2 11 2 30 8 43 l12 23 13 -26 c8 -14
11 -30 8 -35z m490 38 c6 -15 1 -26 -16 -40 -50 -39 -58 -41 -65 -12 -4 15 -2
30 6 37 10 9 11 7 5 -10 -4 -14 -2 -23 4 -23 6 0 11 11 11 25 0 13 8 29 18 34
25 15 30 14 37 -11z m-465 -4 c0 -8 -4 -12 -10 -9 -5 3 -10 10 -10 16 0 5 5 9
10 9 6 0 10 -7 10 -16z m110 4 c0 -7 3 -23 6 -36 5 -18 3 -21 -10 -16 -11 4
-15 16 -14 35 2 28 18 42 18 17z m257 -10 c-3 -8 -6 -5 -6 6 -1 11 2 17 5 13
3 -3 4 -12 1 -19z m-897 -32 c0 -5 -7 -3 -15 4 -8 7 -15 20 -15 28 0 13 3 12
15 -4 8 -10 15 -23 15 -28z m1126 8 c-5 -12 -10 -14 -20 -5 -7 6 -16 8 -20 4
-4 -4 -4 1 0 11 5 12 9 14 14 6 5 -8 10 -6 15 7 9 23 20 0 11 -23z m-257 -36
c-1 -29 -8 -65 -15 -80 -18 -36 -17 -50 1 -18 l14 25 1 -23 c0 -13 -9 -32 -20
-44 -10 -12 -17 -26 -13 -31 3 -6 1 -7 -5 -3 -9 5 -9 13 -2 26 13 23 13 33 1
25 -13 -7 4 52 20 71 7 8 9 18 5 21 -4 4 -11 1 -15 -6 -7 -10 -10 -11 -16 -1
-5 8 -1 18 9 26 15 11 22 26 25 57 1 4 3 7 6 7 2 0 4 -24 4 -52z m-271 16 c0
-17 -3 -22 -8 -13 -5 6 -6 18 -3 26 8 19 11 16 11 -13z m-485 -9 c-3 -8 0 -15
6 -15 6 0 8 -7 4 -15 -3 -9 -8 -13 -11 -10 -10 9 -11 65 -1 60 4 -3 6 -12 2
-20z m664 3 c-3 -8 -6 -5 -6 6 -1 11 2 17 5 13 3 -3 4 -12 1 -19z m-610 -10
c-3 -8 -6 -5 -6 6 -1 11 2 17 5 13 3 -3 4 -12 1 -19z m172 -16 c-4 -2 -5 -10
-2 -18 3 -8 0 -14 -6 -14 -7 0 -10 11 -7 28 2 15 5 32 6 37 1 6 5 1 9 -10 5
-11 5 -21 0 -23z m866 -15 c0 -26 3 -47 6 -47 3 0 6 -6 6 -13 0 -19 -39 -15
-58 5 -14 15 -16 15 -26 -1 -6 -10 -22 -21 -35 -24 -21 -5 -21 -5 -5 7 9 7 17
17 17 22 0 5 9 26 19 46 11 19 17 39 13 44 -4 4 -2 4 5 0 6 -3 15 -2 18 4 4 6
14 10 23 8 13 -3 17 -15 17 -51z m-1195 28 c0 -10 -7 -14 -22 -11 -13 3 -25 5
-28 5 -9 2 25 21 38 21 6 0 12 -7 12 -15z m254 -1 c9 -8 16 -21 17 -27 0 -7 4
-3 9 8 7 14 7 7 3 -20 -4 -22 -7 -50 -6 -62 0 -13 -3 -23 -8 -23 -4 0 -6 -8
-3 -17 4 -13 0 -11 -15 6 -23 26 -28 46 -8 35 8 -5 8 -3 -2 9 -18 22 -34 11
-20 -14 12 -23 6 -35 -10 -24 -16 9 -13 41 4 55 10 8 12 17 6 24 -11 13 -3 66
9 66 5 0 16 -7 24 -16z m125 -16 c0 -28 -2 -30 -9 -13 -12 28 -12 45 0 45 6 0
10 -15 9 -32z m72 22 c1 -5 2 -16 3 -22 1 -7 7 -12 13 -11 17 3 11 -86 -6 -92
-20 -8 -45 15 -31 29 8 8 13 7 19 -2 5 -9 8 0 7 23 -1 19 -5 39 -11 43 -13 9
-16 42 -4 42 5 0 10 -4 10 -10z m172 -20 c-7 -27 -13 -25 -11 4 1 14 5 23 9
20 4 -2 5 -13 2 -24z m497 20 c0 -5 -4 -10 -10 -10 -5 0 -10 -10 -10 -21 0
-12 -9 -36 -19 -53 -11 -17 -20 -35 -21 -41 -2 -5 -9 -19 -16 -30 -14 -19 -14
-19 -15 0 0 11 -3 14 -6 8 -9 -23 -20 -14 -15 12 5 31 22 43 23 18 0 -10 5 -2
11 17 5 19 13 37 16 40 13 9 34 52 23 45 -6 -3 -11 -1 -11 5 0 7 7 10 15 6 8
-3 15 -1 15 4 0 6 5 10 10 10 6 0 10 -4 10 -10z m-600 -9 c0 -22 -23 -72 -30
-62 -11 18 1 71 16 71 8 0 14 -4 14 -9z m-577 -15 c4 -10 1 -13 -8 -9 -8 3
-12 9 -9 14 7 12 11 11 17 -5z m469 -11 c-5 -31 -22 -44 -22 -18 0 15 17 43
26 43 1 0 -1 -11 -4 -25z m158 2 c0 -27 -36 -62 -46 -45 -4 6 1 15 10 20 9 5
16 18 16 28 0 11 5 20 10 20 6 0 10 -10 10 -23z m94 -39 c15 -53 8 -62 -19
-22 -11 18 -14 35 -9 57 4 18 9 28 10 22 2 -5 10 -31 18 -57z m76 43 c0 -4 -6
-15 -13 -26 -13 -16 -14 -15 -9 13 2 18 8 29 13 26 5 -3 9 -9 9 -13z m-686 -7
c17 -16 21 -34 8 -34 -8 0 -42 37 -42 45 0 10 19 4 34 -11z m533 -6 c-3 -8 -6
-5 -6 6 -1 11 2 17 5 13 3 -3 4 -12 1 -19z m453 -3 c0 -9 -6 -18 -14 -21 -8
-3 -17 -20 -21 -37 -4 -18 -9 -34 -10 -37 -1 -3 -5 -18 -10 -33 -7 -27 -33
-33 -27 -6 14 53 10 61 -10 21 -18 -34 -30 -45 -63 -54 -42 -12 -69 -28 -46
-28 7 0 9 -5 5 -12 -4 -7 -4 -10 1 -6 4 4 15 2 23 -5 13 -10 14 -9 4 10 -11
20 -10 22 15 20 18 -2 34 5 45 18 11 12 17 15 18 7 0 -7 5 -10 10 -7 15 9 3
-40 -23 -95 -12 -25 -32 -49 -44 -55 -13 -5 -23 -13 -23 -18 0 -4 -15 -27 -32
-50 -61 -79 -68 -76 -68 22 0 90 5 111 29 111 14 0 14 2 1 10 -11 7 -11 10 -2
10 7 0 11 4 7 9 -3 5 -1 12 5 16 15 9 12 35 -5 35 -9 0 -12 6 -8 16 5 15 7 15
15 0 11 -19 28 -21 28 -3 0 6 9 23 20 37 26 33 25 52 -1 20 l-21 -25 18 32
c10 18 21 30 25 28 4 -3 12 2 19 10 7 8 17 15 22 15 6 0 23 10 40 21 25 18 32
19 39 8 7 -11 10 -9 15 9 7 25 24 30 24 7z m-894 -38 c-2 -14 8 -32 26 -48 16
-16 28 -37 28 -51 -1 -21 -3 -20 -18 10 -10 18 -22 29 -27 25 -4 -4 -5 -3 -1
4 3 6 1 15 -6 20 -7 4 -19 19 -26 32 -13 22 -12 23 5 17 14 -6 16 -5 6 5 -18
18 -16 34 2 19 8 -7 13 -22 11 -33z m200 16 c-10 -10 -19 5 -10 18 6 11 8 11
12 0 2 -7 1 -15 -2 -18z m81 -10 c-17 -18 -22 -8 -11 22 5 12 10 13 17 6 8 -8
6 -16 -6 -28z m364 -6 c-13 -13 -15 1 -4 30 7 17 8 17 11 -1 2 -10 -1 -23 -7
-29z m95 6 c-5 -12 -10 -13 -18 -5 -8 8 -8 15 3 28 15 18 25 4 15 -23z m-1013
4 c13 -21 13 -23 -3 -24 -12 -1 -17 6 -17 23 0 30 1 30 20 1z m81 17 c9 -3 16
-11 16 -17 0 -6 8 -19 17 -30 17 -18 17 -19 -2 -33 -16 -12 -16 -14 -3 -14 9
0 20 -4 23 -10 4 -6 -1 -7 -10 -3 -10 3 -21 0 -25 -7 -5 -8 -9 -9 -14 -1 -4 6
-3 11 2 11 5 0 9 7 9 15 0 13 -10 19 -21 13 -8 -5 -46 50 -46 66 0 16 25 21
54 10z m89 -14 c18 -9 23 -16 15 -21 -8 -5 -9 -11 -1 -21 13 -16 -1 -58 -19
-57 -9 0 -10 2 -1 5 8 4 8 14 -3 40 -13 31 -13 34 3 35 15 0 14 2 -3 9 -12 5
-25 14 -30 21 -4 7 -3 10 2 8 5 -3 21 -11 37 -19z m57 10 c0 -5 -5 -10 -11
-10 -5 0 -7 5 -4 10 3 6 8 10 11 10 2 0 4 -4 4 -10z m541 -42 c25 -34 24 -58
-1 -58 -21 0 -28 24 -10 35 7 4 5 14 -5 28 -8 12 -15 28 -14 37 0 13 1 13 6 0
3 -8 14 -27 24 -42z m-320 -5 c-9 -15 -10 -12 -10 17 0 29 1 32 10 18 7 -12 7
-24 0 -35z m279 -7 c0 -25 -6 -48 -14 -55 -8 -6 -16 -21 -19 -32 -5 -20 -5
-20 14 -3 26 23 34 12 34 -46 0 -26 3 -46 8 -43 4 2 8 -6 8 -19 1 -13 3 -39 4
-58 2 -19 1 -30 -2 -24 -2 7 -13 9 -25 6 -16 -4 -19 -1 -15 14 16 55 16 67 1
34 -20 -43 -18 -42 -37 -34 -24 9 -31 76 -12 116 l16 33 -20 -25 -21 -25 -1
25 c-1 14 -3 36 -5 50 -6 56 6 67 58 45 13 -5 15 -2 11 15 -4 13 -8 17 -13 11
-6 -11 -40 -5 -40 6 0 10 56 60 63 56 4 -2 7 -24 7 -47z m93 27 c-3 -7 -6 -13
-8 -13 -2 0 -5 6 -8 13 -3 8 1 14 8 14 7 0 11 -6 8 -14z m-588 -3 c3 -5 2 -10
-4 -10 -5 0 -13 5 -16 10 -3 6 -2 10 4 10 5 0 13 -4 16 -10z m1145 0 c0 -5 -7
-10 -16 -10 -8 0 -12 5 -9 10 3 6 10 10 16 10 5 0 9 -4 9 -10z m-899 -43 c-15
-15 -21 -5 -14 22 5 21 7 21 16 6 6 -11 5 -21 -2 -28z m823 19 c9 4 13 -6 12
-38 -1 -53 -26 -81 -64 -71 -14 3 -34 7 -46 8 -31 4 -33 6 -12 14 17 7 25 23
28 58 1 7 10 15 20 19 10 3 18 12 18 20 0 14 2 14 15 0 9 -8 21 -13 29 -10z
m-769 5 c3 -5 2 -12 -3 -15 -5 -3 -9 1 -9 9 0 17 3 19 12 6z m332 -23 c-3 -7
-5 -2 -5 12 0 14 2 19 5 13 2 -7 2 -19 0 -25z m43 -18 c-7 -17 -10 -33 -6 -37
3 -3 6 -1 6 5 0 7 4 12 10 12 6 0 5 -10 -2 -25 -17 -37 -25 -30 -22 18 2 23 4
51 4 61 1 14 4 16 12 8 8 -8 7 -19 -2 -42z m-689 33 c1 -5 3 -23 5 -41 2 -27
0 -31 -11 -22 -14 12 -16 70 -2 70 4 0 8 -3 8 -7z m50 -31 c14 -15 36 -46 47
-68 19 -37 19 -41 5 -40 -25 2 -74 61 -83 101 -10 42 -3 44 31 7z m163 -24
c-3 -55 -4 -57 -13 -35 -8 22 -2 89 8 83 4 -3 6 -24 5 -48z m131 32 c-3 -4 2
-11 11 -14 12 -5 14 -13 9 -34 -4 -15 -8 -33 -9 -40 -1 -7 -8 -18 -14 -24 -9
-9 -12 -8 -12 8 0 10 -7 28 -16 39 -15 19 -15 19 -10 -7 2 -14 11 -37 20 -50
12 -18 13 -32 7 -55 -5 -17 -12 -66 -16 -107 -4 -42 -11 -76 -15 -76 -10 0
-31 26 -29 36 3 20 -2 35 -10 30 -21 -13 -27 127 -8 164 8 14 28 53 46 87 18
35 37 60 42 57 5 -3 7 -9 4 -14z m-555 0 c0 -5 -2 -10 -4 -10 -3 0 -8 5 -11
10 -3 6 -1 10 4 10 6 0 11 -4 11 -10z m621 -7 c-10 -19 -7 -59 7 -108 7 -22 5
-38 -7 -60 l-16 -30 -6 50 -6 50 -1 -44 c-1 -24 -4 -42 -6 -40 -2 2 -4 6 -3 9
0 3 -5 15 -11 27 -8 15 -9 24 -2 28 6 4 10 15 8 25 -3 21 33 110 45 110 4 0 3
-8 -2 -17z m710 5 c0 -10 2 -10 6 0 2 6 8 12 13 12 7 0 -7 -67 -17 -80 -8 -9
-23 26 -23 53 0 26 19 40 21 15z m-741 -8 c0 -5 -2 -10 -4 -10 -3 0 -8 5 -11
10 -3 6 -1 10 4 10 6 0 11 -4 11 -10z m597 -10 c-3 -11 0 -20 6 -20 7 0 1 -6
-13 -13 -33 -18 -35 -15 -15 22 18 35 30 41 22 11z m-801 -72 l5 -53 -24 25
c-23 23 -45 80 -31 80 3 0 15 -10 25 -22 l20 -23 -16 32 c-19 41 -19 49 1 29
8 -9 17 -40 20 -68z m79 65 c-2 -10 -4 -20 -4 -22 -1 -3 -6 0 -12 6 -6 6 -8
16 -5 22 11 17 25 13 21 -6z m-455 -3 c0 -5 -2 -10 -4 -10 -3 0 -8 5 -11 10
-3 6 -1 10 4 10 6 0 11 -4 11 -10z m834 -6 c4 -9 4 -19 2 -21 -8 -8 -26 8 -26
23 0 19 16 18 24 -2z m-775 -19 c13 -14 27 -25 32 -25 5 0 9 -7 9 -15 0 -9 8
-19 18 -22 9 -4 23 -13 30 -20 7 -6 18 -11 25 -9 7 1 9 1 5 -1 -14 -8 -8 -22
12 -28 24 -7 27 -35 4 -35 -8 0 -20 14 -26 31 -8 22 -13 27 -19 18 -6 -11 -11
-11 -21 -1 -15 15 -28 16 -28 2 0 -5 3 -10 8 -9 15 2 52 -14 47 -20 -7 -13
-93 -12 -101 0 -5 9 2 10 22 6 l29 -6 -27 11 c-30 13 -41 40 -24 59 8 9 8 10
-1 5 -7 -4 -13 -2 -13 3 0 16 0 17 -10 51 -10 36 -3 38 29 5z m700 18 c0 -5
-4 -17 -9 -28 -8 -18 -9 -17 -9 8 -1 15 4 27 9 27 6 0 10 -3 9 -7z m371 -8 c0
-8 -7 -15 -15 -15 -16 0 -20 12 -8 23 11 12 23 8 23 -8z m-314 -16 c14 -16 14
-21 -6 -61 -36 -72 -41 -88 -27 -85 19 3 37 33 41 67 2 17 6 33 9 36 8 8 0
-72 -8 -88 -4 -7 0 -5 8 5 8 9 19 17 25 17 11 0 11 -78 -1 -97 -4 -6 -3 -14 3
-18 13 -8 13 -75 0 -75 -5 0 -10 6 -10 13 0 8 -3 8 -9 -2 -14 -22 -38 -6 -51
33 -10 32 -9 41 10 74 12 20 15 29 7 19 -8 -10 -17 -14 -19 -10 -3 4 -4 3 -2
-3 1 -6 -4 -11 -12 -11 -9 0 -13 6 -9 15 3 8 1 20 -3 26 -13 16 -23 88 -12 81
6 -3 7 1 4 9 -3 8 0 25 7 38 7 13 13 26 12 29 -4 13 28 4 43 -12z m-712 5 c9
-3 16 -14 16 -23 0 -9 3 -12 8 -6 10 15 38 12 34 -4 -1 -7 3 -19 9 -27 18 -22
-5 -17 -32 7 -13 11 -35 29 -49 40 -25 18 -17 25 14 13z m123 -34 c-4 -16 30
-57 39 -47 3 2 -2 10 -11 17 -8 7 -15 17 -15 23 0 6 12 0 26 -14 14 -13 27
-23 30 -21 12 7 25 0 35 -20 12 -22 11 -22 -8 -5 -11 9 -23 14 -28 10 -4 -5
-5 -2 0 6 6 10 4 12 -5 6 -14 -8 -10 -13 55 -58 14 -10 25 -25 25 -34 0 -13
-3 -13 -27 2 l-28 17 25 -24 c14 -13 34 -29 45 -36 17 -9 13 -10 -20 -5 -22 3
-53 15 -70 27 -51 35 -73 73 -35 61 11 -4 20 -2 20 4 0 6 -7 11 -15 11 -8 0
-24 9 -34 19 -11 11 -22 16 -26 13 -3 -4 -3 2 1 12 6 15 4 17 -7 11 -12 -8
-12 -6 0 8 12 15 9 21 -11 18 -4 0 -5 5 -2 13 8 21 47 7 41 -14z m217 15 c-4
-8 -8 -15 -10 -15 -2 0 -4 7 -4 15 0 8 4 15 10 15 5 0 7 -7 4 -15z m921 -14
c-3 -6 -11 -11 -17 -11 -6 0 -6 6 2 15 14 17 26 13 15 -4z m-261 -16 c-19 -29
-29 -27 -19 4 3 12 13 21 21 21 12 0 12 -4 -2 -25z m106 11 c14 -1 34 -7 45
-13 17 -10 18 -14 7 -38 -7 -14 -16 -24 -20 -21 -5 3 -7 -7 -4 -22 3 -24 -2
-30 -41 -50 -48 -24 -103 -30 -91 -10 4 6 -3 4 -17 -5 -13 -9 -31 -17 -41 -17
-10 0 -18 -5 -18 -11 0 -7 7 -8 18 -4 25 11 134 25 153 19 26 -7 13 -36 -42
-95 -27 -29 -49 -55 -49 -59 0 -14 -100 -101 -150 -130 -30 -17 -76 -44 -102
-60 -55 -33 -56 -31 -28 60 21 68 25 99 9 65 -7 -15 -8 -9 -3 20 3 22 10 45
15 50 7 7 8 0 5 -20 -4 -20 -1 -16 10 13 17 45 44 67 75 59 10 -3 17 -1 13 4
-3 5 5 9 18 10 13 0 17 3 10 6 -6 2 -9 9 -6 15 4 5 -5 2 -20 -7 -14 -10 -26
-15 -26 -12 0 12 55 57 70 57 13 0 13 1 0 10 -9 6 -11 13 -5 18 6 4 22 23 36
42 18 24 43 41 80 54 29 11 48 21 42 23 -6 2 -25 -3 -42 -12 -39 -20 -39 -14
1 36 25 31 36 38 52 33 12 -4 32 -8 46 -8z m-790 -28 c0 -5 -4 -8 -10 -8 -5 0
-10 10 -10 23 0 18 2 19 10 7 5 -8 10 -18 10 -22z m940 7 c0 -3 -5 -14 -12
-24 -13 -21 -50 -17 -41 5 3 8 2 14 -1 14 -4 0 -11 -11 -16 -25 -5 -14 -14
-25 -20 -25 -11 0 6 40 21 50 11 8 69 12 69 5z m-978 -68 c1 -15 6 -27 11 -27
5 0 6 16 3 35 -4 21 -3 35 3 35 19 0 33 -73 20 -105 -7 -19 -8 -18 -8 3 -1 12
-6 21 -12 20 -15 -4 -46 40 -54 77 l-6 30 20 -20 c12 -11 22 -33 23 -48z m174
-46 c-8 -11 -8 -13 2 -7 9 5 12 -7 12 -48 0 -56 -8 -66 -37 -48 -8 5 -9 26 0
84 9 67 12 74 22 55 9 -16 9 -26 1 -36z m79 30 c2 -13 0 -21 -6 -19 -6 2 -10
7 -10 11 1 4 1 15 1 24 0 22 10 11 15 -16z m626 -4 c-10 -9 -11 -8 -5 6 3 10
9 15 12 12 3 -3 0 -11 -7 -18z m-1057 -22 c21 -3 45 -10 52 -16 8 -6 14 -8 14
-4 0 4 7 2 15 -5 8 -7 13 -16 10 -20 -3 -5 -1 -11 5 -15 5 -3 10 0 10 7 0 7 8
4 21 -9 26 -26 18 -44 -19 -39 -15 2 -21 1 -14 -1 6 -2 12 -8 12 -13 0 -5 7
-7 17 -3 13 5 15 2 8 -18 -4 -13 -8 -36 -9 -50 -1 -28 -33 -72 -46 -64 -5 3
-11 -1 -14 -7 -6 -15 -126 107 -126 128 0 8 10 15 23 15 43 2 79 8 85 13 3 4
-4 6 -16 6 -17 0 -22 6 -22 25 0 14 4 25 10 25 5 0 2 9 -7 19 -20 24 -36 17
-28 -10 4 -12 2 -19 -7 -19 -8 0 -6 -4 5 -11 26 -15 21 -24 -18 -36 -34 -11
-35 -10 -51 23 -9 19 -20 31 -25 28 -5 -3 -6 3 -2 12 4 11 3 15 -5 10 -6 -3
-14 -1 -18 5 -5 8 -3 9 6 4 10 -6 12 -2 7 15 -6 22 -4 22 41 16 26 -4 64 -9
86 -11z m445 -53 c17 -69 -4 -147 -49 -181 l-33 -26 8 80 c4 44 7 97 6 118 -2
47 4 57 34 57 19 0 25 -8 34 -48z m33 3 c4 -16 1 -24 -6 -22 -6 2 -12 16 -14
31 -4 35 14 26 20 -9z m548 25 c0 -5 -7 -10 -16 -10 -8 0 -12 5 -9 10 3 6 10
10 16 10 5 0 9 -4 9 -10z m-520 -19 c0 -6 -4 -13 -10 -16 -5 -3 -10 1 -10 9 0
9 5 16 10 16 6 0 10 -4 10 -9z m39 -10 c8 -5 10 -14 6 -22 -7 -10 -10 -8 -15
6 -5 14 -10 7 -19 -28 -12 -42 -54 -97 -66 -86 -10 10 17 79 41 109 28 32 32
34 53 21z m226 -10 c-3 -6 -11 -11 -17 -11 -6 0 -6 6 2 15 14 17 26 13 15 -4z
m-560 -20 c10 -17 -12 -21 -25 -6 -10 12 -10 15 3 15 9 0 18 -4 22 -9z m379
-37 c13 -32 21 -42 27 -33 4 8 11 10 15 6 4 -3 2 -12 -3 -19 -6 -7 -10 -38 -9
-70 0 -31 -2 -55 -5 -53 -3 2 -11 -28 -17 -68 -10 -59 -25 -93 -85 -194 -61
-105 -73 -120 -75 -97 -2 16 -7 23 -11 16 -4 -7 -26 28 -52 81 l-45 92 10 65
c11 64 11 64 27 39 9 -13 22 -63 28 -109 7 -47 16 -101 21 -120 l10 -35 -5 40
c-11 100 -30 220 -35 225 -4 3 -12 21 -19 40 -11 33 -10 37 15 58 14 13 28 21
31 18 2 -2 -2 -27 -11 -55 -8 -28 -11 -51 -6 -51 5 0 14 26 20 57 13 61 61
123 95 123 11 0 15 5 12 15 -4 8 -2 17 4 21 5 3 7 15 4 27 -4 15 -3 18 3 9 7
-11 10 -11 15 2 10 26 21 18 41 -30z m-389 9 c18 -14 18 -15 2 -9 -10 3 -23 6
-28 6 -5 0 -9 5 -9 10 0 14 12 12 35 -7z m139 -9 c19 -7 21 -34 4 -35 -10 0
-10 -2 0 -6 14 -6 16 -69 2 -78 -6 -3 -7 -18 -4 -33 5 -22 0 -18 -23 18 -16
25 -26 46 -21 48 4 2 3 12 -2 23 -6 11 -7 19 -1 19 12 0 22 -27 15 -43 -3 -8
3 -20 12 -28 16 -13 17 -12 10 11 -11 37 -19 110 -13 110 3 0 12 -3 21 -6z
m-54 -19 c10 -12 10 -15 -4 -15 -9 0 -16 7 -16 15 0 8 2 15 4 15 2 0 9 -7 16
-15z m-35 -15 c3 -5 1 -10 -4 -10 -6 0 -11 5 -11 10 0 6 2 10 4 10 3 0 8 -4
11 -10z m415 1 c0 -6 -4 -13 -10 -16 -5 -3 -10 1 -10 9 0 9 5 16 10 16 6 0 10
-4 10 -9z m-580 -141 c6 -11 8 -20 6 -20 -3 0 -10 9 -16 20 -6 11 -8 20 -6 20
3 0 10 -9 16 -20z"/>
<path d="M1560 1650 c0 -5 5 -10 11 -10 5 0 7 5 4 10 -3 6 -8 10 -11 10 -2 0
-4 -4 -4 -10z"/>
<path d="M1696 1384 c-5 -14 -4 -15 9 -4 17 14 19 20 6 20 -5 0 -12 -7 -15
-16z"/>
<path d="M1606 1185 c-3 -8 -1 -15 3 -15 5 0 11 7 15 15 3 8 1 15 -3 15 -5 0
-11 -7 -15 -15z"/>
<path d="M1601 1144 c0 -11 3 -14 6 -6 3 7 2 16 -1 19 -3 4 -6 -2 -5 -13z"/>
<path d="M630 1390 c0 -5 5 -10 11 -10 5 0 7 5 4 10 -3 6 -8 10 -11 10 -2 0
-4 -4 -4 -10z"/>
<path d="M1855 1342 c-14 -10 -16 -44 -2 -39 7 2 20 48 13 47 -1 0 -5 -4 -11
-8z"/>
<path d="M1077 1084 c-3 -3 -3 -13 0 -21 5 -12 7 -12 14 -1 15 23 4 40 -14 22z"/>
<path d="M1192 1266 c-10 -22 -7 -36 7 -36 3 0 6 14 7 30 1 36 0 37 -14 6z"/>
<path d="M660 1239 c0 -5 9 -9 20 -9 11 0 20 2 20 4 0 2 -9 6 -20 9 -11 3 -20
1 -20 -4z"/>
<path d="M1462 1020 c0 -14 2 -19 5 -12 2 6 2 18 0 25 -3 6 -5 1 -5 -13z"/>
<path d="M1798 1208 c-21 -21 -5 -24 31 -4 21 12 22 13 5 18 -11 2 -27 -4 -36
-14z"/>
<path d="M1618 993 c7 -3 16 -2 19 1 4 3 -2 6 -13 5 -11 0 -14 -3 -6 -6z"/>
<path d="M732 1075 c15 -16 30 -26 33 -23 4 3 -9 16 -27 28 l-33 23 27 -28z"/>
<path d="M853 1033 c9 -2 25 -2 35 0 9 3 1 5 -18 5 -19 0 -27 -2 -17 -5z"/>
<path d="M916 1032 c-3 -6 3 -12 15 -15 12 -3 19 -1 16 6 -5 15 -24 20 -31 9z"/>
<path d="M836 965 c28 -90 35 -101 52 -75 10 16 9 18 -2 14 -10 -4 -22 9 -35
38 -12 24 -18 34 -15 23z"/>
<path d="M1363 953 c9 -2 23 -2 30 0 6 3 -1 5 -18 5 -16 0 -22 -2 -12 -5z"/>
<path d="M1270 1756 c0 -9 5 -16 10 -16 6 0 10 4 10 9 0 6 -4 13 -10 16 -5 3
-10 -1 -10 -9z"/>
<path d="M1711 1717 c0 -16 -6 -38 -12 -50 -12 -21 -11 -21 8 -4 11 9 22 15
25 12 3 -3 13 5 24 17 10 13 12 17 4 11 -23 -21 -38 -15 -43 15 l-4 27 -2 -28z"/>
<path d="M1195 1719 c-4 -6 -5 -12 -2 -15 2 -3 7 2 10 11 7 17 1 20 -8 4z"/>
<path d="M622 1641 c7 -9 14 -18 15 -20 2 -2 3 5 3 16 0 11 -7 20 -15 20 -12
0 -12 -3 -3 -16z"/>
<path d="M1899 1647 c-8 -7 -19 -21 -23 -32 l-8 -20 -8 20 c-8 17 -8 16 -7 -7
1 -15 5 -24 9 -22 4 3 8 -1 9 -8 0 -7 5 1 11 17 6 17 17 38 26 48 17 20 14 22
-9 4z"/>
<path d="M594 1630 c0 -13 4 -16 10 -10 7 7 7 13 0 20 -6 6 -10 3 -10 -10z"/>
<path d="M1998 1598 c-2 -14 -9 -22 -18 -20 -8 2 -11 0 -7 -4 18 -18 33 -10
35 17 3 34 -5 39 -10 7z"/>
<path d="M586 1588 c3 -5 10 -6 15 -3 13 9 11 12 -6 12 -8 0 -12 -4 -9 -9z"/>
<path d="M1898 1548 c5 -5 19 -4 33 1 23 10 22 10 -8 8 -18 0 -29 -5 -25 -9z"/>
<path d="M1988 1510 c-3 -19 -2 -40 4 -46 5 -7 8 -16 6 -20 -1 -5 1 -19 6 -32
7 -21 9 -21 29 -7 23 16 37 19 37 7 0 -4 -13 -13 -29 -20 -31 -14 -72 -64 -49
-60 7 2 17 12 23 23 6 11 21 25 34 31 12 6 28 17 34 23 6 6 19 11 29 11 10 0
18 4 18 9 0 12 -39 21 -46 10 -7 -12 -44 -11 -44 1 0 6 5 10 11 10 5 0 7 5 3
11 -5 8 -10 6 -16 -5 -5 -9 -6 -21 -3 -26 3 -5 0 -7 -9 -4 -11 4 -13 17 -10
51 2 24 7 50 11 56 4 8 1 7 -9 -1 -13 -10 -17 -10 -20 0 -3 7 -7 -3 -10 -22z"/>
<path d="M2063 1509 c-12 -30 -11 -32 3 -17 9 8 14 23 12 33 -2 12 -7 7 -15
-16z"/>
<path d="M600 1471 c0 -6 4 -13 10 -16 6 -3 7 1 4 9 -7 18 -14 21 -14 7z"/>
<path d="M435 1440 c3 -5 8 -10 11 -10 2 0 4 5 4 10 0 6 -5 10 -11 10 -5 0 -7
-4 -4 -10z"/>
<path d="M2157 1416 c-4 -10 -1 -13 8 -9 8 3 12 9 9 14 -7 12 -11 11 -17 -5z"/>
<path d="M346 1399 c2 -4 18 -14 34 -23 30 -14 30 -14 15 7 -13 19 -61 34 -49
16z"/>
<path d="M428 1393 c7 -3 16 -2 19 1 4 3 -2 6 -13 5 -11 0 -14 -3 -6 -6z"/>
<path d="M2073 1364 c-6 -13 -7 -24 -3 -24 9 0 25 39 18 45 -2 2 -8 -7 -15
-21z"/>
<path d="M445 1338 c9 -22 23 -22 49 -3 19 15 19 15 -3 15 -12 0 -19 -4 -16
-10 9 -14 -9 -12 -24 3 -10 10 -11 9 -6 -5z"/>
<path d="M2205 1320 c-13 -6 -15 -9 -5 -9 8 0 22 4 30 9 18 12 2 12 -25 0z"/>
<path d="M2240 1300 c-9 -6 -10 -10 -3 -10 6 0 15 5 18 10 8 12 4 12 -15 0z"/>
<path d="M2318 1303 c7 -3 16 -2 19 1 4 3 -2 6 -13 5 -11 0 -14 -3 -6 -6z"/>
<path d="M310 1291 c0 -5 7 -11 15 -15 8 -3 15 -1 15 3 0 5 -7 11 -15 15 -8 3
-15 1 -15 -3z"/>
<path d="M2158 1293 c7 -3 16 -2 19 1 4 3 -2 6 -13 5 -11 0 -14 -3 -6 -6z"/>
<path d="M2265 1290 c-3 -6 1 -7 9 -4 18 7 21 14 7 14 -6 0 -13 -4 -16 -10z"/>
<path d="M547 1271 c3 -11 12 -22 20 -26 23 -8 22 -3 -3 23 -21 22 -22 22 -17
3z"/>
<path d="M2186 1252 l-19 -27 24 22 c12 12 21 24 18 27 -2 2 -13 -8 -23 -22z"/>
<path d="M2126 1200 c-16 -17 -26 -34 -22 -37 3 -4 6 -1 6 5 0 7 10 12 22 12
12 0 18 3 15 6 -3 4 -2 15 4 25 14 26 8 24 -25 -11z"/>
<path d="M340 1201 c12 -9 10 -11 -10 -12 l-25 -1 25 -7 c14 -4 28 -4 31 1 3
5 33 7 66 5 34 -2 67 0 75 4 10 7 9 9 -4 9 -9 0 -24 3 -34 7 -12 5 -15 3 -9
-6 5 -9 2 -12 -11 -8 -44 12 -119 18 -104 8z"/>
<path d="M2173 1184 c-18 -14 -33 -22 -33 -18 0 4 -12 -7 -26 -24 -25 -29 -54
-46 -39 -22 8 12 -7 13 -20 2 -6 -5 -39 -19 -74 -32 -36 -13 -60 -25 -53 -28
6 -2 23 3 39 11 43 23 103 37 103 25 0 -5 18 6 40 24 21 19 52 41 67 49 15 8
34 20 41 27 26 24 -11 13 -45 -14z"/>
<path d="M2256 1194 c-10 -25 1 -29 14 -5 6 12 7 21 1 21 -5 0 -12 -7 -15 -16z"/>
<path d="M2389 1164 c-13 -14 -17 -23 -9 -19 13 5 46 45 37 45 -2 0 -14 -11
-28 -26z"/>
<path d="M2200 1151 c-14 -4 -20 -10 -14 -13 13 -9 54 1 54 13 0 10 -4 10 -40
0z"/>
<path d="M448 1134 c-3 -3 -25 -6 -49 -6 -30 0 -38 -3 -24 -8 23 -8 51 -5 85
8 15 6 18 11 9 11 -9 1 -18 -2 -21 -5z"/>
<path d="M2332 1105 c-12 -14 -17 -25 -11 -25 5 0 8 -3 5 -8 -2 -4 14 -5 37
-3 l42 5 -40 6 -40 5 23 23 c12 12 18 22 14 22 -5 0 -18 -11 -30 -25z"/>
<path d="M288 1113 c7 -3 16 -2 19 1 4 3 -2 6 -13 5 -11 0 -14 -3 -6 -6z"/>
<path d="M608 1108 c5 -5 16 -8 23 -6 8 3 3 7 -10 11 -17 4 -21 3 -13 -5z"/>
<path d="M2143 1113 c-20 -8 -15 -19 10 -20 12 0 16 1 9 4 -6 3 -10 9 -6 14 6
10 5 10 -13 2z"/>
<path d="M2095 1090 c-3 -6 1 -7 9 -4 18 7 21 14 7 14 -6 0 -13 -4 -16 -10z"/>
<path d="M2213 1079 c2 -22 13 -25 20 -5 3 8 0 17 -8 20 -9 3 -13 -2 -12 -15z"/>
<path d="M345 1081 c-3 -6 3 -9 14 -8 11 0 17 5 15 9 -7 11 -22 10 -29 -1z"/>
<path d="M556 1075 c-11 -8 -15 -15 -10 -15 6 0 19 7 30 15 10 8 15 14 9 14
-5 0 -19 -6 -29 -14z"/>
<path d="M2257 1079 c8 -8 16 -8 30 0 16 9 14 10 -11 11 -22 0 -27 -3 -19 -11z"/>
<path d="M2438 1083 c7 -3 16 -2 19 1 4 3 -2 6 -13 5 -11 0 -14 -3 -6 -6z"/>
<path d="M2017 1054 c-16 -9 -44 -16 -63 -17 -19 -1 -34 -6 -34 -11 0 -4 17
-5 38 0 20 4 52 8 70 8 21 0 28 2 20 8 -10 6 -10 10 2 18 24 15 -2 11 -33 -6z"/>
<path d="M2265 1048 l-20 -21 20 11 c11 6 27 16 35 22 13 9 13 10 0 9 -8 0
-24 -10 -35 -21z"/>
<path d="M2100 1018 c19 -5 41 -12 48 -14 19 -5 -11 -48 -44 -63 -15 -6 -24
-14 -21 -17 10 -10 82 40 82 57 0 4 3 11 8 15 4 4 7 2 7 -4 0 -6 7 -9 15 -6 8
4 15 2 15 -3 0 -5 12 -8 28 -7 15 1 47 3 72 4 41 2 43 2 17 10 -16 5 -38 5
-49 1 -12 -4 -32 -6 -45 -3 -20 4 -22 7 -11 21 10 13 10 14 -2 4 -21 -19 -43
-16 -36 5 6 16 5 16 -7 0 -8 -10 -18 -14 -23 -9 -5 5 -27 11 -49 14 l-40 6 35
-11z"/>
<path d="M2259 1013 c-13 -16 -12 -17 4 -4 16 13 21 21 13 21 -2 0 -10 -8 -17
-17z"/>
<path d="M2331 1021 c-18 -11 46 -19 80 -10 22 6 21 7 -8 8 -17 1 -37 3 -45 6
-7 3 -19 1 -27 -4z"/>
<path d="M1888 1013 c7 -3 16 -2 19 1 4 3 -2 6 -13 5 -11 0 -14 -3 -6 -6z"/>
<path d="M2013 1003 c9 -2 23 -2 30 0 6 3 -1 5 -18 5 -16 0 -22 -2 -12 -5z"/>
<path d="M248 993 c7 -3 16 -2 19 1 4 3 -2 6 -13 5 -11 0 -14 -3 -6 -6z"/>
<path d="M403 993 c9 -2 23 -2 30 0 6 3 -1 5 -18 5 -16 0 -22 -2 -12 -5z"/>
<path d="M290 980 c0 -5 5 -10 11 -10 5 0 7 5 4 10 -3 6 -8 10 -11 10 -2 0 -4
-4 -4 -10z"/>
<path d="M343 983 c9 -2 23 -2 30 0 6 3 -1 5 -18 5 -16 0 -22 -2 -12 -5z"/>
<path d="M173 963 c9 -2 23 -2 30 0 6 3 -1 5 -18 5 -16 0 -22 -2 -12 -5z"/>
<path d="M2157 938 c-14 -11 1 -13 87 -15 58 -2 107 0 109 5 3 4 -20 7 -51 7
-32 0 -73 3 -92 8 -24 5 -42 3 -53 -5z"/>
<path d="M315 930 c3 -5 8 -10 11 -10 2 0 4 5 4 10 0 6 -5 10 -11 10 -5 0 -7
-4 -4 -10z"/>
<path d="M340 912 c0 -4 10 -13 23 -21 22 -14 22 -14 3 8 -20 22 -26 25 -26
13z"/>
<path d="M1760 916 c0 -2 7 -6 15 -10 8 -3 15 -1 15 4 0 6 -7 10 -15 10 -8 0
-15 -2 -15 -4z"/>
<path d="M2088 910 c-9 -6 -27 -9 -40 -9 -12 1 -45 -8 -72 -21 -32 -15 -88
-26 -165 -35 l-116 -12 125 1 c69 0 136 -2 150 -6 18 -6 17 -4 -5 6 l-30 14
35 14 c19 8 58 20 85 27 55 13 92 31 65 31 -8 -1 -22 -5 -32 -10z"/>
<path d="M2198 903 c7 -3 16 -2 19 1 4 3 -2 6 -13 5 -11 0 -14 -3 -6 -6z"/>
<path d="M2265 890 c33 -12 138 -20 129 -11 -3 3 -20 6 -37 7 -18 0 -52 3 -77
7 -38 6 -40 5 -15 -3z"/>
<path d="M1065 855 c10 -41 47 -146 51 -142 4 4 -45 159 -52 167 -3 3 -3 -9 1
-25z"/>
<path d="M468 810 c16 -18 16 -38 0 -22 -17 17 -33 15 -19 -2 10 -12 -5 -15
-89 -21 -55 -4 -103 -12 -106 -17 -4 -6 1 -8 12 -5 44 13 221 19 228 8 4 -6
15 -11 24 -10 12 0 9 3 -7 10 -13 5 -21 12 -18 15 3 3 36 -4 72 -16 36 -12 69
-19 72 -16 4 3 -1 6 -10 6 -10 0 -17 5 -17 11 0 5 -4 8 -9 4 -13 -8 -91 24
-121 49 -14 11 -19 14 -12 6z"/>
<path d="M640 810 c-8 -5 -10 -10 -5 -10 6 0 17 5 25 10 8 5 11 10 5 10 -5 0
-17 -5 -25 -10z"/>
<path d="M2020 805 c14 -8 32 -14 40 -14 8 0 0 6 -19 14 -42 19 -54 19 -21 0z"/>
<path d="M298 803 c6 -2 18 -2 25 0 6 3 1 5 -13 5 -14 0 -19 -2 -12 -5z"/>
<path d="M365 800 c17 -4 39 -8 50 -8 16 0 15 2 -5 8 -14 4 -36 8 -50 8 -22 0
-22 -1 5 -8z"/>
<path d="M168 793 c7 -3 16 -2 19 1 4 3 -2 6 -13 5 -11 0 -14 -3 -6 -6z"/>
<path d="M590 790 c-8 -5 -10 -10 -5 -10 6 0 17 5 25 10 8 5 11 10 5 10 -5 0
-17 -5 -25 -10z"/>
<path d="M2120 766 c18 -11 45 -14 99 -11 99 6 101 13 4 13 -44 0 -90 3 -104
6 l-24 7 25 -15z"/>
<path d="M2335 733 c11 -3 26 -10 34 -17 11 -8 13 -8 8 1 -5 7 1 13 15 16 13
2 1 4 -27 4 -27 1 -41 -2 -30 -4z"/>
<path d="M680 716 c34 -13 34 -14 10 -18 l-25 -5 25 -2 c24 -1 24 -1 -10 -32
-30 -27 -28 -26 10 4 32 25 60 37 98 42 29 4 65 11 80 16 18 5 9 6 -23 1 -63
-9 -131 -9 -170 1 -26 6 -25 5 5 -7z"/>
<path d="M2160 726 c0 -2 8 -10 18 -17 15 -13 16 -12 3 4 -13 16 -21 21 -21
13z"/>
<path d="M2394 701 c7 -11 46 -35 46 -28 0 3 -12 12 -26 22 -15 9 -23 12 -20
6z"/>
<path d="M609 673 c-12 -16 -12 -17 1 -7 8 7 24 14 35 17 19 4 19 5 -1 6 -12
0 -28 -7 -35 -16z"/>
<path d="M576 577 c-31 -29 -56 -59 -56 -67 1 -10 4 -8 12 5 5 11 33 41 62 67
28 26 48 47 44 48 -3 0 -31 -24 -62 -53z"/>
<path d="M2341 557 c2 -1 13 -9 24 -17 19 -14 19 -14 6 3 -7 9 -18 17 -24 17
-6 0 -8 -1 -6 -3z"/>
<path d="M445 540 c-27 -7 -27 -8 -5 -8 14 0 39 4 55 8 27 7 27 8 5 8 -14 0
-38 -4 -55 -8z"/>
<path d="M378 523 c7 -3 16 -2 19 1 4 3 -2 6 -13 5 -11 0 -14 -3 -6 -6z"/>
<path d="M318 513 c7 -3 16 -2 19 1 4 3 -2 6 -13 5 -11 0 -14 -3 -6 -6z"/>
<path d="M450 445 c-7 -9 -11 -17 -9 -20 3 -2 10 5 17 15 14 24 10 26 -8 5z"/>
</g>
</svg>
