<?xml version="1.0" standalone="no"?>
<!DOCTYPE svg PUBLIC "-//W3C//DTD SVG 20010904//EN"
 "http://www.w3.org/TR/2001/REC-SVG-20010904/DTD/svg10.dtd">
<svg version="1.0" xmlns="http://www.w3.org/2000/svg"
 width="280.000000pt" height="280.000000pt" viewBox="0 0 280.000000 280.000000"
 preserveAspectRatio="xMidYMid meet">

<g transform="translate(0.000000,280.000000) scale(0.100000,-0.100000)"
fill="#000000" stroke="none">
<path d="M40 2670 l0 -90 40 0 40 0 0 -40 0 -40 -40 0 -40 0 0 -90 0 -90 45 0
45 0 0 40 0 40 85 0 85 0 0 -34 c0 -34 -1 -35 -42 -38 l-43 -3 -3 -47 -3 -48
45 0 46 0 0 -40 0 -41 -82 3 -83 3 -3 43 -3 42 -45 0 -44 0 0 -95 0 -95 40 0
c39 0 40 -1 40 -35 0 -34 -1 -35 -40 -35 l-40 0 0 -95 0 -95 44 0 45 0 3 43
c3 41 4 42 41 45 l37 3 0 -45 0 -46 50 0 51 0 -3 93 -3 92 -42 3 c-42 3 -43 4
-43 38 l0 34 85 0 85 0 0 -40 0 -40 45 0 45 0 0 40 0 40 85 0 85 0 0 -34 c0
-34 -1 -35 -42 -38 l-43 -3 -3 -47 -3 -48 45 0 46 0 0 -40 0 -41 -82 3 -83 3
-3 43 -3 42 -45 0 -44 0 0 -135 0 -135 45 0 45 0 0 40 0 40 85 0 85 0 0 -34
c0 -34 -1 -35 -42 -38 l-43 -3 -3 -47 -3 -48 45 0 46 0 0 -40 0 -41 -82 3 -83
3 -3 43 -3 42 -45 0 -44 0 0 -45 0 -45 -85 0 -85 0 0 40 0 40 45 0 45 0 0 90
0 90 -50 0 -50 0 0 -40 0 -40 -40 0 -40 0 0 40 0 40 -45 0 -45 0 0 -90 0 -90
40 0 40 0 0 -40 0 -40 -40 0 -40 0 0 -50 0 -50 40 0 c39 0 40 -1 40 -35 0 -34
-1 -35 -40 -35 l-40 0 0 -95 0 -95 44 0 45 0 3 43 c3 41 4 42 41 45 l37 3 0
-45 0 -46 50 0 51 0 -3 93 -3 92 -42 3 c-42 3 -43 4 -43 38 l0 34 85 0 85 0 0
-40 0 -40 45 0 45 0 0 40 0 40 85 0 85 0 0 -34 c0 -34 -1 -35 -42 -38 l-43 -3
-3 -48 -3 -47 45 0 46 0 0 -40 0 -41 -82 3 -83 3 -3 43 -3 42 -45 0 -44 0 0
-135 0 -135 45 0 45 0 0 40 0 40 85 0 85 0 0 -34 c0 -34 -1 -35 -42 -38 l-43
-3 -3 -47 -3 -48 45 0 46 0 0 -40 0 -41 -82 3 -83 3 -3 43 -3 42 -45 0 -44 0
0 -45 0 -45 -85 0 -85 0 0 40 0 40 45 0 45 0 0 90 0 90 -50 0 -50 0 0 -40 0
-40 -40 0 -40 0 0 40 0 40 -45 0 -45 0 0 -90 0 -90 40 0 40 0 0 -40 0 -40 -40
0 -40 0 0 -90 0 -90 45 0 45 0 0 40 0 40 85 0 85 0 0 -34 c0 -34 -1 -35 -42
-38 l-43 -3 -3 -47 -3 -48 45 0 46 0 0 -40 0 -41 -82 3 -83 3 -3 42 -3 43 -45
0 -44 0 0 -95 0 -95 40 0 c39 0 40 -1 40 -35 0 -34 -1 -35 -40 -35 l-40 0 0
-95 0 -95 44 0 45 0 3 42 c3 42 4 43 41 46 l37 3 0 -45 0 -46 50 0 51 0 -3 92
-3 93 -42 3 c-42 3 -43 4 -43 38 l0 34 125 0 125 0 0 -35 c0 -34 -1 -35 -40
-35 l-40 0 0 -95 0 -95 44 0 45 0 3 43 c3 41 4 42 41 45 l37 3 0 -45 0 -46 50
0 51 0 -3 93 -3 92 -42 3 c-42 3 -43 4 -43 38 0 34 0 34 45 34 l45 0 0 95 0
95 -50 0 -50 0 0 -45 0 -45 -80 0 -80 0 0 40 0 40 40 0 40 0 0 50 0 50 -40 0
c-39 0 -40 1 -40 35 l0 35 80 0 80 0 0 -40 0 -40 50 0 50 0 0 40 0 40 40 0 40
0 0 -40 0 -40 45 0 45 0 0 40 0 40 85 0 85 0 0 -34 c0 -34 -1 -35 -42 -38
l-43 -3 -3 -47 -3 -48 45 0 46 0 0 -40 0 -41 -82 3 -83 3 -3 43 -3 42 -45 0
-44 0 0 -95 0 -95 40 0 c39 0 40 -1 40 -35 0 -34 -1 -35 -40 -35 l-40 0 0 -95
0 -95 44 0 45 0 3 43 c3 41 4 42 41 45 l37 3 0 -45 0 -46 50 0 51 0 -3 93 -3
92 -42 3 c-42 3 -43 4 -43 38 l0 34 125 0 125 0 0 -35 c0 -34 -1 -35 -40 -35
l-40 0 0 -95 0 -95 44 0 45 0 3 43 c3 41 4 42 41 45 l37 3 0 -45 0 -46 50 0
51 0 -3 92 -3 93 -42 3 c-42 3 -43 4 -43 38 0 34 0 34 45 34 l45 0 0 95 0 95
-50 0 -50 0 0 -45 0 -45 -80 0 -80 0 0 40 0 40 40 0 40 0 0 50 0 50 -40 0
c-39 0 -40 1 -40 35 l0 35 80 0 80 0 0 -40 0 -40 50 0 50 0 0 90 0 90 -45 0
-45 0 0 40 0 40 45 0 45 0 0 90 0 90 -50 0 -50 0 0 -40 0 -40 -40 0 -40 0 0
40 0 40 -45 0 -45 0 0 -90 0 -90 40 0 40 0 0 -40 0 -40 -80 0 -80 0 0 45 0 45
-50 0 -50 0 0 -45 0 -45 -80 0 -80 0 0 40 0 40 40 0 40 0 0 50 0 50 -40 0
c-39 0 -40 1 -40 35 l0 35 80 0 80 0 0 -40 0 -40 50 0 50 0 0 135 0 135 -50 0
-50 0 0 -45 0 -45 -80 0 -80 0 0 40 0 40 40 0 40 0 0 50 0 50 -40 0 c-39 0
-40 1 -40 35 l0 35 80 0 80 0 0 -40 0 -40 50 0 50 0 0 40 0 40 80 0 80 0 0
-35 c0 -34 -1 -35 -40 -35 l-40 0 0 -95 0 -95 44 0 45 0 3 43 c3 41 4 42 41
45 l37 3 0 -45 0 -46 50 0 51 0 -3 92 -3 93 -42 3 c-42 3 -43 4 -43 38 l0 34
125 0 125 0 0 -35 c0 -34 -1 -35 -40 -35 l-40 0 0 -95 0 -95 44 0 45 0 3 43
c3 41 4 42 41 45 l37 3 0 -45 0 -46 50 0 51 0 -3 93 -3 92 -42 3 c-42 3 -43 4
-43 38 l0 34 85 0 85 0 0 -40 0 -40 45 0 45 0 0 40 0 40 85 0 85 0 0 -34 c0
-34 -1 -35 -42 -38 l-43 -3 -3 -47 -3 -48 45 0 46 0 0 -40 0 -41 -82 3 -83 3
-3 43 -3 42 -45 0 -44 0 0 -135 0 -135 45 0 45 0 0 40 0 40 85 0 85 0 0 -34
c0 -34 -1 -35 -42 -38 l-43 -3 -3 -48 -3 -47 45 0 46 0 0 -40 0 -41 -82 3 -83
3 -3 42 -3 43 -45 0 -44 0 0 -45 0 -45 -85 0 -85 0 0 40 0 40 45 0 45 0 0 90
0 90 -50 0 -50 0 0 -40 0 -40 -40 0 -40 0 0 40 0 40 -45 0 -45 0 0 -90 0 -90
40 0 40 0 0 -40 0 -40 -40 0 -40 0 0 -90 0 -90 45 0 45 0 0 40 0 40 85 0 85 0
0 -34 c0 -34 -1 -35 -42 -38 l-43 -3 -3 -48 -3 -47 45 0 46 0 0 -40 0 -41 -82
3 -83 3 -3 43 -3 42 -45 0 -44 0 0 -95 0 -95 40 0 c39 0 40 -1 40 -35 0 -34
-1 -35 -40 -35 l-40 0 0 -95 0 -95 44 0 45 0 3 43 c3 41 4 42 41 45 l37 3 0
-45 0 -46 50 0 51 0 -3 92 -3 93 -42 3 c-42 3 -43 4 -43 38 l0 34 125 0 125 0
0 -35 c0 -34 -1 -35 -40 -35 l-40 0 0 -95 0 -95 44 0 45 0 3 43 c3 41 4 42 41
45 l37 3 0 -45 0 -46 50 0 51 0 -3 93 -3 92 -42 3 c-42 3 -43 4 -43 38 0 34 0
34 45 34 l45 0 0 95 0 95 -50 0 -50 0 0 -45 0 -45 -80 0 -80 0 0 40 0 40 40 0
40 0 0 50 0 50 -40 0 c-39 0 -40 1 -40 35 l0 35 80 0 80 0 0 -40 0 -40 50 0
50 0 0 40 0 40 40 0 40 0 0 -40 0 -40 45 0 45 0 0 40 0 40 85 0 85 0 0 -34 c0
-34 -1 -35 -42 -38 l-43 -3 -3 -47 -3 -48 45 0 46 0 0 -40 0 -41 -82 3 -83 3
-3 43 -3 42 -45 0 -44 0 0 -95 0 -95 40 0 c39 0 40 -1 40 -35 0 -34 -1 -35
-40 -35 l-40 0 0 -95 0 -95 44 0 45 0 3 43 c3 41 4 42 41 45 l37 3 0 -45 0
-46 50 0 51 0 -3 93 -3 92 -42 3 c-42 3 -43 4 -43 38 l0 34 125 0 125 0 0 -35
c0 -34 -1 -35 -40 -35 l-40 0 0 -95 0 -95 44 0 45 0 3 43 c3 41 4 42 41 45
l37 3 0 -45 0 -46 50 0 51 0 -3 93 -3 92 -42 3 c-42 3 -43 4 -43 38 0 34 0 34
45 34 l45 0 0 95 0 95 -50 0 -50 0 0 -45 0 -45 -80 0 -80 0 0 40 0 40 40 0 40
0 0 50 0 50 -40 0 c-39 0 -40 1 -40 35 l0 35 80 0 80 0 0 -40 0 -40 50 0 50 0
0 90 0 90 -45 0 -45 0 0 40 0 40 45 0 45 0 0 90 0 90 -50 0 -50 0 0 -40 0 -40
-40 0 -40 0 0 40 0 40 -45 0 -45 0 0 -90 0 -90 40 0 40 0 0 -40 0 -40 -80 0
-80 0 0 45 0 45 -50 0 -50 0 0 -45 0 -45 -80 0 -80 0 0 40 0 40 40 0 40 0 0
50 0 50 -40 0 c-39 0 -40 1 -40 35 l0 35 80 0 80 0 0 -40 0 -40 50 0 50 0 0
135 0 135 -50 0 -50 0 0 -45 0 -45 -80 0 -80 0 0 40 0 40 40 0 40 0 0 50 0 50
-40 0 c-39 0 -40 1 -40 35 l0 35 80 0 80 0 0 -40 0 -40 50 0 50 0 0 40 0 40
80 0 80 0 0 -35 c0 -34 -1 -35 -40 -35 l-40 0 0 -95 0 -95 44 0 45 0 3 43 c3
41 4 42 41 45 l37 3 0 -45 0 -46 50 0 51 0 -3 92 -3 93 -42 3 c-42 3 -43 4
-43 38 0 34 0 34 45 34 l45 0 0 50 0 50 -45 0 -45 0 0 40 0 40 45 0 45 0 0 90
0 90 -50 0 -50 0 0 -40 0 -40 -40 0 -40 0 0 40 0 40 -45 0 -45 0 0 -90 0 -90
40 0 40 0 0 -40 0 -40 -80 0 -80 0 0 45 0 45 -50 0 -50 0 0 -45 0 -45 -80 0
-80 0 0 40 0 40 40 0 40 0 0 50 0 50 -40 0 c-39 0 -40 1 -40 35 l0 35 80 0 80
0 0 -40 0 -40 50 0 50 0 0 135 0 135 -50 0 -50 0 0 -45 0 -45 -80 0 -80 0 0
40 0 40 40 0 40 0 0 50 0 50 -40 0 c-39 0 -40 1 -40 35 l0 35 80 0 80 0 0 -40
0 -40 50 0 50 0 0 40 0 40 80 0 80 0 0 -35 c0 -34 -1 -35 -40 -35 l-40 0 0
-95 0 -95 44 0 45 0 3 43 c3 41 4 42 41 45 l37 3 0 -45 0 -46 50 0 51 0 -3 93
-3 92 -42 3 c-42 3 -43 4 -43 38 0 34 0 34 45 34 l45 0 0 95 0 95 -50 0 -50 0
0 -45 0 -45 -80 0 -80 0 0 40 0 40 40 0 40 0 0 50 0 50 -40 0 c-39 0 -40 1
-40 35 l0 35 80 0 80 0 0 -40 0 -40 50 0 50 0 0 90 0 90 -45 0 -45 0 0 40 0
40 45 0 45 0 0 90 0 90 -50 0 -50 0 0 -40 0 -40 -40 0 -40 0 0 40 0 40 -45 0
-45 0 0 -90 0 -90 40 0 40 0 0 -40 0 -40 -125 0 -125 0 0 40 0 40 45 0 45 0 0
90 0 90 -50 0 -50 0 0 -40 0 -40 -40 0 -40 0 0 40 0 40 -45 0 -45 0 0 -90 0
-90 40 0 40 0 0 -40 0 -40 -40 0 -40 0 0 -90 0 -90 45 0 45 0 0 40 0 40 85 0
85 0 0 -34 c0 -34 -1 -35 -42 -38 l-43 -3 -3 -47 -3 -48 45 0 46 0 0 -40 0
-41 -82 3 -83 3 -3 43 -3 42 -45 0 -44 0 0 -45 0 -45 -40 0 -40 0 0 45 0 45
-50 0 -50 0 0 -45 0 -45 -80 0 -80 0 0 40 0 40 40 0 40 0 0 50 0 50 -40 0
c-39 0 -40 1 -40 35 l0 35 80 0 80 0 0 -40 0 -40 50 0 50 0 0 90 0 90 -45 0
-45 0 0 40 0 40 45 0 45 0 0 90 0 90 -50 0 -50 0 0 -40 0 -40 -40 0 -40 0 0
40 0 40 -45 0 -45 0 0 -90 0 -90 40 0 40 0 0 -40 0 -40 -125 0 -125 0 0 40 0
40 45 0 45 0 0 90 0 90 -50 0 -50 0 0 -40 0 -40 -40 0 -40 0 0 40 0 40 -45 0
-45 0 0 -90 0 -90 40 0 40 0 0 -40 0 -40 -40 0 -40 0 0 -90 0 -90 45 0 45 0 0
40 0 40 85 0 85 0 0 -34 c0 -34 -1 -35 -42 -38 l-43 -3 -3 -47 -3 -48 45 0 46
0 0 -40 0 -41 -82 3 -83 3 -3 43 -3 42 -45 0 -44 0 0 -95 0 -95 40 0 c39 0 40
-1 40 -35 0 -34 -1 -35 -40 -35 l-40 0 0 -95 0 -95 44 0 45 0 3 43 c3 41 4 42
41 45 l37 3 0 -45 0 -46 50 0 51 0 -3 93 -3 92 -42 3 c-42 3 -43 4 -43 38 l0
34 85 0 85 0 0 -40 0 -40 45 0 45 0 0 40 0 40 85 0 85 0 0 -34 c0 -34 -1 -35
-42 -38 l-43 -3 -3 -47 -3 -48 45 0 46 0 0 -40 0 -41 -82 3 -83 3 -3 43 -3 42
-45 0 -44 0 0 -135 0 -135 45 0 45 0 0 40 0 40 85 0 85 0 0 -34 c0 -34 -1 -35
-42 -38 l-43 -3 -3 -47 -3 -48 45 0 46 0 0 -40 0 -41 -82 3 -83 3 -3 43 -3 42
-45 0 -44 0 0 -45 0 -45 -85 0 -85 0 0 40 0 40 45 0 45 0 0 90 0 90 -50 0 -50
0 0 -40 0 -40 -40 0 -40 0 0 40 0 40 -45 0 -45 0 0 -90 0 -90 40 0 40 0 0 -40
0 -40 -125 0 -125 0 0 40 0 40 45 0 45 0 0 90 0 90 -50 0 -50 0 0 -40 0 -40
-40 0 -40 0 0 40 0 40 -45 0 -45 0 0 -90 0 -90 40 0 40 0 0 -40 0 -40 -80 0
-80 0 0 45 0 45 -50 0 -50 0 0 -45 0 -45 -80 0 -80 0 0 40 0 40 40 0 40 0 0
50 0 50 -40 0 c-39 0 -40 1 -40 35 l0 35 80 0 80 0 0 -40 0 -40 50 0 50 0 0
135 0 135 -50 0 -50 0 0 -45 0 -45 -80 0 -80 0 0 40 0 40 40 0 40 0 0 50 0 50
-40 0 c-39 0 -40 1 -40 35 l0 35 80 0 80 0 0 -40 0 -40 50 0 50 0 0 40 0 40
80 0 80 0 0 -35 c0 -34 -1 -35 -40 -35 l-40 0 0 -95 0 -95 44 0 45 0 3 43 c3
41 4 42 41 45 l37 3 0 -45 0 -46 50 0 51 0 -3 93 -3 92 -42 3 c-42 3 -43 4
-43 38 0 34 0 34 45 34 l45 0 0 95 0 95 -50 0 -50 0 0 -45 0 -45 -80 0 -80 0
0 40 0 40 40 0 40 0 0 50 0 50 -40 0 c-39 0 -40 1 -40 35 l0 35 80 0 80 0 0
-40 0 -40 50 0 50 0 0 90 0 90 -45 0 -45 0 0 40 0 40 45 0 45 0 0 90 0 90 -50
0 -50 0 0 -40 0 -40 -40 0 -40 0 0 40 0 40 -45 0 -45 0 0 -90 0 -90 40 0 40 0
0 -40 0 -40 -125 0 -125 0 0 40 0 40 45 0 45 0 0 90 0 90 -50 0 -50 0 0 -40 0
-40 -40 0 -40 0 0 40 0 40 -45 0 -45 0 0 -90 0 -90 40 0 40 0 0 -40 0 -40 -40
0 -40 0 0 -90 0 -90 45 0 45 0 0 40 0 40 85 0 85 0 0 -34 c0 -34 -1 -35 -42
-38 l-43 -3 -3 -47 -3 -48 45 0 46 0 0 -40 0 -41 -82 3 -83 3 -3 43 -3 42 -45
0 -44 0 0 -45 0 -45 -40 0 -40 0 0 45 0 45 -50 0 -50 0 0 -45 0 -45 -80 0 -80
0 0 40 0 40 40 0 40 0 0 50 0 50 -40 0 c-39 0 -40 1 -40 35 l0 35 80 0 80 0 0
-40 0 -40 50 0 50 0 0 90 0 90 -45 0 -45 0 0 40 0 40 45 0 45 0 0 90 0 90 -50
0 -50 0 0 -40 0 -40 -40 0 -40 0 0 40 0 40 -45 0 -45 0 0 -90 0 -90 40 0 40 0
0 -40 0 -40 -125 0 -125 0 0 40 0 40 45 0 45 0 0 90 0 90 -50 0 -50 0 0 -40 0
-40 -40 0 -40 0 0 40 0 40 -45 0 -45 0 0 -90z m80 40 l0 -40 50 0 50 0 0 40 0
40 40 0 40 0 0 -80 0 -80 -45 0 -45 0 0 -50 0 -50 135 0 135 0 0 50 0 50 -40
0 -40 0 0 80 0 80 35 0 c34 0 35 -1 35 -40 l0 -40 50 0 50 0 0 40 0 40 40 0
40 0 0 -80 0 -80 -45 0 -45 0 0 -50 0 -50 45 0 45 0 0 -80 0 -80 -40 0 -40 0
0 40 0 40 -90 0 -90 0 0 -45 0 -45 40 0 40 0 0 -40 0 -40 -40 0 -40 0 0 -50 0
-50 90 0 90 0 0 45 0 45 40 0 40 0 0 -45 0 -45 50 0 50 0 0 45 c0 45 0 45 34
45 34 0 35 -1 38 -42 l3 -43 93 -3 92 -3 0 51 0 50 -46 0 -45 0 3 38 c3 36 4
37 46 40 l42 3 0 45 0 44 -95 0 -95 0 0 -40 c0 -39 -1 -40 -35 -40 l-35 0 0
80 0 80 40 0 40 0 0 50 0 50 -40 0 -40 0 0 80 0 80 35 0 c34 0 35 -1 35 -40
l0 -40 50 0 50 0 0 40 0 40 40 0 40 0 0 -80 0 -80 -45 0 -45 0 0 -50 0 -50
135 0 135 0 0 50 0 50 -40 0 -40 0 0 80 0 80 35 0 c34 0 35 -1 35 -40 l0 -40
50 0 50 0 0 40 0 40 40 0 40 0 0 -80 0 -80 -45 0 -45 0 0 -50 0 -50 45 0 45 0
0 -80 0 -80 -40 0 -40 0 0 40 0 40 -90 0 -90 0 0 -45 0 -45 40 0 40 0 0 -40 0
-40 -40 0 -40 0 0 -50 0 -50 90 0 90 0 0 45 0 45 40 0 40 0 0 -85 0 -85 -45 0
-45 0 0 -44 0 -45 43 -3 42 -3 3 -82 3 -83 -41 0 -40 0 0 46 0 45 -47 -3 -48
-3 -3 -42 c-3 -42 -4 -43 -38 -43 l-34 0 0 85 0 85 40 0 40 0 0 45 0 45 -90 0
-90 0 0 -40 0 -40 -40 0 -40 0 0 40 0 40 -90 0 -90 0 0 -45 0 -45 40 0 40 0 0
-40 0 -40 -40 0 -40 0 0 -50 0 -50 90 0 90 0 0 45 0 45 40 0 40 0 0 -125 0
-125 -40 0 -40 0 0 40 0 40 -90 0 -90 0 0 -45 0 -45 40 0 40 0 0 -40 0 -40
-40 0 -40 0 0 -50 0 -50 90 0 90 0 0 45 0 45 40 0 40 0 0 -45 0 -45 90 0 90 0
0 50 0 50 -40 0 -40 0 0 80 0 80 35 0 c34 0 35 -1 35 -40 l0 -40 50 0 50 0 0
40 0 40 40 0 40 0 0 -80 0 -80 -45 0 -45 0 0 -50 0 -50 135 0 135 0 0 50 0 50
-40 0 -40 0 0 80 0 80 35 0 c34 0 35 -1 35 -40 l0 -40 50 0 50 0 0 40 0 40 40
0 40 0 0 -80 0 -80 -45 0 -45 0 0 -50 0 -50 95 0 95 0 0 45 c0 45 0 45 34 45
34 0 35 -1 38 -42 l3 -43 93 -3 92 -3 0 51 0 50 -46 0 -45 0 3 38 c3 36 4 37
46 40 l42 3 0 45 0 44 -95 0 -95 0 0 -40 c0 -39 -1 -40 -35 -40 l-35 0 0 125
0 125 34 0 c34 0 35 -1 38 -42 l3 -43 93 -3 92 -3 0 51 0 50 -46 0 -45 0 3 38
c3 36 4 37 46 40 l42 3 0 45 0 44 -95 0 -95 0 0 -40 c0 -39 -1 -40 -35 -40
-34 0 -35 1 -35 40 l0 40 -95 0 -95 0 0 -44 0 -45 43 -3 42 -3 3 -82 3 -83
-41 0 -40 0 0 46 0 45 -47 -3 -48 -3 -3 -42 c-3 -42 -4 -43 -38 -43 l-34 0 0
85 0 85 40 0 40 0 0 45 0 45 -40 0 -40 0 0 85 0 85 34 0 c34 0 35 -1 38 -42
l3 -43 93 -3 92 -3 0 51 0 50 -46 0 -45 0 3 38 c3 36 4 37 46 40 l42 3 0 45 0
44 -95 0 -95 0 0 -40 c0 -39 -1 -40 -35 -40 l-35 0 0 80 0 80 40 0 40 0 0 50
0 50 -40 0 -40 0 0 80 0 80 35 0 c34 0 35 -1 35 -40 l0 -40 50 0 50 0 0 40 0
40 40 0 40 0 0 -80 0 -80 -45 0 -45 0 0 -50 0 -50 135 0 135 0 0 50 0 50 -40
0 -40 0 0 80 0 80 35 0 c34 0 35 -1 35 -40 l0 -40 50 0 50 0 0 40 0 40 40 0
40 0 0 -80 0 -80 -45 0 -45 0 0 -50 0 -50 45 0 45 0 0 -80 0 -80 -40 0 -40 0
0 40 0 40 -90 0 -90 0 0 -45 0 -45 40 0 40 0 0 -40 0 -40 -40 0 -40 0 0 -50 0
-50 90 0 90 0 0 45 0 45 40 0 40 0 0 -45 0 -45 50 0 50 0 0 45 c0 45 0 45 34
45 34 0 35 -1 38 -42 l3 -43 93 -3 92 -3 0 51 0 50 -46 0 -45 0 3 38 c3 36 4
37 46 40 l42 3 0 45 0 44 -95 0 -95 0 0 -40 c0 -39 -1 -40 -35 -40 l-35 0 0
80 0 80 40 0 40 0 0 50 0 50 -40 0 -40 0 0 80 0 80 35 0 c34 0 35 -1 35 -40
l0 -40 50 0 50 0 0 40 0 40 40 0 40 0 0 -80 0 -80 -45 0 -45 0 0 -50 0 -50
135 0 135 0 0 50 0 50 -40 0 -40 0 0 80 0 80 35 0 c34 0 35 -1 35 -40 l0 -40
50 0 50 0 0 40 0 40 40 0 40 0 0 -80 0 -80 -45 0 -45 0 0 -50 0 -50 45 0 45 0
0 -80 0 -80 -40 0 -40 0 0 40 0 40 -90 0 -90 0 0 -45 0 -45 40 0 40 0 0 -40 0
-40 -40 0 -40 0 0 -50 0 -50 90 0 90 0 0 45 0 45 40 0 40 0 0 -85 0 -85 -45 0
-45 0 0 -44 0 -45 43 -3 42 -3 3 -82 3 -83 -41 0 -40 0 0 46 0 45 -47 -3 -48
-3 -3 -42 c-3 -42 -4 -43 -38 -43 l-34 0 0 85 0 85 40 0 40 0 0 45 0 45 -90 0
-90 0 0 -40 0 -40 -40 0 -40 0 0 40 0 40 -90 0 -90 0 0 -45 0 -45 40 0 40 0 0
-40 0 -40 -40 0 -40 0 0 -50 0 -50 90 0 90 0 0 45 0 45 40 0 40 0 0 -125 0
-125 -40 0 -40 0 0 40 0 40 -90 0 -90 0 0 -45 0 -45 40 0 40 0 0 -40 0 -40
-40 0 -40 0 0 -50 0 -50 90 0 90 0 0 45 0 45 40 0 40 0 0 -45 0 -45 90 0 90 0
0 50 0 50 -40 0 -40 0 0 80 0 80 35 0 c34 0 35 -1 35 -40 l0 -40 50 0 50 0 0
40 0 40 40 0 40 0 0 -80 0 -80 -45 0 -45 0 0 -50 0 -50 45 0 45 0 0 -40 0 -40
-45 0 -45 0 0 -44 0 -45 43 -3 42 -3 3 -83 3 -82 -41 0 -40 0 0 46 0 45 -47
-3 -48 -3 -3 -42 c-3 -42 -4 -43 -38 -43 l-34 0 0 85 0 85 40 0 40 0 0 45 0
45 -90 0 -90 0 0 -40 0 -40 -40 0 -40 0 0 40 0 40 -90 0 -90 0 0 -45 0 -45 40
0 40 0 0 -40 0 -40 -40 0 -40 0 0 -50 0 -50 90 0 90 0 0 45 0 45 40 0 40 0 0
-125 0 -125 -40 0 -40 0 0 40 0 40 -90 0 -90 0 0 -45 0 -45 40 0 40 0 0 -40 0
-40 -40 0 -40 0 0 -50 0 -50 90 0 90 0 0 45 0 45 40 0 40 0 0 -45 0 -45 90 0
90 0 0 50 0 50 -40 0 -40 0 0 80 0 80 35 0 c34 0 35 -1 35 -40 l0 -40 50 0 50
0 0 40 0 40 40 0 40 0 0 -80 0 -80 -45 0 -45 0 0 -50 0 -50 45 0 45 0 0 -80 0
-80 -40 0 -40 0 0 40 0 40 -90 0 -90 0 0 -45 0 -45 40 0 40 0 0 -40 0 -40 -40
0 -40 0 0 -50 0 -50 90 0 90 0 0 45 0 45 40 0 40 0 0 -85 0 -85 -45 0 -45 0 0
-44 0 -45 43 -3 42 -3 3 -83 3 -82 -41 0 -40 0 0 46 0 45 -47 -3 -48 -3 -3
-43 c-3 -41 -4 -42 -38 -42 l-34 0 0 85 0 85 40 0 40 0 0 45 0 45 -135 0 -135
0 0 -44 0 -45 43 -3 42 -3 3 -82 3 -83 -41 0 -40 0 0 46 0 45 -47 -3 -48 -3
-3 -42 c-3 -42 -4 -43 -38 -43 l-34 0 0 85 0 85 40 0 40 0 0 45 0 45 -40 0
-40 0 0 85 0 85 34 0 c34 0 35 -1 38 -42 l3 -43 93 -3 92 -3 0 51 0 50 -46 0
-45 0 3 38 c3 36 4 37 46 40 l42 3 0 45 0 44 -95 0 -95 0 0 -40 c0 -39 -1 -40
-35 -40 -34 0 -35 1 -35 40 l0 40 -50 0 -50 0 0 -40 0 -40 -40 0 -40 0 0 40 0
40 -90 0 -90 0 0 -45 0 -45 40 0 40 0 0 -40 0 -40 -40 0 -40 0 0 -50 0 -50 90
0 90 0 0 45 0 45 40 0 40 0 0 -85 0 -85 -45 0 -45 0 0 -44 0 -45 43 -3 42 -3
3 -82 3 -83 -41 0 -40 0 0 46 0 45 -47 -3 -48 -3 -3 -43 c-3 -41 -4 -42 -38
-42 l-34 0 0 85 0 85 40 0 40 0 0 45 0 45 -135 0 -135 0 0 -44 0 -45 43 -3 42
-3 3 -82 3 -83 -41 0 -40 0 0 46 0 45 -47 -3 -48 -3 -3 -42 c-3 -42 -4 -43
-38 -43 l-34 0 0 85 0 85 40 0 40 0 0 45 0 45 -40 0 -40 0 0 85 0 85 34 0 c34
0 35 -1 38 -42 l3 -43 93 -3 92 -3 0 51 0 50 -46 0 -45 0 3 38 c3 36 4 37 46
40 l42 3 0 45 0 44 -95 0 -95 0 0 -40 c0 -39 -1 -40 -35 -40 l-35 0 0 80 0 80
40 0 40 0 0 50 0 50 -40 0 -40 0 0 80 0 80 35 0 c34 0 35 -1 35 -40 l0 -40 50
0 50 0 0 40 0 40 40 0 40 0 0 -80 0 -80 -45 0 -45 0 0 -50 0 -50 95 0 95 0 0
45 c0 45 0 45 34 45 34 0 35 -1 38 -42 l3 -43 93 -3 92 -3 0 51 0 50 -46 0
-45 0 3 38 c3 36 4 37 46 40 l42 3 0 45 0 44 -95 0 -95 0 0 -40 c0 -39 -1 -40
-35 -40 l-35 0 0 125 0 125 34 0 c34 0 35 -1 38 -42 l3 -43 93 -3 92 -3 0 51
0 50 -46 0 -45 0 3 38 c3 36 4 37 46 40 l42 3 0 45 0 44 -95 0 -95 0 0 -40 c0
-39 -1 -40 -35 -40 -34 0 -35 1 -35 40 l0 40 -95 0 -95 0 0 -44 0 -45 43 -3
42 -3 3 -82 3 -83 -41 0 -40 0 0 46 0 45 -47 -3 -48 -3 -3 -42 c-3 -42 -4 -43
-38 -43 l-34 0 0 85 0 85 40 0 40 0 0 45 0 45 -135 0 -135 0 0 -44 0 -45 43
-3 42 -3 3 -82 3 -83 -41 0 -40 0 0 46 0 45 -47 -3 -48 -3 -3 -42 c-3 -42 -4
-43 -38 -43 l-34 0 0 85 0 85 40 0 40 0 0 45 0 45 -90 0 -90 0 0 -40 0 -40
-40 0 -40 0 0 40 0 40 -90 0 -90 0 0 -45 0 -45 40 0 40 0 0 -40 0 -40 -40 0
-40 0 0 -50 0 -50 90 0 90 0 0 45 0 45 40 0 40 0 0 -125 0 -125 -40 0 -40 0 0
40 0 40 -90 0 -90 0 0 -45 0 -45 40 0 40 0 0 -40 0 -40 -40 0 -40 0 0 -50 0
-50 90 0 90 0 0 45 0 45 40 0 40 0 0 -45 0 -45 90 0 90 0 0 50 0 50 -40 0 -40
0 0 80 0 80 35 0 c34 0 35 -1 35 -40 l0 -40 50 0 50 0 0 40 0 40 40 0 40 0 0
-80 0 -80 -45 0 -45 0 0 -50 0 -50 45 0 45 0 0 -80 0 -80 -40 0 -40 0 0 40 0
40 -90 0 -90 0 0 -45 0 -45 40 0 40 0 0 -40 0 -40 -40 0 -40 0 0 -50 0 -50 90
0 90 0 0 45 0 45 40 0 40 0 0 -85 0 -85 -45 0 -45 0 0 -44 0 -45 43 -3 42 -3
3 -82 3 -83 -41 0 -40 0 0 46 0 45 -47 -3 -48 -3 -3 -42 c-3 -42 -4 -43 -38
-43 l-34 0 0 85 0 85 40 0 40 0 0 45 0 45 -135 0 -135 0 0 -44 0 -45 43 -3 42
-3 3 -82 3 -83 -41 0 -40 0 0 46 0 45 -47 -3 -48 -3 -3 -42 c-3 -42 -4 -43
-38 -43 l-34 0 0 85 0 85 40 0 40 0 0 45 0 45 -40 0 -40 0 0 85 0 85 34 0 c34
0 35 -1 38 -42 l3 -43 93 -3 92 -3 0 51 0 50 -46 0 -45 0 3 38 c3 36 4 37 46
40 l42 3 0 45 0 44 -95 0 -95 0 0 -40 c0 -39 -1 -40 -35 -40 -34 0 -35 1 -35
40 l0 40 -50 0 -50 0 0 -40 0 -40 -40 0 -40 0 0 40 0 40 -90 0 -90 0 0 -45 0
-45 40 0 40 0 0 -40 0 -40 -40 0 -40 0 0 -50 0 -50 90 0 90 0 0 45 0 45 40 0
40 0 0 -85 0 -85 -45 0 -45 0 0 -44 0 -45 43 -3 42 -3 3 -82 3 -83 -41 0 -40
0 0 46 0 45 -47 -3 -48 -3 -3 -42 c-3 -42 -4 -43 -38 -43 l-34 0 0 85 0 85 40
0 40 0 0 45 0 45 -135 0 -135 0 0 -44 0 -45 43 -3 42 -3 3 -82 3 -83 -41 0
-40 0 0 46 0 45 -47 -3 -48 -3 -3 -43 c-3 -41 -4 -42 -38 -42 l-34 0 0 85 0
85 40 0 40 0 0 45 0 45 -40 0 -40 0 0 85 0 85 34 0 c34 0 35 -1 38 -43 l3 -42
93 -3 92 -3 0 51 0 50 -46 0 -45 0 3 38 c3 36 4 37 46 40 l42 3 0 45 0 44 -95
0 -95 0 0 -40 c0 -39 -1 -40 -35 -40 l-35 0 0 80 0 80 40 0 40 0 0 50 0 50
-40 0 -40 0 0 80 0 80 35 0 c34 0 35 -1 35 -40 l0 -40 50 0 50 0 0 40 0 40 40
0 40 0 0 -80 0 -80 -45 0 -45 0 0 -50 0 -50 95 0 95 0 0 45 c0 45 0 45 34 45
34 0 35 -1 38 -42 l3 -43 93 -3 92 -3 0 51 0 50 -46 0 -45 0 3 38 c3 36 4 37
46 40 l42 3 0 45 0 44 -95 0 -95 0 0 -40 c0 -39 -1 -40 -35 -40 l-35 0 0 125
0 125 34 0 c34 0 35 -1 38 -42 l3 -43 93 -3 92 -3 0 51 0 50 -46 0 -45 0 3 38
c3 36 4 37 46 40 l42 3 0 45 0 44 -95 0 -95 0 0 -40 c0 -39 -1 -40 -35 -40
-34 0 -35 1 -35 40 l0 40 -95 0 -95 0 0 -44 0 -45 43 -3 42 -3 3 -82 3 -83
-41 0 -40 0 0 46 0 45 -47 -3 -48 -3 -3 -42 c-3 -42 -4 -43 -38 -43 l-34 0 0
85 0 85 40 0 40 0 0 45 0 45 -40 0 -40 0 0 40 0 40 40 0 40 0 0 50 0 50 -40 0
-40 0 0 80 0 80 35 0 c34 0 35 -1 35 -40 l0 -40 50 0 50 0 0 40 0 40 40 0 40
0 0 -80 0 -80 -45 0 -45 0 0 -50 0 -50 95 0 95 0 0 45 c0 45 0 45 34 45 34 0
35 -1 38 -42 l3 -43 93 -3 92 -3 0 51 0 50 -46 0 -45 0 3 38 c3 36 4 37 46 40
l42 3 0 45 0 44 -95 0 -95 0 0 -40 c0 -39 -1 -40 -35 -40 l-35 0 0 125 0 125
34 0 c34 0 35 -1 38 -42 l3 -43 93 -3 92 -3 0 51 0 50 -46 0 -45 0 3 38 c3 36
4 37 46 40 l42 3 0 45 0 44 -95 0 -95 0 0 -40 c0 -39 -1 -40 -35 -40 -34 0
-35 1 -35 40 l0 40 -95 0 -95 0 0 -44 0 -45 43 -3 42 -3 3 -82 3 -83 -41 0
-40 0 0 46 0 45 -47 -3 -48 -3 -3 -42 c-3 -42 -4 -43 -38 -43 l-34 0 0 85 0
85 40 0 40 0 0 45 0 45 -40 0 -40 0 0 85 0 85 34 0 c34 0 35 -1 38 -42 l3 -43
93 -3 92 -3 0 51 0 50 -46 0 -45 0 3 38 c3 36 4 37 46 40 l42 3 0 45 0 44 -95
0 -95 0 0 -40 c0 -39 -1 -40 -35 -40 l-35 0 0 80 0 80 40 0 40 0 0 50 0 50
-40 0 -40 0 0 80 0 80 35 0 c34 0 35 -1 35 -40z"/>
</g>
</svg>
