<?xml version="1.0" standalone="no"?>
<!DOCTYPE svg PUBLIC "-//W3C//DTD SVG 20010904//EN"
 "http://www.w3.org/TR/2001/REC-SVG-20010904/DTD/svg10.dtd">
<svg version="1.0" xmlns="http://www.w3.org/2000/svg"
 width="48.000000pt" height="48.000000pt" viewBox="0 0 48.000000 48.000000"
 preserveAspectRatio="xMidYMid meet">

<g transform="translate(0.000000,48.000000) scale(0.100000,-0.100000)"
fill="#000000" stroke="none">
<path d="M135 283 c-50 -41 -91 -81 -93 -88 -8 -35 26 -20 103 44 46 39 88 71
93 71 6 0 48 -31 94 -70 45 -38 87 -70 91 -70 22 0 18 34 -6 53 -22 18 -27 32
-29 77 -3 54 -4 55 -35 58 -28 3 -32 0 -35 -24 l-3 -27 -31 26 c-18 15 -38 27
-45 27 -8 -1 -54 -35 -104 -77z"/>
<path d="M164 232 l-69 -58 0 -64 0 -65 58 -3 57 -3 0 46 c0 43 1 45 30 45 29
0 30 -2 30 -45 l0 -46 58 3 57 3 0 65 0 64 -69 58 c-38 32 -72 58 -76 58 -4 0
-38 -26 -76 -58z"/>
</g>
</svg>
