<?xml version="1.0" standalone="no"?>
<!DOCTYPE svg PUBLIC "-//W3C//DTD SVG 20010904//EN"
 "http://www.w3.org/TR/2001/REC-SVG-20010904/DTD/svg10.dtd">
<svg version="1.0" xmlns="http://www.w3.org/2000/svg"
 width="48.000000pt" height="48.000000pt" viewBox="0 0 48.000000 48.000000"
 preserveAspectRatio="xMidYMid meet">

<g transform="translate(0.000000,48.000000) scale(0.100000,-0.100000)"
fill="#000000" stroke="none">
<path d="M192 417 c-38 -40 -41 -57 -7 -57 23 0 25 -3 25 -50 l0 -50 -50 0
c-43 0 -50 3 -50 19 0 37 -22 34 -63 -8 l-41 -41 39 -40 c45 -46 65 -51 65
-14 0 24 2 25 48 22 l47 -3 3 -47 c3 -42 1 -48 -17 -48 -37 0 -34 -22 8 -63
l41 -42 41 42 c42 41 45 63 8 63 -16 0 -19 7 -19 50 l0 50 50 0 c47 0 50 -2
50 -25 0 -35 20 -31 64 14 l38 39 -39 43 c-40 43 -63 46 -63 8 0 -16 -7 -19
-50 -19 l-50 0 0 50 c0 47 2 50 25 50 14 0 25 6 25 13 0 18 -62 77 -81 77 -8
0 -29 -15 -47 -33z"/>
</g>
</svg>
