<?xml version="1.0" standalone="no"?>
<!DOCTYPE svg PUBLIC "-//W3C//DTD SVG 20010904//EN"
 "http://www.w3.org/TR/2001/REC-SVG-20010904/DTD/svg10.dtd">
<svg version="1.0" xmlns="http://www.w3.org/2000/svg"
 width="381.000000pt" height="642.000000pt" viewBox="0 0 381.000000 642.000000"
 preserveAspectRatio="xMidYMid meet">

<g transform="translate(0.000000,642.000000) scale(0.100000,-0.100000)"
fill="#000000" stroke="none">
<path d="M1121 6396 c-1 -16 -3 -17 -18 -5 -16 12 -15 11 0 -8 11 -12 16 -27
12 -32 -3 -6 -2 -11 3 -11 15 0 42 -77 41 -118 l-1 -37 -13 30 c-8 17 -15 46
-16 65 -1 19 -3 27 -6 17 -4 -15 -7 -16 -21 -5 -14 10 -14 9 1 -8 10 -12 17
-25 16 -30 -1 -5 7 -29 19 -54 14 -28 22 -65 22 -98 l0 -54 -35 44 c-20 23
-49 60 -65 80 -41 50 -61 104 -61 161 0 15 -5 27 -11 27 -5 0 -7 -7 -4 -16 5
-14 4 -15 -9 -4 -19 16 -19 1 0 -24 18 -24 19 -40 3 -30 -7 4 -3 -4 10 -18 23
-26 29 -48 12 -48 -6 0 -31 21 -55 47 -25 26 -45 41 -45 35 0 -6 8 -16 18 -22
14 -9 12 -10 -13 -5 -22 4 -26 3 -15 -5 8 -5 23 -10 32 -10 10 0 17 -5 15 -12
-1 -6 7 -14 18 -17 24 -7 26 -33 5 -44 -10 -5 -7 -6 8 -3 12 2 22 0 22 -5 0
-5 5 -9 10 -9 7 0 7 6 0 20 -15 28 2 26 37 -4 28 -24 27 -50 -1 -27 -11 9 -20
10 -33 2 -15 -9 -15 -10 -2 -11 8 0 25 -10 37 -23 24 -26 29 -43 10 -31 -13 8
4 -17 30 -44 6 -7 12 -18 12 -23 0 -12 -17 -12 -25 1 -3 6 -13 10 -21 10 -8 0
-27 13 -42 28 -15 15 -24 23 -19 18 13 -19 7 -27 -15 -21 -18 5 -20 4 -8 -4 8
-6 23 -11 33 -11 11 0 15 -4 11 -12 -4 -7 -3 -8 4 -4 7 4 12 2 12 -3 0 -6 10
-11 23 -11 13 0 28 -5 35 -12 9 -9 12 -9 12 3 1 17 29 -30 30 -50 0 -10 -3
-11 -14 -2 -7 6 -22 8 -32 4 -16 -6 -14 -8 11 -13 19 -3 30 -11 30 -22 0 -9 4
-20 9 -25 17 -18 36 -78 36 -117 l-1 -41 -14 34 c-8 18 -16 50 -16 70 -1 24
-3 28 -6 13 -4 -20 -7 -21 -21 -10 -12 9 -12 6 2 -10 11 -12 16 -25 13 -29 -4
-3 -1 -13 7 -22 21 -25 36 -80 36 -130 -1 -39 -2 -43 -12 -26 -6 11 -37 49
-68 85 -32 36 -60 75 -64 87 -13 40 -18 68 -17 91 0 12 -4 22 -10 22 -6 0 -9
-7 -5 -15 3 -8 -1 -21 -10 -29 -9 -9 -10 -17 -4 -21 5 -3 10 -3 10 2 1 8 30
-55 30 -64 0 -3 -11 2 -25 11 -19 12 -30 14 -43 7 -15 -9 -15 -10 4 -11 32 0
47 -44 19 -53 -11 -4 -11 -5 2 -3 17 1 93 -60 93 -76 0 -5 -6 -6 -12 -2 -7 5
-1 -7 15 -25 15 -18 27 -39 27 -47 0 -13 -4 -13 -29 0 -16 9 -44 28 -62 43
-18 15 -30 22 -25 16 5 -9 1 -13 -11 -14 -10 0 -3 -5 15 -10 18 -5 30 -14 27
-19 -4 -6 2 -10 13 -10 10 0 24 -11 30 -24 10 -22 8 -25 -11 -29 -14 -3 -10
-5 13 -6 25 -1 31 -4 21 -10 -12 -8 -8 -11 15 -16 89 -20 150 -86 186 -201 12
-41 26 -74 30 -74 5 0 8 -102 8 -227 l0 -228 -25 25 c-13 14 -34 39 -47 57
-13 17 -68 84 -123 148 -55 64 -110 130 -123 148 -13 18 -35 44 -49 59 -30 31
-26 66 14 125 14 21 18 32 10 25 -13 -11 -16 -10 -20 10 -3 15 -5 9 -6 -15 0
-23 -5 -36 -11 -32 -6 4 -10 -7 -10 -24 0 -17 -4 -31 -8 -31 -11 0 -32 60 -33
96 -2 25 -2 25 -6 6 -4 -23 -5 -23 -24 -6 -29 26 -23 4 9 -30 36 -40 -1 -12
-56 41 -42 41 -84 128 -102 213 -16 68 -18 77 -49 156 -27 70 -31 91 -31 183
0 97 12 173 32 196 12 14 10 77 -3 70 -6 -4 -8 -20 -4 -38 4 -21 3 -27 -3 -19
-6 10 -11 -3 -16 -40 l-8 -53 -19 50 c-10 28 -20 64 -20 80 -1 25 -2 26 -6 7
-4 -23 -5 -23 -20 -5 -12 14 -12 13 1 -9 19 -33 20 -42 4 -32 -7 5 -1 -6 14
-24 28 -34 44 -86 35 -119 -4 -16 -6 -16 -12 4 -4 11 -16 24 -27 26 -18 5 -17
2 7 -23 23 -24 28 -39 32 -97 l4 -68 -20 25 c-11 14 -30 37 -41 53 -12 15 -26
24 -32 21 -6 -4 -8 -2 -4 4 3 6 1 14 -5 18 -19 11 -69 127 -70 164 -1 25 -3
28 -6 12 -5 -23 -5 -23 -26 -5 -21 17 -21 17 1 -8 24 -28 29 -44 10 -33 -7 4
-3 -4 8 -17 12 -13 27 -35 34 -48 12 -23 12 -23 -11 -7 -13 9 -29 16 -37 16
-7 0 -25 14 -39 30 -13 17 -30 30 -36 30 -7 0 -4 -5 6 -11 21 -12 23 -33 1
-25 -8 3 -12 2 -9 -4 3 -6 15 -10 26 -10 13 0 18 -4 13 -12 -4 -7 -3 -8 4 -4
7 4 12 2 12 -3 0 -6 9 -11 20 -11 24 0 59 -19 77 -40 22 -27 14 -30 -22 -9
-19 12 -35 26 -35 32 0 9 -2 9 -8 1 -4 -6 -14 -13 -22 -16 -8 -3 3 -8 25 -13
33 -6 37 -9 20 -15 -19 -8 -19 -9 2 -9 12 -1 25 -6 28 -11 4 -6 10 -8 14 -5 5
2 8 -6 7 -18 -1 -12 6 -35 16 -52 10 -16 18 -34 18 -38 0 -17 -46 6 -85 42
-22 20 -31 25 -20 12 l20 -24 -30 7 c-22 5 -26 4 -15 -4 8 -5 26 -10 40 -10
18 0 21 -3 12 -9 -11 -7 -10 -10 3 -15 9 -3 25 -6 36 -6 11 0 40 -19 64 -41
48 -44 53 -63 10 -35 -19 12 -30 14 -43 7 -15 -9 -14 -10 6 -11 54 0 161 -90
162 -136 0 -11 11 -49 25 -84 14 -35 23 -65 20 -68 -2 -2 -28 11 -57 30 -61
40 -97 60 -150 84 -31 14 -38 22 -39 48 -1 25 -3 26 -6 8 -4 -23 -5 -23 -20
-5 -8 10 -11 12 -7 4 7 -14 5 -14 -36 8 -39 20 -160 169 -186 228 -13 30 -25
70 -25 91 -1 24 -3 29 -6 14 -4 -20 -7 -21 -21 -10 -12 9 -12 6 2 -10 11 -12
16 -25 13 -29 -4 -3 -1 -13 7 -22 17 -20 30 -61 19 -61 -5 0 -19 7 -31 16 -16
11 -27 12 -39 5 -17 -10 -16 -10 2 -11 11 0 29 -12 39 -27 l19 -26 -29 7 c-21
5 -25 4 -14 -4 8 -5 26 -10 40 -10 18 0 21 -3 12 -9 -11 -7 -10 -10 3 -15 9
-3 24 -6 34 -6 9 0 39 -20 66 -45 58 -51 51 -55 -66 -30 -71 15 -169 12 -169
-6 0 -5 -12 -4 -26 1 -33 13 -54 13 -54 -1 0 -6 9 -8 23 -4 21 6 22 6 2 -10
-18 -15 -18 -15 10 -9 37 7 51 8 90 5 l30 -2 -25 -14 c-25 -14 -25 -14 10 -9
19 3 41 7 48 10 20 6 72 -8 66 -17 -6 -10 2 -13 50 -24 49 -10 14 -28 -56 -29
-36 0 -52 -2 -38 -6 l24 -6 -24 -17 c-13 -9 -20 -17 -15 -17 6 0 19 7 29 15
24 18 40 19 30 3 -6 -10 -5 -10 7 -1 14 12 69 7 69 -7 0 -4 10 -6 23 -5 12 1
36 3 52 4 29 2 29 2 10 18 -18 14 -18 15 -2 9 10 -3 29 -6 42 -6 14 0 29 -9
35 -21 16 -29 5 -35 -25 -15 -19 12 -30 14 -43 7 -16 -10 -16 -10 2 -11 18 0
45 -26 46 -42 0 -5 -10 -8 -22 -9 -22 -1 -22 -1 -3 -8 22 -7 63 -25 114 -50
32 -16 76 -60 67 -68 -8 -8 -181 28 -216 45 -19 9 -51 30 -70 47 -19 16 -29
23 -22 15 19 -22 14 -32 -10 -25 -18 5 -20 4 -8 -4 8 -6 23 -11 33 -11 11 0
15 -4 11 -12 -4 -7 -3 -8 4 -4 7 4 12 2 12 -3 0 -6 11 -11 24 -11 46 0 36 -17
-13 -24 -31 -4 -55 -14 -67 -28 l-19 -21 28 18 c18 12 27 13 27 5 0 -9 4 -10
13 -2 8 7 24 8 43 3 l29 -9 -25 -11 -25 -12 25 6 c28 7 71 9 115 7 22 -2 26
-5 16 -11 -12 -8 -8 -11 15 -16 47 -11 54 -14 54 -25 0 -10 -29 -14 -100 -13
-20 0 -25 -2 -12 -4 22 -4 22 -5 4 -21 -10 -9 -12 -13 -5 -8 7 4 20 5 29 2 9
-4 22 -2 28 3 6 5 26 6 43 4 31 -5 32 -6 15 -22 -10 -9 -12 -12 -5 -7 7 4 20
5 29 2 10 -4 25 1 35 10 18 16 20 16 40 -2 l21 -19 -28 -6 c-24 -6 -25 -7 -6
-8 13 0 41 -17 62 -38 38 -35 54 -62 28 -47 -7 4 -1 -6 15 -23 35 -38 37 -62
2 -39 -28 18 -65 21 -65 5 0 -6 8 -8 18 -5 13 5 22 -1 30 -18 10 -22 8 -25
-11 -29 -22 -4 -22 -4 -1 -6 12 0 27 -8 34 -16 7 -8 21 -15 31 -15 31 0 94
-45 115 -82 25 -42 88 -207 83 -213 -3 -2 -47 21 -98 52 -54 32 -107 56 -125
57 -17 1 -38 6 -45 10 -10 7 -12 5 -6 -4 5 -9 2 -11 -11 -7 -11 3 -37 9 -59
13 -22 4 -57 18 -78 31 -28 18 -42 21 -55 14 -15 -9 -13 -10 9 -11 14 0 33 -6
44 -13 27 -20 4 -30 -69 -31 -41 0 -53 -2 -36 -7 16 -4 19 -7 8 -8 -10 -1 -18
-5 -18 -11 0 -12 13 -13 24 -3 11 11 95 13 101 3 4 -6 1 -10 -4 -10 -6 0 -11
-5 -11 -12 0 -6 7 -4 18 5 10 10 27 17 38 17 16 0 17 -2 4 -10 -8 -5 -10 -10
-5 -10 6 0 16 5 21 10 6 6 34 13 62 17 49 5 52 5 52 -17 0 -17 -4 -21 -17 -15
-33 14 -63 17 -63 7 0 -6 10 -8 23 -5 12 3 19 2 14 -2 -4 -5 1 -17 10 -28 18
-20 17 -20 -12 -13 -22 5 -26 4 -15 -4 8 -5 26 -10 40 -10 19 0 22 -2 11 -9
-12 -8 -8 -11 15 -16 43 -10 89 -35 103 -56 10 -16 8 -19 -11 -20 -17 -1 -15
-3 11 -10 18 -6 35 -8 38 -6 2 3 -20 31 -50 63 -66 73 -87 103 -87 126 0 24
29 17 114 -28 62 -33 64 -35 61 -71 -2 -20 -9 -39 -15 -43 -8 -5 -9 -10 -2
-14 6 -3 13 0 15 6 3 8 6 6 6 -5 1 -10 8 -32 17 -49 l16 -31 -31 22 c-17 12
-35 20 -39 17 -5 -3 -56 2 -113 10 -76 11 -112 22 -134 38 -21 16 -36 21 -50
15 l-20 -8 20 -1 c11 0 31 -7 44 -14 34 -19 12 -29 -63 -29 -42 0 -52 -2 -31
-7 29 -6 29 -6 7 -14 -37 -12 -21 -16 26 -5 23 5 54 6 69 3 l26 -7 -24 -14
c-18 -11 -19 -13 -4 -8 44 15 145 12 130 -3 -3 -4 11 -11 32 -17 21 -7 37 -17
35 -23 -1 -7 11 -12 32 -12 18 0 52 -6 74 -14 22 -8 44 -11 48 -8 4 4 4 2 0
-5 -3 -6 -2 -14 4 -18 5 -3 10 -11 10 -17 0 -6 -7 -5 -17 3 -10 8 -5 -1 10
-19 23 -29 34 -52 24 -52 -14 0 -81 43 -97 61 -12 15 -18 18 -14 7 3 -10 -1
-18 -13 -21 -14 -4 -14 -5 5 -6 12 0 22 -5 22 -11 0 -5 12 -12 28 -16 44 -9
92 -37 98 -57 10 -32 -3 -29 -41 9 -25 25 -33 30 -25 14 11 -21 10 -22 -9 -17
-12 3 -19 1 -15 -4 3 -5 16 -9 29 -9 13 0 27 -4 30 -10 4 -6 -1 -7 -12 -4 -15
5 -16 4 -3 -5 8 -6 23 -11 33 -11 11 0 17 -5 14 -12 -2 -7 1 -20 8 -28 18 -22
35 -78 35 -114 l-1 -31 -14 25 c-8 14 -15 41 -16 60 -1 19 -3 27 -6 17 -4 -15
-7 -16 -21 -5 -13 10 -13 7 1 -9 11 -12 16 -27 12 -32 -3 -6 -2 -11 3 -11 17
0 42 -79 42 -130 l0 -51 -66 82 c-77 95 -97 139 -95 202 1 15 -4 27 -10 27 -6
0 -8 -7 -5 -16 5 -14 4 -15 -9 -4 -9 8 -15 8 -15 2 0 -6 5 -14 11 -17 6 -4 8
-14 5 -22 -4 -9 -2 -11 6 -7 7 5 9 2 5 -9 -3 -8 1 -21 9 -27 23 -20 16 -31
-13 -24 -16 4 -39 19 -53 33 -14 15 -22 22 -17 17 13 -18 7 -27 -15 -22 -20 5
-20 5 2 -6 14 -7 29 -18 33 -25 5 -8 12 -11 17 -8 13 8 72 -19 94 -44 32 -36
9 -36 -36 -1 -23 19 -38 28 -34 22 4 -8 0 -12 -11 -13 -10 0 -3 -6 17 -14 19
-7 31 -14 27 -14 -5 -1 5 -13 22 -27 30 -25 44 -53 19 -38 -7 5 -1 -7 15 -25
15 -18 27 -39 27 -47 0 -21 -58 10 -88 47 -13 16 -28 29 -34 29 -6 0 -3 -10 8
-21 19 -22 19 -22 -6 -15 -19 6 -21 5 -10 -3 8 -6 24 -11 35 -11 15 0 17 -2 6
-9 -14 -9 -10 -12 50 -25 26 -6 103 -75 94 -84 -2 -3 -16 3 -30 12 -19 12 -30
14 -43 7 -15 -9 -15 -10 5 -11 41 0 108 -37 126 -69 10 -17 22 -31 27 -31 4 0
20 -33 35 -72 15 -40 31 -82 36 -93 11 -24 17 -455 7 -455 -4 0 -24 21 -45 47
-21 25 -69 82 -108 126 -38 44 -81 94 -95 113 -14 18 -51 65 -84 104 -58 72
-58 72 -47 111 6 21 24 53 38 71 19 23 21 27 6 15 -21 -18 -21 -18 -26 5 -3
14 -5 8 -6 -17 -1 -30 -4 -36 -11 -25 -7 11 -10 5 -10 -22 0 -21 -4 -38 -8
-38 -11 0 -32 60 -33 96 -2 25 -2 25 -6 6 -5 -23 -5 -23 -26 -5 -21 17 -21 17
0 -8 27 -30 28 -36 7 -36 -8 0 -21 12 -29 26 -7 14 -23 35 -35 46 -29 26 -74
126 -96 212 -9 38 -30 102 -45 143 -26 66 -29 87 -29 188 0 77 5 124 15 148
10 25 12 41 5 53 -8 13 -10 10 -10 -14 -1 -16 -5 -39 -9 -49 -6 -16 -10 -13
-24 22 -9 24 -18 57 -18 75 -1 25 -3 27 -6 9 -4 -23 -5 -23 -20 -5 -12 14 -12
13 1 -9 19 -32 20 -42 4 -32 -6 4 -4 -3 4 -15 9 -12 13 -31 11 -42 -5 -18 -6
-19 -19 -2 -7 10 -14 14 -14 10 0 -5 9 -20 20 -34 25 -32 26 -50 3 -32 -10 7
-7 1 6 -14 29 -32 35 -30 21 7 -5 15 -10 39 -10 54 1 25 2 26 14 9 19 -25 21
-247 2 -226 -95 103 -154 208 -157 277 l-1 27 -7 -25 c-6 -21 -8 -22 -14 -7
-3 9 -12 17 -19 17 -6 0 0 -13 15 -28 30 -31 37 -52 10 -31 -10 8 -5 -1 10
-19 25 -32 36 -58 20 -50 -5 2 -21 10 -38 18 -16 8 -41 26 -54 40 -13 14 -18
18 -12 8 9 -13 9 -17 -1 -21 -7 -2 -5 -3 5 -1 13 2 17 -2 13 -12 -3 -9 4 -16
22 -20 51 -10 111 -52 112 -76 0 -19 -25 -5 -58 30 -24 25 -31 29 -23 13 12
-22 12 -24 -8 -18 -12 3 -19 1 -15 -4 3 -5 17 -9 32 -9 21 0 24 -2 12 -10 -12
-8 -11 -10 7 -10 12 0 25 -5 28 -10 4 -6 10 -8 14 -6 4 3 7 -7 6 -22 0 -15 8
-39 19 -54 39 -55 -13 -48 -71 10 -20 20 -28 27 -18 15 18 -23 18 -23 -11 -24
-26 -2 -26 -2 -5 -6 13 -3 31 -11 38 -19 8 -8 21 -14 29 -14 16 0 89 -44 99
-60 8 -13 -8 -13 -22 1 -8 8 -16 8 -30 0 -16 -9 -14 -10 11 -11 22 0 44 -15
93 -63 39 -40 63 -72 63 -86 0 -12 12 -49 26 -82 14 -34 23 -63 21 -65 -2 -3
-59 26 -126 63 -112 62 -121 70 -122 98 -1 25 -3 26 -6 7 -4 -23 -5 -23 -20
-5 -8 10 -12 12 -8 6 3 -7 2 -13 -3 -13 -12 0 -92 58 -92 68 0 4 -25 34 -55
67 -55 62 -94 141 -96 198 -1 18 -3 24 -6 14 -4 -15 -7 -16 -21 -5 -14 10 -14
9 1 -8 10 -12 17 -25 15 -30 -1 -5 5 -23 15 -40 29 -56 -3 -54 -68 5 -22 20
-31 25 -20 12 l20 -24 -30 7 c-22 5 -26 4 -15 -4 8 -5 26 -10 40 -10 20 0 22
-2 10 -10 -12 -8 -12 -10 5 -10 11 0 26 -9 33 -20 11 -18 10 -20 -8 -20 -11 0
-20 -4 -20 -10 0 -5 17 -10 38 -10 27 0 33 -3 22 -10 -12 -8 -11 -10 6 -10 33
0 81 -28 108 -63 14 -17 23 -33 22 -35 -2 -1 -46 5 -97 14 -95 17 -140 36
-194 83 -16 14 -24 19 -17 9 11 -14 10 -17 -5 -21 -11 -3 -6 -5 12 -6 22 -1
26 -4 16 -10 -12 -8 -8 -11 15 -16 47 -11 54 -14 54 -25 0 -10 -33 -14 -100
-13 -21 1 -26 -1 -12 -4 l22 -4 -22 -19 c-13 -11 -18 -19 -11 -20 6 0 15 5 18
11 4 6 14 8 22 5 9 -4 21 -2 27 3 6 5 26 6 43 4 31 -5 32 -6 15 -22 -10 -9
-13 -13 -6 -8 6 4 22 6 35 5 17 -2 23 1 21 12 -3 12 -1 13 9 3 7 -7 21 -13 30
-13 9 0 22 -7 29 -15 7 -8 23 -15 35 -15 12 0 28 -6 34 -14 10 -12 5 -16 -33
-21 -26 -4 -58 -5 -73 -2 -25 5 -26 4 -10 -8 18 -13 18 -14 0 -24 -10 -6 -13
-10 -8 -10 6 0 19 6 29 14 24 18 40 19 30 3 -6 -10 -5 -10 7 -1 8 6 27 9 42 6
27 -5 27 -6 10 -26 -18 -20 -18 -21 7 -4 28 20 44 22 34 5 -5 -8 -3 -8 7 -2 8
5 34 14 59 21 38 10 48 9 63 -4 15 -15 24 -43 12 -43 -2 0 -19 9 -37 19 -17
11 -35 18 -40 15 -15 -10 3 -24 30 -25 15 0 21 -3 14 -6 -6 -2 -10 -9 -6 -14
3 -5 -2 -9 -11 -9 -9 0 -13 -4 -10 -10 3 -5 21 -10 38 -10 19 0 27 -3 20 -8
-8 -5 4 -12 32 -20 41 -11 56 -21 94 -67 21 -26 6 -29 -82 -16 -95 15 -156 41
-199 85 -17 17 -26 23 -19 14 10 -14 9 -17 -6 -21 -10 -2 -8 -3 5 -2 16 2 22
-2 18 -11 -3 -9 5 -16 22 -20 15 -4 35 -13 46 -20 16 -11 13 -13 -28 -19 -25
-4 -58 -4 -73 -1 -23 5 -25 4 -10 -5 15 -9 16 -13 5 -27 -10 -11 -5 -10 17 4
16 10 26 13 22 7 -10 -15 5 -17 19 -3 5 5 22 6 39 2 l29 -8 -24 -17 c-14 -9
-20 -17 -15 -17 6 0 19 7 29 15 24 18 40 20 30 3 -5 -7 -3 -8 7 -2 19 11 59 5
76 -12 8 -8 24 -14 36 -14 12 0 30 -7 40 -14 17 -13 13 -15 -37 -21 -31 -4
-68 -5 -83 -2 l-28 6 28 -13 28 -12 -23 -13 c-16 -8 -17 -10 -3 -5 11 4 29 6
40 6 10 -1 24 3 30 8 6 5 26 0 50 -11 35 -17 41 -18 54 -4 14 13 11 15 -24 15
-55 0 -78 16 -34 23 20 3 43 -1 55 -8 26 -17 56 -22 70 -12 7 4 14 1 17 -7 4
-10 -3 -12 -26 -10 -18 1 -26 0 -19 -3 18 -7 15 -23 -5 -24 -10 -1 -4 -4 12
-8 19 -5 29 -12 27 -22 -2 -8 0 -11 4 -6 4 4 18 -3 31 -15 24 -23 32 -44 11
-32 -7 5 -1 -8 14 -28 16 -20 28 -42 28 -48 0 -17 -75 26 -99 57 -19 24 -20
25 -10 4 10 -22 9 -23 -10 -18 -12 3 -19 1 -15 -4 3 -5 17 -9 32 -9 20 0 23
-3 13 -9 -12 -8 -8 -11 15 -16 16 -4 37 -9 46 -11 22 -6 83 -63 75 -70 -7 -7
-57 24 -80 50 -14 17 -16 17 -11 4 4 -13 1 -18 -12 -19 -11 0 -1 -6 21 -13 26
-8 35 -14 25 -18 -12 -5 -12 -7 2 -7 41 -2 98 -34 123 -70 27 -40 97 -209 93
-223 -2 -5 -26 6 -54 24 -28 18 -83 51 -122 73 -57 32 -72 45 -73 65 -1 18 -3
20 -6 7 -4 -14 -8 -16 -19 -6 -8 6 -14 9 -14 5 0 -17 -67 39 -128 108 -71 79
-110 157 -113 222 -2 25 -2 26 -6 6 -4 -23 -5 -23 -24 -6 -10 9 -19 12 -19 6
0 -6 9 -16 20 -22 11 -6 20 -15 20 -21 0 -6 -6 -7 -12 -3 -7 5 -1 -7 14 -25
29 -34 38 -69 16 -55 -44 27 -83 56 -94 72 -13 16 -14 16 -8 0 4 -13 1 -18
-12 -19 -11 0 -1 -6 21 -13 32 -10 36 -14 20 -18 -17 -5 -16 -6 6 -7 17 -1 30
-9 37 -25 10 -22 8 -25 -11 -29 -15 -3 -12 -5 11 -6 19 0 31 -6 30 -13 -2 -7
8 -14 21 -16 50 -8 136 -80 118 -99 -3 -2 -45 3 -94 12 -81 14 -150 39 -164
58 -3 4 -14 5 -24 1 -14 -6 -7 -11 30 -22 43 -12 47 -15 30 -24 -10 -6 -43
-11 -74 -11 -37 0 -49 -3 -36 -8 17 -6 17 -8 3 -8 -10 -1 -18 -6 -18 -12 0 -7
7 -8 17 -4 10 4 31 9 46 11 15 2 36 8 47 14 23 12 76 13 98 1 9 -5 46 -10 82
-12 36 -2 67 -6 70 -9 3 -3 28 -16 57 -29 29 -13 55 -31 58 -39 5 -13 3 -13
-12 -1 -13 11 -15 11 -9 1 6 -11 0 -12 -31 -5 -21 4 -54 7 -73 6 -130 -5 -172
-8 -152 -11 23 -4 23 -4 5 -25 -18 -21 -18 -21 7 -4 13 9 31 17 40 17 13 0 13
-1 0 -10 -9 -6 -10 -10 -3 -10 6 0 15 5 18 10 3 6 18 8 33 5 22 -4 23 -4 7 4
-17 7 -15 10 17 16 21 4 46 4 55 0 15 -6 12 -9 -14 -19 -18 -6 -40 -19 -50
-29 -14 -15 -9 -14 22 4 30 18 37 19 26 6 -8 -10 -9 -17 -3 -17 6 0 14 5 17
10 3 6 15 10 27 10 13 0 18 5 15 13 -4 10 4 12 31 8 28 -5 38 -12 40 -29 4
-26 -5 -28 -36 -6 -16 11 -27 12 -39 5 -15 -9 -14 -10 10 -11 16 0 26 -4 22
-9 -3 -5 -1 -12 5 -16 17 -10 11 -23 -12 -28 -20 -4 -19 -4 5 -6 15 0 27 -5
27 -11 0 -5 12 -12 28 -16 44 -9 85 -34 112 -67 l24 -30 -76 6 c-42 4 -95 13
-117 20 -25 9 -39 10 -38 4 2 -13 -56 -26 -97 -22 -17 1 -23 0 -13 -2 17 -4
17 -6 3 -16 -14 -10 -12 -12 11 -11 16 1 45 9 65 18 40 17 81 20 113 6 20 -9
20 -9 -1 -9 -11 -1 -26 -7 -33 -13 -11 -10 -13 -10 -7 0 11 18 -6 14 -34 -9
-21 -17 -22 -19 -3 -10 15 8 24 8 28 1 5 -8 12 -7 22 2 50 41 142 35 238 -15
86 -45 87 -49 10 -41 -96 9 -79 -2 24 -16 65 -9 101 -21 165 -54 44 -24 87
-41 95 -38 8 2 11 0 8 -5 -4 -6 19 -37 49 -69 202 -213 240 -265 295 -412 27
-70 49 -134 49 -143 0 -14 37 -115 60 -164 5 -11 40 -96 77 -190 l68 -170 5
-720 c4 -535 6 -313 8 866 l2 1587 36 93 c20 51 38 102 40 113 2 10 26 77 54
149 28 71 55 146 60 166 5 20 52 147 104 283 53 136 96 259 96 273 0 14 6 38
14 53 16 32 176 447 176 457 0 5 19 29 43 56 23 26 78 91 122 145 44 54 103
123 130 155 28 32 82 97 120 145 104 130 145 174 179 190 17 8 42 22 56 30 14
8 42 25 62 37 21 12 78 46 127 75 89 52 136 67 251 78 66 6 64 6 118 0 23 -3
51 -10 62 -16 28 -15 37 -12 14 5 -14 11 -15 14 -3 9 10 -3 20 0 24 6 6 9 -4
10 -36 6 -30 -5 -40 -4 -30 3 11 7 2 8 -27 4 -23 -3 -42 -3 -42 0 0 11 68 47
88 47 11 0 23 4 26 9 4 5 -4 7 -16 3 l-23 -5 20 24 20 24 -28 -24 c-15 -14
-27 -21 -27 -17 0 5 -15 -5 -34 -22 -22 -19 -50 -32 -78 -36 -38 -6 -71 -12
-165 -32 -17 -3 -12 6 26 44 26 26 62 67 78 90 17 23 33 39 37 35 3 -3 15 2
25 11 11 10 39 24 63 31 30 9 36 14 19 14 -21 1 -22 3 -10 19 7 9 0 5 -17 -10
-34 -31 -54 -37 -33 -10 13 15 12 16 -3 4 -10 -8 -20 -22 -23 -33 -4 -10 -10
-19 -15 -19 -11 0 -1 62 10 70 8 6 4 59 -4 68 -3 3 -6 -11 -6 -32 0 -25 -4
-35 -11 -30 -8 4 -9 -1 -4 -16 4 -14 3 -20 -3 -16 -5 3 -16 -2 -23 -10 -12
-15 -14 -14 -20 7 -6 19 -7 16 -8 -16 -1 -30 -4 -36 -11 -25 -8 12 -10 9 -10
-11 0 -14 -9 -34 -20 -44 -11 -10 -20 -15 -20 -11 0 5 -16 -6 -36 -24 -20 -17
-38 -29 -41 -26 -9 9 19 76 45 109 19 23 20 27 5 14 -21 -18 -21 -18 -26 5 -3
14 -5 8 -6 -17 -1 -30 -4 -36 -11 -25 -8 13 -10 12 -10 -3 0 -11 -9 -30 -19
-43 l-20 -25 -4 28 c-4 26 -4 26 -6 -5 0 -22 -5 -31 -12 -26 -8 5 -10 -6 -7
-35 2 -22 1 -41 -2 -41 -9 -1 -65 -81 -65 -93 0 -7 -18 -22 -40 -34 -22 -12
-51 -29 -65 -37 -48 -29 -70 -39 -75 -35 -2 3 5 30 17 60 33 86 40 127 39 238
0 87 4 115 23 161 14 36 20 64 15 76 -6 14 -8 10 -8 -16 -1 -26 -4 -31 -11
-20 -7 11 -10 6 -11 -20 0 -19 -4 -44 -8 -55 -7 -17 -9 -15 -14 15 -15 85 -25
124 -26 101 -1 -24 -1 -24 -23 -5 l-23 19 23 -26 c24 -28 29 -44 10 -33 -7 4
-3 -4 9 -17 14 -16 24 -43 27 -79 5 -38 3 -49 -3 -35 -5 11 -11 36 -12 55 -1
26 -3 29 -6 12 -5 -23 -5 -23 -26 -5 -21 17 -21 17 1 -8 24 -28 29 -44 10 -33
-7 4 -5 -2 5 -13 9 -11 17 -29 17 -41 0 -11 5 -24 10 -27 15 -9 12 -41 -5 -55
-21 -18 -28 -7 -14 23 8 18 8 30 0 43 -9 16 -11 14 -12 -18 -1 -21 -2 -44 -3
-50 -1 -13 -58 -69 -64 -63 -5 5 18 47 42 75 11 14 14 19 6 13 -19 -17 -28
-16 -33 5 -3 9 -5 2 -6 -16 0 -18 -5 -31 -10 -28 -5 3 -12 -18 -15 -47 -5 -36
-15 -60 -33 -79 -15 -15 -24 -30 -21 -33 3 -4 19 13 34 35 30 43 94 114 94
104 0 -4 12 1 26 11 l27 17 -7 -55 c-12 -90 -60 -201 -115 -265 -60 -69 -159
-192 -184 -227 -11 -15 -21 -25 -23 -22 -2 2 23 73 55 158 83 218 83 219 79
351 -2 64 0 114 4 112 4 -3 10 12 14 31 3 20 18 51 32 68 20 24 21 27 5 14
-21 -18 -21 -18 -26 5 -3 14 -5 8 -6 -17 -1 -25 -4 -35 -9 -27 -6 8 -9 2 -9
-18 0 -18 -5 -35 -12 -39 -9 -6 -11 -22 -6 -53 4 -25 3 -48 -2 -51 -5 -3 -9
26 -8 67 2 68 -11 191 -14 137 -1 -24 -1 -24 -23 -5 l-23 19 23 -26 c24 -27
29 -45 10 -33 -6 4 -4 -3 4 -15 9 -12 14 -31 11 -42 -6 -22 -14 -24 -33 -6 -8
6 -5 0 8 -14 24 -28 29 -44 10 -33 -10 6 -10 4 0 -7 6 -7 12 -31 12 -54 0 -29
-3 -36 -10 -25 -7 12 -10 8 -10 -15 0 -16 -3 -41 -7 -54 -6 -22 -8 -21 -24 20
-10 24 -19 60 -20 79 -1 26 -3 29 -6 12 -5 -23 -5 -23 -26 -5 -21 17 -21 17 1
-8 24 -28 29 -44 10 -33 -7 4 -3 -4 9 -17 34 -38 40 -66 41 -184 1 -106 0
-114 -40 -217 -22 -59 -53 -120 -67 -135 -57 -60 -151 -174 -165 -200 -8 -16
-28 -41 -45 -57 l-31 -30 0 307 0 307 38 18 c20 10 36 23 35 28 -1 6 11 9 26
6 16 -2 31 1 35 6 4 6 -3 8 -16 4 -23 -5 -23 -5 -4 16 11 12 14 22 9 22 -6 0
-16 -7 -23 -15 -7 -8 -17 -15 -22 -15 -5 0 -20 -12 -34 -27 -13 -14 -27 -24
-30 -20 -11 11 8 68 34 100 19 23 20 27 5 14 -21 -18 -21 -18 -26 5 -3 14 -5
8 -6 -17 -2 -67 -21 -19 -21 56 0 58 8 86 65 229 36 90 67 175 70 188 4 26 21
51 92 145 41 54 127 114 183 128 l25 7 -24 1 c-17 1 -21 5 -15 14 5 7 -2 1
-15 -13 -19 -21 -22 -22 -17 -5 5 13 -4 7 -23 -15 -16 -19 -32 -32 -36 -28 -9
9 21 87 42 111 10 10 12 17 5 17 -7 0 -12 -6 -13 -12 0 -7 -4 -4 -9 7 -7 16
-9 14 -9 -15 -1 -26 -4 -31 -11 -20 -7 11 -10 7 -10 -18 0 -39 -21 -92 -43
-111 -10 -7 -17 -11 -17 -8 0 12 24 63 39 82 15 18 15 19 -1 7 -14 -11 -17
-10 -21 5 -3 10 -5 0 -6 -22 -1 -30 -4 -36 -11 -25 -7 11 -10 7 -10 -18 0 -43
-21 -91 -54 -121 l-26 -24 0 99 c0 100 21 180 61 231 13 16 12 17 -3 5 -14
-11 -17 -10 -21 5 -3 10 -5 3 -6 -15 -1 -19 -5 -31 -11 -27 -6 4 -10 -7 -10
-27 0 -18 -5 -40 -10 -48 -8 -12 -10 -11 -10 6 0 11 -3 24 -7 28 -9 9 -10 14
-12 61 0 19 -6 35 -12 35 -6 0 -9 -7 -5 -15 7 -18 -5 -19 -24 -2 -8 6 -5 0 8
-14 24 -27 29 -45 11 -33 -7 4 -1 -8 12 -25 21 -29 24 -44 27 -157 2 -109 0
-133 -19 -182 -11 -31 -23 -65 -25 -76 -9 -45 -14 -23 -14 57 0 63 -5 100 -20
137 -11 28 -21 65 -21 83 -1 18 -3 24 -6 14 -4 -15 -7 -16 -21 -5 -12 9 -11 6
2 -10 11 -12 17 -25 13 -28 -3 -3 5 -25 17 -49 20 -36 23 -59 24 -156 2 -106
-1 -120 -29 -192 -18 -43 -36 -76 -41 -75 -9 3 -98 223 -98 242 0 5 8 19 18
30 17 21 17 21 -5 2 l-23 -19 0 28 c0 16 -3 25 -7 22 -17 -18 -33 62 -33 165
0 116 16 172 64 228 l21 25 -22 -18 c-21 -18 -21 -18 -26 5 -3 17 -5 15 -6
-10 0 -19 -5 -31 -11 -27 -6 4 -10 -6 -11 -22 0 -15 -4 -36 -8 -46 -5 -14 -11
-7 -25 33 -10 28 -16 59 -13 70 3 11 1 20 -4 20 -5 0 -9 -5 -9 -11 0 -5 -5 -7
-11 -4 -7 5 -7 1 -1 -11 29 -53 52 -127 51 -161 l-1 -38 -13 30 c-8 17 -15 44
-15 60 -1 17 -4 24 -7 17 -2 -6 -9 -9 -15 -6 -6 4 -6 0 0 -12 31 -58 52 -129
52 -175 0 -50 27 -145 56 -201 18 -34 18 -44 -1 -28 -8 7 -15 19 -15 26 0 7
-16 28 -35 45 -19 18 -37 40 -40 50 -4 11 -11 19 -16 19 -6 0 -6 -7 1 -19 15
-28 13 -46 -3 -33 -8 7 -18 7 -27 2 -12 -8 -10 -10 8 -10 13 0 25 -8 28 -17 4
-10 15 -37 25 -60 10 -24 19 -62 19 -85 l-1 -43 -14 34 c-8 18 -15 50 -16 70
-1 33 -2 34 -9 11 -4 -14 -8 -19 -9 -12 -1 6 -6 12 -13 12 -6 0 -4 -8 6 -19
10 -11 15 -25 11 -30 -3 -6 -2 -11 3 -11 16 0 42 -84 42 -135 -1 -43 -2 -47
-12 -30 -6 11 -33 45 -59 75 -48 56 -88 141 -90 195 -1 25 -2 26 -6 7 -4 -23
-5 -23 -20 -5 -12 14 -12 13 1 -9 19 -33 20 -42 4 -32 -7 5 -1 -7 15 -25 28
-34 37 -69 15 -55 -43 27 -83 56 -95 72 -13 15 -13 15 -3 -6 11 -22 10 -23
-12 -17 -18 5 -20 4 -8 -4 8 -6 26 -11 40 -11 20 0 22 -2 10 -10 -13 -8 -12
-10 4 -10 17 0 45 -25 46 -42 0 -4 -10 -9 -22 -11 -22 -4 -22 -4 -2 -6 23 -1
117 -80 97 -81 -8 0 -3 -14 12 -37 31 -44 26 -52 -14 -24 -23 17 -35 20 -48
12 -15 -9 -14 -10 10 -11 16 0 26 -4 23 -9 -3 -5 2 -15 10 -22 15 -12 14 -14
-7 -20 -23 -7 -23 -7 4 -8 16 -1 26 -5 22 -11 -3 -6 1 -7 10 -4 14 6 12 11
-11 35 -15 16 -24 29 -18 29 14 -1 54 -37 54 -49 0 -6 5 -11 10 -11 6 0 9 17
9 38 -1 20 -3 29 -6 20 -2 -10 -9 -18 -14 -18 -6 0 -8 4 -5 9 7 11 -13 71 -24
71 -4 0 -6 9 -3 19 13 51 93 -56 101 -134 l5 -50 -22 19 c-23 21 -58 28 -67
14 -3 -4 4 -8 16 -8 33 0 48 -51 49 -171 0 -92 -3 -117 -28 -187 l-28 -80 1
93 c1 51 4 91 9 88 4 -2 8 2 9 9 0 7 3 27 5 43 2 17 4 46 4 65 -1 28 1 32 10
20 8 -12 9 -9 4 10 -4 14 -10 41 -15 60 -4 19 -8 30 -9 23 -1 -7 -8 -10 -18
-6 -17 5 -17 5 -1 -8 21 -18 24 -46 14 -131 -9 -71 -19 -86 -30 -43 -4 14 -10
25 -14 25 -4 0 -7 19 -5 43 1 23 -1 32 -3 20 -6 -26 -14 -28 -34 -10 -8 6 -4
0 9 -15 17 -19 20 -28 11 -28 -12 0 -11 -3 1 -16 10 -9 14 -25 11 -40 -4 -24
-5 -24 -26 -7 -19 16 -19 16 2 -8 24 -28 29 -45 10 -33 -7 5 -1 -7 15 -25 22
-26 27 -43 29 -89 2 -92 -1 -110 -40 -209 l-28 -73 -33 93 c-19 50 -38 97 -43
102 -8 8 20 -72 61 -178 7 -17 11 -107 11 -230 l-1 -202 -44 115 c-25 63 -45
121 -45 128 0 7 -11 39 -25 72 -22 51 -25 75 -25 168 0 76 5 121 15 147 16 36
11 91 -5 65 -5 -8 -15 -1 -31 22 -13 18 -29 38 -36 43 -8 6 -16 23 -19 40 -3
16 -10 35 -15 42 -6 6 -9 24 -7 40 l3 28 20 -24 c11 -13 32 -38 46 -55 31 -37
72 -150 64 -176 -3 -10 -1 -21 5 -25 17 -11 20 -3 11 37 -7 28 -5 43 7 60 15
21 15 22 -1 9 -15 -12 -17 -11 -17 3 0 10 -4 15 -9 12 -16 -10 -31 72 -31 172
0 105 21 191 59 237 15 18 15 19 -1 7 -14 -11 -17 -10 -21 5 -3 10 -5 0 -6
-22 -1 -30 -4 -36 -11 -25 -7 12 -10 8 -10 -15 0 -16 -3 -41 -7 -54 -5 -21 -8
-18 -24 25 -11 27 -20 63 -20 79 -1 25 -2 26 -6 7 -5 -23 -5 -23 -26 -5 -21
17 -21 17 1 -8 24 -28 29 -44 10 -33 -7 4 -3 -4 9 -17 34 -38 41 -67 41 -179
l1 -105 -22 30 c-12 16 -31 39 -42 51 -11 11 -30 32 -43 46 -22 24 -51 113
-53 166 -2 25 -2 25 -6 4 -5 -23 -5 -23 -26 -5 -21 17 -21 17 1 -8 24 -28 29
-44 10 -33 -7 4 -2 -5 11 -19 30 -33 23 -64 -11 -46 -13 6 -39 25 -58 43 -22
20 -28 22 -15 7 l20 -24 -30 7 c-22 5 -26 4 -15 -4 8 -5 26 -10 40 -11 14 0
19 -3 12 -6 -9 -3 -2 -12 20 -26 31 -20 32 -22 11 -25 -34 -5 -28 -22 8 -22
31 0 31 0 15 25 -24 36 -2 31 42 -10 26 -25 32 -35 20 -35 -9 0 -19 4 -23 10
-3 5 -13 6 -22 3 -14 -5 -13 -8 5 -14 13 -5 32 -31 47 -65 14 -31 25 -58 25
-60 0 -11 -59 22 -80 45 -14 15 -18 18 -10 8 14 -19 14 -20 -15 -13 -22 5 -26
4 -15 -4 8 -5 23 -10 33 -10 10 0 15 -4 12 -10 -3 -5 3 -10 13 -10 31 0 45
-49 15 -51 -10 -1 -4 -4 12 -8 17 -4 29 -12 28 -19 -3 -10 17 -17 39 -13 5 0
7 -5 5 -12 -1 -6 4 -11 11 -9 24 5 52 -18 52 -43 0 -39 -17 -38 -31 2 -7 21
-14 33 -16 26 -2 -6 3 -25 11 -42 9 -16 16 -49 15 -73 l-1 -43 -13 35 c-7 19
-14 49 -16 65 -1 25 -2 26 -6 7 -4 -20 -7 -21 -21 -10 -9 7 -7 1 6 -13 26 -30
29 -47 5 -28 -12 9 -11 5 3 -11 35 -41 44 -66 44 -122 l-1 -53 -44 50 c-25 28
-45 55 -45 61 0 6 -9 19 -20 29 -19 17 -44 89 -53 150 l-4 30 -2 -29 c-1 -29
-1 -29 -23 -10 -13 11 -10 4 7 -15 24 -27 26 -33 10 -27 -18 7 -18 5 3 -17 37
-40 27 -61 -16 -31 -16 11 -27 12 -39 5 -15 -9 -14 -10 11 -11 16 0 26 -3 23
-7 -4 -3 1 -15 10 -26 18 -20 17 -20 -12 -13 -22 5 -26 4 -15 -4 8 -5 26 -10
40 -10 18 0 21 -3 11 -9 -11 -7 -9 -10 7 -15 18 -6 60 -56 47 -56 -3 0 1 -13
10 -30 22 -43 19 -55 -10 -36 -19 12 -30 14 -43 7 -16 -10 -16 -10 2 -11 17 0
45 -25 46 -42 0 -3 -10 -4 -22 -1 -21 4 -21 3 -5 -7 10 -6 24 -9 31 -7 7 3 20
-3 29 -14 9 -10 25 -19 35 -19 39 0 97 -81 140 -195 l42 -110 0 -216 0 -215
-50 -126 c-27 -69 -50 -131 -50 -137 0 -6 -33 -98 -74 -204 -40 -105 -81 -218
-91 -249 -10 -32 -21 -58 -24 -58 -4 0 -26 52 -50 115 -24 64 -46 114 -48 112
-2 -2 19 -63 47 -135 l50 -132 0 -842 c0 -463 -4 -838 -8 -833 -5 6 -32 73
-61 150 -30 77 -59 154 -67 170 -34 78 -64 160 -64 176 0 9 -9 38 -20 64 -11
25 -22 56 -24 68 -5 27 -113 311 -132 349 -8 15 -14 35 -14 44 0 16 -76 225
-106 289 -33 74 -75 193 -80 230 -8 62 -10 935 -2 938 4 1 9 11 11 22 4 29 71
205 77 204 3 0 20 -18 38 -41 65 -82 136 -154 119 -123 -8 17 -35 49 -60 71
-24 23 -56 57 -70 76 l-27 34 27 69 27 68 18 -39 c10 -21 18 -47 18 -56 0 -10
19 -66 41 -125 23 -60 42 -115 43 -123 2 -8 6 -24 11 -35 50 -123 80 -200 94
-250 22 -76 91 -257 103 -270 5 -5 1 13 -10 40 -40 103 -121 338 -127 370 -3
11 -15 47 -29 80 -96 236 -113 286 -143 403 -4 19 4 33 46 72 28 26 51 52 51
58 0 13 64 53 120 74 25 9 37 17 27 18 -14 0 -17 5 -12 23 5 15 0 12 -14 -10
-22 -35 -47 -45 -37 -15 5 14 3 13 -10 -3 -8 -11 -19 -27 -24 -35 -14 -24 -18
-8 -10 45 4 28 8 44 9 36 1 -11 5 -10 16 5 20 26 19 44 -1 19 -16 -20 -16 -20
-9 3 4 13 2 22 -4 22 -6 0 -11 -9 -11 -19 0 -11 -4 -22 -10 -26 -5 -3 -7 -12
-4 -19 7 -19 -14 -96 -26 -96 -6 0 -10 -6 -10 -14 0 -8 -5 -18 -11 -22 -8 -4
-9 0 -4 15 3 11 2 29 -4 38 -9 15 -10 12 -11 -15 0 -18 -5 -43 -11 -55 -15
-29 -50 -67 -62 -67 -5 0 -7 45 -5 103 3 89 7 110 34 164 16 34 25 58 18 52
-9 -7 -14 -5 -17 8 -3 10 -5 0 -6 -22 -1 -30 -4 -36 -11 -25 -7 12 -10 8 -10
-15 0 -16 -3 -41 -7 -54 -6 -22 -8 -21 -24 20 -10 24 -19 60 -20 79 -1 26 -3
29 -6 12 -5 -23 -5 -23 -26 -5 -15 12 -13 7 6 -15 31 -38 36 -61 10 -41 -17
12 -17 12 -2 -4 9 -11 14 -29 11 -48 -4 -28 -5 -29 -18 -11 -14 20 -54 115
-59 142 -2 8 -4 15 -5 15 -11 0 -16 957 -5 975 3 5 8 19 10 31 8 40 109 294
129 324 39 57 130 165 139 165 5 0 26 14 47 30 21 17 47 30 58 30 12 0 23 4
26 9 4 5 -4 7 -16 3 -21 -5 -22 -4 -9 12 8 9 12 19 9 22 -3 2 -13 -7 -23 -22
-13 -20 -19 -24 -26 -13 -6 10 -9 9 -15 -6 -7 -20 -38 -55 -49 -55 -3 0 1 15
8 33 7 17 11 40 9 50 -6 31 -17 18 -17 -22 -1 -24 -10 -52 -25 -75 -34 -49
-38 -26 -5 32 14 26 20 39 11 29 -14 -18 -15 -18 -19 5 -3 14 -5 8 -6 -17 -1
-30 -4 -36 -11 -25 -7 11 -10 7 -10 -17 0 -44 -15 -80 -50 -120 l-30 -34 0
106 c0 109 18 178 59 230 15 18 15 19 -1 7 -14 -11 -17 -10 -21 5 -3 10 -5 0
-6 -22 -1 -30 -4 -36 -11 -25 -8 12 -10 10 -10 -10 0 -14 -3 -36 -7 -49 -6
-22 -8 -21 -24 20 -10 24 -19 58 -19 74 -2 29 -2 29 -9 5 -6 -21 -8 -22 -14
-7 -3 9 -12 17 -18 17 -7 0 -2 -11 10 -24 16 -17 19 -25 10 -28 -10 -3 -10 -6
-1 -12 7 -4 12 -2 13 6 0 7 9 -7 19 -32 21 -51 26 -110 9 -127 -8 -8 -8 -13 0
-17 13 -8 15 -138 3 -151 -5 -6 -20 -39 -33 -75 l-24 -65 -3 85 c-2 68 1 96
20 145 12 33 21 68 19 79 -2 12 1 16 9 11 9 -6 10 -1 4 16 -4 13 -11 42 -15
64 -4 24 -7 30 -8 16 -1 -24 -1 -24 -23 -5 l-23 19 23 -26 c24 -28 29 -44 10
-33 -10 6 -10 4 0 -7 6 -7 12 -33 12 -58 0 -34 -3 -42 -10 -31 -7 12 -10 8
-10 -15 0 -16 -3 -41 -7 -54 -6 -22 -8 -21 -24 20 -10 24 -18 60 -19 79 -1 29
-3 32 -10 15 -5 -11 -9 -14 -9 -7 -1 6 -6 12 -13 12 -6 0 -3 -9 7 -20 10 -11
16 -23 12 -26 -3 -3 5 -25 17 -49 20 -37 24 -59 24 -157 1 -103 -1 -121 -27
-188 -16 -41 -32 -75 -36 -75 -7 0 -95 222 -95 239 0 5 8 19 18 30 17 21 17
21 -5 2 l-23 -19 0 28 c0 16 -3 25 -7 22 -3 -4 -12 5 -20 19 -9 18 -13 64 -13
143 0 124 15 178 62 229 12 12 16 22 9 22 -6 0 -15 -8 -18 -17 -6 -15 -8 -14
-14 7 -6 21 -7 18 -8 -15 -1 -30 -4 -36 -11 -25 -8 12 -10 10 -10 -10 0 -14
-3 -36 -7 -49 -6 -22 -6 -22 -21 10 -8 19 -18 52 -22 74 -4 22 -8 32 -9 21z
m-61 -266 c0 -5 -2 -10 -4 -10 -3 0 -8 5 -11 10 -3 6 -1 10 4 10 6 0 11 -4 11
-10z m90 -85 c15 -22 34 -61 41 -85 7 -25 19 -54 26 -65 18 -27 16 -45 -2 -21
-8 11 -15 15 -15 9 0 -6 7 -17 17 -24 18 -16 60 -105 67 -145 3 -14 9 -31 15
-37 5 -7 10 -99 11 -210 0 -108 3 -205 6 -215 18 -58 -22 35 -80 185 l-66 171
0 110 c0 76 5 121 15 146 17 40 14 50 -26 84 -16 12 -41 49 -57 82 -17 32 -32
57 -35 54 -2 -3 -2 7 1 21 l5 26 24 -23 c14 -13 38 -41 53 -63z m-5 -95 c3 -5
1 -10 -4 -10 -6 0 -11 5 -11 10 0 6 2 10 4 10 3 0 8 -4 11 -10z m-600 -37 c42
-48 66 -85 84 -127 11 -25 18 -46 16 -46 -3 0 2 -16 10 -36 8 -20 15 -38 15
-40 0 -15 -114 130 -131 166 -38 84 -35 129 6 83z m619 11 c17 -7 21 -50 7
-72 -6 -10 -11 -7 -19 15 -5 15 -13 36 -17 46 -7 18 2 21 29 11z m1189 -16 c6
-8 7 -28 2 -44 l-7 -29 -18 40 c-10 22 -15 44 -13 48 7 11 25 4 36 -15z m93
-142 c15 -39 31 -75 36 -80 4 -6 8 -63 8 -127 0 -91 -3 -119 -15 -129 -13 -11
-15 -8 -16 16 -2 25 -3 24 -8 -8 -8 -48 -21 -39 -49 34 l-21 58 27 32 c18 23
20 28 5 15 -21 -18 -21 -18 -26 5 -3 17 -5 14 -6 -12 l-3 -35 -13 35 c-17 45
-20 249 -3 285 l11 25 23 -21 c13 -12 36 -54 50 -93z m1125 76 c-6 -11 -7 -22
-4 -26 3 -3 1 -6 -5 -6 -7 0 -12 -5 -12 -11 0 -6 -7 -17 -15 -25 -28 -29 -7
46 22 79 20 21 28 15 14 -11z m-3338 -24 c-2 -5 -1 -8 4 -8 4 0 21 -16 37 -36
l29 -36 -26 17 c-15 9 -32 13 -39 9 -7 -4 -10 -3 -5 1 4 5 -4 21 -19 36 l-26
27 25 -2 c14 0 23 -4 20 -8z m796 -60 c29 -31 44 -77 21 -63 -6 4 -8 10 -5 15
3 5 -3 14 -13 19 -23 12 -57 61 -43 61 6 0 24 -15 40 -32z m1172 15 c2 1 3 0
2 -2 -1 -2 8 -12 20 -21 27 -23 17 -36 -15 -19 -12 7 -27 12 -31 11 -5 -1 -6
2 -2 8 4 6 1 18 -7 27 -12 15 -11 15 8 5 12 -6 23 -10 25 -9z m1309 -3 c0 -5
-5 -10 -11 -10 -5 0 -7 5 -4 10 3 6 8 10 11 10 2 0 4 -4 4 -10z m-133 -51 c-8
-19 -22 -41 -32 -49 -17 -14 -17 -13 -10 10 9 27 46 82 52 76 2 -2 -2 -19 -10
-37z m86 -23 c-26 -29 -59 -59 -73 -67 -114 -69 -125 -74 -108 -51 8 13 36 45
61 71 25 27 44 51 42 55 -3 3 -2 4 1 1 9 -6 84 37 79 45 -2 4 7 5 21 2 24 -4
24 -5 -23 -56z m-1218 4 c3 -5 2 -10 -4 -10 -5 0 -13 5 -16 10 -3 6 -2 10 4
10 5 0 13 -4 16 -10z m-1143 -24 c24 -18 62 -75 75 -111 6 -17 21 -55 33 -85
l21 -55 -36 42 c-20 24 -39 42 -43 41 -4 -1 -17 3 -30 10 -12 7 -28 10 -34 6
-6 -4 -8 -3 -4 4 3 6 2 13 -4 17 -5 3 -15 16 -21 28 -12 21 -12 21 16 3 15
-10 39 -30 53 -45 l24 -26 -20 28 c-12 16 -28 50 -37 78 -9 27 -20 47 -25 44
-4 -3 -6 4 -3 15 6 23 12 24 35 6z m-890 -14 c-12 -2 -20 -7 -17 -11 2 -5 -14
-3 -36 3 -49 13 -27 24 34 17 26 -3 34 -6 19 -9z m163 -12 c-2 -3 21 -19 50
-35 59 -31 78 -55 42 -51 -64 8 -110 20 -143 36 -20 11 -41 17 -46 14 -5 -3
-7 0 -6 8 2 7 -8 14 -22 17 -23 3 -23 4 -5 11 22 9 135 8 130 0z m2538 -82 c0
-72 -12 -133 -33 -182 l-19 -41 0 87 c-1 65 4 100 20 142 12 31 24 54 27 52 2
-3 5 -29 5 -58z m-2519 -7 c8 -13 -32 -21 -68 -14 -26 5 -27 7 -11 14 28 11
73 11 79 0z m146 -7 c0 -2 -9 -4 -20 -4 -11 0 -20 4 -20 9 0 5 9 7 20 4 11 -3
20 -7 20 -9z m52 -33 c24 -10 57 -29 73 -43 17 -14 39 -28 51 -32 12 -3 51
-37 87 -75 37 -38 68 -66 71 -64 2 2 7 -1 12 -8 4 -8 3 -10 -4 -5 -8 5 -12 -2
-12 -20 0 -27 0 -27 -22 -8 l-23 19 23 -26 c24 -27 29 -45 10 -33 -7 4 -8 3
-4 -4 11 -18 2 -15 -63 23 -54 32 -61 40 -62 68 0 18 -3 26 -6 19 -4 -10 -8
-10 -21 0 -14 11 -14 9 1 -8 26 -31 21 -36 -18 -17 -19 9 -35 20 -35 24 0 4
-29 42 -65 84 -36 42 -65 80 -65 85 0 4 -3 15 -6 24 -8 22 23 21 78 -3z m1804
-57 l16 -39 -21 19 c-11 11 -21 30 -21 44 0 31 5 27 26 -24z m-1866 0 c51 -46
52 -62 1 -30 -21 14 -42 22 -47 18 -4 -4 -4 -1 0 6 4 7 2 19 -4 27 -25 30 10
15 50 -21z m1820 0 c0 -8 4 -13 9 -10 12 8 71 -60 71 -82 0 -19 -54 -117 -70
-127 -6 -4 -10 28 -10 94 0 55 -4 111 -10 126 -7 17 -7 24 0 20 6 -3 10 -13
10 -21z m124 -85 c-36 -40 -46 -17 -12 27 19 24 23 26 26 10 2 -9 -4 -26 -14
-37z m14 -86 c-3 -27 -4 -27 -17 10 -11 31 -11 40 1 54 12 15 13 14 16 -10 2
-15 2 -39 0 -54z m-2000 46 l27 -1 -30 -9 c-16 -5 -43 -6 -60 -3 -27 6 -28 8
-10 15 11 4 26 6 33 3 8 -2 26 -4 40 -5z m1981 -57 c19 -48 21 -73 21 -295 l0
-242 -81 -205 c-102 -262 -143 -376 -154 -430 0 -3 -10 -30 -20 -60 l-20 -55
-3 411 -2 411 41 109 c23 60 42 114 44 119 1 6 5 18 10 28 4 10 5 20 2 23 -9
9 34 117 58 144 36 43 74 97 71 103 -2 2 1 2 5 -2 4 -3 17 -30 28 -59z m-1787
17 c22 -11 57 -48 58 -60 0 -16 -63 6 -77 28 -9 13 -18 21 -21 19 -3 -3 1 -12
8 -21 19 -23 -5 -20 -46 6 -19 11 -39 17 -46 13 -7 -4 -10 -4 -6 1 11 12 -10
33 -30 30 -9 -1 -11 0 -4 2 7 3 10 8 7 13 -6 10 128 -16 157 -31z m1591 -94
c6 -38 6 -39 -6 -12 -7 15 -15 25 -18 23 -2 -3 -3 14 0 37 3 36 5 39 11 17 4
-14 10 -43 13 -65z m-1374 27 c0 -20 -3 -31 -6 -24 -4 10 -8 10 -21 0 -14 -10
-15 -10 -4 2 6 8 12 27 12 43 0 16 4 26 10 22 6 -3 10 -23 9 -43z m-93 -10
c-9 -8 -56 12 -56 24 0 10 6 9 29 -4 16 -9 28 -18 27 -20z m-139 -2 c-1 -11
-7 -22 -15 -25 -7 -2 -11 -1 -8 4 7 10 -16 21 -47 22 -21 0 -21 1 -2 9 11 5
32 9 47 9 21 1 26 -3 25 -19z m299 -42 c13 -21 24 -40 24 -43 0 -3 -18 5 -40
17 -34 20 -40 28 -40 57 0 30 2 32 16 20 9 -8 27 -31 40 -51z m-411 42 c-3 -5
-12 -10 -18 -10 -7 0 -6 4 3 10 19 12 23 12 15 0z m188 -6 c-8 -4 1 -17 21
-35 21 -18 34 -38 34 -54 0 -21 -3 -23 -15 -14 -10 9 -11 14 -2 20 8 4 4 9
-10 14 -11 3 -21 11 -21 16 0 6 -5 7 -12 3 -6 -4 -8 -3 -5 3 4 6 0 16 -9 23
-12 11 -12 15 -2 21 7 5 18 8 23 8 6 0 5 -3 -2 -5z m120 -21 c35 -18 39 -28
35 -93 l-3 -53 -67 77 c-38 42 -68 81 -68 86 0 12 68 1 103 -17z m1119 -10
c33 -31 37 -51 7 -29 -24 16 -54 56 -43 56 5 0 21 -12 36 -27z m-1018 -49 c21
-15 35 -20 31 -13 -15 25 50 -44 148 -156 157 -180 167 -192 167 -203 0 -6 25
-77 55 -157 30 -79 55 -157 55 -172 1 -26 2 -27 14 -10 18 24 22 14 24 -54 2
-44 -6 -77 -33 -145 -31 -81 -34 -86 -35 -51 0 28 3 36 13 31 10 -6 10 -4 0 7
-18 19 -16 112 3 152 13 26 14 39 6 53 -10 17 -11 15 -12 -13 0 -61 -12 -70
-31 -22 -10 24 -18 58 -19 74 -1 25 -3 27 -9 10 -5 -11 -5 -30 0 -42 5 -13 6
-23 2 -23 -3 0 2 -9 12 -20 12 -13 20 -40 22 -78 l3 -57 -14 35 c-8 19 -15 49
-16 65 -1 17 -4 24 -7 17 -2 -6 -9 -9 -15 -6 -5 3 -2 -8 7 -26 12 -23 14 -35
6 -43 -8 -8 -11 -8 -11 1 0 6 -36 52 -80 102 -53 60 -80 99 -80 115 0 34 37
125 63 155 l22 25 -22 -18 c-21 -18 -21 -18 -26 5 -3 14 -5 8 -6 -17 -1 -30
-4 -36 -11 -25 -7 12 -10 8 -10 -15 0 -16 -3 -41 -7 -54 -6 -22 -8 -21 -24 20
-10 24 -19 60 -20 79 -1 19 -3 27 -6 17 -4 -15 -7 -16 -21 -5 -13 11 -13 9 2
-13 9 -15 16 -31 14 -35 -1 -5 6 -21 16 -36 10 -16 20 -52 22 -85 5 -62 3 -64
-14 -15 -9 25 -8 31 1 26 9 -5 9 -3 0 7 -7 7 -13 24 -14 38 0 22 -2 23 -8 7
-6 -17 -9 -16 -32 11 -14 17 -38 66 -53 109 -15 43 -49 138 -77 210 -41 109
-49 142 -49 197 0 37 3 67 8 67 4 0 25 -12 46 -26z m-143 -18 c-1 -4 14 -20
33 -37 22 -19 46 -57 66 -105 46 -111 46 -112 7 -75 -21 19 -37 32 -37 28 0
-4 -11 0 -25 9 -13 8 -29 13 -35 9 -6 -4 -9 -1 -8 7 2 7 -4 12 -12 10 -8 -2
-12 0 -8 3 4 4 2 17 -4 28 -11 21 -11 21 18 3 16 -10 40 -30 53 -45 23 -25 23
-25 7 -1 -9 14 -26 46 -38 72 -11 26 -24 45 -29 43 -4 -3 -4 8 1 24 4 16 6 32
4 35 -2 3 -1 4 2 2 3 -2 5 -7 5 -10z m1082 -148 c-2 -5 -1 -8 4 -8 4 0 16 -11
25 -24 17 -23 17 -24 -7 -22 -13 0 -21 3 -19 5 2 3 -7 17 -22 32 l-26 27 25
-2 c14 0 23 -4 20 -8z m47 -83 c0 -8 -2 -15 -4 -15 -2 0 -6 7 -10 15 -3 8 -1
15 4 15 6 0 10 -7 10 -15z m122 -149 c15 -33 27 -70 27 -81 0 -16 -5 -13 -32
17 -54 62 -75 93 -82 121 -4 14 -13 31 -20 37 -7 5 -10 21 -7 35 4 24 5 23 46
-21 22 -25 53 -74 68 -108z m-79 14 c10 -8 23 -22 28 -32 15 -27 -25 -11 -57
24 -25 26 -26 29 -9 26 11 -1 28 -10 38 -18z m-1293 -8 c0 -4 -18 -8 -40 -8
-22 -1 -40 2 -40 7 0 5 18 9 40 9 22 0 40 -3 40 -8z m103 -64 c-2 -5 -1 -8 4
-8 4 0 21 -16 37 -36 l29 -36 -26 17 c-15 9 -32 13 -39 9 -7 -4 -10 -3 -5 1 4
5 -4 21 -19 36 l-26 27 25 -2 c14 0 23 -4 20 -8z m242 -50 c5 4 5 2 2 -5 -4
-6 -4 -13 0 -15 20 -8 74 -82 69 -94 -3 -7 -1 -16 5 -19 11 -8 39 -72 39 -91
0 -11 -8 -10 -37 5 -69 35 -106 78 -117 132 -2 13 -5 29 -6 34 -1 6 -2 23 -1
38 1 24 4 26 20 18 10 -6 22 -7 26 -3z m411 -120 c4 -53 4 -53 -11 -23 -18 37
-21 105 -4 88 7 -7 13 -36 15 -65z m-670 12 c5 -5 47 -12 93 -14 46 -2 86 -8
90 -13 6 -10 38 -25 56 -28 6 0 9 -6 8 -13 -2 -7 4 -12 12 -12 8 0 15 -4 15
-10 0 -13 -6 -13 -31 0 -11 6 -25 7 -32 3 -6 -4 -21 -6 -32 -4 -30 4 -125 50
-125 60 0 5 -8 7 -19 4 -10 -3 -22 0 -25 6 -4 6 -27 11 -52 11 -28 0 -43 4
-39 10 8 13 68 13 81 0z m644 -21 c0 -6 -4 -7 -10 -4 -5 3 -10 11 -10 16 0 6
5 7 10 4 6 -3 10 -11 10 -16z m-663 -5 c-3 -3 -12 -4 -19 -1 -8 3 -5 6 6 6 11
1 17 -2 13 -5z m479 -111 c41 -45 61 -74 49 -70 -13 5 -9 -1 10 -15 16 -13 34
-23 40 -23 5 -1 9 -6 8 -12 -1 -6 4 -17 12 -23 29 -24 19 -131 -20 -227 l-36
-85 3 -204 c2 -111 1 -200 -2 -196 -3 4 -21 45 -39 92 -18 47 -36 94 -41 105
-53 120 -60 149 -60 255 0 69 5 122 15 149 14 40 11 76 -5 66 -4 -3 -13 2 -20
10 -7 8 -17 12 -23 8 -6 -3 -7 -1 -3 5 8 14 -28 74 -39 64 -5 -4 -5 -2 -2 4 4
6 -1 33 -9 58 -9 26 -14 50 -11 53 14 14 85 -78 106 -138 12 -35 27 -72 32
-81 12 -24 12 -48 -1 -28 -5 8 -10 11 -10 6 0 -6 9 -19 19 -30 20 -22 60 -112
68 -156 5 -28 10 -36 19 -28 3 4 -15 58 -40 122 -25 63 -46 121 -46 127 0 7 8
22 18 33 17 21 17 21 -5 2 -23 -19 -23 -19 -23 2 0 12 -4 22 -9 22 -12 0 -31
56 -31 91 0 27 1 28 28 17 15 -7 35 -18 45 -27 9 -8 20 -11 23 -8 3 3 -17 20
-45 37 -45 28 -51 36 -51 66 0 19 2 34 4 34 2 0 34 -35 72 -77z m-142 18 c-2
-3 -12 3 -22 13 -16 17 -16 18 5 5 12 -7 20 -15 17 -18z m46 -26 c6 -8 10 -20
8 -28 -2 -9 -11 -5 -26 15 -17 20 -20 28 -9 28 8 0 20 -7 27 -15z m-569 -237
c32 -41 47 -68 53 -99 2 -13 12 -44 21 -69 l16 -45 -30 35 c-17 19 -30 40 -31
46 0 17 -66 75 -75 67 -4 -5 -5 0 -2 9 7 18 -15 82 -25 73 -3 -3 -3 6 -1 19 5
23 7 24 27 11 11 -8 33 -29 47 -47z m583 47 c15 -11 17 -21 11 -52 l-7 -38
-19 50 c-10 28 -19 51 -19 53 0 6 17 0 34 -13z m-914 -121 c22 -20 39 -39 36
-41 -6 -7 -73 39 -85 59 -19 30 6 21 49 -18z m810 -94 c0 -5 -2 -10 -4 -10 -3
0 -8 5 -11 10 -3 6 -1 10 4 10 6 0 11 -4 11 -10z m70 -57 c18 -25 48 -84 67
-131 l33 -86 -52 58 c-29 33 -58 67 -64 78 -5 10 -14 15 -19 11 -4 -4 -5 -2
-1 5 8 14 -14 83 -24 77 -4 -3 -5 6 -3 20 7 32 24 23 63 -32z m-905 28 c17 -7
14 -9 -15 -13 -19 -3 -51 -3 -70 0 -28 4 -31 7 -15 13 26 10 74 10 100 0z
m-140 -11 c-3 -5 -12 -10 -18 -10 -7 0 -6 4 3 10 19 12 23 12 15 0z m337 -43
c31 -18 60 -39 63 -47 3 -8 3 -12 0 -8 -3 3 -21 2 -40 -2 -20 -5 -33 -4 -29 1
5 8 -10 13 -30 10 -4 -1 -28 10 -52 24 -24 14 -49 23 -54 20 -6 -4 -9 -1 -8 5
2 7 -8 14 -21 16 -14 3 -27 7 -30 11 -3 3 4 3 17 0 12 -3 22 0 22 5 0 20 102
-3 162 -35z m-29 -58 c7 0 3 -4 -8 -8 -11 -5 -36 -6 -55 -3 l-35 6 30 7 c17 3
36 5 43 3 8 -2 19 -4 25 -5z m137 -5 c0 -2 -7 -4 -15 -4 -8 0 -15 4 -15 10 0
5 7 7 15 4 8 -4 15 -8 15 -10z m111 -65 c53 -31 93 -48 101 -43 7 4 10 4 7 0
-3 -3 10 -24 30 -46 20 -21 49 -53 65 -72 16 -18 24 -26 17 -17 -8 12 -7 16 4
16 8 0 13 -3 10 -5 -3 -3 1 -12 8 -20 9 -13 9 -14 0 -8 -9 5 -13 -1 -13 -20 0
-27 0 -27 -22 -8 l-23 19 23 -26 c24 -27 29 -45 10 -33 -7 4 -8 3 -4 -4 10
-17 3 -15 -50 13 -67 36 -74 43 -75 84 -1 20 -3 28 -6 18 -4 -15 -7 -16 -21
-5 -12 9 -11 6 2 -10 11 -12 17 -24 14 -27 -8 -8 -68 28 -68 41 0 5 -16 27
-35 48 -19 21 -35 42 -35 45 0 12 -56 62 -62 55 -4 -3 8 -19 25 -35 l32 -29
-46 22 c-45 23 -61 46 -30 44 11 -1 15 7 14 27 -3 40 25 35 128 -24z m-148
-150 c17 -1 16 -3 -8 -10 -16 -5 -46 -6 -65 -2 l-35 7 30 7 c17 4 36 5 43 3 8
-2 23 -4 35 -5z m179 -35 c14 -8 37 -28 49 -45 l23 -32 -28 7 c-15 4 -39 19
-53 34 -14 15 -20 19 -13 9 21 -29 5 -30 -54 -2 -59 28 -74 41 -54 48 22 7
101 -5 130 -19z m228 -74 c0 -21 -4 -41 -9 -44 -5 -4 -7 4 -3 16 3 14 2 19 -7
14 -6 -4 -8 -12 -5 -18 5 -7 2 -8 -7 -4 -8 4 -4 -1 9 -12 18 -17 22 -30 21
-79 l0 -58 -27 34 c-15 19 -46 54 -69 79 -24 24 -43 46 -43 49 0 3 21 2 46 -2
54 -8 74 5 74 47 0 17 4 27 10 23 6 -3 10 -24 10 -45z m-80 -14 c0 -11 -62 10
-70 24 -9 17 -7 17 30 -1 22 -11 40 -21 40 -23z m143 -34 l44 -58 -48 25 c-43
23 -49 30 -49 59 0 17 2 32 4 32 3 0 24 -26 49 -58z m-406 32 c-3 -3 -12 -4
-19 -1 -8 3 -5 6 6 6 11 1 17 -2 13 -5z m220 -50 c19 -18 22 -24 10 -20 -10 3
-22 6 -25 6 -4 0 -13 9 -20 20 -17 28 2 25 35 -6z m202 -38 c34 -18 70 -45 79
-59 9 -14 50 -63 90 -109 135 -153 162 -186 162 -200 0 -13 68 -194 95 -253
28 -63 105 -273 105 -288 0 -9 11 -40 24 -69 33 -74 69 -175 58 -163 -34 38
-161 192 -180 218 -12 18 -35 43 -50 57 -15 14 -29 30 -32 35 -3 6 -9 9 -15 7
-5 -2 -7 0 -3 4 9 9 -34 63 -157 199 -77 85 -95 112 -119 175 -15 41 -29 82
-31 90 -2 8 -8 29 -15 45 -6 17 -12 32 -12 35 -1 3 -16 43 -35 90 -26 66 -33
99 -33 152 0 38 1 68 3 68 2 0 31 -15 66 -34z m-158 0 c0 -3 17 -24 37 -46 22
-24 50 -76 69 -123 40 -103 41 -111 2 -64 -17 20 -35 34 -41 31 -6 -4 -8 -3
-5 3 8 13 -37 75 -48 65 -5 -4 -5 -1 -1 6 9 14 -14 83 -25 76 -4 -2 -4 9 1 25
4 16 6 32 4 35 -2 3 -1 4 2 2 3 -2 5 -7 5 -10z m-286 -118 c5 4 5 1 1 -5 -4
-7 -3 -13 3 -13 5 0 20 -14 32 -31 l22 -32 -26 18 c-14 9 -32 13 -38 9 -7 -4
-9 -3 -5 4 3 6 2 13 -4 17 -5 3 -15 15 -21 26 -9 18 -8 19 9 10 11 -6 23 -7
27 -3z m295 -264 c0 -2 -7 -4 -15 -4 -8 0 -15 4 -15 10 0 5 7 7 15 4 8 -4 15
-8 15 -10z m118 -71 c41 -25 81 -46 89 -46 7 0 11 -2 8 -5 -2 -2 17 -27 43
-54 26 -27 55 -63 65 -79 11 -16 23 -29 28 -29 10 0 109 -117 109 -130 0 -10
-122 51 -150 74 -8 7 -46 28 -84 47 -38 19 -84 50 -102 69 -126 138 -144 161
-144 186 0 24 2 26 32 20 17 -3 65 -27 106 -53z m-120 -28 l47 -44 -42 20
c-23 11 -49 31 -58 45 -25 39 2 28 53 -21z m279 -231 c-3 -3 -12 -4 -19 -1 -8
3 -5 6 6 6 11 1 17 -2 13 -5z"/>
<path d="M990 4460 c0 -7 -9 -9 -22 -6 l-23 6 23 -12 c24 -12 55 3 33 16 -6 4
-11 2 -11 -4z"/>
<path d="M1630 6343 c0 -36 16 -45 29 -17 11 25 10 26 -4 14 -13 -11 -15 -10
-9 4 3 9 1 16 -5 16 -6 0 -11 -8 -11 -17z"/>
<path d="M2140 6354 c0 -6 9 -23 20 -37 25 -31 26 -44 3 -26 -10 7 -6 0 10
-17 24 -27 35 -54 22 -54 -14 0 -83 50 -98 71 l-18 24 12 -23 c10 -22 9 -23
-13 -17 -18 5 -20 4 -8 -4 8 -6 23 -11 33 -11 9 0 16 -5 15 -12 -2 -7 8 -14
22 -17 39 -9 88 -39 100 -61 12 -22 1 -27 -17 -9 -8 8 -16 8 -30 0 -14 -8 -15
-10 -2 -11 8 0 25 -10 37 -23 24 -25 29 -43 10 -31 -7 4 -2 -6 10 -23 21 -29
28 -53 17 -53 -11 0 -51 26 -85 55 -26 23 -30 24 -15 6 l20 -24 -30 7 c-22 5
-26 4 -15 -4 8 -5 26 -10 40 -10 20 0 22 -2 10 -10 -15 -10 -14 -11 28 -15 13
-1 28 -7 34 -13 8 -8 15 -7 24 3 12 11 11 19 -1 49 -26 63 -18 75 20 31 55
-64 40 -30 -19 43 -56 69 -95 151 -97 200 0 23 -2 24 -8 7 -8 -19 -8 -19 -19
0 -6 11 -12 15 -12 9z m110 -224 c0 -5 -2 -10 -4 -10 -3 0 -8 5 -11 10 -3 6
-1 10 4 10 6 0 11 -4 11 -10z"/>
<path d="M2570 6294 c0 -6 9 -19 20 -29 16 -14 17 -20 8 -27 -8 -4 -8 -8 -2
-8 6 0 11 -20 11 -45 0 -28 -4 -41 -9 -33 -5 9 -8 5 -8 -12 0 -14 -3 -36 -5
-50 -3 -14 4 -5 15 19 11 24 18 52 15 62 -3 9 -1 20 5 24 6 3 7 11 3 18 -4 6
-6 28 -4 49 1 23 -3 38 -10 38 -6 0 -9 -7 -5 -15 7 -20 -4 -19 -20 3 -7 9 -14
12 -14 6z"/>
<path d="M2159 6208 c12 -16 11 -18 -10 -19 -19 -1 -18 -3 10 -10 44 -13 47
-8 14 22 -15 13 -21 16 -14 7z"/>
<path d="M3161 6191 c-1 -24 -1 -24 -17 -5 -14 17 -14 16 0 -8 9 -16 14 -28
12 -28 -3 0 6 -21 19 -46 24 -45 35 -121 16 -109 -6 3 -7 -4 -4 -17 17 -66 14
-140 -7 -193 -12 -30 -25 -53 -29 -51 -3 2 -7 -9 -7 -25 -1 -16 2 -26 7 -23 5
3 9 12 9 20 0 8 8 14 18 14 9 0 24 5 32 10 11 8 8 9 -12 4 -29 -6 -40 9 -14
19 8 3 12 14 10 24 -2 10 4 30 13 44 10 15 30 44 44 65 15 22 38 50 53 63 14
14 26 29 26 35 0 6 -7 3 -14 -6 -14 -19 -26 -23 -26 -10 0 4 9 22 21 41 16 26
23 31 29 20 6 -8 4 -16 -3 -21 -8 -5 -9 -8 -1 -8 18 0 82 29 89 40 3 5 17 10
30 10 13 0 26 4 29 9 4 5 -4 7 -16 3 l-23 -5 20 24 20 24 -28 -24 c-15 -14
-27 -21 -27 -17 0 4 -14 -4 -31 -18 -27 -23 -49 -33 -49 -22 0 14 36 86 53
106 l22 25 -22 -18 c-21 -18 -21 -18 -26 5 -3 14 -5 8 -6 -17 -1 -30 -4 -36
-11 -25 -8 12 -10 10 -10 -10 0 -25 -16 -50 -31 -50 -4 0 -10 10 -12 23 -3 13
-5 7 -6 -16 -1 -26 -5 -36 -12 -31 -8 5 -10 -4 -7 -30 2 -20 1 -36 -2 -36 -4
0 -17 -20 -29 -45 -38 -75 -43 -67 -39 57 3 106 5 120 35 176 17 34 27 62 22
62 -5 0 -9 -8 -10 -17 -1 -12 -4 -10 -9 7 -7 22 -8 20 -9 -15 -1 -30 -4 -36
-11 -25 -7 11 -10 6 -11 -20 -1 -68 -13 -75 -32 -18 -9 29 -18 64 -20 78 l-4
25 -2 -24z m269 -135 c0 -2 -8 -10 -17 -17 -16 -13 -17 -12 -4 4 13 16 21 21
21 13z"/>
<path d="M670 6185 c0 -8 2 -15 4 -15 2 0 6 7 10 15 3 8 1 15 -4 15 -6 0 -10
-7 -10 -15z"/>
<path d="M570 6078 c0 -21 0 -21 -16 -2 -15 18 -15 18 -4 -3 17 -35 30 -37 30
-4 0 17 -2 31 -5 31 -3 0 -5 -10 -5 -22z"/>
<path d="M1341 6093 c0 -7 -8 -10 -18 -6 -15 5 -15 3 1 -9 12 -9 17 -21 13
-32 -4 -9 -2 -16 4 -16 6 0 8 -4 5 -9 -3 -5 2 -15 11 -22 15 -12 16 -12 8 6
-4 11 -11 38 -15 60 -4 22 -8 35 -9 28z"/>
<path d="M2530 6084 c0 -14 -2 -15 -17 -3 -17 13 -17 12 -2 -6 9 -11 14 -25
12 -32 -5 -14 14 -53 26 -53 5 0 7 9 4 20 -3 11 -9 18 -13 15 -5 -3 -6 13 -3
35 3 22 3 40 -1 40 -3 0 -6 -7 -6 -16z"/>
<path d="M3161 6081 c-1 -24 -1 -24 -17 -5 -14 18 -14 17 -3 -6 7 -14 14 -31
15 -38 3 -16 12 -27 18 -21 2 2 0 24 -4 49 -4 25 -8 34 -9 21z"/>
<path d="M1043 5995 c-9 -10 -7 -14 10 -19 27 -7 28 -5 14 15 -10 13 -15 14
-24 4z"/>
<path d="M2224 6003 c4 -8 2 -13 -6 -14 -7 0 -2 -5 11 -10 32 -13 36 -6 9 17
-12 10 -18 13 -14 7z"/>
<path d="M3625 5950 c-3 -5 -1 -10 4 -10 6 0 11 5 11 10 0 6 -2 10 -4 10 -3 0
-8 -4 -11 -10z"/>
<path d="M960 5905 c0 -8 4 -15 10 -15 5 0 7 7 4 15 -4 8 -8 15 -10 15 -2 0
-4 -7 -4 -15z"/>
<path d="M119 5898 c12 -16 11 -18 -10 -19 -18 -1 -15 -3 11 -9 19 -5 36 -7
37 -6 2 1 -9 13 -24 27 -15 13 -21 16 -14 7z"/>
<path d="M915 5851 l20 -24 -30 7 c-24 5 -26 4 -12 -5 10 -5 27 -9 38 -7 20 3
19 5 -7 28 -29 25 -29 25 -9 1z"/>
<path d="M489 5798 c12 -16 11 -18 -10 -19 -18 -1 -15 -3 11 -9 19 -5 36 -7
37 -6 2 1 -9 13 -24 27 -15 13 -21 16 -14 7z"/>
<path d="M46 5759 c19 -22 19 -22 -6 -15 -19 6 -21 5 -10 -3 18 -13 50 -14 50
-3 0 11 -34 42 -45 42 -4 0 0 -10 11 -21z"/>
<path d="M3645 5740 c-10 -11 -21 -17 -25 -15 -4 2 -16 -5 -26 -17 -19 -21
-19 -21 1 -13 11 4 32 10 48 13 15 2 30 8 33 13 3 5 -2 6 -10 3 -19 -7 -21 7
-4 24 7 7 10 12 7 12 -3 0 -14 -9 -24 -20z"/>
<path d="M76 5721 c-3 -5 4 -11 17 -14 12 -2 30 -8 40 -12 28 -12 19 9 -10 23
-32 14 -40 15 -47 3z"/>
<path d="M2150 5663 c0 -6 6 -14 13 -16 6 -3 1 -6 -13 -7 -21 -2 -19 -3 10
-10 19 -5 36 -7 37 -6 2 1 -8 13 -22 26 -14 13 -25 19 -25 13z"/>
<path d="M2811 5551 c-1 -24 -1 -24 -23 -5 l-23 19 23 -26 c24 -27 29 -45 10
-33 -7 4 -2 -7 11 -24 26 -38 35 -41 25 -9 -4 12 -11 40 -15 62 -4 24 -7 30
-8 16z"/>
<path d="M2011 5470 c-1 -22 -3 -23 -12 -7 -5 9 -15 17 -21 17 -6 0 -1 -11 12
-25 15 -16 19 -25 10 -25 -7 0 -10 -3 -6 -7 4 -5 10 -6 13 -3 2 3 11 -6 18
-20 9 -16 14 -19 15 -9 0 8 -4 19 -9 25 -5 5 -11 25 -14 44 -3 25 -4 28 -6 10z"/>
<path d="M298 5343 c7 -3 16 -2 19 1 4 3 -2 6 -13 5 -11 0 -14 -3 -6 -6z"/>
<path d="M501 5136 l-1 -28 -21 23 c-12 14 -10 9 5 -13 30 -42 33 -56 9 -37
-10 8 -5 -1 10 -20 26 -32 30 -58 5 -33 -7 7 -18 12 -26 12 -8 0 -28 14 -44
31 -24 25 -29 27 -23 10 4 -14 2 -21 -7 -22 -7 0 10 -9 37 -19 28 -10 46 -19
42 -19 -4 -1 -3 -10 4 -22 10 -19 9 -20 -13 -14 -18 5 -20 4 -8 -4 8 -6 23
-11 33 -11 9 0 16 -5 15 -12 -2 -7 13 -15 34 -18 42 -8 73 -31 94 -73 14 -27
14 -27 -8 -22 -13 3 -58 12 -102 20 -43 8 -94 23 -112 34 -19 11 -41 18 -51
14 -11 -4 -1 -11 33 -21 l49 -15 -35 -9 c-19 -5 -52 -8 -73 -6 -32 3 -35 2
-22 -8 15 -11 15 -13 -2 -23 -10 -6 -13 -11 -7 -11 6 0 17 7 24 15 7 8 20 15
29 15 14 0 14 -2 1 -10 -18 -12 -5 -13 18 -2 10 6 27 4 42 -4 l24 -13 -24 -10
c-16 -6 -19 -10 -9 -10 9 -1 22 6 29 14 7 8 20 15 29 15 10 0 12 -3 4 -8 -6
-4 11 -8 38 -9 27 -1 47 2 44 6 -3 5 -14 7 -25 4 -11 -3 -20 0 -20 6 0 7 -20
11 -49 11 -53 0 -82 19 -34 22 49 2 75 -3 90 -18 10 -9 20 -11 32 -5 25 14
106 -6 165 -41 28 -17 53 -33 56 -37 3 -3 12 -7 20 -9 12 -3 13 -1 3 9 -7 7
-14 27 -14 44 l-2 30 -4 -28 c-4 -28 -5 -28 -24 -11 -10 9 -19 14 -19 10 0 -4
-13 1 -30 11 -16 9 -30 21 -30 26 0 4 -22 32 -48 60 -80 86 -112 148 -126 237
-3 23 -3 23 -5 -4z m34 -124 c-2 -2 5 -12 16 -23 26 -26 24 -37 -5 -35 -13 0
-22 4 -20 8 2 4 0 9 -6 13 -5 3 -14 14 -19 23 -7 14 -5 17 14 17 13 0 22 -1
20 -3z"/>
<path d="M1995 5090 c3 -5 8 -10 11 -10 2 0 4 5 4 10 0 6 -5 10 -11 10 -5 0
-7 -4 -4 -10z"/>
<path d="M718 5068 c17 -17 15 -28 -5 -21 -13 4 -15 3 -8 -5 6 -6 20 -9 32 -6
21 6 21 6 2 25 -10 10 -22 19 -26 19 -4 0 -2 -5 5 -12z"/>
<path d="M1780 5050 c0 -5 5 -10 11 -10 5 0 7 5 4 10 -3 6 -8 10 -11 10 -2 0
-4 -4 -4 -10z"/>
<path d="M1765 5021 c3 -5 19 -9 35 -9 38 1 28 18 -11 18 -17 0 -28 -4 -24 -9z"/>
<path d="M339 4958 c12 -16 11 -18 -5 -19 -12 0 -8 -4 10 -10 40 -11 41 -7 9
22 -15 13 -21 16 -14 7z"/>
<path d="M1873 4846 c13 -17 8 -26 -15 -27 -17 -1 -15 -3 11 -10 42 -13 45 -9
18 22 -12 13 -19 20 -14 15z"/>
<path d="M620 4635 c0 -6 6 -17 13 -24 10 -11 8 -13 -12 -8 -16 4 -21 3 -14
-4 6 -6 20 -9 31 -7 21 3 21 3 2 28 -11 14 -20 20 -20 15z"/>
<path d="M960 4605 c0 -8 4 -15 10 -15 5 0 7 7 4 15 -4 8 -8 15 -10 15 -2 0
-4 -7 -4 -15z"/>
<path d="M1572 4515 c-2 -41 4 -39 29 10 10 19 9 19 -5 2 -14 -18 -15 -18 -19
5 -3 14 -5 7 -5 -17z"/>
<path d="M644 4458 c3 -13 6 -27 6 -32 0 -11 29 25 30 37 0 5 -4 5 -10 2 -5
-3 -10 -1 -10 4 0 6 -5 11 -11 11 -7 0 -9 -9 -5 -22z"/>
<path d="M790 4409 c15 -4 18 -7 8 -8 -9 -1 -20 -6 -24 -13 -5 -8 0 -9 17 -4
45 13 80 15 102 6 17 -7 18 -9 5 -9 -10 -1 -18 -6 -18 -12 0 -7 7 -8 18 -4 9
4 37 13 62 21 l45 13 -43 -3 c-23 -2 -45 0 -48 5 -2 4 -12 5 -21 2 -10 -4 -14
-2 -10 4 4 6 -17 10 -56 9 -42 0 -54 -2 -37 -7z"/>
<path d="M495 4063 c19 -15 19 -15 -8 -9 -19 5 -26 3 -22 -4 3 -5 20 -10 37
-10 30 0 31 0 13 20 -10 11 -23 20 -29 20 -6 0 -2 -8 9 -17z"/>
<path d="M1046 3838 c4 -13 1 -18 -12 -19 -12 0 -7 -4 10 -10 17 -4 31 -7 32
-6 2 1 -6 13 -17 27 -11 15 -17 18 -13 8z"/>
<path d="M595 3450 c-3 -6 1 -7 9 -4 18 7 21 14 7 14 -6 0 -13 -4 -16 -10z"/>
<path d="M346 3219 c19 -22 19 -22 -6 -15 -19 6 -21 5 -10 -3 18 -13 50 -14
50 -3 0 11 -34 42 -45 42 -4 0 0 -10 11 -21z"/>
<path d="M436 3099 c17 -7 17 -8 2 -8 -10 -1 -18 -6 -18 -12 0 -7 7 -8 18 -3
9 4 40 8 68 9 38 0 50 -3 47 -12 -3 -9 4 -13 20 -13 14 0 34 -3 44 -6 10 -3 0
5 -22 20 -24 15 -48 23 -59 20 -11 -4 -16 -2 -12 4 3 6 -16 9 -51 9 -35 0 -49
-3 -37 -8z"/>
<path d="M628 2887 c4 -16 2 -19 -12 -14 -10 4 -15 3 -11 -3 3 -6 15 -10 26
-10 13 0 18 -4 13 -12 -4 -6 -3 -8 4 -4 5 3 12 1 14 -5 2 -6 10 -10 19 -8 10
3 5 14 -22 40 -28 28 -35 32 -31 16z"/>
<path d="M705 2780 c-19 -8 -19 -9 3 -9 12 -1 22 4 22 9 0 6 -1 10 -2 9 -2 0
-12 -4 -23 -9z"/>
<path d="M816 2760 c-16 -5 -10 -9 27 -21 26 -7 47 -17 47 -21 0 -4 8 -9 18
-9 9 -1 -3 -5 -28 -9 -25 -5 -61 -7 -80 -4 -27 3 -30 2 -10 -4 l24 -8 -24 -17
c-13 -9 -20 -17 -15 -17 6 0 19 7 29 15 24 18 40 19 30 3 -6 -10 -5 -10 8 0 9
7 27 10 48 5 l33 -6 -22 -19 c-27 -21 -15 -24 13 -3 22 17 40 20 31 6 -3 -5 8
-3 25 5 39 20 38 28 -2 20 -18 -3 -46 -2 -63 3 l-30 9 27 1 c41 1 41 15 0 36
-20 10 -44 24 -52 31 -8 6 -24 8 -34 4z"/>
</g>
</svg>
