<?xml version="1.0" standalone="no"?>
<!DOCTYPE svg PUBLIC "-//W3C//DTD SVG 20010904//EN"
 "http://www.w3.org/TR/2001/REC-SVG-20010904/DTD/svg10.dtd">
<svg version="1.0" xmlns="http://www.w3.org/2000/svg"
 width="48.000000pt" height="48.000000pt" viewBox="0 0 48.000000 48.000000"
 preserveAspectRatio="xMidYMid meet">
<metadata>
Created by potrace 1.16, written by Peter Selinger 2001-2019
</metadata>
<g transform="translate(0.000000,48.000000) scale(0.100000,-0.100000)"
fill="#000000" stroke="none">
<path d="M147 436 c-132 -48 -164 -202 -63 -302 51 -52 115 -66 183 -42 l42
15 42 -43 c47 -48 82 -56 99 -24 9 17 4 28 -38 73 l-49 52 14 35 c32 77 -8
189 -79 223 -51 24 -108 29 -151 13z m111 -80 c26 -13 42 -37 56 -79 8 -25
-17 -81 -45 -101 -13 -9 -41 -16 -62 -16 -31 0 -46 7 -73 34 -47 47 -47 95 0
142 38 38 77 44 124 20z"/>
</g>
</svg>
